M48
;Layer_Color=9474304
;FILE_FORMAT=4:4
METRIC,LZ
;TYPE=PLATED
T1F00S00C0.5000
T2F00S00C0.6000
T3F00S00C0.7112
T4F00S00C0.7620
T5F00S00C0.8500
T6F00S00C0.9000
T7F00S00C0.9140
T8F00S00C1.1000
T9F00S00C1.2000
T10F00S00C1.2700
T11F00S00C1.2900
T12F00S00C1.3200
T14F00S00C1.9000
;TYPE=NON_PLATED
T15F00S00C1.1000
%
T01
X0078613Y0052832
X0077329Y00659593
X0076073Y0067437
X0078613
X0073533
X0072263Y006604
X0068453
X0067183Y0067437
X0070993Y007493
T02
X0020955Y0037719
X0022225
X0023495
X0065913Y0087838
T03
X004318Y0055372
X0059944Y0061087
T04
X0080772Y0040767
Y0043307
Y0045847
Y0048387
X0065532
Y0045847
Y0043307
Y0040767
Y0050927
Y0053467
Y0056007
Y0058547
Y0061087
Y0063627
X0080772
Y0061087
Y0058547
Y0056007
Y0053467
Y0050927
T05
X0051943Y0034544
Y0042164
X0031369Y0043942
Y0036322
X0038735Y0072009
X0046355
X0048387
X0056007
T06
X00200262Y00049618
X00225662
X00386952
X00412352
X00572372
X00597772
Y00292188
X00572372
X0041275Y002921
X0038735
X0006096Y0059944
Y0062484
Y0065024
Y0067564
Y0070104
Y0072644
Y0075184
Y0077724
T07
X0013716Y00497205
Y00522605
Y00548005
Y00573405
Y00598805
Y00624205
Y00649605
Y00675005
Y00700405
Y00725805
Y00751205
Y00776605
Y00802005
Y00827405
Y00852805
X0028956
Y00827405
Y00802005
Y00776605
Y00751205
Y00725805
Y00700405
Y00675005
Y00649605
Y00624205
Y00598805
Y00573405
Y00548005
Y00522605
Y00497205
T08
X0013335Y003683
Y003937
T09
X004049Y0047371
X005095
T10
X0046228Y0078486
X0048768
X0056007
X0058547
T11
X0038636Y0059944
T12
X0040636Y0053944
X0052836
Y0065944
T14
X0002286Y0001687
X0086286
Y0089408
X0002286
T15
X0010795Y003683
Y003937
M30
