M48
;Layer_Color=9474304
;FILE_FORMAT=4:3
METRIC,TZ
;TYPE=PLATED
T1F00S00C0.500
T2F00S00C0.600
T3F00S00C0.700
T4F00S00C0.711
T5F00S00C0.762
T6F00S00C0.850
T7F00S00C0.900
T8F00S00C0.914
T9F00S00C0.990
T10F00S00C1.270
T11F00S00C1.900
%
T01
X36068Y40386
X37973Y46736
Y49403
X30226Y49149
X28575Y49403
X26670Y49911
X26289Y47879
T02
X33414Y38338
T03
X65405Y15748
Y23368
X19304Y60960
X11684
T04
X56896Y37338
X37973Y36068
X30607Y34544
X11684Y57023
X49403Y48260
X46990Y44958
X83693Y53467
X87503Y61087
T05
X42037Y42164
Y57404
X44577
X47117
X49657
X52197
X54737
X57277
X59817
X62357
X64897
Y42164
X62357
X59817
X57277
X54737
X52197
X49657
X47117
X44577
T06
X44577Y34544
X52197
X102362Y44577
Y52197
X99822Y61087
X92202
T07
X94234Y30607
Y33147
Y35687
Y38227
Y40767
X51689Y29845
X49149
Y5588
X51689
X33147
X30607
X14478
X11938
X30647Y29836
X33187
X94234Y43307
Y45847
Y48387
T08
X88900Y23051
Y25590
Y28131
Y30670
Y33210
Y35750
Y38291
Y40831
X73660
Y38291
Y35750
Y33210
Y30670
Y28131
Y25590
Y23051
Y43370
Y45910
Y48451
Y50991
Y53530
Y56070
Y58611
X88900
Y56070
Y53530
Y50991
Y48451
Y45910
Y43370
T09
X4735Y36374
X9235
Y42874
X4735
Y48439
X9235
Y54939
X4735
T10
X102362Y33147
Y35687
X99949Y55118
Y57658
T11
X111159Y2135
X2159
Y64135
X111159
M30
