G04*
G04 #@! TF.GenerationSoftware,Altium Limited,Altium Designer,22.5.1 (42)*
G04*
G04 Layer_Color=16711935*
%FSLAX44Y44*%
%MOMM*%
G71*
G04*
G04 #@! TF.SameCoordinates,5DEC4AAC-4BA9-4C7F-9063-DFA826755F15*
G04*
G04*
G04 #@! TF.FilePolarity,Negative*
G04*
G01*
G75*
%ADD17C,1.7032*%
%ADD18R,1.7032X1.7032*%
%ADD19C,1.7012*%
%ADD20R,1.7012X1.7012*%
%ADD21C,1.6032*%
%ADD22C,1.7272*%
%ADD23C,1.4140*%
%ADD24R,1.4140X1.4140*%
%ADD25R,1.7032X1.7032*%
%ADD26C,1.9812*%
%ADD27C,1.2032*%
%ADD28C,1.4732*%
%ADD29C,1.1032*%
D17*
X331868Y298362D02*
D03*
X144780Y55880D02*
D03*
X331470D02*
D03*
X516890D02*
D03*
Y298450D02*
D03*
X942340Y458470D02*
D03*
Y433070D02*
D03*
Y407670D02*
D03*
Y382270D02*
D03*
Y356870D02*
D03*
Y331470D02*
D03*
Y306070D02*
D03*
D18*
X306468Y298362D02*
D03*
X119380Y55880D02*
D03*
X306070D02*
D03*
X491490D02*
D03*
Y298450D02*
D03*
D19*
X48620Y460490D02*
D03*
Y395490D02*
D03*
X93620D02*
D03*
Y516140D02*
D03*
X48620D02*
D03*
Y581140D02*
D03*
D20*
X93620Y460490D02*
D03*
Y581140D02*
D03*
D21*
X445770Y345440D02*
D03*
X521970D02*
D03*
X1023620Y521970D02*
D03*
Y445770D02*
D03*
X998220Y610870D02*
D03*
X922020D02*
D03*
D22*
X1111590Y21350D02*
D03*
Y641350D02*
D03*
X21590Y21350D02*
D03*
Y641350D02*
D03*
X420370Y574040D02*
D03*
X445770D02*
D03*
X471170D02*
D03*
X496570D02*
D03*
X521970D02*
D03*
X547370D02*
D03*
X572770D02*
D03*
X598170D02*
D03*
X623570D02*
D03*
X648970D02*
D03*
Y421640D02*
D03*
X623570D02*
D03*
X598170D02*
D03*
X572770D02*
D03*
X547370D02*
D03*
X521970D02*
D03*
X496570D02*
D03*
X471170D02*
D03*
X445770D02*
D03*
X420370D02*
D03*
D23*
X736600Y382905D02*
D03*
Y357505D02*
D03*
Y332105D02*
D03*
Y306705D02*
D03*
Y255905D02*
D03*
Y230505D02*
D03*
X889000D02*
D03*
X736600Y281305D02*
D03*
X889000Y509905D02*
D03*
Y586105D02*
D03*
Y560705D02*
D03*
Y535305D02*
D03*
Y484505D02*
D03*
Y459105D02*
D03*
Y433705D02*
D03*
Y408305D02*
D03*
Y382905D02*
D03*
Y357505D02*
D03*
Y332105D02*
D03*
Y306705D02*
D03*
Y281305D02*
D03*
Y255905D02*
D03*
X736600Y408305D02*
D03*
Y433705D02*
D03*
Y459105D02*
D03*
Y484505D02*
D03*
Y509905D02*
D03*
Y535305D02*
D03*
Y560705D02*
D03*
D24*
Y586105D02*
D03*
D25*
X942340Y483870D02*
D03*
D26*
X1023620Y356870D02*
D03*
Y331470D02*
D03*
X999490Y576580D02*
D03*
Y551180D02*
D03*
D27*
X334141Y383381D02*
D03*
D28*
X306070Y345440D02*
D03*
X379730Y360680D02*
D03*
X568960Y373380D02*
D03*
X119380Y614680D02*
D03*
X469900Y449580D02*
D03*
X836930Y534670D02*
D03*
X494030Y482600D02*
D03*
X875030Y610870D02*
D03*
D29*
X379730Y467360D02*
D03*
X360680Y403860D02*
D03*
X379730Y494030D02*
D03*
X266700Y499110D02*
D03*
X285750Y494030D02*
D03*
X302260Y491490D02*
D03*
X262890Y478790D02*
D03*
M02*
