G04*
G04 #@! TF.GenerationSoftware,Altium Limited,Altium Designer,22.5.1 (42)*
G04*
G04 Layer_Physical_Order=2*
G04 Layer_Color=16711680*
%FSLAX44Y44*%
%MOMM*%
G71*
G04*
G04 #@! TF.SameCoordinates,EAF0AC03-D26C-4CD7-8958-07DA66C51CBC*
G04*
G04*
G04 #@! TF.FilePolarity,Positive*
G04*
G01*
G75*
%ADD13C,0.2540*%
%ADD23C,1.4140*%
%ADD24R,1.4140X1.4140*%
%ADD30C,1.5000*%
%ADD31R,1.5000X1.5000*%
%ADD32C,1.4980*%
%ADD33R,1.4980X1.4980*%
%ADD34C,1.4000*%
%ADD35C,1.5240*%
%ADD36R,1.5000X1.5000*%
%ADD37C,1.7780*%
%ADD38C,1.0000*%
%ADD39C,1.2700*%
%ADD40C,0.9000*%
G36*
X1075690Y270510D02*
X30110D01*
X29214Y271410D01*
X31739Y845815D01*
X31750Y845820D01*
X110778D01*
X111413Y844720D01*
X111096Y844171D01*
X110490Y841910D01*
Y839570D01*
X111096Y837309D01*
X112266Y835281D01*
X113921Y833626D01*
X115495Y832718D01*
Y291980D01*
X109340D01*
Y271900D01*
X129420D01*
Y291980D01*
X123265D01*
Y832718D01*
X124839Y833626D01*
X126494Y835281D01*
X127664Y837309D01*
X128270Y839570D01*
Y841910D01*
X127664Y844171D01*
X127347Y844720D01*
X127982Y845820D01*
X870108Y845820D01*
X870448Y844550D01*
X869571Y844044D01*
X867916Y842389D01*
X866746Y840361D01*
X866140Y838100D01*
Y835760D01*
X866746Y833499D01*
X867916Y831471D01*
X869571Y829816D01*
X871145Y828907D01*
Y825204D01*
X740114Y694173D01*
X737865Y694775D01*
X735335D01*
X732891Y694120D01*
X730699Y692855D01*
X728910Y691066D01*
X727645Y688874D01*
X726990Y686430D01*
Y683900D01*
X727645Y681456D01*
X728910Y679264D01*
X730699Y677475D01*
X732891Y676210D01*
X735335Y675555D01*
X737865D01*
X740309Y676210D01*
X742501Y677475D01*
X744290Y679264D01*
X745555Y681456D01*
X746210Y683900D01*
Y686430D01*
X745608Y688679D01*
X877777Y820848D01*
X878619Y822108D01*
X878915Y823595D01*
Y828907D01*
X880489Y829816D01*
X882144Y831471D01*
X883314Y833499D01*
X883920Y835760D01*
Y838100D01*
X883314Y840361D01*
X882144Y842389D01*
X880489Y844044D01*
X879612Y844550D01*
X879952Y845820D01*
X915798D01*
X916147Y844615D01*
X916148Y844550D01*
X914386Y842788D01*
X913130Y840612D01*
X912480Y838186D01*
Y835674D01*
X913130Y833248D01*
X914386Y831072D01*
X916162Y829296D01*
X918338Y828040D01*
X920764Y827390D01*
X923276D01*
X925702Y828040D01*
X927878Y829296D01*
X929654Y831072D01*
X930910Y833248D01*
X931560Y835674D01*
Y838186D01*
X930910Y840612D01*
X929654Y842788D01*
X927892Y844550D01*
X927893Y844615D01*
X928242Y845820D01*
X991998D01*
X992347Y844615D01*
X992348Y844550D01*
X990586Y842788D01*
X989330Y840612D01*
X988680Y838186D01*
Y835674D01*
X989330Y833248D01*
X990586Y831072D01*
X992362Y829296D01*
X994538Y828040D01*
X996964Y827390D01*
X999476D01*
X1001902Y828040D01*
X1004078Y829296D01*
X1005854Y831072D01*
X1007110Y833248D01*
X1007760Y835674D01*
Y838186D01*
X1007110Y840612D01*
X1005854Y842788D01*
X1004092Y844550D01*
X1004093Y844615D01*
X1004442Y845820D01*
X1075690D01*
X1075690Y270510D01*
D02*
G37*
%LPC*%
G36*
X49941Y817230D02*
X49890D01*
Y808470D01*
X58650D01*
Y808521D01*
X57966Y811071D01*
X56646Y813359D01*
X54779Y815226D01*
X52491Y816546D01*
X49941Y817230D01*
D02*
G37*
G36*
X47350D02*
X47299D01*
X44749Y816546D01*
X42461Y815226D01*
X40594Y813359D01*
X39274Y811071D01*
X38590Y808521D01*
Y808470D01*
X47350D01*
Y817230D01*
D02*
G37*
G36*
X890265Y821775D02*
X887735D01*
X885291Y821120D01*
X883099Y819855D01*
X881310Y818066D01*
X880045Y815874D01*
X879390Y813430D01*
Y810900D01*
X880045Y808456D01*
X881310Y806264D01*
X883099Y804475D01*
X885291Y803210D01*
X887735Y802555D01*
X890265D01*
X892709Y803210D01*
X894901Y804475D01*
X896690Y806264D01*
X897955Y808456D01*
X898610Y810900D01*
Y813430D01*
X897955Y815874D01*
X896690Y818066D01*
X894901Y819855D01*
X892709Y821120D01*
X890265Y821775D01*
D02*
G37*
G36*
X746210D02*
X726990D01*
Y802555D01*
X746210D01*
Y821775D01*
D02*
G37*
G36*
X650308Y810260D02*
X650240D01*
Y801370D01*
X659130D01*
Y801438D01*
X658438Y804022D01*
X657100Y806338D01*
X655208Y808230D01*
X652892Y809568D01*
X650308Y810260D01*
D02*
G37*
G36*
X647700D02*
X647632D01*
X645048Y809568D01*
X642732Y808230D01*
X640840Y806338D01*
X639502Y804022D01*
X638810Y801438D01*
Y801370D01*
X647700D01*
Y810260D01*
D02*
G37*
G36*
X103650Y817230D02*
X83590D01*
Y797170D01*
X103650D01*
Y817230D01*
D02*
G37*
G36*
X58650Y805930D02*
X49890D01*
Y797170D01*
X49941D01*
X52491Y797853D01*
X54779Y799174D01*
X56646Y801041D01*
X57966Y803329D01*
X58650Y805880D01*
Y805930D01*
D02*
G37*
G36*
X47350D02*
X38590D01*
Y805880D01*
X39274Y803329D01*
X40594Y801041D01*
X42461Y799174D01*
X44749Y797853D01*
X47299Y797170D01*
X47350D01*
Y805930D01*
D02*
G37*
G36*
X1000995Y814070D02*
X997985D01*
X995078Y813291D01*
X992472Y811786D01*
X990344Y809658D01*
X988839Y807052D01*
X988060Y804145D01*
Y801135D01*
X988839Y798228D01*
X990344Y795622D01*
X992472Y793494D01*
X995078Y791989D01*
X997985Y791210D01*
X1000995D01*
X1003902Y791989D01*
X1006508Y793494D01*
X1008636Y795622D01*
X1010141Y798228D01*
X1010920Y801135D01*
Y804145D01*
X1010141Y807052D01*
X1008636Y809658D01*
X1006508Y811786D01*
X1003902Y813291D01*
X1000995Y814070D01*
D02*
G37*
G36*
X659130Y798830D02*
X650240D01*
Y789940D01*
X650308D01*
X652892Y790632D01*
X655208Y791970D01*
X657100Y793862D01*
X658438Y796178D01*
X659130Y798762D01*
Y798830D01*
D02*
G37*
G36*
X647700D02*
X638810D01*
Y798762D01*
X639502Y796178D01*
X640840Y793862D01*
X642732Y791970D01*
X645048Y790632D01*
X647632Y789940D01*
X647700D01*
Y798830D01*
D02*
G37*
G36*
X447108Y810260D02*
X444432D01*
X441848Y809568D01*
X439532Y808230D01*
X437640Y806338D01*
X436302Y804022D01*
X435610Y801438D01*
Y798762D01*
X436302Y796178D01*
X437640Y793862D01*
X439532Y791970D01*
X441848Y790632D01*
X444432Y789940D01*
X447108D01*
X449692Y790632D01*
X452008Y791970D01*
X453900Y793862D01*
X455238Y796178D01*
X455930Y798762D01*
Y801438D01*
X455238Y804022D01*
X453900Y806338D01*
X452008Y808230D01*
X449692Y809568D01*
X447108Y810260D01*
D02*
G37*
G36*
X421708D02*
X419032D01*
X416448Y809568D01*
X414132Y808230D01*
X412240Y806338D01*
X410902Y804022D01*
X410210Y801438D01*
Y798762D01*
X410902Y796178D01*
X412240Y793862D01*
X414132Y791970D01*
X416448Y790632D01*
X419032Y789940D01*
X421708D01*
X424292Y790632D01*
X426608Y791970D01*
X428500Y793862D01*
X429838Y796178D01*
X430530Y798762D01*
Y801438D01*
X429838Y804022D01*
X428500Y806338D01*
X426608Y808230D01*
X424292Y809568D01*
X421708Y810260D01*
D02*
G37*
G36*
X890270Y796374D02*
Y788035D01*
X898609D01*
X897955Y790474D01*
X896690Y792666D01*
X894901Y794455D01*
X892709Y795720D01*
X890270Y796374D01*
D02*
G37*
G36*
X887730D02*
X885291Y795720D01*
X883099Y794455D01*
X881310Y792666D01*
X880045Y790474D01*
X879391Y788035D01*
X887730D01*
Y796374D01*
D02*
G37*
G36*
X1000995Y788670D02*
X1000760D01*
Y778510D01*
X1010920D01*
Y778745D01*
X1010141Y781652D01*
X1008636Y784258D01*
X1006508Y786386D01*
X1003902Y787891D01*
X1000995Y788670D01*
D02*
G37*
G36*
X998220D02*
X997985D01*
X995078Y787891D01*
X992472Y786386D01*
X990344Y784258D01*
X988839Y781652D01*
X988060Y778745D01*
Y778510D01*
X998220D01*
Y788670D01*
D02*
G37*
G36*
X898609Y785495D02*
X890270D01*
Y777156D01*
X892709Y777810D01*
X894901Y779075D01*
X896690Y780864D01*
X897955Y783056D01*
X898609Y785495D01*
D02*
G37*
G36*
X887730D02*
X879391D01*
X880045Y783056D01*
X881310Y780864D01*
X883099Y779075D01*
X885291Y777810D01*
X887730Y777156D01*
Y785495D01*
D02*
G37*
G36*
X737865Y796375D02*
X735335D01*
X732891Y795720D01*
X730699Y794455D01*
X728910Y792666D01*
X727645Y790474D01*
X726990Y788030D01*
Y785500D01*
X727645Y783056D01*
X728910Y780864D01*
X730699Y779075D01*
X732891Y777810D01*
X735335Y777155D01*
X737865D01*
X740309Y777810D01*
X742501Y779075D01*
X744290Y780864D01*
X745555Y783056D01*
X746210Y785500D01*
Y788030D01*
X745555Y790474D01*
X744290Y792666D01*
X742501Y794455D01*
X740309Y795720D01*
X737865Y796375D01*
D02*
G37*
G36*
X1010920Y775970D02*
X1000760D01*
Y765810D01*
X1000995D01*
X1003902Y766589D01*
X1006508Y768094D01*
X1008636Y770222D01*
X1010141Y772828D01*
X1010920Y775735D01*
Y775970D01*
D02*
G37*
G36*
X998220D02*
X988060D01*
Y775735D01*
X988839Y772828D01*
X990344Y770222D01*
X992472Y768094D01*
X995078Y766589D01*
X997985Y765810D01*
X998220D01*
Y775970D01*
D02*
G37*
G36*
X890265Y770975D02*
X887735D01*
X885291Y770320D01*
X883099Y769055D01*
X881310Y767266D01*
X880045Y765074D01*
X879390Y762630D01*
Y760100D01*
X880045Y757656D01*
X881310Y755464D01*
X883099Y753675D01*
X885291Y752410D01*
X887735Y751755D01*
X890265D01*
X892709Y752410D01*
X894901Y753675D01*
X896690Y755464D01*
X897955Y757656D01*
X898610Y760100D01*
Y762630D01*
X897955Y765074D01*
X896690Y767266D01*
X894901Y769055D01*
X892709Y770320D01*
X890265Y770975D01*
D02*
G37*
G36*
X737865D02*
X735335D01*
X732891Y770320D01*
X730699Y769055D01*
X728910Y767266D01*
X727645Y765074D01*
X726990Y762630D01*
Y760100D01*
X727645Y757656D01*
X728910Y755464D01*
X730699Y753675D01*
X732891Y752410D01*
X735335Y751755D01*
X737865D01*
X740309Y752410D01*
X742501Y753675D01*
X744290Y755464D01*
X745555Y757656D01*
X746210Y760100D01*
Y762630D01*
X745555Y765074D01*
X744290Y767266D01*
X742501Y769055D01*
X740309Y770320D01*
X737865Y770975D01*
D02*
G37*
G36*
X1024876Y757570D02*
X1022364D01*
X1019938Y756920D01*
X1017762Y755664D01*
X1015986Y753888D01*
X1014730Y751712D01*
X1014080Y749286D01*
Y746774D01*
X1014730Y744348D01*
X1015986Y742172D01*
X1017762Y740396D01*
X1019938Y739140D01*
X1022364Y738490D01*
X1024876D01*
X1027302Y739140D01*
X1029478Y740396D01*
X1031254Y742172D01*
X1032510Y744348D01*
X1033160Y746774D01*
Y749286D01*
X1032510Y751712D01*
X1031254Y753888D01*
X1029478Y755664D01*
X1027302Y756920D01*
X1024876Y757570D01*
D02*
G37*
G36*
X737870Y745574D02*
Y737235D01*
X746209D01*
X745555Y739674D01*
X744290Y741866D01*
X742501Y743655D01*
X740309Y744920D01*
X737870Y745574D01*
D02*
G37*
G36*
X735330D02*
X732891Y744920D01*
X730699Y743655D01*
X728910Y741866D01*
X727645Y739674D01*
X726991Y737235D01*
X735330D01*
Y745574D01*
D02*
G37*
G36*
X94941Y752230D02*
X92299D01*
X89749Y751546D01*
X87461Y750226D01*
X85594Y748359D01*
X84274Y746071D01*
X83590Y743521D01*
Y740880D01*
X84274Y738328D01*
X85594Y736041D01*
X87461Y734174D01*
X89749Y732853D01*
X92299Y732170D01*
X94941D01*
X97491Y732853D01*
X99779Y734174D01*
X101646Y736041D01*
X102966Y738328D01*
X103650Y740880D01*
Y743521D01*
X102966Y746071D01*
X101646Y748359D01*
X99779Y750226D01*
X97491Y751546D01*
X94941Y752230D01*
D02*
G37*
G36*
X49941D02*
X47299D01*
X44749Y751546D01*
X42461Y750226D01*
X40594Y748359D01*
X39274Y746071D01*
X38590Y743521D01*
Y740880D01*
X39274Y738328D01*
X40594Y736041D01*
X42461Y734174D01*
X44749Y732853D01*
X47299Y732170D01*
X49941D01*
X52491Y732853D01*
X54779Y734174D01*
X56646Y736041D01*
X57966Y738328D01*
X58650Y740880D01*
Y743521D01*
X57966Y746071D01*
X56646Y748359D01*
X54779Y750226D01*
X52491Y751546D01*
X49941Y752230D01*
D02*
G37*
G36*
X746209Y734695D02*
X737870D01*
Y726356D01*
X740309Y727010D01*
X742501Y728275D01*
X744290Y730064D01*
X745555Y732256D01*
X746209Y734695D01*
D02*
G37*
G36*
X735330D02*
X726991D01*
X727645Y732256D01*
X728910Y730064D01*
X730699Y728275D01*
X732891Y727010D01*
X735330Y726356D01*
Y734695D01*
D02*
G37*
G36*
X890265Y745575D02*
X887735D01*
X885291Y744920D01*
X883099Y743655D01*
X881310Y741866D01*
X880045Y739674D01*
X879390Y737230D01*
Y734700D01*
X880045Y732256D01*
X881310Y730064D01*
X883099Y728275D01*
X885291Y727010D01*
X887735Y726355D01*
X890265D01*
X892709Y727010D01*
X894901Y728275D01*
X896690Y730064D01*
X897955Y732256D01*
X898610Y734700D01*
Y737230D01*
X897955Y739674D01*
X896690Y741866D01*
X894901Y743655D01*
X892709Y744920D01*
X890265Y745575D01*
D02*
G37*
G36*
Y720175D02*
X887735D01*
X885291Y719520D01*
X883099Y718255D01*
X881310Y716466D01*
X880045Y714274D01*
X879390Y711830D01*
Y709300D01*
X880045Y706856D01*
X881310Y704664D01*
X883099Y702875D01*
X885291Y701610D01*
X887735Y700955D01*
X890265D01*
X892709Y701610D01*
X894901Y702875D01*
X896690Y704664D01*
X897955Y706856D01*
X898610Y709300D01*
Y711830D01*
X897955Y714274D01*
X896690Y716466D01*
X894901Y718255D01*
X892709Y719520D01*
X890265Y720175D01*
D02*
G37*
G36*
X737865D02*
X735335D01*
X732891Y719520D01*
X730699Y718255D01*
X728910Y716466D01*
X727645Y714274D01*
X726990Y711830D01*
Y709300D01*
X727645Y706856D01*
X728910Y704664D01*
X730699Y702875D01*
X732891Y701610D01*
X735335Y700955D01*
X737865D01*
X740309Y701610D01*
X742501Y702875D01*
X744290Y704664D01*
X745555Y706856D01*
X746210Y709300D01*
Y711830D01*
X745555Y714274D01*
X744290Y716466D01*
X742501Y718255D01*
X740309Y719520D01*
X737865Y720175D01*
D02*
G37*
G36*
X952380Y719970D02*
X932300D01*
Y699890D01*
X952380D01*
Y719970D01*
D02*
G37*
G36*
X49941Y696580D02*
X49890D01*
Y687820D01*
X58650D01*
Y687870D01*
X57966Y690422D01*
X56646Y692709D01*
X54779Y694576D01*
X52491Y695897D01*
X49941Y696580D01*
D02*
G37*
G36*
X47350D02*
X47299D01*
X44749Y695897D01*
X42461Y694576D01*
X40594Y692709D01*
X39274Y690422D01*
X38590Y687870D01*
Y687820D01*
X47350D01*
Y696580D01*
D02*
G37*
G36*
X380657Y727130D02*
X378803D01*
X377013Y726650D01*
X375407Y725723D01*
X374097Y724413D01*
X373170Y722807D01*
X372690Y721017D01*
Y719163D01*
X373170Y717373D01*
X374097Y715767D01*
X375407Y714457D01*
X375845Y714204D01*
Y699306D01*
X375407Y699053D01*
X374097Y697743D01*
X373170Y696137D01*
X372690Y694347D01*
Y692493D01*
X373170Y690703D01*
X374097Y689097D01*
X375407Y687787D01*
X377013Y686860D01*
X378803Y686380D01*
X380657D01*
X382447Y686860D01*
X384053Y687787D01*
X385363Y689097D01*
X386290Y690703D01*
X386770Y692493D01*
Y694347D01*
X386290Y696137D01*
X385363Y697743D01*
X384053Y699053D01*
X383615Y699306D01*
Y714204D01*
X384053Y714457D01*
X385363Y715767D01*
X386290Y717373D01*
X386770Y719163D01*
Y721017D01*
X386290Y722807D01*
X385363Y724413D01*
X384053Y725723D01*
X382447Y726650D01*
X380657Y727130D01*
D02*
G37*
G36*
X103650Y696580D02*
X83590D01*
Y676520D01*
X103650D01*
Y696580D01*
D02*
G37*
G36*
X58650Y685280D02*
X49890D01*
Y676520D01*
X49941D01*
X52491Y677204D01*
X54779Y678524D01*
X56646Y680391D01*
X57966Y682679D01*
X58650Y685229D01*
Y685280D01*
D02*
G37*
G36*
X47350D02*
X38590D01*
Y685229D01*
X39274Y682679D01*
X40594Y680391D01*
X42461Y678524D01*
X44749Y677204D01*
X47299Y676520D01*
X47350D01*
Y685280D01*
D02*
G37*
G36*
X890265Y694775D02*
X887735D01*
X885291Y694120D01*
X883099Y692855D01*
X881310Y691066D01*
X880045Y688874D01*
X879390Y686430D01*
Y683900D01*
X880045Y681456D01*
X881310Y679264D01*
X883099Y677475D01*
X885291Y676210D01*
X887735Y675555D01*
X890265D01*
X892709Y676210D01*
X894901Y677475D01*
X896690Y679264D01*
X897955Y681456D01*
X898610Y683900D01*
Y686430D01*
X897955Y688874D01*
X896690Y691066D01*
X894901Y692855D01*
X892709Y694120D01*
X890265Y694775D01*
D02*
G37*
G36*
X943662Y694570D02*
X941018D01*
X938465Y693886D01*
X936175Y692564D01*
X934306Y690695D01*
X932984Y688405D01*
X932300Y685852D01*
Y683208D01*
X932984Y680655D01*
X934306Y678365D01*
X936175Y676496D01*
X938465Y675174D01*
X941018Y674490D01*
X943662D01*
X946215Y675174D01*
X948505Y676496D01*
X950374Y678365D01*
X951696Y680655D01*
X952380Y683208D01*
Y685852D01*
X951696Y688405D01*
X950374Y690695D01*
X948505Y692564D01*
X946215Y693886D01*
X943662Y694570D01*
D02*
G37*
G36*
X267627Y732210D02*
X265773D01*
X263983Y731730D01*
X262377Y730803D01*
X261067Y729493D01*
X260140Y727887D01*
X259660Y726097D01*
Y724243D01*
X260140Y722453D01*
X261067Y720847D01*
X262377Y719537D01*
X263983Y718610D01*
X265773Y718130D01*
X267627D01*
X268115Y718261D01*
X341423Y644953D01*
X342683Y644111D01*
X344170Y643815D01*
X410892D01*
X410902Y643778D01*
X412240Y641462D01*
X414132Y639570D01*
X416448Y638232D01*
X419032Y637540D01*
X421708D01*
X424292Y638232D01*
X426608Y639570D01*
X428500Y641462D01*
X429838Y643778D01*
X430530Y646362D01*
Y649038D01*
X429838Y651622D01*
X428500Y653938D01*
X428366Y654072D01*
X428852Y655245D01*
X437288D01*
X437774Y654072D01*
X437640Y653938D01*
X436302Y651622D01*
X435610Y649038D01*
Y646362D01*
X436302Y643778D01*
X437640Y641462D01*
X439532Y639570D01*
X441848Y638232D01*
X444432Y637540D01*
X447108D01*
X449692Y638232D01*
X452008Y639570D01*
X453900Y641462D01*
X455238Y643778D01*
X455930Y646362D01*
Y649038D01*
X455238Y651622D01*
X453900Y653938D01*
X453766Y654072D01*
X454252Y655245D01*
X462688D01*
X463174Y654072D01*
X463040Y653938D01*
X461702Y651622D01*
X461010Y649038D01*
Y646362D01*
X461702Y643778D01*
X463040Y641462D01*
X464932Y639570D01*
X467248Y638232D01*
X469832Y637540D01*
X472508D01*
X475092Y638232D01*
X477408Y639570D01*
X479300Y641462D01*
X480638Y643778D01*
X481330Y646362D01*
Y649038D01*
X480638Y651622D01*
X479300Y653938D01*
X479166Y654072D01*
X479652Y655245D01*
X483531D01*
X487122Y651655D01*
X487102Y651622D01*
X486410Y649038D01*
Y646362D01*
X487102Y643778D01*
X488440Y641462D01*
X490332Y639570D01*
X492648Y638232D01*
X495232Y637540D01*
X497908D01*
X500492Y638232D01*
X502808Y639570D01*
X504700Y641462D01*
X506038Y643778D01*
X506730Y646362D01*
Y649038D01*
X506038Y651622D01*
X504700Y653938D01*
X502808Y655830D01*
X500492Y657168D01*
X497908Y657860D01*
X495232D01*
X492648Y657168D01*
X492615Y657149D01*
X487887Y661877D01*
X486627Y662719D01*
X485140Y663015D01*
X349589D01*
X340865Y671739D01*
X341675Y672725D01*
X342683Y672051D01*
X344170Y671755D01*
X461878D01*
X462786Y670181D01*
X464441Y668526D01*
X466469Y667356D01*
X468730Y666750D01*
X471070D01*
X473331Y667356D01*
X475359Y668526D01*
X477014Y670181D01*
X478184Y672209D01*
X478790Y674470D01*
Y676810D01*
X478184Y679071D01*
X477014Y681099D01*
X475359Y682754D01*
X473331Y683924D01*
X471070Y684530D01*
X468730D01*
X466469Y683924D01*
X464441Y682754D01*
X462786Y681099D01*
X461878Y679525D01*
X345779D01*
X309169Y716135D01*
X309300Y716623D01*
Y718477D01*
X308820Y720267D01*
X307893Y721873D01*
X306583Y723183D01*
X304977Y724110D01*
X303187Y724590D01*
X301333D01*
X299543Y724110D01*
X297937Y723183D01*
X296627Y721873D01*
X295700Y720267D01*
X295368Y719031D01*
X294023Y718581D01*
X292790Y719814D01*
Y721017D01*
X292310Y722807D01*
X291383Y724413D01*
X290073Y725723D01*
X288467Y726650D01*
X286677Y727130D01*
X284823D01*
X283033Y726650D01*
X281427Y725723D01*
X280117Y724413D01*
X279190Y722807D01*
X278710Y721017D01*
Y720450D01*
X277440Y719924D01*
X273609Y723755D01*
X273740Y724243D01*
Y726097D01*
X273260Y727887D01*
X272333Y729493D01*
X271023Y730803D01*
X269417Y731730D01*
X267627Y732210D01*
D02*
G37*
G36*
X1024876Y681370D02*
X1022364D01*
X1019938Y680720D01*
X1017762Y679464D01*
X1015986Y677688D01*
X1014730Y675512D01*
X1014080Y673086D01*
Y670574D01*
X1014730Y668148D01*
X1015986Y665972D01*
X1017762Y664196D01*
X1019938Y662940D01*
X1022364Y662290D01*
X1024876D01*
X1027302Y662940D01*
X1029478Y664196D01*
X1031254Y665972D01*
X1032510Y668148D01*
X1033160Y670574D01*
Y673086D01*
X1032510Y675512D01*
X1031254Y677688D01*
X1029478Y679464D01*
X1027302Y680720D01*
X1024876Y681370D01*
D02*
G37*
G36*
X574108Y810260D02*
X571432D01*
X568848Y809568D01*
X566532Y808230D01*
X564640Y806338D01*
X563302Y804022D01*
X562610Y801438D01*
Y798762D01*
X563302Y796178D01*
X564640Y793862D01*
X566532Y791970D01*
X568848Y790632D01*
X571432Y789940D01*
X574108D01*
X576692Y790632D01*
X576725Y790651D01*
X657785Y709591D01*
Y655049D01*
X656515Y654523D01*
X655208Y655830D01*
X652892Y657168D01*
X650308Y657860D01*
X647632D01*
X645048Y657168D01*
X642732Y655830D01*
X642598Y655696D01*
X641425Y656182D01*
Y709930D01*
X641129Y711417D01*
X640287Y712677D01*
X556819Y796145D01*
X556838Y796178D01*
X557530Y798762D01*
Y801438D01*
X556838Y804022D01*
X555500Y806338D01*
X553608Y808230D01*
X551292Y809568D01*
X548708Y810260D01*
X546032D01*
X543448Y809568D01*
X541132Y808230D01*
X539240Y806338D01*
X537902Y804022D01*
X537210Y801438D01*
Y798762D01*
X537902Y796178D01*
X539240Y793862D01*
X541132Y791970D01*
X543448Y790632D01*
X546032Y789940D01*
X548708D01*
X551292Y790632D01*
X551325Y790651D01*
X633655Y708321D01*
Y653092D01*
X632385Y652751D01*
X631700Y653938D01*
X629808Y655830D01*
X627492Y657168D01*
X624908Y657860D01*
X622232D01*
X619648Y657168D01*
X617332Y655830D01*
X616025Y654523D01*
X614755Y655049D01*
Y711200D01*
X614459Y712687D01*
X613617Y713947D01*
X531418Y796145D01*
X531438Y796178D01*
X532130Y798762D01*
Y801438D01*
X531438Y804022D01*
X530100Y806338D01*
X528208Y808230D01*
X525892Y809568D01*
X523308Y810260D01*
X520632D01*
X518048Y809568D01*
X515732Y808230D01*
X513840Y806338D01*
X512502Y804022D01*
X511810Y801438D01*
Y798762D01*
X512502Y796178D01*
X513840Y793862D01*
X515732Y791970D01*
X518048Y790632D01*
X520632Y789940D01*
X523308D01*
X525892Y790632D01*
X525925Y790651D01*
X606985Y709591D01*
Y655049D01*
X605715Y654523D01*
X604408Y655830D01*
X602092Y657168D01*
X599508Y657860D01*
X596832D01*
X594248Y657168D01*
X591932Y655830D01*
X591798Y655696D01*
X590625Y656182D01*
Y709930D01*
X590329Y711417D01*
X589487Y712677D01*
X506018Y796145D01*
X506038Y796178D01*
X506730Y798762D01*
Y801438D01*
X506038Y804022D01*
X504700Y806338D01*
X502808Y808230D01*
X500492Y809568D01*
X497908Y810260D01*
X495232D01*
X492648Y809568D01*
X490332Y808230D01*
X488440Y806338D01*
X487102Y804022D01*
X486410Y801438D01*
Y798762D01*
X487102Y796178D01*
X488440Y793862D01*
X490332Y791970D01*
X492648Y790632D01*
X495232Y789940D01*
X497908D01*
X500492Y790632D01*
X500525Y790651D01*
X582855Y708321D01*
Y653092D01*
X581585Y652751D01*
X580900Y653938D01*
X579008Y655830D01*
X576692Y657168D01*
X574108Y657860D01*
X571432D01*
X568848Y657168D01*
X566532Y655830D01*
X565225Y654523D01*
X563955Y655049D01*
Y673029D01*
X564627Y673701D01*
X565469Y674961D01*
X565765Y676448D01*
Y709390D01*
X565469Y710877D01*
X564627Y712137D01*
X480619Y796145D01*
X480638Y796178D01*
X481330Y798762D01*
Y801438D01*
X480638Y804022D01*
X479300Y806338D01*
X477408Y808230D01*
X475092Y809568D01*
X472508Y810260D01*
X469832D01*
X467248Y809568D01*
X464932Y808230D01*
X463040Y806338D01*
X461702Y804022D01*
X461010Y801438D01*
Y798762D01*
X461702Y796178D01*
X463040Y793862D01*
X464932Y791970D01*
X467248Y790632D01*
X469832Y789940D01*
X472508D01*
X475092Y790632D01*
X475125Y790651D01*
X557995Y707781D01*
Y678057D01*
X557323Y677385D01*
X556481Y676124D01*
X556185Y674638D01*
Y655049D01*
X554915Y654523D01*
X553608Y655830D01*
X551292Y657168D01*
X548708Y657860D01*
X546032D01*
X543448Y657168D01*
X541132Y655830D01*
X539240Y653938D01*
X537902Y651622D01*
X537210Y649038D01*
Y646362D01*
X537902Y643778D01*
X537921Y643745D01*
X527981Y633805D01*
X366566D01*
X366313Y634243D01*
X365003Y635553D01*
X363397Y636480D01*
X361607Y636960D01*
X359753D01*
X357963Y636480D01*
X356357Y635553D01*
X355047Y634243D01*
X354120Y632637D01*
X353640Y630847D01*
Y628993D01*
X354120Y627203D01*
X355047Y625597D01*
X356357Y624287D01*
X357963Y623360D01*
X359753Y622880D01*
X361607D01*
X363397Y623360D01*
X365003Y624287D01*
X366313Y625597D01*
X366566Y626035D01*
X529590D01*
X531077Y626331D01*
X532337Y627173D01*
X543415Y638251D01*
X543448Y638232D01*
X546032Y637540D01*
X548708D01*
X551292Y638232D01*
X553608Y639570D01*
X554915Y640877D01*
X556185Y640351D01*
Y633095D01*
X556481Y631608D01*
X557323Y630348D01*
X727592Y460079D01*
X726990Y457830D01*
Y455300D01*
X727645Y452856D01*
X728910Y450664D01*
X730699Y448875D01*
X732891Y447610D01*
X735335Y446955D01*
X737865D01*
X740309Y447610D01*
X742501Y448875D01*
X744290Y450664D01*
X745555Y452856D01*
X746210Y455300D01*
Y457830D01*
X745555Y460274D01*
X744290Y462466D01*
X742501Y464255D01*
X740309Y465520D01*
X737865Y466175D01*
X735335D01*
X733086Y465573D01*
X563955Y634704D01*
Y640351D01*
X565225Y640877D01*
X566532Y639570D01*
X568848Y638232D01*
X571432Y637540D01*
X574108D01*
X576692Y638232D01*
X579008Y639570D01*
X580900Y641462D01*
X581585Y642649D01*
X582855Y642308D01*
Y631825D01*
X583151Y630338D01*
X583993Y629078D01*
X727592Y485479D01*
X726990Y483230D01*
Y480700D01*
X727645Y478256D01*
X728910Y476064D01*
X730699Y474275D01*
X732891Y473010D01*
X735335Y472355D01*
X737865D01*
X740309Y473010D01*
X742501Y474275D01*
X744290Y476064D01*
X745555Y478256D01*
X746210Y480700D01*
Y483230D01*
X745555Y485674D01*
X744290Y487866D01*
X742501Y489655D01*
X740309Y490920D01*
X737865Y491575D01*
X735335D01*
X733086Y490973D01*
X590625Y633434D01*
Y639218D01*
X591798Y639704D01*
X591932Y639570D01*
X594248Y638232D01*
X596832Y637540D01*
X599508D01*
X602092Y638232D01*
X604408Y639570D01*
X605715Y640877D01*
X606985Y640351D01*
Y633095D01*
X607281Y631608D01*
X608123Y630348D01*
X727592Y510879D01*
X726990Y508630D01*
Y506100D01*
X727645Y503656D01*
X728910Y501464D01*
X730699Y499675D01*
X732891Y498410D01*
X735335Y497755D01*
X737865D01*
X740309Y498410D01*
X742501Y499675D01*
X744290Y501464D01*
X745555Y503656D01*
X746210Y506100D01*
Y508630D01*
X745555Y511074D01*
X744290Y513266D01*
X742501Y515055D01*
X740309Y516320D01*
X737865Y516975D01*
X735335D01*
X733086Y516372D01*
X614755Y634704D01*
Y640351D01*
X616025Y640877D01*
X617332Y639570D01*
X619648Y638232D01*
X622232Y637540D01*
X624908D01*
X627492Y638232D01*
X629808Y639570D01*
X631700Y641462D01*
X632385Y642649D01*
X633655Y642308D01*
Y631825D01*
X633951Y630338D01*
X634793Y629078D01*
X727592Y536279D01*
X726990Y534030D01*
Y531500D01*
X727645Y529056D01*
X728910Y526864D01*
X730699Y525075D01*
X732891Y523810D01*
X735335Y523155D01*
X737865D01*
X740309Y523810D01*
X742501Y525075D01*
X744290Y526864D01*
X745555Y529056D01*
X746210Y531500D01*
Y534030D01*
X745555Y536474D01*
X744290Y538666D01*
X742501Y540455D01*
X740309Y541720D01*
X737865Y542375D01*
X735335D01*
X733086Y541772D01*
X641425Y633434D01*
Y639218D01*
X642598Y639704D01*
X642732Y639570D01*
X645048Y638232D01*
X647632Y637540D01*
X650308D01*
X652892Y638232D01*
X655208Y639570D01*
X656515Y640877D01*
X657785Y640351D01*
Y633095D01*
X658081Y631608D01*
X658923Y630348D01*
X727592Y561679D01*
X726990Y559430D01*
Y556900D01*
X727645Y554456D01*
X728910Y552264D01*
X730699Y550475D01*
X732891Y549210D01*
X735335Y548555D01*
X737865D01*
X740309Y549210D01*
X742501Y550475D01*
X744290Y552264D01*
X745555Y554456D01*
X746210Y556900D01*
Y559430D01*
X745555Y561874D01*
X744290Y564066D01*
X742501Y565855D01*
X740309Y567120D01*
X737865Y567775D01*
X735335D01*
X733086Y567173D01*
X665555Y634704D01*
Y711200D01*
X665259Y712687D01*
X664417Y713947D01*
X582219Y796145D01*
X582238Y796178D01*
X582930Y798762D01*
Y801438D01*
X582238Y804022D01*
X580900Y806338D01*
X579008Y808230D01*
X576692Y809568D01*
X574108Y810260D01*
D02*
G37*
G36*
X890265Y669375D02*
X887735D01*
X885291Y668720D01*
X883099Y667455D01*
X881310Y665666D01*
X880045Y663474D01*
X879390Y661030D01*
Y658500D01*
X880045Y656056D01*
X881310Y653864D01*
X883099Y652075D01*
X885291Y650810D01*
X887735Y650155D01*
X890265D01*
X892709Y650810D01*
X894901Y652075D01*
X896690Y653864D01*
X897955Y656056D01*
X898610Y658500D01*
Y661030D01*
X897955Y663474D01*
X896690Y665666D01*
X894901Y667455D01*
X892709Y668720D01*
X890265Y669375D01*
D02*
G37*
G36*
X737865D02*
X735335D01*
X732891Y668720D01*
X730699Y667455D01*
X728910Y665666D01*
X727645Y663474D01*
X726990Y661030D01*
Y658500D01*
X727645Y656056D01*
X728910Y653864D01*
X730699Y652075D01*
X732891Y650810D01*
X735335Y650155D01*
X737865D01*
X740309Y650810D01*
X742501Y652075D01*
X744290Y653864D01*
X745555Y656056D01*
X746210Y658500D01*
Y661030D01*
X745555Y663474D01*
X744290Y665666D01*
X742501Y667455D01*
X740309Y668720D01*
X737865Y669375D01*
D02*
G37*
G36*
X943662Y669170D02*
X941018D01*
X938465Y668486D01*
X936175Y667164D01*
X934306Y665295D01*
X932984Y663005D01*
X932300Y660452D01*
Y657808D01*
X932984Y655255D01*
X934306Y652965D01*
X936175Y651096D01*
X938465Y649774D01*
X941018Y649090D01*
X943662D01*
X946215Y649774D01*
X948505Y651096D01*
X950374Y652965D01*
X951696Y655255D01*
X952380Y657808D01*
Y660452D01*
X951696Y663005D01*
X950374Y665295D01*
X948505Y667164D01*
X946215Y668486D01*
X943662Y669170D01*
D02*
G37*
G36*
X495200Y717550D02*
X492860D01*
X490599Y716944D01*
X488571Y715774D01*
X486916Y714119D01*
X485746Y712091D01*
X485140Y709830D01*
Y707490D01*
X485746Y705229D01*
X486916Y703201D01*
X488571Y701546D01*
X490599Y700376D01*
X492860Y699770D01*
X495200D01*
X496956Y700240D01*
X518085Y679111D01*
Y657178D01*
X518048Y657168D01*
X515732Y655830D01*
X513840Y653938D01*
X512502Y651622D01*
X511810Y649038D01*
Y646362D01*
X512502Y643778D01*
X513840Y641462D01*
X515732Y639570D01*
X518048Y638232D01*
X520632Y637540D01*
X523308D01*
X525892Y638232D01*
X528208Y639570D01*
X530100Y641462D01*
X531438Y643778D01*
X532130Y646362D01*
Y649038D01*
X531438Y651622D01*
X530100Y653938D01*
X528208Y655830D01*
X525892Y657168D01*
X525855Y657178D01*
Y680720D01*
X525559Y682207D01*
X524717Y683467D01*
X502450Y705734D01*
X502920Y707490D01*
Y709830D01*
X502314Y712091D01*
X501144Y714119D01*
X499489Y715774D01*
X497461Y716944D01*
X495200Y717550D01*
D02*
G37*
G36*
X890265Y643975D02*
X887735D01*
X885291Y643320D01*
X883099Y642055D01*
X881310Y640266D01*
X880045Y638074D01*
X879390Y635630D01*
Y633100D01*
X880045Y630656D01*
X881310Y628464D01*
X883099Y626675D01*
X885291Y625410D01*
X887735Y624755D01*
X890265D01*
X892709Y625410D01*
X894901Y626675D01*
X896690Y628464D01*
X897955Y630656D01*
X898610Y633100D01*
Y635630D01*
X897955Y638074D01*
X896690Y640266D01*
X894901Y642055D01*
X892709Y643320D01*
X890265Y643975D01*
D02*
G37*
G36*
X737865D02*
X735335D01*
X732891Y643320D01*
X730699Y642055D01*
X728910Y640266D01*
X727645Y638074D01*
X726990Y635630D01*
Y633100D01*
X727645Y630656D01*
X728910Y628464D01*
X730699Y626675D01*
X732891Y625410D01*
X735335Y624755D01*
X737865D01*
X740309Y625410D01*
X742501Y626675D01*
X744290Y628464D01*
X745555Y630656D01*
X746210Y633100D01*
Y635630D01*
X745555Y638074D01*
X744290Y640266D01*
X742501Y642055D01*
X740309Y643320D01*
X737865Y643975D01*
D02*
G37*
G36*
X943662Y643770D02*
X941018D01*
X938465Y643086D01*
X936175Y641764D01*
X934306Y639895D01*
X932984Y637605D01*
X932300Y635052D01*
Y632408D01*
X932984Y629855D01*
X934306Y627565D01*
X936175Y625696D01*
X938465Y624374D01*
X941018Y623690D01*
X943662D01*
X946215Y624374D01*
X948505Y625696D01*
X950374Y627565D01*
X951696Y629855D01*
X952380Y632408D01*
Y635052D01*
X951696Y637605D01*
X950374Y639895D01*
X948505Y641764D01*
X946215Y643086D01*
X943662Y643770D01*
D02*
G37*
G36*
X94941Y631580D02*
X92299D01*
X89749Y630896D01*
X87461Y629576D01*
X85594Y627709D01*
X84274Y625421D01*
X83590Y622870D01*
Y620229D01*
X84274Y617678D01*
X85594Y615391D01*
X87461Y613524D01*
X89749Y612203D01*
X92299Y611520D01*
X94941D01*
X97491Y612203D01*
X99779Y613524D01*
X101646Y615391D01*
X102966Y617678D01*
X103650Y620229D01*
Y622870D01*
X102966Y625421D01*
X101646Y627709D01*
X99779Y629576D01*
X97491Y630896D01*
X94941Y631580D01*
D02*
G37*
G36*
X49941D02*
X47299D01*
X44749Y630896D01*
X42461Y629576D01*
X40594Y627709D01*
X39274Y625421D01*
X38590Y622870D01*
Y620229D01*
X39274Y617678D01*
X40594Y615391D01*
X42461Y613524D01*
X44749Y612203D01*
X47299Y611520D01*
X49941D01*
X52491Y612203D01*
X54779Y613524D01*
X56646Y615391D01*
X57966Y617678D01*
X58650Y620229D01*
Y622870D01*
X57966Y625421D01*
X56646Y627709D01*
X54779Y629576D01*
X52491Y630896D01*
X49941Y631580D01*
D02*
G37*
G36*
X335133Y616981D02*
X333148D01*
X331230Y616467D01*
X329511Y615475D01*
X328107Y614071D01*
X327114Y612351D01*
X326601Y610434D01*
Y608448D01*
X327114Y606531D01*
X328107Y604812D01*
X329511Y603408D01*
X331230Y602415D01*
X333148Y601901D01*
X335133D01*
X337051Y602415D01*
X338770Y603408D01*
X340174Y604812D01*
X341167Y606531D01*
X341680Y608448D01*
Y610434D01*
X341167Y612351D01*
X340174Y614071D01*
X338770Y615475D01*
X337051Y616467D01*
X335133Y616981D01*
D02*
G37*
G36*
X890265Y618575D02*
X887735D01*
X885291Y617920D01*
X883099Y616655D01*
X881310Y614866D01*
X880045Y612674D01*
X879390Y610230D01*
Y607700D01*
X880045Y605256D01*
X881310Y603064D01*
X883099Y601275D01*
X885291Y600010D01*
X887735Y599355D01*
X890265D01*
X892709Y600010D01*
X894901Y601275D01*
X896690Y603064D01*
X897955Y605256D01*
X898610Y607700D01*
Y610230D01*
X897955Y612674D01*
X896690Y614866D01*
X894901Y616655D01*
X892709Y617920D01*
X890265Y618575D01*
D02*
G37*
G36*
X624908Y810260D02*
X622232D01*
X619648Y809568D01*
X617332Y808230D01*
X615440Y806338D01*
X614102Y804022D01*
X613410Y801438D01*
Y798762D01*
X614102Y796178D01*
X615440Y793862D01*
X617332Y791970D01*
X619648Y790632D01*
X622232Y789940D01*
X624908D01*
X627492Y790632D01*
X627525Y790651D01*
X707315Y710861D01*
Y634365D01*
X707611Y632878D01*
X708453Y631618D01*
X727592Y612479D01*
X726990Y610230D01*
Y607700D01*
X727645Y605256D01*
X728910Y603064D01*
X730699Y601275D01*
X732891Y600010D01*
X735335Y599355D01*
X737865D01*
X740309Y600010D01*
X742501Y601275D01*
X744290Y603064D01*
X745555Y605256D01*
X746210Y607700D01*
Y610230D01*
X745555Y612674D01*
X744290Y614866D01*
X742501Y616655D01*
X740309Y617920D01*
X737865Y618575D01*
X735335D01*
X733086Y617972D01*
X715085Y635974D01*
Y712470D01*
X714789Y713957D01*
X713947Y715217D01*
X633018Y796145D01*
X633038Y796178D01*
X633730Y798762D01*
Y801438D01*
X633038Y804022D01*
X631700Y806338D01*
X629808Y808230D01*
X627492Y809568D01*
X624908Y810260D01*
D02*
G37*
G36*
X943662Y618370D02*
X941018D01*
X938465Y617686D01*
X936175Y616364D01*
X934306Y614495D01*
X932984Y612205D01*
X932300Y609652D01*
Y607008D01*
X932984Y604455D01*
X934306Y602165D01*
X936175Y600296D01*
X938465Y598974D01*
X941018Y598290D01*
X943662D01*
X946215Y598974D01*
X948505Y600296D01*
X950374Y602165D01*
X951696Y604455D01*
X952380Y607008D01*
Y609652D01*
X951696Y612205D01*
X950374Y614495D01*
X948505Y616364D01*
X946215Y617686D01*
X943662Y618370D01*
D02*
G37*
G36*
X263817Y711890D02*
X261963D01*
X260173Y711410D01*
X258567Y710483D01*
X257257Y709173D01*
X256330Y707567D01*
X255850Y705777D01*
Y703923D01*
X256330Y702133D01*
X257257Y700527D01*
X258567Y699217D01*
X260173Y698290D01*
X261963Y697810D01*
X263817D01*
X265307Y698209D01*
X366823Y596693D01*
X368083Y595851D01*
X369570Y595555D01*
X374679D01*
X375019Y594285D01*
X374271Y593854D01*
X372616Y592199D01*
X371446Y590171D01*
X370840Y587910D01*
Y585570D01*
X371446Y583309D01*
X372616Y581281D01*
X374271Y579626D01*
X375845Y578717D01*
Y576580D01*
X376141Y575093D01*
X376983Y573833D01*
X429053Y521763D01*
X430313Y520921D01*
X431800Y520625D01*
X481450D01*
Y514470D01*
X501530D01*
Y534550D01*
X481450D01*
Y528395D01*
X433409D01*
X384193Y577610D01*
X384362Y579149D01*
X385189Y579626D01*
X386844Y581281D01*
X388014Y583309D01*
X388620Y585570D01*
Y587910D01*
X388014Y590171D01*
X386844Y592199D01*
X385189Y593854D01*
X384441Y594285D01*
X384781Y595555D01*
X560938D01*
X561846Y593981D01*
X563501Y592326D01*
X565529Y591156D01*
X567790Y590550D01*
X570130D01*
X572391Y591156D01*
X574419Y592326D01*
X576074Y593981D01*
X577244Y596009D01*
X577850Y598270D01*
Y600610D01*
X577244Y602871D01*
X576074Y604899D01*
X574419Y606554D01*
X572391Y607724D01*
X570130Y608330D01*
X567790D01*
X565529Y607724D01*
X563501Y606554D01*
X561846Y604899D01*
X560938Y603325D01*
X371179D01*
X269930Y704574D01*
Y705777D01*
X269450Y707567D01*
X268523Y709173D01*
X267213Y710483D01*
X265607Y711410D01*
X263817Y711890D01*
D02*
G37*
G36*
X890265Y593175D02*
X887735D01*
X885291Y592520D01*
X883099Y591255D01*
X881310Y589466D01*
X880045Y587274D01*
X879390Y584830D01*
Y582300D01*
X880045Y579856D01*
X881310Y577664D01*
X883099Y575875D01*
X885291Y574610D01*
X887735Y573955D01*
X890265D01*
X892709Y574610D01*
X894901Y575875D01*
X896690Y577664D01*
X897955Y579856D01*
X898610Y582300D01*
Y584830D01*
X897955Y587274D01*
X896690Y589466D01*
X894901Y591255D01*
X892709Y592520D01*
X890265Y593175D01*
D02*
G37*
G36*
X599508Y810260D02*
X596832D01*
X594248Y809568D01*
X591932Y808230D01*
X590040Y806338D01*
X588702Y804022D01*
X588010Y801438D01*
Y798762D01*
X588702Y796178D01*
X590040Y793862D01*
X591932Y791970D01*
X594248Y790632D01*
X596832Y789940D01*
X599508D01*
X602092Y790632D01*
X602125Y790651D01*
X683185Y709591D01*
Y633095D01*
X683481Y631608D01*
X684323Y630348D01*
X727592Y587079D01*
X726990Y584830D01*
Y582300D01*
X727645Y579856D01*
X728910Y577664D01*
X730699Y575875D01*
X732891Y574610D01*
X735335Y573955D01*
X737865D01*
X740309Y574610D01*
X742501Y575875D01*
X744290Y577664D01*
X745555Y579856D01*
X746210Y582300D01*
Y584830D01*
X745555Y587274D01*
X744290Y589466D01*
X742501Y591255D01*
X740309Y592520D01*
X737865Y593175D01*
X735335D01*
X733086Y592573D01*
X690955Y634704D01*
Y711200D01*
X690659Y712687D01*
X689817Y713947D01*
X607618Y796145D01*
X607638Y796178D01*
X608330Y798762D01*
Y801438D01*
X607638Y804022D01*
X606300Y806338D01*
X604408Y808230D01*
X602092Y809568D01*
X599508Y810260D01*
D02*
G37*
G36*
X943662Y592970D02*
X941018D01*
X938465Y592286D01*
X936175Y590964D01*
X934306Y589095D01*
X932984Y586805D01*
X932300Y584252D01*
Y581608D01*
X932984Y579055D01*
X934306Y576765D01*
X936175Y574896D01*
X938465Y573574D01*
X941018Y572890D01*
X943662D01*
X946215Y573574D01*
X948505Y574896D01*
X950374Y576765D01*
X951696Y579055D01*
X952380Y581608D01*
Y584252D01*
X951696Y586805D01*
X950374Y589095D01*
X948505Y590964D01*
X946215Y592286D01*
X943662Y592970D01*
D02*
G37*
G36*
X1025125Y594360D02*
X1022115D01*
X1019208Y593581D01*
X1016602Y592076D01*
X1014474Y589948D01*
X1012969Y587342D01*
X1012190Y584435D01*
Y581425D01*
X1012969Y578518D01*
X1014474Y575912D01*
X1016602Y573784D01*
X1019208Y572279D01*
X1022115Y571500D01*
X1025125D01*
X1028032Y572279D01*
X1030638Y573784D01*
X1032766Y575912D01*
X1034271Y578518D01*
X1035050Y581425D01*
Y584435D01*
X1034271Y587342D01*
X1032766Y589948D01*
X1030638Y592076D01*
X1028032Y593581D01*
X1025125Y594360D01*
D02*
G37*
G36*
X523226Y581040D02*
X520714D01*
X518288Y580390D01*
X516112Y579134D01*
X514336Y577358D01*
X513080Y575182D01*
X512430Y572756D01*
Y570244D01*
X513080Y567818D01*
X514336Y565642D01*
X516112Y563866D01*
X518288Y562610D01*
X520714Y561960D01*
X523226D01*
X525652Y562610D01*
X527828Y563866D01*
X529604Y565642D01*
X530860Y567818D01*
X531510Y570244D01*
Y572756D01*
X530860Y575182D01*
X529604Y577358D01*
X527828Y579134D01*
X525652Y580390D01*
X523226Y581040D01*
D02*
G37*
G36*
X447026D02*
X444514D01*
X442088Y580390D01*
X439912Y579134D01*
X438136Y577358D01*
X436880Y575182D01*
X436230Y572756D01*
Y570244D01*
X436880Y567818D01*
X438136Y565642D01*
X439912Y563866D01*
X442088Y562610D01*
X444514Y561960D01*
X447026D01*
X449452Y562610D01*
X451628Y563866D01*
X453404Y565642D01*
X454660Y567818D01*
X455310Y570244D01*
Y572756D01*
X454660Y575182D01*
X453404Y577358D01*
X451628Y579134D01*
X449452Y580390D01*
X447026Y581040D01*
D02*
G37*
G36*
X1025125Y568960D02*
X1024890D01*
Y558800D01*
X1035050D01*
Y559035D01*
X1034271Y561942D01*
X1032766Y564548D01*
X1030638Y566676D01*
X1028032Y568181D01*
X1025125Y568960D01*
D02*
G37*
G36*
X1022350D02*
X1022115D01*
X1019208Y568181D01*
X1016602Y566676D01*
X1014474Y564548D01*
X1012969Y561942D01*
X1012190Y559035D01*
Y558800D01*
X1022350D01*
Y568960D01*
D02*
G37*
G36*
X890265Y567775D02*
X887735D01*
X885291Y567120D01*
X883099Y565855D01*
X881310Y564066D01*
X880045Y561874D01*
X879390Y559430D01*
Y556900D01*
X880045Y554456D01*
X881310Y552264D01*
X883099Y550475D01*
X885291Y549210D01*
X887735Y548555D01*
X890265D01*
X892709Y549210D01*
X894901Y550475D01*
X896690Y552264D01*
X897955Y554456D01*
X898610Y556900D01*
Y559430D01*
X897955Y561874D01*
X896690Y564066D01*
X894901Y565855D01*
X892709Y567120D01*
X890265Y567775D01*
D02*
G37*
G36*
X943662Y567570D02*
X941018D01*
X938465Y566886D01*
X936175Y565564D01*
X934306Y563695D01*
X932984Y561405D01*
X932300Y558852D01*
Y556208D01*
X932984Y553655D01*
X934306Y551365D01*
X936175Y549496D01*
X938465Y548174D01*
X941018Y547490D01*
X943662D01*
X946215Y548174D01*
X948505Y549496D01*
X950374Y551365D01*
X951696Y553655D01*
X952380Y556208D01*
Y558852D01*
X951696Y561405D01*
X950374Y563695D01*
X948505Y565564D01*
X946215Y566886D01*
X943662Y567570D01*
D02*
G37*
G36*
X1035050Y556260D02*
X1024890D01*
Y546100D01*
X1025125D01*
X1028032Y546879D01*
X1030638Y548384D01*
X1032766Y550512D01*
X1034271Y553118D01*
X1035050Y556025D01*
Y556260D01*
D02*
G37*
G36*
X1022350D02*
X1012190D01*
Y556025D01*
X1012969Y553118D01*
X1014474Y550512D01*
X1016602Y548384D01*
X1019208Y546879D01*
X1022115Y546100D01*
X1022350D01*
Y556260D01*
D02*
G37*
G36*
X518212Y534550D02*
X518160D01*
Y525780D01*
X526930D01*
Y525832D01*
X526246Y528385D01*
X524924Y530675D01*
X523055Y532544D01*
X520765Y533866D01*
X518212Y534550D01*
D02*
G37*
G36*
X515620D02*
X515568D01*
X513015Y533866D01*
X510725Y532544D01*
X508856Y530675D01*
X507534Y528385D01*
X506850Y525832D01*
Y525780D01*
X515620D01*
Y534550D01*
D02*
G37*
G36*
X333190Y534462D02*
X333138D01*
Y525692D01*
X341908D01*
Y525744D01*
X341224Y528297D01*
X339902Y530587D01*
X338033Y532456D01*
X335743Y533778D01*
X333190Y534462D01*
D02*
G37*
G36*
X330598D02*
X330546D01*
X327993Y533778D01*
X325703Y532456D01*
X323834Y530587D01*
X322512Y528297D01*
X321828Y525744D01*
Y525692D01*
X330598D01*
Y534462D01*
D02*
G37*
G36*
X890265Y542375D02*
X887735D01*
X885291Y541720D01*
X883099Y540455D01*
X881310Y538666D01*
X880045Y536474D01*
X879390Y534030D01*
Y531500D01*
X880045Y529056D01*
X881310Y526864D01*
X883099Y525075D01*
X885291Y523810D01*
X887735Y523155D01*
X890265D01*
X892709Y523810D01*
X894901Y525075D01*
X896690Y526864D01*
X897955Y529056D01*
X898610Y531500D01*
Y534030D01*
X897955Y536474D01*
X896690Y538666D01*
X894901Y540455D01*
X892709Y541720D01*
X890265Y542375D01*
D02*
G37*
G36*
X943662Y542170D02*
X941018D01*
X938465Y541486D01*
X936175Y540164D01*
X934306Y538295D01*
X932984Y536005D01*
X932300Y533452D01*
Y530808D01*
X932984Y528255D01*
X934306Y525965D01*
X936175Y524096D01*
X938465Y522774D01*
X941018Y522090D01*
X943662D01*
X946215Y522774D01*
X948505Y524096D01*
X950374Y525965D01*
X951696Y528255D01*
X952380Y530808D01*
Y533452D01*
X951696Y536005D01*
X950374Y538295D01*
X948505Y540164D01*
X946215Y541486D01*
X943662Y542170D01*
D02*
G37*
G36*
X526930Y523240D02*
X518160D01*
Y514470D01*
X518212D01*
X520765Y515154D01*
X523055Y516476D01*
X524924Y518345D01*
X526246Y520635D01*
X526930Y523188D01*
Y523240D01*
D02*
G37*
G36*
X515620D02*
X506850D01*
Y523188D01*
X507534Y520635D01*
X508856Y518345D01*
X510725Y516476D01*
X513015Y515154D01*
X515568Y514470D01*
X515620D01*
Y523240D01*
D02*
G37*
G36*
X341908Y523152D02*
X333138D01*
Y514382D01*
X333190D01*
X335743Y515066D01*
X338033Y516388D01*
X339902Y518257D01*
X341224Y520546D01*
X341908Y523100D01*
Y523152D01*
D02*
G37*
G36*
X330598D02*
X321828D01*
Y523100D01*
X322512Y520546D01*
X323834Y518257D01*
X325703Y516388D01*
X327993Y515066D01*
X330546Y514382D01*
X330598D01*
Y523152D01*
D02*
G37*
G36*
X307240Y580390D02*
X304900D01*
X302639Y579784D01*
X300611Y578614D01*
X298956Y576959D01*
X297786Y574931D01*
X297180Y572670D01*
Y570330D01*
X297786Y568069D01*
X298956Y566041D01*
X300611Y564386D01*
X302185Y563478D01*
Y534462D01*
X296428D01*
Y514382D01*
X316508D01*
Y534462D01*
X309955D01*
Y563478D01*
X311529Y564386D01*
X313184Y566041D01*
X314354Y568069D01*
X314960Y570330D01*
Y572670D01*
X314354Y574931D01*
X313184Y576959D01*
X311529Y578614D01*
X309501Y579784D01*
X307240Y580390D01*
D02*
G37*
G36*
X890265Y516975D02*
X887735D01*
X885291Y516320D01*
X883099Y515055D01*
X881310Y513266D01*
X880045Y511074D01*
X879390Y508630D01*
Y506100D01*
X880045Y503656D01*
X881310Y501464D01*
X883099Y499675D01*
X885291Y498410D01*
X887735Y497755D01*
X890265D01*
X892709Y498410D01*
X894901Y499675D01*
X896690Y501464D01*
X897955Y503656D01*
X898610Y506100D01*
Y508630D01*
X897955Y511074D01*
X896690Y513266D01*
X894901Y515055D01*
X892709Y516320D01*
X890265Y516975D01*
D02*
G37*
G36*
Y491575D02*
X887735D01*
X885291Y490920D01*
X883099Y489655D01*
X881310Y487866D01*
X880045Y485674D01*
X879390Y483230D01*
Y480700D01*
X880045Y478256D01*
X881310Y476064D01*
X883099Y474275D01*
X885291Y473010D01*
X887735Y472355D01*
X890265D01*
X892709Y473010D01*
X894901Y474275D01*
X896690Y476064D01*
X897955Y478256D01*
X898610Y480700D01*
Y483230D01*
X897955Y485674D01*
X896690Y487866D01*
X894901Y489655D01*
X892709Y490920D01*
X890265Y491575D01*
D02*
G37*
G36*
X838100Y769620D02*
X835760D01*
X833499Y769014D01*
X831471Y767844D01*
X829816Y766189D01*
X828646Y764161D01*
X828040Y761900D01*
Y759560D01*
X828646Y757299D01*
X829816Y755271D01*
X831471Y753616D01*
X833045Y752708D01*
Y508635D01*
X833341Y507148D01*
X834183Y505888D01*
X879993Y460079D01*
X879390Y457830D01*
Y455300D01*
X880045Y452856D01*
X881310Y450664D01*
X883099Y448875D01*
X885291Y447610D01*
X887735Y446955D01*
X890265D01*
X892709Y447610D01*
X894901Y448875D01*
X896690Y450664D01*
X897955Y452856D01*
X898610Y455300D01*
Y457830D01*
X897955Y460274D01*
X896690Y462466D01*
X894901Y464255D01*
X892709Y465520D01*
X890265Y466175D01*
X887735D01*
X885486Y465573D01*
X840815Y510244D01*
Y752708D01*
X842389Y753616D01*
X844044Y755271D01*
X845214Y757299D01*
X845820Y759560D01*
Y761900D01*
X845214Y764161D01*
X844044Y766189D01*
X842389Y767844D01*
X840361Y769014D01*
X838100Y769620D01*
D02*
G37*
G36*
X332792Y291980D02*
X332740D01*
Y283210D01*
X341510D01*
Y283262D01*
X340826Y285815D01*
X339504Y288105D01*
X337635Y289974D01*
X335345Y291296D01*
X332792Y291980D01*
D02*
G37*
G36*
X330200D02*
X330148D01*
X327595Y291296D01*
X325305Y289974D01*
X323436Y288105D01*
X322114Y285815D01*
X321430Y283262D01*
Y283210D01*
X330200D01*
Y291980D01*
D02*
G37*
G36*
X146102D02*
X146050D01*
Y283210D01*
X154820D01*
Y283262D01*
X154136Y285815D01*
X152814Y288105D01*
X150945Y289974D01*
X148655Y291296D01*
X146102Y291980D01*
D02*
G37*
G36*
X143510D02*
X143458D01*
X140905Y291296D01*
X138615Y289974D01*
X136746Y288105D01*
X135424Y285815D01*
X134740Y283262D01*
Y283210D01*
X143510D01*
Y291980D01*
D02*
G37*
G36*
X518212D02*
X515568D01*
X513015Y291296D01*
X510725Y289974D01*
X508856Y288105D01*
X507534Y285815D01*
X506850Y283262D01*
Y280618D01*
X507534Y278065D01*
X508856Y275775D01*
X510725Y273906D01*
X513015Y272584D01*
X515568Y271900D01*
X518212D01*
X520765Y272584D01*
X523055Y273906D01*
X524924Y275775D01*
X526246Y278065D01*
X526930Y280618D01*
Y283262D01*
X526246Y285815D01*
X524924Y288105D01*
X523055Y289974D01*
X520765Y291296D01*
X518212Y291980D01*
D02*
G37*
G36*
X501530D02*
X481450D01*
Y271900D01*
X501530D01*
Y291980D01*
D02*
G37*
G36*
X341510Y280670D02*
X332740D01*
Y271900D01*
X332792D01*
X335345Y272584D01*
X337635Y273906D01*
X339504Y275775D01*
X340826Y278065D01*
X341510Y280618D01*
Y280670D01*
D02*
G37*
G36*
X330200D02*
X321430D01*
Y280618D01*
X322114Y278065D01*
X323436Y275775D01*
X325305Y273906D01*
X327595Y272584D01*
X330148Y271900D01*
X330200D01*
Y280670D01*
D02*
G37*
G36*
X316110Y291980D02*
X296030D01*
Y271900D01*
X316110D01*
Y291980D01*
D02*
G37*
G36*
X154820Y280670D02*
X146050D01*
Y271900D01*
X146102D01*
X148655Y272584D01*
X150945Y273906D01*
X152814Y275775D01*
X154136Y278065D01*
X154820Y280618D01*
Y280670D01*
D02*
G37*
G36*
X143510D02*
X134740D01*
Y280618D01*
X135424Y278065D01*
X136746Y275775D01*
X138615Y273906D01*
X140905Y272584D01*
X143458Y271900D01*
X143510D01*
Y280670D01*
D02*
G37*
%LPD*%
G36*
X345233Y656383D02*
X346493Y655541D01*
X347980Y655245D01*
X411888D01*
X412374Y654072D01*
X412240Y653938D01*
X410902Y651622D01*
X410892Y651585D01*
X345779D01*
X285584Y711780D01*
X286110Y713050D01*
X286677D01*
X288167Y713449D01*
X345233Y656383D01*
D02*
G37*
D13*
X306070Y524820D02*
Y571500D01*
Y524820D02*
X306468Y524422D01*
X379730Y576580D02*
Y586740D01*
Y576580D02*
X431800Y524510D01*
X369570Y599440D02*
X568960D01*
X264160Y704850D02*
X369570Y599440D01*
X431800Y524510D02*
X491490D01*
X119380Y281940D02*
Y840740D01*
X379730Y693420D02*
Y720090D01*
X344170Y675640D02*
X469900D01*
X302260Y717550D02*
X344170Y675640D01*
X444500Y570230D02*
X445770Y571500D01*
X637540Y631825D02*
X736600Y532765D01*
X547370Y800100D02*
X637540Y709930D01*
Y631825D02*
Y709930D01*
X496570Y800100D02*
X586740Y709930D01*
Y631825D02*
Y709930D01*
Y631825D02*
X736600Y481965D01*
X521970Y800100D02*
X610870Y711200D01*
Y633095D02*
Y711200D01*
Y633095D02*
X736600Y507365D01*
X560070Y633095D02*
X736600Y456565D01*
X560070Y633095D02*
Y674638D01*
X561880Y676448D01*
Y709390D01*
X347980Y659130D02*
X485140D01*
X496570Y647700D01*
X529590Y629920D02*
X547370Y647700D01*
X360680Y629920D02*
X529590D01*
X836930Y508635D02*
Y760730D01*
X736600Y685165D02*
X875030Y823595D01*
Y836930D01*
X836930Y508635D02*
X889000Y456565D01*
X661670Y633095D02*
X736600Y558165D01*
X661670Y633095D02*
Y711200D01*
X572770Y800100D02*
X661670Y711200D01*
X471170Y800100D02*
X561880Y709390D01*
X687070Y633095D02*
Y711200D01*
X598170Y800100D02*
X687070Y711200D01*
X623570Y800100D02*
X711200Y712470D01*
Y634365D02*
Y712470D01*
X287020Y720090D02*
X347980Y659130D01*
X266700Y725170D02*
X344170Y647700D01*
X420370D01*
X285750Y720090D02*
X287020D01*
X262890Y704850D02*
X264160D01*
X711200Y634365D02*
X736600Y608965D01*
X494030Y708660D02*
X521970Y680720D01*
Y647700D02*
Y680720D01*
X687070Y633095D02*
X736600Y583565D01*
Y634365D02*
X737955Y633010D01*
D23*
X736600Y608965D02*
D03*
Y583565D02*
D03*
Y558165D02*
D03*
Y532765D02*
D03*
Y481965D02*
D03*
Y456565D02*
D03*
X889000D02*
D03*
X736600Y507365D02*
D03*
X889000Y735965D02*
D03*
Y812165D02*
D03*
Y786765D02*
D03*
Y761365D02*
D03*
Y710565D02*
D03*
Y685165D02*
D03*
Y659765D02*
D03*
Y634365D02*
D03*
Y608965D02*
D03*
Y583565D02*
D03*
Y558165D02*
D03*
Y532765D02*
D03*
Y507365D02*
D03*
Y481965D02*
D03*
X736600Y634365D02*
D03*
Y659765D02*
D03*
Y685165D02*
D03*
Y710565D02*
D03*
Y735965D02*
D03*
Y761365D02*
D03*
Y786765D02*
D03*
D24*
Y812165D02*
D03*
D30*
X331868Y524422D02*
D03*
X144780Y281940D02*
D03*
X331470D02*
D03*
X516890D02*
D03*
Y524510D02*
D03*
X942340Y684530D02*
D03*
Y659130D02*
D03*
Y633730D02*
D03*
Y608330D02*
D03*
Y582930D02*
D03*
Y557530D02*
D03*
Y532130D02*
D03*
D31*
X306468Y524422D02*
D03*
X119380Y281940D02*
D03*
X306070D02*
D03*
X491490D02*
D03*
Y524510D02*
D03*
D32*
X48620Y686550D02*
D03*
Y621550D02*
D03*
X93620D02*
D03*
Y742200D02*
D03*
X48620D02*
D03*
Y807200D02*
D03*
D33*
X93620Y686550D02*
D03*
Y807200D02*
D03*
D34*
X445770Y571500D02*
D03*
X521970D02*
D03*
X1023620Y748030D02*
D03*
Y671830D02*
D03*
X998220Y836930D02*
D03*
X922020D02*
D03*
D35*
X1111590Y247410D02*
D03*
Y867410D02*
D03*
X21590Y247410D02*
D03*
Y867410D02*
D03*
X420370Y800100D02*
D03*
X445770D02*
D03*
X471170D02*
D03*
X496570D02*
D03*
X521970D02*
D03*
X547370D02*
D03*
X572770D02*
D03*
X598170D02*
D03*
X623570D02*
D03*
X648970D02*
D03*
Y647700D02*
D03*
X623570D02*
D03*
X598170D02*
D03*
X572770D02*
D03*
X547370D02*
D03*
X521970D02*
D03*
X496570D02*
D03*
X471170D02*
D03*
X445770D02*
D03*
X420370D02*
D03*
D36*
X942340Y709930D02*
D03*
D37*
X1023620Y582930D02*
D03*
Y557530D02*
D03*
X999490Y802640D02*
D03*
Y777240D02*
D03*
D38*
X334141Y609441D02*
D03*
D39*
X306070Y571500D02*
D03*
X379730Y586740D02*
D03*
X568960Y599440D02*
D03*
X119380Y840740D02*
D03*
X469900Y675640D02*
D03*
X836930Y760730D02*
D03*
X494030Y708660D02*
D03*
X875030Y836930D02*
D03*
D40*
X379730Y693420D02*
D03*
X360680Y629920D02*
D03*
X379730Y720090D02*
D03*
X266700Y725170D02*
D03*
X285750Y720090D02*
D03*
X302260Y717550D02*
D03*
X262890Y704850D02*
D03*
M02*
