G04*
G04 #@! TF.GenerationSoftware,Altium Limited,Altium Designer,22.5.1 (42)*
G04*
G04 Layer_Color=32896*
%FSLAX44Y44*%
%MOMM*%
G71*
G04*
G04 #@! TF.SameCoordinates,EAF0AC03-D26C-4CD7-8958-07DA66C51CBC*
G04*
G04*
G04 #@! TF.FilePolarity,Positive*
G04*
G01*
G75*
%ADD11C,0.2000*%
G36*
X817819Y625759D02*
Y625748D01*
Y625715D01*
Y625666D01*
X817813Y625601D01*
Y625519D01*
X817808Y625426D01*
X817802Y625322D01*
X817791Y625207D01*
X817780Y625087D01*
X817764Y624962D01*
X817726Y624711D01*
X817671Y624459D01*
X817638Y624339D01*
X817600Y624230D01*
Y624225D01*
X817589Y624203D01*
X817578Y624175D01*
X817557Y624137D01*
X817535Y624088D01*
X817502Y624033D01*
X817464Y623968D01*
X817420Y623902D01*
X817371Y623831D01*
X817311Y623755D01*
X817251Y623678D01*
X817174Y623602D01*
X817098Y623526D01*
X817010Y623449D01*
X816918Y623378D01*
X816814Y623307D01*
X816808Y623302D01*
X816786Y623291D01*
X816754Y623274D01*
X816710Y623252D01*
X816656Y623225D01*
X816584Y623198D01*
X816508Y623165D01*
X816415Y623132D01*
X816311Y623100D01*
X816202Y623067D01*
X816077Y623040D01*
X815946Y623012D01*
X815804Y622990D01*
X815651Y622974D01*
X815492Y622963D01*
X815323Y622958D01*
X815236D01*
X815175Y622963D01*
X815099Y622968D01*
X815012Y622974D01*
X814913Y622985D01*
X814804Y622996D01*
X814689Y623012D01*
X814569Y623034D01*
X814324Y623089D01*
X814203Y623121D01*
X814083Y623165D01*
X813963Y623209D01*
X813854Y623263D01*
X813848Y623269D01*
X813827Y623280D01*
X813799Y623296D01*
X813761Y623323D01*
X813717Y623356D01*
X813663Y623394D01*
X813603Y623438D01*
X813537Y623493D01*
X813472Y623553D01*
X813406Y623618D01*
X813341Y623695D01*
X813270Y623771D01*
X813204Y623859D01*
X813144Y623951D01*
X813089Y624055D01*
X813040Y624159D01*
Y624164D01*
X813029Y624186D01*
X813018Y624219D01*
X813002Y624268D01*
X812986Y624328D01*
X812964Y624399D01*
X812942Y624481D01*
X812920Y624580D01*
X812898Y624689D01*
X812877Y624809D01*
X812855Y624940D01*
X812838Y625082D01*
X812822Y625235D01*
X812811Y625399D01*
X812805Y625573D01*
X812800Y625759D01*
Y629451D01*
X813646D01*
Y625765D01*
Y625754D01*
Y625726D01*
Y625688D01*
Y625628D01*
X813652Y625563D01*
X813657Y625480D01*
Y625393D01*
X813668Y625300D01*
X813685Y625104D01*
X813712Y624896D01*
X813728Y624798D01*
X813750Y624705D01*
X813772Y624618D01*
X813799Y624541D01*
Y624536D01*
X813805Y624525D01*
X813816Y624503D01*
X813827Y624476D01*
X813848Y624443D01*
X813870Y624405D01*
X813925Y624317D01*
X813996Y624219D01*
X814089Y624121D01*
X814198Y624022D01*
X814329Y623935D01*
X814334D01*
X814345Y623924D01*
X814367Y623913D01*
X814395Y623902D01*
X814433Y623886D01*
X814476Y623870D01*
X814526Y623848D01*
X814586Y623831D01*
X814651Y623810D01*
X814717Y623788D01*
X814793Y623771D01*
X814875Y623755D01*
X815050Y623733D01*
X815247Y623722D01*
X815290D01*
X815334Y623728D01*
X815399D01*
X815476Y623733D01*
X815563Y623744D01*
X815662Y623755D01*
X815765Y623777D01*
X815869Y623798D01*
X815984Y623826D01*
X816093Y623859D01*
X816202Y623902D01*
X816306Y623946D01*
X816404Y624006D01*
X816492Y624066D01*
X816574Y624143D01*
X816579Y624148D01*
X816590Y624164D01*
X816612Y624192D01*
X816634Y624230D01*
X816666Y624279D01*
X816699Y624339D01*
X816737Y624416D01*
X816776Y624503D01*
X816808Y624607D01*
X816847Y624721D01*
X816879Y624858D01*
X816912Y625005D01*
X816934Y625169D01*
X816956Y625350D01*
X816967Y625546D01*
X816972Y625765D01*
Y629451D01*
X817819D01*
Y625759D01*
D02*
G37*
G36*
X821860Y623067D02*
X821073D01*
Y628058D01*
X821068Y628053D01*
X821062Y628047D01*
X821046Y628031D01*
X821024Y628014D01*
X820992Y627987D01*
X820959Y627960D01*
X820920Y627927D01*
X820877Y627889D01*
X820768Y627807D01*
X820642Y627719D01*
X820495Y627621D01*
X820331Y627518D01*
X820325Y627512D01*
X820309Y627507D01*
X820287Y627490D01*
X820254Y627474D01*
X820216Y627452D01*
X820167Y627425D01*
X820112Y627397D01*
X820058Y627365D01*
X819927Y627299D01*
X819790Y627234D01*
X819648Y627168D01*
X819512Y627113D01*
Y627873D01*
X819517Y627878D01*
X819539Y627889D01*
X819577Y627905D01*
X819621Y627927D01*
X819681Y627960D01*
X819746Y627993D01*
X819817Y628036D01*
X819899Y628085D01*
X819987Y628135D01*
X820079Y628195D01*
X820271Y628320D01*
X820462Y628462D01*
X820653Y628621D01*
X820658Y628626D01*
X820675Y628643D01*
X820702Y628664D01*
X820735Y628697D01*
X820773Y628735D01*
X820822Y628784D01*
X820871Y628834D01*
X820926Y628894D01*
X821041Y629025D01*
X821155Y629167D01*
X821264Y629320D01*
X821308Y629402D01*
X821352Y629478D01*
X821860D01*
Y623067D01*
D02*
G37*
D11*
X722900Y398415D02*
Y851265D01*
Y398415D02*
X902700D01*
Y851265D01*
X722900D02*
X902700D01*
M02*
