G04*
G04 #@! TF.GenerationSoftware,Altium Limited,Altium Designer,22.5.1 (42)*
G04*
G04 Layer_Color=16711935*
%FSLAX44Y44*%
%MOMM*%
G71*
G04*
G04 #@! TF.SameCoordinates,EAF0AC03-D26C-4CD7-8958-07DA66C51CBC*
G04*
G04*
G04 #@! TF.FilePolarity,Negative*
G04*
G01*
G75*
%ADD17C,1.7032*%
%ADD18R,1.7032X1.7032*%
%ADD19C,1.7012*%
%ADD20R,1.7012X1.7012*%
%ADD21C,1.6032*%
%ADD22C,1.7272*%
%ADD23C,1.4140*%
%ADD24R,1.4140X1.4140*%
%ADD25R,1.7032X1.7032*%
%ADD26C,1.9812*%
%ADD27C,1.2032*%
%ADD28C,1.4732*%
%ADD29C,1.1032*%
D17*
X331868Y524422D02*
D03*
X144780Y281940D02*
D03*
X331470D02*
D03*
X516890D02*
D03*
Y524510D02*
D03*
X942340Y684530D02*
D03*
Y659130D02*
D03*
Y633730D02*
D03*
Y608330D02*
D03*
Y582930D02*
D03*
Y557530D02*
D03*
Y532130D02*
D03*
D18*
X306468Y524422D02*
D03*
X119380Y281940D02*
D03*
X306070D02*
D03*
X491490D02*
D03*
Y524510D02*
D03*
D19*
X48620Y686550D02*
D03*
Y621550D02*
D03*
X93620D02*
D03*
Y742200D02*
D03*
X48620D02*
D03*
Y807200D02*
D03*
D20*
X93620Y686550D02*
D03*
Y807200D02*
D03*
D21*
X445770Y571500D02*
D03*
X521970D02*
D03*
X1023620Y748030D02*
D03*
Y671830D02*
D03*
X998220Y836930D02*
D03*
X922020D02*
D03*
D22*
X1111590Y247410D02*
D03*
Y867410D02*
D03*
X21590Y247410D02*
D03*
Y867410D02*
D03*
X420370Y800100D02*
D03*
X445770D02*
D03*
X471170D02*
D03*
X496570D02*
D03*
X521970D02*
D03*
X547370D02*
D03*
X572770D02*
D03*
X598170D02*
D03*
X623570D02*
D03*
X648970D02*
D03*
Y647700D02*
D03*
X623570D02*
D03*
X598170D02*
D03*
X572770D02*
D03*
X547370D02*
D03*
X521970D02*
D03*
X496570D02*
D03*
X471170D02*
D03*
X445770D02*
D03*
X420370D02*
D03*
D23*
X736600Y608965D02*
D03*
Y583565D02*
D03*
Y558165D02*
D03*
Y532765D02*
D03*
Y481965D02*
D03*
Y456565D02*
D03*
X889000D02*
D03*
X736600Y507365D02*
D03*
X889000Y735965D02*
D03*
Y812165D02*
D03*
Y786765D02*
D03*
Y761365D02*
D03*
Y710565D02*
D03*
Y685165D02*
D03*
Y659765D02*
D03*
Y634365D02*
D03*
Y608965D02*
D03*
Y583565D02*
D03*
Y558165D02*
D03*
Y532765D02*
D03*
Y507365D02*
D03*
Y481965D02*
D03*
X736600Y634365D02*
D03*
Y659765D02*
D03*
Y685165D02*
D03*
Y710565D02*
D03*
Y735965D02*
D03*
Y761365D02*
D03*
Y786765D02*
D03*
D24*
Y812165D02*
D03*
D25*
X942340Y709930D02*
D03*
D26*
X1023620Y582930D02*
D03*
Y557530D02*
D03*
X999490Y802640D02*
D03*
Y777240D02*
D03*
D27*
X334141Y609441D02*
D03*
D28*
X306070Y571500D02*
D03*
X379730Y586740D02*
D03*
X568960Y599440D02*
D03*
X119380Y840740D02*
D03*
X469900Y675640D02*
D03*
X836930Y760730D02*
D03*
X494030Y708660D02*
D03*
X875030Y836930D02*
D03*
D29*
X379730Y693420D02*
D03*
X360680Y629920D02*
D03*
X379730Y720090D02*
D03*
X266700Y725170D02*
D03*
X285750Y720090D02*
D03*
X302260Y717550D02*
D03*
X262890Y704850D02*
D03*
M02*
