M48
;Layer_Color=9474304
;FILE_FORMAT=2:4
METRIC,LZ
;TYPE=PLATED
T1F00S00C0.5000
T2F00S00C0.6000
T3F00S00C0.7112
T4F00S00C0.7620
T5F00S00C0.8500
T6F00S00C0.9000
T7F00S00C0.9140
T8F00S00C1.1000
T9F00S00C1.2000
T10F00S00C1.2700
T11F00S00C1.2900
T12F00S00C1.3200
T14F00S00C1.9000
;TYPE=NON_PLATED
T15F00S00C1.1000
%
T01
X78613Y52832
X77329Y659593
X76073Y67437
X78613
X73533
X72263Y6604
X68453
X67183Y67437
X70993Y7493
T02
X20955Y37719
X22225
X23495
X65913Y87838
T03
X4318Y55372
X59944Y61087
T04
X80772Y40767
Y43307
Y45847
Y48387
X65532
Y45847
Y43307
Y40767
Y50927
Y53467
Y56007
Y58547
Y61087
Y63627
X80772
Y61087
Y58547
Y56007
Y53467
Y50927
T05
X51943Y34544
Y42164
X31369Y43942
Y36322
X38735Y72009
X46355
X48387
X56007
T06
X200262Y049618
X225662
X386952
X412352
X572372
X597772
Y292188
X572372
X41275Y2921
X38735
X06096Y59944
Y62484
Y65024
Y67564
Y70104
Y72644
Y75184
Y77724
T07
X13716Y497205
Y522605
Y548005
Y573405
Y598805
Y624205
Y649605
Y675005
Y700405
Y725805
Y751205
Y776605
Y802005
Y827405
Y852805
X28956
Y827405
Y802005
Y776605
Y751205
Y725805
Y700405
Y675005
Y649605
Y624205
Y598805
Y573405
Y548005
Y522605
Y497205
T08
X13335Y3683
Y3937
T09
X4049Y47371
X5095
T10
X46228Y78486
X48768
X56007
X58547
T11
X38636Y59944
T12
X40636Y53944
X52836
Y65944
T14
X02286Y01687
X86286
Y89408
X02286
T15
X10795Y3683
Y3937
M30
