M48
;Layer_Color=9474304
;FILE_FORMAT=2:4
METRIC,LZ
;TYPE=PLATED
T1F00S00C0.5000
T2F00S00C0.6000
T3F00S00C0.7112
T4F00S00C0.7620
T5F00S00C0.8500
T6F00S00C0.9000
T7F00S00C0.9140
T8F00S00C0.9900
T9F00S00C1.2700
T10F00S00C1.9000
%
T01
X36068Y62992
X37973Y69342
Y72009
X30226Y71755
X28575Y72009
X2667Y72517
X26289Y70485
T02
X334141Y609441
T03
X56896Y59944
X37973Y58674
X30607Y5715
X11938Y84074
X49403Y70866
X4699Y67564
X83693Y76073
X87503Y83693
T04
X42037Y6477
Y8001
X44577
X47117
X49657
X52197
X54737
X57277
X59817
X62357
X64897
Y6477
X62357
X59817
X57277
X54737
X52197
X49657
X47117
X44577
T05
X44577Y5715
X52197
X102362Y67183
Y74803
X99822Y83693
X92202
T06
X94234Y53213
Y55753
Y58293
Y60833
Y63373
X51689Y52451
X49149
Y28194
X51689
X33147
X30607
X14478
X11938
X306468Y524422
X331868
X94234Y65913
Y68453
Y70993
T07
X889Y456565
Y481965
Y507365
Y532765
Y558165
Y583565
Y608965
Y634365
X7366
Y608965
Y583565
Y558165
Y532765
Y507365
Y481965
Y456565
Y659765
Y685165
Y710565
Y735965
Y761365
Y786765
Y812165
X889
Y786765
Y761365
Y735965
Y710565
Y685165
Y659765
T08
X04862Y62155
X09362
Y68655
X04862
Y7422
X09362
Y8072
X04862
T09
X102362Y55753
Y58293
X99949Y77724
Y80264
T10
X111159Y24741
X02159
Y86741
X111159
M30
