M48
;Layer_Color=9474304
;FILE_FORMAT=2:4
METRIC,LZ
;TYPE=PLATED
T1F00S00C0.5000
T2F00S00C0.6000
T3F00S00C0.7112
T4F00S00C0.7620
T5F00S00C0.8500
T6F00S00C0.9000
T7F00S00C0.9140
T8F00S00C0.9900
T9F00S00C1.2700
T10F00S00C1.9000
%
T01
X36068Y40386
X37973Y46736
Y49403
X30226Y49149
X28575Y49403
X2667Y49911
X26289Y47879
T02
X334141Y383381
T03
X56896Y37338
X37973Y36068
X30607Y34544
X11938Y61468
X49403Y4826
X4699Y44958
X83693Y53467
X87503Y61087
T04
X42037Y42164
Y57404
X44577
X47117
X49657
X52197
X54737
X57277
X59817
X62357
X64897
Y42164
X62357
X59817
X57277
X54737
X52197
X49657
X47117
X44577
T05
X44577Y34544
X52197
X102362Y44577
Y52197
X99822Y61087
X92202
T06
X94234Y30607
Y33147
Y35687
Y38227
Y40767
X51689Y29845
X49149
Y05588
X51689
X33147
X30607
X14478
X11938
X306468Y298362
X331868
X94234Y43307
Y45847
Y48387
T07
X889Y230505
Y255905
Y281305
Y306705
Y332105
Y357505
Y382905
Y408305
X7366
Y382905
Y357505
Y332105
Y306705
Y281305
Y255905
Y230505
Y433705
Y459105
Y484505
Y509905
Y535305
Y560705
Y586105
X889
Y560705
Y535305
Y509905
Y484505
Y459105
Y433705
T08
X04862Y39549
X09362
Y46049
X04862
Y51614
X09362
Y58114
X04862
T09
X102362Y33147
Y35687
X99949Y55118
Y57658
T10
X111159Y02135
X02159
Y64135
X111159
M30
