G04*
G04 #@! TF.GenerationSoftware,Altium Limited,Altium Designer,22.5.1 (42)*
G04*
G04 Layer_Color=32896*
%FSLAX44Y44*%
%MOMM*%
G71*
G04*
G04 #@! TF.SameCoordinates,D94814E4-BEA6-4BA8-BDED-E2EFF474A26A*
G04*
G04*
G04 #@! TF.FilePolarity,Positive*
G04*
G01*
G75*
%ADD10C,0.2000*%
G36*
X817819Y399699D02*
Y399688D01*
Y399655D01*
Y399606D01*
X817813Y399541D01*
Y399459D01*
X817808Y399366D01*
X817802Y399262D01*
X817791Y399147D01*
X817780Y399027D01*
X817764Y398902D01*
X817726Y398651D01*
X817671Y398399D01*
X817638Y398279D01*
X817600Y398170D01*
Y398164D01*
X817589Y398143D01*
X817578Y398115D01*
X817557Y398077D01*
X817535Y398028D01*
X817502Y397973D01*
X817464Y397908D01*
X817420Y397842D01*
X817371Y397771D01*
X817311Y397695D01*
X817251Y397618D01*
X817174Y397542D01*
X817098Y397466D01*
X817010Y397389D01*
X816918Y397318D01*
X816814Y397247D01*
X816808Y397242D01*
X816786Y397231D01*
X816754Y397214D01*
X816710Y397192D01*
X816656Y397165D01*
X816584Y397138D01*
X816508Y397105D01*
X816415Y397072D01*
X816311Y397039D01*
X816202Y397007D01*
X816077Y396979D01*
X815946Y396952D01*
X815804Y396930D01*
X815651Y396914D01*
X815492Y396903D01*
X815323Y396898D01*
X815236D01*
X815175Y396903D01*
X815099Y396908D01*
X815012Y396914D01*
X814913Y396925D01*
X814804Y396936D01*
X814689Y396952D01*
X814569Y396974D01*
X814324Y397029D01*
X814203Y397061D01*
X814083Y397105D01*
X813963Y397149D01*
X813854Y397203D01*
X813848Y397209D01*
X813827Y397220D01*
X813799Y397236D01*
X813761Y397263D01*
X813717Y397296D01*
X813663Y397334D01*
X813603Y397378D01*
X813537Y397433D01*
X813472Y397493D01*
X813406Y397558D01*
X813341Y397635D01*
X813270Y397711D01*
X813204Y397799D01*
X813144Y397892D01*
X813089Y397995D01*
X813040Y398099D01*
Y398104D01*
X813029Y398126D01*
X813018Y398159D01*
X813002Y398208D01*
X812986Y398268D01*
X812964Y398339D01*
X812942Y398421D01*
X812920Y398520D01*
X812898Y398629D01*
X812877Y398749D01*
X812855Y398880D01*
X812838Y399022D01*
X812822Y399175D01*
X812811Y399339D01*
X812805Y399513D01*
X812800Y399699D01*
Y403391D01*
X813646D01*
Y399705D01*
Y399694D01*
Y399666D01*
Y399628D01*
Y399568D01*
X813652Y399502D01*
X813657Y399421D01*
Y399333D01*
X813668Y399240D01*
X813685Y399044D01*
X813712Y398836D01*
X813728Y398738D01*
X813750Y398645D01*
X813772Y398558D01*
X813799Y398481D01*
Y398476D01*
X813805Y398465D01*
X813816Y398443D01*
X813827Y398416D01*
X813848Y398383D01*
X813870Y398345D01*
X813925Y398257D01*
X813996Y398159D01*
X814089Y398061D01*
X814198Y397962D01*
X814329Y397875D01*
X814334D01*
X814345Y397864D01*
X814367Y397853D01*
X814395Y397842D01*
X814433Y397826D01*
X814476Y397809D01*
X814526Y397788D01*
X814586Y397771D01*
X814651Y397749D01*
X814717Y397728D01*
X814793Y397711D01*
X814875Y397695D01*
X815050Y397673D01*
X815247Y397662D01*
X815290D01*
X815334Y397668D01*
X815399D01*
X815476Y397673D01*
X815563Y397684D01*
X815662Y397695D01*
X815765Y397717D01*
X815869Y397738D01*
X815984Y397766D01*
X816093Y397799D01*
X816202Y397842D01*
X816306Y397886D01*
X816404Y397946D01*
X816492Y398006D01*
X816574Y398083D01*
X816579Y398088D01*
X816590Y398104D01*
X816612Y398132D01*
X816634Y398170D01*
X816666Y398219D01*
X816699Y398279D01*
X816737Y398356D01*
X816776Y398443D01*
X816808Y398547D01*
X816847Y398661D01*
X816879Y398798D01*
X816912Y398945D01*
X816934Y399109D01*
X816956Y399290D01*
X816967Y399486D01*
X816972Y399705D01*
Y403391D01*
X817819D01*
Y399699D01*
D02*
G37*
G36*
X821860Y397007D02*
X821073D01*
Y401998D01*
X821068Y401993D01*
X821062Y401987D01*
X821046Y401971D01*
X821024Y401954D01*
X820992Y401927D01*
X820959Y401900D01*
X820920Y401867D01*
X820877Y401829D01*
X820768Y401747D01*
X820642Y401660D01*
X820495Y401561D01*
X820331Y401457D01*
X820325Y401452D01*
X820309Y401447D01*
X820287Y401430D01*
X820254Y401414D01*
X820216Y401392D01*
X820167Y401365D01*
X820112Y401337D01*
X820058Y401305D01*
X819927Y401239D01*
X819790Y401174D01*
X819648Y401108D01*
X819512Y401053D01*
Y401813D01*
X819517Y401818D01*
X819539Y401829D01*
X819577Y401845D01*
X819621Y401867D01*
X819681Y401900D01*
X819746Y401933D01*
X819817Y401976D01*
X819899Y402025D01*
X819987Y402075D01*
X820079Y402135D01*
X820271Y402260D01*
X820462Y402402D01*
X820653Y402561D01*
X820658Y402566D01*
X820675Y402583D01*
X820702Y402604D01*
X820735Y402637D01*
X820773Y402675D01*
X820822Y402724D01*
X820871Y402774D01*
X820926Y402834D01*
X821041Y402965D01*
X821155Y403107D01*
X821264Y403260D01*
X821308Y403341D01*
X821352Y403418D01*
X821860D01*
Y397007D01*
D02*
G37*
D10*
X722900Y172355D02*
Y625205D01*
Y172355D02*
X902700D01*
Y625205D01*
X722900D02*
X902700D01*
M02*
