G04*
G04 #@! TF.GenerationSoftware,Altium Limited,Altium Designer,22.5.1 (42)*
G04*
G04 Layer_Physical_Order=2*
G04 Layer_Color=16711680*
%FSLAX44Y44*%
%MOMM*%
G71*
G04*
G04 #@! TF.SameCoordinates,0D0FFEF2-2103-401E-A7EA-F2FFF8256CDE*
G04*
G04*
G04 #@! TF.FilePolarity,Positive*
G04*
G01*
G75*
%ADD13C,0.2540*%
%ADD25C,1.4140*%
%ADD26R,1.4140X1.4140*%
%ADD31C,1.2000*%
%ADD32C,1.0000*%
%ADD33C,1.4980*%
%ADD34R,1.4980X1.4980*%
%ADD35C,1.5000*%
%ADD36R,1.5000X1.5000*%
%ADD37C,1.4000*%
%ADD38C,1.5240*%
%ADD39R,1.5000X1.5000*%
%ADD40C,1.7780*%
%ADD41C,1.2700*%
%ADD42C,0.9000*%
G36*
X1062990Y40640D02*
X22489D01*
X21592Y41539D01*
X22863Y627380D01*
X1062990D01*
Y40640D01*
D02*
G37*
%LPC*%
G36*
X194310Y618101D02*
Y610870D01*
X201541D01*
X200998Y612896D01*
X199874Y614844D01*
X198284Y616434D01*
X196336Y617558D01*
X194310Y618101D01*
D02*
G37*
G36*
X191770D02*
X189744Y617558D01*
X187796Y616434D01*
X186206Y614844D01*
X185082Y612896D01*
X184539Y610870D01*
X191770D01*
Y618101D01*
D02*
G37*
G36*
X999476Y620410D02*
X996964D01*
X994538Y619760D01*
X992362Y618504D01*
X990586Y616728D01*
X989330Y614552D01*
X988680Y612126D01*
Y609614D01*
X989330Y607188D01*
X990586Y605012D01*
X992362Y603236D01*
X994538Y601980D01*
X996964Y601330D01*
X999476D01*
X1001902Y601980D01*
X1004078Y603236D01*
X1005854Y605012D01*
X1007110Y607188D01*
X1007760Y609614D01*
Y612126D01*
X1007110Y614552D01*
X1005854Y616728D01*
X1004078Y618504D01*
X1001902Y619760D01*
X999476Y620410D01*
D02*
G37*
G36*
X923276D02*
X920764D01*
X918338Y619760D01*
X916162Y618504D01*
X914386Y616728D01*
X913130Y614552D01*
X912480Y612126D01*
Y609614D01*
X913130Y607188D01*
X914386Y605012D01*
X916162Y603236D01*
X918338Y601980D01*
X920764Y601330D01*
X923276D01*
X925702Y601980D01*
X927878Y603236D01*
X929654Y605012D01*
X930910Y607188D01*
X931560Y609614D01*
Y612126D01*
X930910Y614552D01*
X929654Y616728D01*
X927878Y618504D01*
X925702Y619760D01*
X923276Y620410D01*
D02*
G37*
G36*
X201541Y608330D02*
X194310D01*
Y601099D01*
X196336Y601642D01*
X198284Y602766D01*
X199874Y604356D01*
X200998Y606304D01*
X201541Y608330D01*
D02*
G37*
G36*
X191770D02*
X184539D01*
X185082Y606304D01*
X186206Y604356D01*
X187796Y602766D01*
X189744Y601642D01*
X191770Y601099D01*
Y608330D01*
D02*
G37*
G36*
X117964Y618140D02*
X115716D01*
X113544Y617558D01*
X111596Y616434D01*
X110006Y614844D01*
X108882Y612896D01*
X108300Y610724D01*
Y608476D01*
X108882Y606304D01*
X110006Y604356D01*
X111596Y602766D01*
X113544Y601642D01*
X115716Y601060D01*
X117964D01*
X120136Y601642D01*
X122084Y602766D01*
X123674Y604356D01*
X124798Y606304D01*
X125380Y608476D01*
Y610724D01*
X124798Y612896D01*
X123674Y614844D01*
X122084Y616434D01*
X120136Y617558D01*
X117964Y618140D01*
D02*
G37*
G36*
X890265Y595715D02*
X887735D01*
X885291Y595060D01*
X883099Y593795D01*
X881310Y592006D01*
X880045Y589814D01*
X879390Y587370D01*
Y584840D01*
X880045Y582396D01*
X881310Y580204D01*
X883099Y578415D01*
X885291Y577150D01*
X887735Y576495D01*
X890265D01*
X892709Y577150D01*
X894901Y578415D01*
X896690Y580204D01*
X897955Y582396D01*
X898610Y584840D01*
Y587370D01*
X897955Y589814D01*
X896690Y592006D01*
X894901Y593795D01*
X892709Y595060D01*
X890265Y595715D01*
D02*
G37*
G36*
X746210D02*
X726990D01*
Y576495D01*
X746210D01*
Y595715D01*
D02*
G37*
G36*
X650308Y584200D02*
X650240D01*
Y575310D01*
X659130D01*
Y575378D01*
X658438Y577962D01*
X657100Y580278D01*
X655208Y582170D01*
X652892Y583508D01*
X650308Y584200D01*
D02*
G37*
G36*
X647700D02*
X647632D01*
X645048Y583508D01*
X642732Y582170D01*
X640840Y580278D01*
X639502Y577962D01*
X638810Y575378D01*
Y575310D01*
X647700D01*
Y584200D01*
D02*
G37*
G36*
X1000995Y588010D02*
X997985D01*
X995078Y587231D01*
X992472Y585726D01*
X990344Y583598D01*
X988839Y580992D01*
X988060Y578085D01*
Y575075D01*
X988839Y572168D01*
X990344Y569562D01*
X992472Y567434D01*
X995078Y565929D01*
X997985Y565150D01*
X1000995D01*
X1003902Y565929D01*
X1006508Y567434D01*
X1008636Y569562D01*
X1010141Y572168D01*
X1010920Y575075D01*
Y578085D01*
X1010141Y580992D01*
X1008636Y583598D01*
X1006508Y585726D01*
X1003902Y587231D01*
X1000995Y588010D01*
D02*
G37*
G36*
X659130Y572770D02*
X650240D01*
Y563880D01*
X650308D01*
X652892Y564572D01*
X655208Y565910D01*
X657100Y567802D01*
X658438Y570118D01*
X659130Y572702D01*
Y572770D01*
D02*
G37*
G36*
X647700D02*
X638810D01*
Y572702D01*
X639502Y570118D01*
X640840Y567802D01*
X642732Y565910D01*
X645048Y564572D01*
X647632Y563880D01*
X647700D01*
Y572770D01*
D02*
G37*
G36*
X447108Y584200D02*
X444432D01*
X441848Y583508D01*
X439532Y582170D01*
X437640Y580278D01*
X436302Y577962D01*
X435610Y575378D01*
Y572702D01*
X436302Y570118D01*
X437640Y567802D01*
X439532Y565910D01*
X441848Y564572D01*
X444432Y563880D01*
X447108D01*
X449692Y564572D01*
X452008Y565910D01*
X453900Y567802D01*
X455238Y570118D01*
X455930Y572702D01*
Y575378D01*
X455238Y577962D01*
X453900Y580278D01*
X452008Y582170D01*
X449692Y583508D01*
X447108Y584200D01*
D02*
G37*
G36*
X421708D02*
X419032D01*
X416448Y583508D01*
X414132Y582170D01*
X412240Y580278D01*
X410902Y577962D01*
X410210Y575378D01*
Y572702D01*
X410902Y570118D01*
X412240Y567802D01*
X414132Y565910D01*
X416448Y564572D01*
X419032Y563880D01*
X421708D01*
X424292Y564572D01*
X426608Y565910D01*
X428500Y567802D01*
X429838Y570118D01*
X430530Y572702D01*
Y575378D01*
X429838Y577962D01*
X428500Y580278D01*
X426608Y582170D01*
X424292Y583508D01*
X421708Y584200D01*
D02*
G37*
G36*
X890270Y570314D02*
Y561975D01*
X898609D01*
X897955Y564414D01*
X896690Y566606D01*
X894901Y568395D01*
X892709Y569660D01*
X890270Y570314D01*
D02*
G37*
G36*
X887730D02*
X885291Y569660D01*
X883099Y568395D01*
X881310Y566606D01*
X880045Y564414D01*
X879391Y561975D01*
X887730D01*
Y570314D01*
D02*
G37*
G36*
X1000995Y562610D02*
X1000760D01*
Y552450D01*
X1010920D01*
Y552685D01*
X1010141Y555592D01*
X1008636Y558198D01*
X1006508Y560326D01*
X1003902Y561831D01*
X1000995Y562610D01*
D02*
G37*
G36*
X998220D02*
X997985D01*
X995078Y561831D01*
X992472Y560326D01*
X990344Y558198D01*
X988839Y555592D01*
X988060Y552685D01*
Y552450D01*
X998220D01*
Y562610D01*
D02*
G37*
G36*
X898609Y559435D02*
X890270D01*
Y551096D01*
X892709Y551750D01*
X894901Y553015D01*
X896690Y554804D01*
X897955Y556996D01*
X898609Y559435D01*
D02*
G37*
G36*
X887730D02*
X879391D01*
X880045Y556996D01*
X881310Y554804D01*
X883099Y553015D01*
X885291Y551750D01*
X887730Y551096D01*
Y559435D01*
D02*
G37*
G36*
X737865Y570315D02*
X735335D01*
X732891Y569660D01*
X730699Y568395D01*
X728910Y566606D01*
X727645Y564414D01*
X726990Y561970D01*
Y559440D01*
X727645Y556996D01*
X728910Y554804D01*
X730699Y553015D01*
X732891Y551750D01*
X735335Y551095D01*
X737865D01*
X740309Y551750D01*
X742501Y553015D01*
X744290Y554804D01*
X745555Y556996D01*
X746210Y559440D01*
Y561970D01*
X745555Y564414D01*
X744290Y566606D01*
X742501Y568395D01*
X740309Y569660D01*
X737865Y570315D01*
D02*
G37*
G36*
X48671Y559420D02*
X48620D01*
Y550660D01*
X57380D01*
Y550710D01*
X56697Y553261D01*
X55376Y555549D01*
X53509Y557416D01*
X51221Y558736D01*
X48671Y559420D01*
D02*
G37*
G36*
X46080D02*
X46030D01*
X43479Y558736D01*
X41191Y557416D01*
X39324Y555549D01*
X38003Y553261D01*
X37320Y550710D01*
Y550660D01*
X46080D01*
Y559420D01*
D02*
G37*
G36*
X1010920Y549910D02*
X1000760D01*
Y539750D01*
X1000995D01*
X1003902Y540529D01*
X1006508Y542034D01*
X1008636Y544162D01*
X1010141Y546768D01*
X1010920Y549675D01*
Y549910D01*
D02*
G37*
G36*
X998220D02*
X988060D01*
Y549675D01*
X988839Y546768D01*
X990344Y544162D01*
X992472Y542034D01*
X995078Y540529D01*
X997985Y539750D01*
X998220D01*
Y549910D01*
D02*
G37*
G36*
X102380Y559420D02*
X82320D01*
Y539360D01*
X102380D01*
Y559420D01*
D02*
G37*
G36*
X57380Y548120D02*
X48620D01*
Y539360D01*
X48671D01*
X51221Y540043D01*
X53509Y541364D01*
X55376Y543232D01*
X56697Y545519D01*
X57380Y548069D01*
Y548120D01*
D02*
G37*
G36*
X46080D02*
X37320D01*
Y548069D01*
X38003Y545519D01*
X39324Y543232D01*
X41191Y541364D01*
X43479Y540043D01*
X46030Y539360D01*
X46080D01*
Y548120D01*
D02*
G37*
G36*
X890265Y544915D02*
X887735D01*
X885291Y544260D01*
X883099Y542995D01*
X881310Y541206D01*
X880045Y539014D01*
X879390Y536570D01*
Y534040D01*
X880045Y531596D01*
X881310Y529404D01*
X883099Y527615D01*
X885291Y526350D01*
X887735Y525695D01*
X890265D01*
X892709Y526350D01*
X894901Y527615D01*
X896690Y529404D01*
X897955Y531596D01*
X898610Y534040D01*
Y536570D01*
X897955Y539014D01*
X896690Y541206D01*
X894901Y542995D01*
X892709Y544260D01*
X890265Y544915D01*
D02*
G37*
G36*
X737865D02*
X735335D01*
X732891Y544260D01*
X730699Y542995D01*
X728910Y541206D01*
X727645Y539014D01*
X726990Y536570D01*
Y534040D01*
X727645Y531596D01*
X728910Y529404D01*
X730699Y527615D01*
X732891Y526350D01*
X735335Y525695D01*
X737865D01*
X740309Y526350D01*
X742501Y527615D01*
X744290Y529404D01*
X745555Y531596D01*
X746210Y534040D01*
Y536570D01*
X745555Y539014D01*
X744290Y541206D01*
X742501Y542995D01*
X740309Y544260D01*
X737865Y544915D01*
D02*
G37*
G36*
X1024876Y531510D02*
X1022364D01*
X1019938Y530860D01*
X1017762Y529604D01*
X1015986Y527828D01*
X1014730Y525652D01*
X1014080Y523226D01*
Y520714D01*
X1014730Y518288D01*
X1015986Y516112D01*
X1017762Y514336D01*
X1019938Y513080D01*
X1022364Y512430D01*
X1024876D01*
X1027302Y513080D01*
X1029478Y514336D01*
X1031254Y516112D01*
X1032510Y518288D01*
X1033160Y520714D01*
Y523226D01*
X1032510Y525652D01*
X1031254Y527828D01*
X1029478Y529604D01*
X1027302Y530860D01*
X1024876Y531510D01*
D02*
G37*
G36*
X737870Y519514D02*
Y511175D01*
X746209D01*
X745555Y513614D01*
X744290Y515806D01*
X742501Y517595D01*
X740309Y518860D01*
X737870Y519514D01*
D02*
G37*
G36*
X735330D02*
X732891Y518860D01*
X730699Y517595D01*
X728910Y515806D01*
X727645Y513614D01*
X726991Y511175D01*
X735330D01*
Y519514D01*
D02*
G37*
G36*
X746209Y508635D02*
X737870D01*
Y500296D01*
X740309Y500950D01*
X742501Y502215D01*
X744290Y504004D01*
X745555Y506196D01*
X746209Y508635D01*
D02*
G37*
G36*
X735330D02*
X726991D01*
X727645Y506196D01*
X728910Y504004D01*
X730699Y502215D01*
X732891Y500950D01*
X735330Y500296D01*
Y508635D01*
D02*
G37*
G36*
X890265Y519515D02*
X887735D01*
X885291Y518860D01*
X883099Y517595D01*
X881310Y515806D01*
X880045Y513614D01*
X879390Y511170D01*
Y508640D01*
X880045Y506196D01*
X881310Y504004D01*
X883099Y502215D01*
X885291Y500950D01*
X887735Y500295D01*
X890265D01*
X892709Y500950D01*
X894901Y502215D01*
X896690Y504004D01*
X897955Y506196D01*
X898610Y508640D01*
Y511170D01*
X897955Y513614D01*
X896690Y515806D01*
X894901Y517595D01*
X892709Y518860D01*
X890265Y519515D01*
D02*
G37*
G36*
Y494115D02*
X887735D01*
X885291Y493460D01*
X883099Y492195D01*
X881310Y490406D01*
X880045Y488214D01*
X879390Y485770D01*
Y483240D01*
X880045Y480796D01*
X881310Y478604D01*
X883099Y476815D01*
X885291Y475550D01*
X887735Y474895D01*
X890265D01*
X892709Y475550D01*
X894901Y476815D01*
X896690Y478604D01*
X897955Y480796D01*
X898610Y483240D01*
Y485770D01*
X897955Y488214D01*
X896690Y490406D01*
X894901Y492195D01*
X892709Y493460D01*
X890265Y494115D01*
D02*
G37*
G36*
X737865D02*
X735335D01*
X732891Y493460D01*
X730699Y492195D01*
X728910Y490406D01*
X727645Y488214D01*
X726990Y485770D01*
Y483240D01*
X727645Y480796D01*
X728910Y478604D01*
X730699Y476815D01*
X732891Y475550D01*
X735335Y474895D01*
X737865D01*
X740309Y475550D01*
X742501Y476815D01*
X744290Y478604D01*
X745555Y480796D01*
X746210Y483240D01*
Y485770D01*
X745555Y488214D01*
X744290Y490406D01*
X742501Y492195D01*
X740309Y493460D01*
X737865Y494115D01*
D02*
G37*
G36*
X93671Y494420D02*
X91030D01*
X88479Y493736D01*
X86191Y492416D01*
X84324Y490549D01*
X83004Y488261D01*
X82320Y485710D01*
Y483069D01*
X83004Y480518D01*
X84324Y478231D01*
X86191Y476364D01*
X88479Y475043D01*
X91030Y474360D01*
X93671D01*
X96221Y475043D01*
X98509Y476364D01*
X100376Y478231D01*
X101697Y480518D01*
X102380Y483069D01*
Y485710D01*
X101697Y488261D01*
X100376Y490549D01*
X98509Y492416D01*
X96221Y493736D01*
X93671Y494420D01*
D02*
G37*
G36*
X48671D02*
X46030D01*
X43479Y493736D01*
X41191Y492416D01*
X39324Y490549D01*
X38003Y488261D01*
X37320Y485710D01*
Y483069D01*
X38003Y480518D01*
X39324Y478231D01*
X41191Y476364D01*
X43479Y475043D01*
X46030Y474360D01*
X48671D01*
X51221Y475043D01*
X53509Y476364D01*
X55376Y478231D01*
X56697Y480518D01*
X57380Y483069D01*
Y485710D01*
X56697Y488261D01*
X55376Y490549D01*
X53509Y492416D01*
X51221Y493736D01*
X48671Y494420D01*
D02*
G37*
G36*
X952380Y493910D02*
X932300D01*
Y473830D01*
X952380D01*
Y493910D01*
D02*
G37*
G36*
X380657Y501070D02*
X378803D01*
X377013Y500590D01*
X375407Y499663D01*
X374097Y498353D01*
X373170Y496747D01*
X372690Y494957D01*
Y493103D01*
X373170Y491313D01*
X374097Y489707D01*
X375407Y488397D01*
X375845Y488144D01*
Y473246D01*
X375407Y472993D01*
X374097Y471683D01*
X373170Y470077D01*
X372690Y468287D01*
Y466433D01*
X373170Y464643D01*
X374097Y463037D01*
X375407Y461727D01*
X377013Y460800D01*
X378803Y460320D01*
X380657D01*
X382447Y460800D01*
X384053Y461727D01*
X385363Y463037D01*
X386290Y464643D01*
X386770Y466433D01*
Y468287D01*
X386290Y470077D01*
X385363Y471683D01*
X384053Y472993D01*
X383615Y473246D01*
Y488144D01*
X384053Y488397D01*
X385363Y489707D01*
X386290Y491313D01*
X386770Y493103D01*
Y494957D01*
X386290Y496747D01*
X385363Y498353D01*
X384053Y499663D01*
X382447Y500590D01*
X380657Y501070D01*
D02*
G37*
G36*
X890265Y468715D02*
X887735D01*
X885291Y468060D01*
X883099Y466795D01*
X881310Y465006D01*
X880045Y462814D01*
X879390Y460370D01*
Y457840D01*
X880045Y455396D01*
X881310Y453204D01*
X883099Y451415D01*
X885291Y450150D01*
X887735Y449495D01*
X890265D01*
X892709Y450150D01*
X894901Y451415D01*
X896690Y453204D01*
X897955Y455396D01*
X898610Y457840D01*
Y460370D01*
X897955Y462814D01*
X896690Y465006D01*
X894901Y466795D01*
X892709Y468060D01*
X890265Y468715D01*
D02*
G37*
G36*
X737865D02*
X735335D01*
X732891Y468060D01*
X730699Y466795D01*
X728910Y465006D01*
X727645Y462814D01*
X726990Y460370D01*
Y457840D01*
X727645Y455396D01*
X728910Y453204D01*
X730699Y451415D01*
X732891Y450150D01*
X735335Y449495D01*
X737865D01*
X740309Y450150D01*
X742501Y451415D01*
X744290Y453204D01*
X745555Y455396D01*
X746210Y457840D01*
Y460370D01*
X745555Y462814D01*
X744290Y465006D01*
X742501Y466795D01*
X740309Y468060D01*
X737865Y468715D01*
D02*
G37*
G36*
X943662Y468510D02*
X941018D01*
X938465Y467826D01*
X936175Y466504D01*
X934306Y464635D01*
X932984Y462345D01*
X932300Y459792D01*
Y457148D01*
X932984Y454595D01*
X934306Y452305D01*
X936175Y450436D01*
X938465Y449114D01*
X941018Y448430D01*
X943662D01*
X946215Y449114D01*
X948505Y450436D01*
X950374Y452305D01*
X951696Y454595D01*
X952380Y457148D01*
Y459792D01*
X951696Y462345D01*
X950374Y464635D01*
X948505Y466504D01*
X946215Y467826D01*
X943662Y468510D01*
D02*
G37*
G36*
X267627Y506150D02*
X265773D01*
X263983Y505670D01*
X262377Y504743D01*
X261067Y503433D01*
X260140Y501827D01*
X259660Y500037D01*
Y498183D01*
X260140Y496393D01*
X261067Y494787D01*
X262377Y493477D01*
X263983Y492550D01*
X265773Y492070D01*
X267627D01*
X268115Y492201D01*
X341423Y418893D01*
X342683Y418051D01*
X344170Y417755D01*
X410892D01*
X410902Y417718D01*
X412240Y415402D01*
X414132Y413510D01*
X416448Y412172D01*
X419032Y411480D01*
X421708D01*
X424292Y412172D01*
X426608Y413510D01*
X428500Y415402D01*
X429838Y417718D01*
X430530Y420302D01*
Y422978D01*
X429838Y425562D01*
X428500Y427878D01*
X428366Y428012D01*
X428852Y429185D01*
X437288D01*
X437774Y428012D01*
X437640Y427878D01*
X436302Y425562D01*
X435610Y422978D01*
Y420302D01*
X436302Y417718D01*
X437640Y415402D01*
X439532Y413510D01*
X441848Y412172D01*
X444432Y411480D01*
X447108D01*
X449692Y412172D01*
X452008Y413510D01*
X453900Y415402D01*
X455238Y417718D01*
X455930Y420302D01*
Y422978D01*
X455238Y425562D01*
X453900Y427878D01*
X453766Y428012D01*
X454252Y429185D01*
X462688D01*
X463174Y428012D01*
X463040Y427878D01*
X461702Y425562D01*
X461010Y422978D01*
Y420302D01*
X461702Y417718D01*
X463040Y415402D01*
X464932Y413510D01*
X467248Y412172D01*
X469832Y411480D01*
X472508D01*
X475092Y412172D01*
X477408Y413510D01*
X479300Y415402D01*
X480638Y417718D01*
X481330Y420302D01*
Y422978D01*
X480638Y425562D01*
X479300Y427878D01*
X479166Y428012D01*
X479652Y429185D01*
X483531D01*
X487122Y425595D01*
X487102Y425562D01*
X486410Y422978D01*
Y420302D01*
X487102Y417718D01*
X488440Y415402D01*
X490332Y413510D01*
X492648Y412172D01*
X495232Y411480D01*
X497908D01*
X500492Y412172D01*
X502808Y413510D01*
X504700Y415402D01*
X506038Y417718D01*
X506730Y420302D01*
Y422978D01*
X506038Y425562D01*
X504700Y427878D01*
X502808Y429770D01*
X500492Y431108D01*
X497908Y431800D01*
X495232D01*
X492648Y431108D01*
X492615Y431088D01*
X487887Y435817D01*
X486627Y436659D01*
X485140Y436955D01*
X349589D01*
X340865Y445678D01*
X341675Y446665D01*
X342683Y445991D01*
X344170Y445695D01*
X461878D01*
X462786Y444121D01*
X464441Y442466D01*
X466469Y441296D01*
X468730Y440690D01*
X471070D01*
X473331Y441296D01*
X475359Y442466D01*
X477014Y444121D01*
X478184Y446149D01*
X478790Y448410D01*
Y450750D01*
X478184Y453011D01*
X477014Y455039D01*
X475359Y456694D01*
X473331Y457864D01*
X471070Y458470D01*
X468730D01*
X466469Y457864D01*
X464441Y456694D01*
X462786Y455039D01*
X461878Y453465D01*
X345779D01*
X309169Y490075D01*
X309300Y490563D01*
Y492417D01*
X308820Y494207D01*
X307893Y495813D01*
X306583Y497123D01*
X304977Y498050D01*
X303187Y498530D01*
X301333D01*
X299543Y498050D01*
X297937Y497123D01*
X296627Y495813D01*
X295700Y494207D01*
X295368Y492971D01*
X294023Y492521D01*
X292790Y493754D01*
Y494957D01*
X292310Y496747D01*
X291383Y498353D01*
X290073Y499663D01*
X288467Y500590D01*
X286677Y501070D01*
X284823D01*
X283033Y500590D01*
X281427Y499663D01*
X280117Y498353D01*
X279190Y496747D01*
X278710Y494957D01*
Y494390D01*
X277440Y493864D01*
X273609Y497695D01*
X273740Y498183D01*
Y500037D01*
X273260Y501827D01*
X272333Y503433D01*
X271023Y504743D01*
X269417Y505670D01*
X267627Y506150D01*
D02*
G37*
G36*
X1024876Y455310D02*
X1022364D01*
X1019938Y454660D01*
X1017762Y453404D01*
X1015986Y451628D01*
X1014730Y449452D01*
X1014080Y447026D01*
Y444514D01*
X1014730Y442088D01*
X1015986Y439912D01*
X1017762Y438136D01*
X1019938Y436880D01*
X1022364Y436230D01*
X1024876D01*
X1027302Y436880D01*
X1029478Y438136D01*
X1031254Y439912D01*
X1032510Y442088D01*
X1033160Y444514D01*
Y447026D01*
X1032510Y449452D01*
X1031254Y451628D01*
X1029478Y453404D01*
X1027302Y454660D01*
X1024876Y455310D01*
D02*
G37*
G36*
X48671Y438770D02*
X48620D01*
Y430010D01*
X57380D01*
Y430061D01*
X56697Y432612D01*
X55376Y434899D01*
X53509Y436766D01*
X51221Y438087D01*
X48671Y438770D01*
D02*
G37*
G36*
X46080D02*
X46030D01*
X43479Y438087D01*
X41191Y436766D01*
X39324Y434899D01*
X38003Y432612D01*
X37320Y430061D01*
Y430010D01*
X46080D01*
Y438770D01*
D02*
G37*
G36*
X574108Y584200D02*
X571432D01*
X568848Y583508D01*
X566532Y582170D01*
X564640Y580278D01*
X563302Y577962D01*
X562610Y575378D01*
Y572702D01*
X563302Y570118D01*
X564640Y567802D01*
X566532Y565910D01*
X568848Y564572D01*
X571432Y563880D01*
X574108D01*
X576692Y564572D01*
X576725Y564591D01*
X657785Y483531D01*
Y428989D01*
X656515Y428463D01*
X655208Y429770D01*
X652892Y431108D01*
X650308Y431800D01*
X647632D01*
X645048Y431108D01*
X642732Y429770D01*
X642598Y429636D01*
X641425Y430122D01*
Y483870D01*
X641129Y485357D01*
X640287Y486617D01*
X556819Y570085D01*
X556838Y570118D01*
X557530Y572702D01*
Y575378D01*
X556838Y577962D01*
X555500Y580278D01*
X553608Y582170D01*
X551292Y583508D01*
X548708Y584200D01*
X546032D01*
X543448Y583508D01*
X541132Y582170D01*
X539240Y580278D01*
X537902Y577962D01*
X537210Y575378D01*
Y572702D01*
X537902Y570118D01*
X539240Y567802D01*
X541132Y565910D01*
X543448Y564572D01*
X546032Y563880D01*
X548708D01*
X551292Y564572D01*
X551325Y564591D01*
X633655Y482261D01*
Y427032D01*
X632385Y426691D01*
X631700Y427878D01*
X629808Y429770D01*
X627492Y431108D01*
X624908Y431800D01*
X622232D01*
X619648Y431108D01*
X617332Y429770D01*
X616025Y428463D01*
X614755Y428989D01*
Y485140D01*
X614459Y486627D01*
X613617Y487887D01*
X531418Y570085D01*
X531438Y570118D01*
X532130Y572702D01*
Y575378D01*
X531438Y577962D01*
X530100Y580278D01*
X528208Y582170D01*
X525892Y583508D01*
X523308Y584200D01*
X520632D01*
X518048Y583508D01*
X515732Y582170D01*
X513840Y580278D01*
X512502Y577962D01*
X511810Y575378D01*
Y572702D01*
X512502Y570118D01*
X513840Y567802D01*
X515732Y565910D01*
X518048Y564572D01*
X520632Y563880D01*
X523308D01*
X525892Y564572D01*
X525925Y564591D01*
X606985Y483531D01*
Y428989D01*
X605715Y428463D01*
X604408Y429770D01*
X602092Y431108D01*
X599508Y431800D01*
X596832D01*
X594248Y431108D01*
X591932Y429770D01*
X591798Y429636D01*
X590625Y430122D01*
Y483870D01*
X590329Y485357D01*
X589487Y486617D01*
X506018Y570085D01*
X506038Y570118D01*
X506730Y572702D01*
Y575378D01*
X506038Y577962D01*
X504700Y580278D01*
X502808Y582170D01*
X500492Y583508D01*
X497908Y584200D01*
X495232D01*
X492648Y583508D01*
X490332Y582170D01*
X488440Y580278D01*
X487102Y577962D01*
X486410Y575378D01*
Y572702D01*
X487102Y570118D01*
X488440Y567802D01*
X490332Y565910D01*
X492648Y564572D01*
X495232Y563880D01*
X497908D01*
X500492Y564572D01*
X500525Y564591D01*
X582855Y482261D01*
Y427032D01*
X581585Y426691D01*
X580900Y427878D01*
X579008Y429770D01*
X576692Y431108D01*
X574108Y431800D01*
X571432D01*
X568848Y431108D01*
X566532Y429770D01*
X565225Y428463D01*
X563955Y428989D01*
Y446969D01*
X564627Y447641D01*
X565469Y448901D01*
X565765Y450388D01*
Y483330D01*
X565469Y484817D01*
X564627Y486077D01*
X480619Y570085D01*
X480638Y570118D01*
X481330Y572702D01*
Y575378D01*
X480638Y577962D01*
X479300Y580278D01*
X477408Y582170D01*
X475092Y583508D01*
X472508Y584200D01*
X469832D01*
X467248Y583508D01*
X464932Y582170D01*
X463040Y580278D01*
X461702Y577962D01*
X461010Y575378D01*
Y572702D01*
X461702Y570118D01*
X463040Y567802D01*
X464932Y565910D01*
X467248Y564572D01*
X469832Y563880D01*
X472508D01*
X475092Y564572D01*
X475125Y564591D01*
X557995Y481721D01*
Y451997D01*
X557323Y451325D01*
X556481Y450064D01*
X556185Y448578D01*
Y428989D01*
X554915Y428463D01*
X553608Y429770D01*
X551292Y431108D01*
X548708Y431800D01*
X546032D01*
X543448Y431108D01*
X541132Y429770D01*
X539240Y427878D01*
X537902Y425562D01*
X537210Y422978D01*
Y420302D01*
X537902Y417718D01*
X537921Y417685D01*
X527981Y407745D01*
X366566D01*
X366313Y408183D01*
X365003Y409493D01*
X363397Y410420D01*
X361607Y410900D01*
X359753D01*
X357963Y410420D01*
X356357Y409493D01*
X355047Y408183D01*
X354120Y406577D01*
X353640Y404787D01*
Y402933D01*
X354120Y401143D01*
X355047Y399537D01*
X356357Y398227D01*
X357963Y397300D01*
X359753Y396820D01*
X361607D01*
X363397Y397300D01*
X365003Y398227D01*
X366313Y399537D01*
X366566Y399975D01*
X529590D01*
X531077Y400271D01*
X532337Y401113D01*
X543415Y412192D01*
X543448Y412172D01*
X546032Y411480D01*
X548708D01*
X551292Y412172D01*
X553608Y413510D01*
X554915Y414817D01*
X556185Y414291D01*
Y407035D01*
X556481Y405548D01*
X557323Y404288D01*
X727592Y234019D01*
X726990Y231770D01*
Y229240D01*
X727645Y226796D01*
X728910Y224604D01*
X730699Y222815D01*
X732891Y221550D01*
X735335Y220895D01*
X737865D01*
X740309Y221550D01*
X742501Y222815D01*
X744290Y224604D01*
X745555Y226796D01*
X746210Y229240D01*
Y231770D01*
X745555Y234214D01*
X744290Y236406D01*
X742501Y238195D01*
X740309Y239460D01*
X737865Y240115D01*
X735335D01*
X733086Y239513D01*
X563955Y408644D01*
Y414291D01*
X565225Y414817D01*
X566532Y413510D01*
X568848Y412172D01*
X571432Y411480D01*
X574108D01*
X576692Y412172D01*
X579008Y413510D01*
X580900Y415402D01*
X581585Y416589D01*
X582855Y416248D01*
Y405765D01*
X583151Y404278D01*
X583993Y403018D01*
X727592Y259419D01*
X726990Y257170D01*
Y254640D01*
X727645Y252196D01*
X728910Y250004D01*
X730699Y248215D01*
X732891Y246950D01*
X735335Y246295D01*
X737865D01*
X740309Y246950D01*
X742501Y248215D01*
X744290Y250004D01*
X745555Y252196D01*
X746210Y254640D01*
Y257170D01*
X745555Y259614D01*
X744290Y261806D01*
X742501Y263595D01*
X740309Y264860D01*
X737865Y265515D01*
X735335D01*
X733086Y264912D01*
X590625Y407374D01*
Y413158D01*
X591798Y413644D01*
X591932Y413510D01*
X594248Y412172D01*
X596832Y411480D01*
X599508D01*
X602092Y412172D01*
X604408Y413510D01*
X605715Y414817D01*
X606985Y414291D01*
Y407035D01*
X607281Y405548D01*
X608123Y404288D01*
X727592Y284819D01*
X726990Y282570D01*
Y280040D01*
X727645Y277596D01*
X728910Y275404D01*
X730699Y273615D01*
X732891Y272350D01*
X735335Y271695D01*
X737865D01*
X740309Y272350D01*
X742501Y273615D01*
X744290Y275404D01*
X745555Y277596D01*
X746210Y280040D01*
Y282570D01*
X745555Y285014D01*
X744290Y287206D01*
X742501Y288995D01*
X740309Y290260D01*
X737865Y290915D01*
X735335D01*
X733086Y290312D01*
X614755Y408644D01*
Y414291D01*
X616025Y414817D01*
X617332Y413510D01*
X619648Y412172D01*
X622232Y411480D01*
X624908D01*
X627492Y412172D01*
X629808Y413510D01*
X631700Y415402D01*
X632385Y416589D01*
X633655Y416248D01*
Y405765D01*
X633951Y404278D01*
X634793Y403018D01*
X727592Y310219D01*
X726990Y307970D01*
Y305440D01*
X727645Y302996D01*
X728910Y300804D01*
X730699Y299015D01*
X732891Y297750D01*
X735335Y297095D01*
X737865D01*
X740309Y297750D01*
X742501Y299015D01*
X744290Y300804D01*
X745555Y302996D01*
X746210Y305440D01*
Y307970D01*
X745555Y310414D01*
X744290Y312606D01*
X742501Y314395D01*
X740309Y315660D01*
X737865Y316315D01*
X735335D01*
X733086Y315713D01*
X641425Y407374D01*
Y413158D01*
X642598Y413644D01*
X642732Y413510D01*
X645048Y412172D01*
X647632Y411480D01*
X650308D01*
X652892Y412172D01*
X655208Y413510D01*
X656515Y414817D01*
X657785Y414291D01*
Y407035D01*
X658081Y405548D01*
X658923Y404288D01*
X727592Y335619D01*
X726990Y333370D01*
Y330840D01*
X727645Y328396D01*
X728910Y326204D01*
X730699Y324415D01*
X732891Y323150D01*
X735335Y322495D01*
X737865D01*
X740309Y323150D01*
X742501Y324415D01*
X744290Y326204D01*
X745555Y328396D01*
X746210Y330840D01*
Y333370D01*
X745555Y335814D01*
X744290Y338006D01*
X742501Y339795D01*
X740309Y341060D01*
X737865Y341715D01*
X735335D01*
X733086Y341113D01*
X665555Y408644D01*
Y485140D01*
X665259Y486627D01*
X664417Y487887D01*
X582219Y570085D01*
X582238Y570118D01*
X582930Y572702D01*
Y575378D01*
X582238Y577962D01*
X580900Y580278D01*
X579008Y582170D01*
X576692Y583508D01*
X574108Y584200D01*
D02*
G37*
G36*
X890265Y443315D02*
X887735D01*
X885291Y442660D01*
X883099Y441395D01*
X881310Y439606D01*
X880045Y437414D01*
X879390Y434970D01*
Y432440D01*
X880045Y429996D01*
X881310Y427804D01*
X883099Y426015D01*
X885291Y424750D01*
X887735Y424095D01*
X890265D01*
X892709Y424750D01*
X894901Y426015D01*
X896690Y427804D01*
X897955Y429996D01*
X898610Y432440D01*
Y434970D01*
X897955Y437414D01*
X896690Y439606D01*
X894901Y441395D01*
X892709Y442660D01*
X890265Y443315D01*
D02*
G37*
G36*
X737865D02*
X735335D01*
X732891Y442660D01*
X730699Y441395D01*
X728910Y439606D01*
X727645Y437414D01*
X726990Y434970D01*
Y432440D01*
X727645Y429996D01*
X728910Y427804D01*
X730699Y426015D01*
X732891Y424750D01*
X735335Y424095D01*
X737865D01*
X740309Y424750D01*
X742501Y426015D01*
X744290Y427804D01*
X745555Y429996D01*
X746210Y432440D01*
Y434970D01*
X745555Y437414D01*
X744290Y439606D01*
X742501Y441395D01*
X740309Y442660D01*
X737865Y443315D01*
D02*
G37*
G36*
X943662Y443110D02*
X941018D01*
X938465Y442426D01*
X936175Y441104D01*
X934306Y439235D01*
X932984Y436945D01*
X932300Y434392D01*
Y431748D01*
X932984Y429195D01*
X934306Y426905D01*
X936175Y425036D01*
X938465Y423714D01*
X941018Y423030D01*
X943662D01*
X946215Y423714D01*
X948505Y425036D01*
X950374Y426905D01*
X951696Y429195D01*
X952380Y431748D01*
Y434392D01*
X951696Y436945D01*
X950374Y439235D01*
X948505Y441104D01*
X946215Y442426D01*
X943662Y443110D01*
D02*
G37*
G36*
X102380Y438770D02*
X82320D01*
Y418710D01*
X102380D01*
Y438770D01*
D02*
G37*
G36*
X57380Y427470D02*
X48620D01*
Y418710D01*
X48671D01*
X51221Y419394D01*
X53509Y420714D01*
X55376Y422581D01*
X56697Y424869D01*
X57380Y427420D01*
Y427470D01*
D02*
G37*
G36*
X46080D02*
X37320D01*
Y427420D01*
X38003Y424869D01*
X39324Y422581D01*
X41191Y420714D01*
X43479Y419394D01*
X46030Y418710D01*
X46080D01*
Y427470D01*
D02*
G37*
G36*
X876200Y619760D02*
X873860D01*
X871599Y619154D01*
X869571Y617984D01*
X867916Y616329D01*
X866746Y614301D01*
X866140Y612040D01*
Y609700D01*
X866746Y607439D01*
X867916Y605411D01*
X869571Y603756D01*
X871145Y602848D01*
Y599144D01*
X804178Y532177D01*
X803336Y530916D01*
X803040Y529430D01*
Y480239D01*
X740114Y417313D01*
X737865Y417915D01*
X735335D01*
X732891Y417260D01*
X730699Y415995D01*
X728910Y414206D01*
X727645Y412014D01*
X726990Y409570D01*
Y407040D01*
X727645Y404596D01*
X728910Y402404D01*
X730699Y400615D01*
X732891Y399350D01*
X735335Y398695D01*
X737865D01*
X740309Y399350D01*
X742501Y400615D01*
X744290Y402404D01*
X745555Y404596D01*
X746210Y407040D01*
Y409570D01*
X745608Y411819D01*
X809672Y475883D01*
X810514Y477143D01*
X810809Y478630D01*
Y527821D01*
X877777Y594788D01*
X878619Y596048D01*
X878915Y597535D01*
Y602848D01*
X880489Y603756D01*
X882144Y605411D01*
X883314Y607439D01*
X883920Y609700D01*
Y612040D01*
X883314Y614301D01*
X882144Y616329D01*
X880489Y617984D01*
X878461Y619154D01*
X876200Y619760D01*
D02*
G37*
G36*
X495200Y491490D02*
X492860D01*
X490599Y490884D01*
X488571Y489714D01*
X486916Y488059D01*
X485746Y486031D01*
X485140Y483770D01*
Y481430D01*
X485746Y479169D01*
X486916Y477141D01*
X488571Y475486D01*
X490599Y474316D01*
X492860Y473710D01*
X495200D01*
X496956Y474180D01*
X518085Y453051D01*
Y431118D01*
X518048Y431108D01*
X515732Y429770D01*
X513840Y427878D01*
X512502Y425562D01*
X511810Y422978D01*
Y420302D01*
X512502Y417718D01*
X513840Y415402D01*
X515732Y413510D01*
X518048Y412172D01*
X520632Y411480D01*
X523308D01*
X525892Y412172D01*
X528208Y413510D01*
X530100Y415402D01*
X531438Y417718D01*
X532130Y420302D01*
Y422978D01*
X531438Y425562D01*
X530100Y427878D01*
X528208Y429770D01*
X525892Y431108D01*
X525855Y431118D01*
Y454660D01*
X525559Y456147D01*
X524717Y457407D01*
X502450Y479674D01*
X502920Y481430D01*
Y483770D01*
X502314Y486031D01*
X501144Y488059D01*
X499489Y489714D01*
X497461Y490884D01*
X495200Y491490D01*
D02*
G37*
G36*
X890265Y417915D02*
X887735D01*
X885291Y417260D01*
X883099Y415995D01*
X881310Y414206D01*
X880045Y412014D01*
X879390Y409570D01*
Y407040D01*
X880045Y404596D01*
X881310Y402404D01*
X883099Y400615D01*
X885291Y399350D01*
X887735Y398695D01*
X890265D01*
X892709Y399350D01*
X894901Y400615D01*
X896690Y402404D01*
X897955Y404596D01*
X898610Y407040D01*
Y409570D01*
X897955Y412014D01*
X896690Y414206D01*
X894901Y415995D01*
X892709Y417260D01*
X890265Y417915D01*
D02*
G37*
G36*
X943662Y417710D02*
X941018D01*
X938465Y417026D01*
X936175Y415704D01*
X934306Y413835D01*
X932984Y411545D01*
X932300Y408992D01*
Y406348D01*
X932984Y403795D01*
X934306Y401505D01*
X936175Y399636D01*
X938465Y398314D01*
X941018Y397630D01*
X943662D01*
X946215Y398314D01*
X948505Y399636D01*
X950374Y401505D01*
X951696Y403795D01*
X952380Y406348D01*
Y408992D01*
X951696Y411545D01*
X950374Y413835D01*
X948505Y415704D01*
X946215Y417026D01*
X943662Y417710D01*
D02*
G37*
G36*
X335133Y390921D02*
X333148D01*
X331230Y390407D01*
X329511Y389415D01*
X328107Y388011D01*
X327114Y386292D01*
X326601Y384374D01*
Y382388D01*
X327114Y380471D01*
X328107Y378751D01*
X329511Y377348D01*
X331230Y376355D01*
X333148Y375841D01*
X335133D01*
X337051Y376355D01*
X338770Y377348D01*
X340174Y378751D01*
X341167Y380471D01*
X341680Y382388D01*
Y384374D01*
X341167Y386292D01*
X340174Y388011D01*
X338770Y389415D01*
X337051Y390407D01*
X335133Y390921D01*
D02*
G37*
G36*
X890265Y392515D02*
X887735D01*
X885291Y391860D01*
X883099Y390595D01*
X881310Y388806D01*
X880045Y386614D01*
X879390Y384170D01*
Y381640D01*
X880045Y379196D01*
X881310Y377004D01*
X883099Y375215D01*
X885291Y373950D01*
X887735Y373295D01*
X890265D01*
X892709Y373950D01*
X894901Y375215D01*
X896690Y377004D01*
X897955Y379196D01*
X898610Y381640D01*
Y384170D01*
X897955Y386614D01*
X896690Y388806D01*
X894901Y390595D01*
X892709Y391860D01*
X890265Y392515D01*
D02*
G37*
G36*
X624908Y584200D02*
X622232D01*
X619648Y583508D01*
X617332Y582170D01*
X615440Y580278D01*
X614102Y577962D01*
X613410Y575378D01*
Y572702D01*
X614102Y570118D01*
X615440Y567802D01*
X617332Y565910D01*
X619648Y564572D01*
X622232Y563880D01*
X624908D01*
X627492Y564572D01*
X627525Y564591D01*
X707315Y484801D01*
Y408305D01*
X707611Y406818D01*
X708453Y405558D01*
X727592Y386419D01*
X726990Y384170D01*
Y381640D01*
X727645Y379196D01*
X728910Y377004D01*
X730699Y375215D01*
X732891Y373950D01*
X735335Y373295D01*
X737865D01*
X740309Y373950D01*
X742501Y375215D01*
X744290Y377004D01*
X745555Y379196D01*
X746210Y381640D01*
Y384170D01*
X745555Y386614D01*
X744290Y388806D01*
X742501Y390595D01*
X740309Y391860D01*
X737865Y392515D01*
X735335D01*
X733086Y391912D01*
X715085Y409914D01*
Y486410D01*
X714789Y487897D01*
X713947Y489157D01*
X633018Y570085D01*
X633038Y570118D01*
X633730Y572702D01*
Y575378D01*
X633038Y577962D01*
X631700Y580278D01*
X629808Y582170D01*
X627492Y583508D01*
X624908Y584200D01*
D02*
G37*
G36*
X943662Y392310D02*
X941018D01*
X938465Y391626D01*
X936175Y390304D01*
X934306Y388435D01*
X932984Y386145D01*
X932300Y383592D01*
Y380948D01*
X932984Y378395D01*
X934306Y376105D01*
X936175Y374236D01*
X938465Y372914D01*
X941018Y372230D01*
X943662D01*
X946215Y372914D01*
X948505Y374236D01*
X950374Y376105D01*
X951696Y378395D01*
X952380Y380948D01*
Y383592D01*
X951696Y386145D01*
X950374Y388435D01*
X948505Y390304D01*
X946215Y391626D01*
X943662Y392310D01*
D02*
G37*
G36*
X263817Y485830D02*
X261963D01*
X260173Y485350D01*
X258567Y484423D01*
X257257Y483113D01*
X256330Y481507D01*
X255850Y479717D01*
Y477863D01*
X256330Y476073D01*
X257257Y474467D01*
X258567Y473157D01*
X260173Y472230D01*
X261963Y471750D01*
X263817D01*
X265307Y472149D01*
X366823Y370633D01*
X368083Y369791D01*
X369570Y369495D01*
X374679D01*
X375019Y368225D01*
X374271Y367794D01*
X372616Y366139D01*
X371446Y364111D01*
X370840Y361850D01*
Y359510D01*
X371446Y357249D01*
X372616Y355221D01*
X374271Y353566D01*
X375845Y352658D01*
Y350520D01*
X376141Y349033D01*
X376983Y347773D01*
X429053Y295703D01*
X430313Y294861D01*
X431800Y294565D01*
X481450D01*
Y288410D01*
X501530D01*
Y308490D01*
X481450D01*
Y302335D01*
X433409D01*
X384193Y351550D01*
X384362Y353089D01*
X385189Y353566D01*
X386844Y355221D01*
X388014Y357249D01*
X388620Y359510D01*
Y361850D01*
X388014Y364111D01*
X386844Y366139D01*
X385189Y367794D01*
X384441Y368225D01*
X384781Y369495D01*
X560938D01*
X561846Y367921D01*
X563501Y366266D01*
X565529Y365096D01*
X567790Y364490D01*
X570130D01*
X572391Y365096D01*
X574419Y366266D01*
X576074Y367921D01*
X577244Y369949D01*
X577850Y372210D01*
Y374550D01*
X577244Y376811D01*
X576074Y378839D01*
X574419Y380494D01*
X572391Y381664D01*
X570130Y382270D01*
X567790D01*
X565529Y381664D01*
X563501Y380494D01*
X561846Y378839D01*
X560938Y377265D01*
X371179D01*
X269930Y478514D01*
Y479717D01*
X269450Y481507D01*
X268523Y483113D01*
X267213Y484423D01*
X265607Y485350D01*
X263817Y485830D01*
D02*
G37*
G36*
X93671Y373770D02*
X91030D01*
X88479Y373087D01*
X86191Y371766D01*
X84324Y369898D01*
X83004Y367611D01*
X82320Y365061D01*
Y362420D01*
X83004Y359869D01*
X84324Y357581D01*
X86191Y355714D01*
X88479Y354394D01*
X91030Y353710D01*
X93671D01*
X96221Y354394D01*
X98509Y355714D01*
X100376Y357581D01*
X101697Y359869D01*
X102380Y362420D01*
Y365061D01*
X101697Y367611D01*
X100376Y369898D01*
X98509Y371766D01*
X96221Y373087D01*
X93671Y373770D01*
D02*
G37*
G36*
X48671D02*
X46030D01*
X43479Y373087D01*
X41191Y371766D01*
X39324Y369898D01*
X38003Y367611D01*
X37320Y365061D01*
Y362420D01*
X38003Y359869D01*
X39324Y357581D01*
X41191Y355714D01*
X43479Y354394D01*
X46030Y353710D01*
X48671D01*
X51221Y354394D01*
X53509Y355714D01*
X55376Y357581D01*
X56697Y359869D01*
X57380Y362420D01*
Y365061D01*
X56697Y367611D01*
X55376Y369898D01*
X53509Y371766D01*
X51221Y373087D01*
X48671Y373770D01*
D02*
G37*
G36*
X890265Y367115D02*
X887735D01*
X885291Y366460D01*
X883099Y365195D01*
X881310Y363406D01*
X880045Y361214D01*
X879390Y358770D01*
Y356240D01*
X880045Y353796D01*
X881310Y351604D01*
X883099Y349815D01*
X885291Y348550D01*
X887735Y347895D01*
X890265D01*
X892709Y348550D01*
X894901Y349815D01*
X896690Y351604D01*
X897955Y353796D01*
X898610Y356240D01*
Y358770D01*
X897955Y361214D01*
X896690Y363406D01*
X894901Y365195D01*
X892709Y366460D01*
X890265Y367115D01*
D02*
G37*
G36*
X599508Y584200D02*
X596832D01*
X594248Y583508D01*
X591932Y582170D01*
X590040Y580278D01*
X588702Y577962D01*
X588010Y575378D01*
Y572702D01*
X588702Y570118D01*
X590040Y567802D01*
X591932Y565910D01*
X594248Y564572D01*
X596832Y563880D01*
X599508D01*
X602092Y564572D01*
X602125Y564591D01*
X683185Y483531D01*
Y407035D01*
X683481Y405548D01*
X684323Y404288D01*
X727592Y361019D01*
X726990Y358770D01*
Y356240D01*
X727645Y353796D01*
X728910Y351604D01*
X730699Y349815D01*
X732891Y348550D01*
X735335Y347895D01*
X737865D01*
X740309Y348550D01*
X742501Y349815D01*
X744290Y351604D01*
X745555Y353796D01*
X746210Y356240D01*
Y358770D01*
X745555Y361214D01*
X744290Y363406D01*
X742501Y365195D01*
X740309Y366460D01*
X737865Y367115D01*
X735335D01*
X733086Y366512D01*
X690955Y408644D01*
Y485140D01*
X690659Y486627D01*
X689817Y487887D01*
X607618Y570085D01*
X607638Y570118D01*
X608330Y572702D01*
Y575378D01*
X607638Y577962D01*
X606300Y580278D01*
X604408Y582170D01*
X602092Y583508D01*
X599508Y584200D01*
D02*
G37*
G36*
X943662Y366910D02*
X941018D01*
X938465Y366226D01*
X936175Y364904D01*
X934306Y363035D01*
X932984Y360745D01*
X932300Y358192D01*
Y355548D01*
X932984Y352995D01*
X934306Y350705D01*
X936175Y348836D01*
X938465Y347514D01*
X941018Y346830D01*
X943662D01*
X946215Y347514D01*
X948505Y348836D01*
X950374Y350705D01*
X951696Y352995D01*
X952380Y355548D01*
Y358192D01*
X951696Y360745D01*
X950374Y363035D01*
X948505Y364904D01*
X946215Y366226D01*
X943662Y366910D01*
D02*
G37*
G36*
X1025125Y368300D02*
X1022115D01*
X1019208Y367521D01*
X1016602Y366016D01*
X1014474Y363888D01*
X1012969Y361282D01*
X1012190Y358375D01*
Y355365D01*
X1012969Y352458D01*
X1014474Y349852D01*
X1016602Y347724D01*
X1019208Y346219D01*
X1022115Y345440D01*
X1025125D01*
X1028032Y346219D01*
X1030638Y347724D01*
X1032766Y349852D01*
X1034271Y352458D01*
X1035050Y355365D01*
Y358375D01*
X1034271Y361282D01*
X1032766Y363888D01*
X1030638Y366016D01*
X1028032Y367521D01*
X1025125Y368300D01*
D02*
G37*
G36*
X447026Y354980D02*
X444514D01*
X442088Y354330D01*
X439912Y353074D01*
X438136Y351298D01*
X436880Y349122D01*
X436230Y346696D01*
Y344184D01*
X436880Y341758D01*
X438136Y339582D01*
X439912Y337806D01*
X442088Y336550D01*
X444514Y335900D01*
X447026D01*
X449452Y336550D01*
X451628Y337806D01*
X453404Y339582D01*
X454660Y341758D01*
X455310Y344184D01*
Y346696D01*
X454660Y349122D01*
X453404Y351298D01*
X451628Y353074D01*
X449452Y354330D01*
X447026Y354980D01*
D02*
G37*
G36*
X1025125Y342900D02*
X1024890D01*
Y332740D01*
X1035050D01*
Y332975D01*
X1034271Y335882D01*
X1032766Y338488D01*
X1030638Y340616D01*
X1028032Y342121D01*
X1025125Y342900D01*
D02*
G37*
G36*
X1022350D02*
X1022115D01*
X1019208Y342121D01*
X1016602Y340616D01*
X1014474Y338488D01*
X1012969Y335882D01*
X1012190Y332975D01*
Y332740D01*
X1022350D01*
Y342900D01*
D02*
G37*
G36*
X890265Y341715D02*
X887735D01*
X885291Y341060D01*
X883099Y339795D01*
X881310Y338006D01*
X880045Y335814D01*
X879390Y333370D01*
Y330840D01*
X880045Y328396D01*
X881310Y326204D01*
X883099Y324415D01*
X885291Y323150D01*
X887735Y322495D01*
X890265D01*
X892709Y323150D01*
X894901Y324415D01*
X896690Y326204D01*
X897955Y328396D01*
X898610Y330840D01*
Y333370D01*
X897955Y335814D01*
X896690Y338006D01*
X894901Y339795D01*
X892709Y341060D01*
X890265Y341715D01*
D02*
G37*
G36*
X943662Y341510D02*
X941018D01*
X938465Y340826D01*
X936175Y339504D01*
X934306Y337635D01*
X932984Y335345D01*
X932300Y332792D01*
Y330148D01*
X932984Y327595D01*
X934306Y325305D01*
X936175Y323436D01*
X938465Y322114D01*
X941018Y321430D01*
X943662D01*
X946215Y322114D01*
X948505Y323436D01*
X950374Y325305D01*
X951696Y327595D01*
X952380Y330148D01*
Y332792D01*
X951696Y335345D01*
X950374Y337635D01*
X948505Y339504D01*
X946215Y340826D01*
X943662Y341510D01*
D02*
G37*
G36*
X1035050Y330200D02*
X1024890D01*
Y320040D01*
X1025125D01*
X1028032Y320819D01*
X1030638Y322324D01*
X1032766Y324452D01*
X1034271Y327058D01*
X1035050Y329965D01*
Y330200D01*
D02*
G37*
G36*
X1022350D02*
X1012190D01*
Y329965D01*
X1012969Y327058D01*
X1014474Y324452D01*
X1016602Y322324D01*
X1019208Y320819D01*
X1022115Y320040D01*
X1022350D01*
Y330200D01*
D02*
G37*
G36*
X518212Y308490D02*
X518160D01*
Y299720D01*
X526930D01*
Y299772D01*
X526246Y302325D01*
X524924Y304615D01*
X523055Y306484D01*
X520765Y307806D01*
X518212Y308490D01*
D02*
G37*
G36*
X515620D02*
X515568D01*
X513015Y307806D01*
X510725Y306484D01*
X508856Y304615D01*
X507534Y302325D01*
X506850Y299772D01*
Y299720D01*
X515620D01*
Y308490D01*
D02*
G37*
G36*
X333190Y308402D02*
X333138D01*
Y299632D01*
X341908D01*
Y299684D01*
X341224Y302237D01*
X339902Y304527D01*
X338033Y306396D01*
X335743Y307718D01*
X333190Y308402D01*
D02*
G37*
G36*
X330598D02*
X330546D01*
X327993Y307718D01*
X325703Y306396D01*
X323834Y304527D01*
X322512Y302237D01*
X321828Y299684D01*
Y299632D01*
X330598D01*
Y308402D01*
D02*
G37*
G36*
X890265Y316315D02*
X887735D01*
X885291Y315660D01*
X883099Y314395D01*
X881310Y312606D01*
X880045Y310414D01*
X879390Y307970D01*
Y305440D01*
X880045Y302996D01*
X881310Y300804D01*
X883099Y299015D01*
X885291Y297750D01*
X887735Y297095D01*
X890265D01*
X892709Y297750D01*
X894901Y299015D01*
X896690Y300804D01*
X897955Y302996D01*
X898610Y305440D01*
Y307970D01*
X897955Y310414D01*
X896690Y312606D01*
X894901Y314395D01*
X892709Y315660D01*
X890265Y316315D01*
D02*
G37*
G36*
X943662Y316110D02*
X941018D01*
X938465Y315426D01*
X936175Y314104D01*
X934306Y312235D01*
X932984Y309945D01*
X932300Y307392D01*
Y304748D01*
X932984Y302195D01*
X934306Y299905D01*
X936175Y298036D01*
X938465Y296714D01*
X941018Y296030D01*
X943662D01*
X946215Y296714D01*
X948505Y298036D01*
X950374Y299905D01*
X951696Y302195D01*
X952380Y304748D01*
Y307392D01*
X951696Y309945D01*
X950374Y312235D01*
X948505Y314104D01*
X946215Y315426D01*
X943662Y316110D01*
D02*
G37*
G36*
X526930Y297180D02*
X518160D01*
Y288410D01*
X518212D01*
X520765Y289094D01*
X523055Y290416D01*
X524924Y292285D01*
X526246Y294575D01*
X526930Y297128D01*
Y297180D01*
D02*
G37*
G36*
X515620D02*
X506850D01*
Y297128D01*
X507534Y294575D01*
X508856Y292285D01*
X510725Y290416D01*
X513015Y289094D01*
X515568Y288410D01*
X515620D01*
Y297180D01*
D02*
G37*
G36*
X341908Y297092D02*
X333138D01*
Y288322D01*
X333190D01*
X335743Y289006D01*
X338033Y290328D01*
X339902Y292197D01*
X341224Y294487D01*
X341908Y297040D01*
Y297092D01*
D02*
G37*
G36*
X330598D02*
X321828D01*
Y297040D01*
X322512Y294487D01*
X323834Y292197D01*
X325703Y290328D01*
X327993Y289006D01*
X330546Y288322D01*
X330598D01*
Y297092D01*
D02*
G37*
G36*
X307240Y354330D02*
X304900D01*
X302639Y353724D01*
X300611Y352554D01*
X298956Y350899D01*
X297786Y348871D01*
X297180Y346610D01*
Y344270D01*
X297786Y342009D01*
X298956Y339981D01*
X300611Y338326D01*
X302185Y337417D01*
Y308402D01*
X296428D01*
Y288322D01*
X316508D01*
Y308402D01*
X309955D01*
Y337417D01*
X311529Y338326D01*
X313184Y339981D01*
X314354Y342009D01*
X314960Y344270D01*
Y346610D01*
X314354Y348871D01*
X313184Y350899D01*
X311529Y352554D01*
X309501Y353724D01*
X307240Y354330D01*
D02*
G37*
G36*
X890265Y290915D02*
X887735D01*
X885291Y290260D01*
X883099Y288995D01*
X881310Y287206D01*
X880045Y285014D01*
X879390Y282570D01*
Y280040D01*
X880045Y277596D01*
X881310Y275404D01*
X883099Y273615D01*
X885291Y272350D01*
X887735Y271695D01*
X890265D01*
X892709Y272350D01*
X894901Y273615D01*
X896690Y275404D01*
X897955Y277596D01*
X898610Y280040D01*
Y282570D01*
X897955Y285014D01*
X896690Y287206D01*
X894901Y288995D01*
X892709Y290260D01*
X890265Y290915D01*
D02*
G37*
G36*
Y265515D02*
X887735D01*
X885291Y264860D01*
X883099Y263595D01*
X881310Y261806D01*
X880045Y259614D01*
X879390Y257170D01*
Y254640D01*
X880045Y252196D01*
X881310Y250004D01*
X883099Y248215D01*
X885291Y246950D01*
X887735Y246295D01*
X890265D01*
X892709Y246950D01*
X894901Y248215D01*
X896690Y250004D01*
X897955Y252196D01*
X898610Y254640D01*
Y257170D01*
X897955Y259614D01*
X896690Y261806D01*
X894901Y263595D01*
X892709Y264860D01*
X890265Y265515D01*
D02*
G37*
G36*
X523226Y354980D02*
X520714D01*
X518288Y354330D01*
X516112Y353074D01*
X514336Y351298D01*
X513080Y349122D01*
X512430Y346696D01*
Y344184D01*
X513080Y341758D01*
X514336Y339582D01*
X516112Y337806D01*
X518288Y336550D01*
X520714Y335900D01*
X523226D01*
X525427Y336490D01*
X630983Y230933D01*
X632243Y230091D01*
X633730Y229795D01*
X646432D01*
X647216Y228436D01*
X648806Y226846D01*
X650754Y225722D01*
X652926Y225140D01*
X655174D01*
X657346Y225722D01*
X659294Y226846D01*
X660884Y228436D01*
X662008Y230384D01*
X662590Y232556D01*
Y234804D01*
X662008Y236976D01*
X660884Y238924D01*
X659294Y240514D01*
X657346Y241638D01*
X655174Y242220D01*
X652926D01*
X650754Y241638D01*
X648806Y240514D01*
X647216Y238924D01*
X646432Y237565D01*
X635339D01*
X530920Y341983D01*
X531510Y344184D01*
Y346696D01*
X530860Y349122D01*
X529604Y351298D01*
X527828Y353074D01*
X525652Y354330D01*
X523226Y354980D01*
D02*
G37*
G36*
X838100Y543560D02*
X835760D01*
X833499Y542954D01*
X831471Y541784D01*
X829816Y540129D01*
X828646Y538101D01*
X828040Y535840D01*
Y533500D01*
X828646Y531239D01*
X829816Y529211D01*
X831471Y527556D01*
X833045Y526647D01*
Y282575D01*
X833341Y281088D01*
X834183Y279828D01*
X879993Y234019D01*
X879390Y231770D01*
Y229240D01*
X880045Y226796D01*
X881310Y224604D01*
X883099Y222815D01*
X885291Y221550D01*
X887735Y220895D01*
X890265D01*
X892709Y221550D01*
X894901Y222815D01*
X896690Y224604D01*
X897955Y226796D01*
X898610Y229240D01*
Y231770D01*
X897955Y234214D01*
X896690Y236406D01*
X894901Y238195D01*
X892709Y239460D01*
X890265Y240115D01*
X887735D01*
X885486Y239513D01*
X840815Y284184D01*
Y526647D01*
X842389Y527556D01*
X844044Y529211D01*
X845214Y531239D01*
X845820Y533500D01*
Y535840D01*
X845214Y538101D01*
X844044Y540129D01*
X842389Y541784D01*
X840361Y542954D01*
X838100Y543560D01*
D02*
G37*
G36*
X655320Y165981D02*
Y158750D01*
X662551D01*
X662008Y160776D01*
X660884Y162724D01*
X659294Y164314D01*
X657346Y165438D01*
X655320Y165981D01*
D02*
G37*
G36*
X652780D02*
X650754Y165438D01*
X648806Y164314D01*
X647216Y162724D01*
X646092Y160776D01*
X645549Y158750D01*
X652780D01*
Y165981D01*
D02*
G37*
G36*
X662551Y156210D02*
X655320D01*
Y148979D01*
X657346Y149522D01*
X659294Y150646D01*
X660884Y152236D01*
X662008Y154184D01*
X662551Y156210D01*
D02*
G37*
G36*
X652780D02*
X645549D01*
X646092Y154184D01*
X647216Y152236D01*
X648806Y150646D01*
X650754Y149522D01*
X652780Y148979D01*
Y156210D01*
D02*
G37*
G36*
X332792Y65920D02*
X332740D01*
Y57150D01*
X341510D01*
Y57202D01*
X340826Y59755D01*
X339504Y62045D01*
X337635Y63914D01*
X335345Y65236D01*
X332792Y65920D01*
D02*
G37*
G36*
X330200D02*
X330148D01*
X327595Y65236D01*
X325305Y63914D01*
X323436Y62045D01*
X322114Y59755D01*
X321430Y57202D01*
Y57150D01*
X330200D01*
Y65920D01*
D02*
G37*
G36*
X146102D02*
X146050D01*
Y57150D01*
X154820D01*
Y57202D01*
X154136Y59755D01*
X152814Y62045D01*
X150945Y63914D01*
X148655Y65236D01*
X146102Y65920D01*
D02*
G37*
G36*
X143510D02*
X143458D01*
X140905Y65236D01*
X138615Y63914D01*
X136746Y62045D01*
X135424Y59755D01*
X134740Y57202D01*
Y57150D01*
X143510D01*
Y65920D01*
D02*
G37*
G36*
X518212D02*
X515568D01*
X513015Y65236D01*
X510725Y63914D01*
X508856Y62045D01*
X507534Y59755D01*
X506850Y57202D01*
Y54558D01*
X507534Y52005D01*
X508856Y49715D01*
X510725Y47846D01*
X513015Y46524D01*
X515568Y45840D01*
X518212D01*
X520765Y46524D01*
X523055Y47846D01*
X524924Y49715D01*
X526246Y52005D01*
X526930Y54558D01*
Y57202D01*
X526246Y59755D01*
X524924Y62045D01*
X523055Y63914D01*
X520765Y65236D01*
X518212Y65920D01*
D02*
G37*
G36*
X501530D02*
X481450D01*
Y45840D01*
X501530D01*
Y65920D01*
D02*
G37*
G36*
X341510Y54610D02*
X332740D01*
Y45840D01*
X332792D01*
X335345Y46524D01*
X337635Y47846D01*
X339504Y49715D01*
X340826Y52005D01*
X341510Y54558D01*
Y54610D01*
D02*
G37*
G36*
X330200D02*
X321430D01*
Y54558D01*
X322114Y52005D01*
X323436Y49715D01*
X325305Y47846D01*
X327595Y46524D01*
X330148Y45840D01*
X330200D01*
Y54610D01*
D02*
G37*
G36*
X316110Y65920D02*
X296030D01*
Y45840D01*
X316110D01*
Y65920D01*
D02*
G37*
G36*
X154820Y54610D02*
X146050D01*
Y45840D01*
X146102D01*
X148655Y46524D01*
X150945Y47846D01*
X152814Y49715D01*
X154136Y52005D01*
X154820Y54558D01*
Y54610D01*
D02*
G37*
G36*
X143510D02*
X134740D01*
Y54558D01*
X135424Y52005D01*
X136746Y49715D01*
X138615Y47846D01*
X140905Y46524D01*
X143458Y45840D01*
X143510D01*
Y54610D01*
D02*
G37*
G36*
X118010Y579120D02*
X115670D01*
X113409Y578514D01*
X111381Y577344D01*
X109726Y575689D01*
X108556Y573661D01*
X107950Y571400D01*
Y569060D01*
X108556Y566799D01*
X109726Y564771D01*
X111381Y563116D01*
X112955Y562207D01*
Y65920D01*
X109340D01*
Y45840D01*
X129420D01*
Y65920D01*
X120725D01*
Y562207D01*
X122299Y563116D01*
X123954Y564771D01*
X125124Y566799D01*
X125730Y569060D01*
Y571400D01*
X125124Y573661D01*
X123954Y575689D01*
X122299Y577344D01*
X120271Y578514D01*
X118010Y579120D01*
D02*
G37*
%LPD*%
G36*
X345233Y430323D02*
X346493Y429481D01*
X347980Y429185D01*
X411888D01*
X412374Y428012D01*
X412240Y427878D01*
X410902Y425562D01*
X410892Y425525D01*
X345779D01*
X285584Y485720D01*
X286110Y486990D01*
X286677D01*
X288167Y487389D01*
X345233Y430323D01*
D02*
G37*
D13*
X116840Y58420D02*
Y570230D01*
Y58420D02*
X119380Y55880D01*
X633730Y233680D02*
X654050D01*
X521970Y345440D02*
X633730Y233680D01*
X806925Y529430D02*
X875030Y597535D01*
X806925Y478630D02*
Y529430D01*
X736600Y408305D02*
X806925Y478630D01*
X306070Y298760D02*
Y345440D01*
Y298760D02*
X306468Y298362D01*
X379730Y350520D02*
Y360680D01*
Y350520D02*
X431800Y298450D01*
X369570Y373380D02*
X568960D01*
X264160Y478790D02*
X369570Y373380D01*
X431800Y298450D02*
X491490D01*
X379730Y467360D02*
Y494030D01*
X344170Y449580D02*
X469900D01*
X302260Y491490D02*
X344170Y449580D01*
X444500Y344170D02*
X445770Y345440D01*
X637540Y405765D02*
X736600Y306705D01*
X547370Y574040D02*
X637540Y483870D01*
Y405765D02*
Y483870D01*
X496570Y574040D02*
X586740Y483870D01*
Y405765D02*
Y483870D01*
Y405765D02*
X736600Y255905D01*
X521970Y574040D02*
X610870Y485140D01*
Y407035D02*
Y485140D01*
Y407035D02*
X736600Y281305D01*
X560070Y407035D02*
X736600Y230505D01*
X560070Y407035D02*
Y448578D01*
X561880Y450388D01*
Y483330D01*
X347980Y433070D02*
X485140D01*
X496570Y421640D01*
X529590Y403860D02*
X547370Y421640D01*
X360680Y403860D02*
X529590D01*
X836930Y282575D02*
Y534670D01*
X875030Y597535D02*
Y610870D01*
X836930Y282575D02*
X889000Y230505D01*
X661670Y407035D02*
X736600Y332105D01*
X661670Y407035D02*
Y485140D01*
X572770Y574040D02*
X661670Y485140D01*
X471170Y574040D02*
X561880Y483330D01*
X687070Y407035D02*
Y485140D01*
X598170Y574040D02*
X687070Y485140D01*
X623570Y574040D02*
X711200Y486410D01*
Y408305D02*
Y486410D01*
X287020Y494030D02*
X347980Y433070D01*
X266700Y499110D02*
X344170Y421640D01*
X420370D01*
X285750Y494030D02*
X287020D01*
X262890Y478790D02*
X264160D01*
X711200Y408305D02*
X736600Y382905D01*
X494030Y482600D02*
X521970Y454660D01*
Y421640D02*
Y454660D01*
X687070Y407035D02*
X736600Y357505D01*
D25*
Y382905D02*
D03*
Y357505D02*
D03*
Y332105D02*
D03*
Y306705D02*
D03*
Y255905D02*
D03*
Y230505D02*
D03*
X889000D02*
D03*
X736600Y281305D02*
D03*
X889000Y509905D02*
D03*
Y586105D02*
D03*
Y560705D02*
D03*
Y535305D02*
D03*
Y484505D02*
D03*
Y459105D02*
D03*
Y433705D02*
D03*
Y408305D02*
D03*
Y382905D02*
D03*
Y357505D02*
D03*
Y332105D02*
D03*
Y306705D02*
D03*
Y281305D02*
D03*
Y255905D02*
D03*
X736600Y408305D02*
D03*
Y433705D02*
D03*
Y459105D02*
D03*
Y484505D02*
D03*
Y509905D02*
D03*
Y535305D02*
D03*
Y560705D02*
D03*
D26*
Y586105D02*
D03*
D31*
X116840Y609600D02*
D03*
X193040D02*
D03*
X654050Y157480D02*
D03*
Y233680D02*
D03*
D32*
X334141Y383381D02*
D03*
D33*
X92350Y363740D02*
D03*
X47350D02*
D03*
Y428740D02*
D03*
X92350Y484390D02*
D03*
X47350D02*
D03*
Y549390D02*
D03*
D34*
X92350Y428740D02*
D03*
Y549390D02*
D03*
D35*
X331868Y298362D02*
D03*
X144780Y55880D02*
D03*
X331470D02*
D03*
X516890D02*
D03*
Y298450D02*
D03*
X942340Y458470D02*
D03*
Y433070D02*
D03*
Y407670D02*
D03*
Y382270D02*
D03*
Y356870D02*
D03*
Y331470D02*
D03*
Y306070D02*
D03*
D36*
X306468Y298362D02*
D03*
X119380Y55880D02*
D03*
X306070D02*
D03*
X491490D02*
D03*
Y298450D02*
D03*
D37*
X445770Y345440D02*
D03*
X521970D02*
D03*
X1023620Y521970D02*
D03*
Y445770D02*
D03*
X998220Y610870D02*
D03*
X922020D02*
D03*
D38*
X1111590Y21350D02*
D03*
Y641350D02*
D03*
X21590Y21350D02*
D03*
Y641350D02*
D03*
X420370Y574040D02*
D03*
X445770D02*
D03*
X471170D02*
D03*
X496570D02*
D03*
X521970D02*
D03*
X547370D02*
D03*
X572770D02*
D03*
X598170D02*
D03*
X623570D02*
D03*
X648970D02*
D03*
Y421640D02*
D03*
X623570D02*
D03*
X598170D02*
D03*
X572770D02*
D03*
X547370D02*
D03*
X521970D02*
D03*
X496570D02*
D03*
X471170D02*
D03*
X445770D02*
D03*
X420370D02*
D03*
D39*
X942340Y483870D02*
D03*
D40*
X1023620Y356870D02*
D03*
Y331470D02*
D03*
X999490Y576580D02*
D03*
Y551180D02*
D03*
D41*
X116840Y570230D02*
D03*
X306070Y345440D02*
D03*
X379730Y360680D02*
D03*
X568960Y373380D02*
D03*
X469900Y449580D02*
D03*
X836930Y534670D02*
D03*
X494030Y482600D02*
D03*
X875030Y610870D02*
D03*
D42*
X379730Y467360D02*
D03*
X360680Y403860D02*
D03*
X379730Y494030D02*
D03*
X266700Y499110D02*
D03*
X285750Y494030D02*
D03*
X302260Y491490D02*
D03*
X262890Y478790D02*
D03*
M02*
