G04*
G04 #@! TF.GenerationSoftware,Altium Limited,Altium Designer,22.5.1 (42)*
G04*
G04 Layer_Color=16711935*
%FSLAX44Y44*%
%MOMM*%
G71*
G04*
G04 #@! TF.SameCoordinates,59833303-F81C-41AE-A648-6339ECF52ADC*
G04*
G04*
G04 #@! TF.FilePolarity,Positive*
G04*
G01*
G75*
%ADD11C,0.1270*%
D11*
X87400Y396240D02*
X87213Y398795D01*
X86656Y401296D01*
X85741Y403689D01*
X84487Y405924D01*
X82921Y407952D01*
X81076Y409730D01*
X78993Y411221D01*
X76714Y412392D01*
X74289Y413219D01*
X71769Y413685D01*
X69209Y413778D01*
X66662Y413498D01*
X64183Y412850D01*
X61825Y411848D01*
X59638Y410513D01*
X57669Y408874D01*
X55959Y406966D01*
X54545Y404829D01*
X53458Y402509D01*
X52720Y400056D01*
X52347Y397521D01*
Y394959D01*
X52720Y392424D01*
X53458Y389971D01*
X54545Y387651D01*
X55959Y385514D01*
X57669Y383606D01*
X59638Y381967D01*
X61825Y380632D01*
X64184Y379630D01*
X66662Y378982D01*
X69209Y378702D01*
X71769Y378795D01*
X74289Y379261D01*
X76714Y380088D01*
X78993Y381259D01*
X81076Y382750D01*
X82921Y384529D01*
X84487Y386557D01*
X85741Y388791D01*
X86656Y391184D01*
X87213Y393685D01*
X87400Y396240D01*
Y516890D02*
X87213Y519445D01*
X86656Y521946D01*
X85741Y524339D01*
X84487Y526573D01*
X82921Y528601D01*
X81076Y530380D01*
X78993Y531871D01*
X76714Y533042D01*
X74289Y533869D01*
X71769Y534335D01*
X69209Y534428D01*
X66662Y534148D01*
X64183Y533500D01*
X61825Y532498D01*
X59638Y531163D01*
X57669Y529524D01*
X55959Y527616D01*
X54545Y525479D01*
X53458Y523159D01*
X52720Y520706D01*
X52347Y518171D01*
Y515609D01*
X52720Y513074D01*
X53458Y510621D01*
X54545Y508301D01*
X55959Y506164D01*
X57669Y504256D01*
X59638Y502617D01*
X61825Y501282D01*
X64184Y500280D01*
X66662Y499632D01*
X69209Y499352D01*
X71769Y499445D01*
X74289Y499911D01*
X76714Y500738D01*
X78993Y501909D01*
X81076Y503400D01*
X82921Y505179D01*
X84487Y507206D01*
X85741Y509441D01*
X86656Y511834D01*
X87213Y514335D01*
X87400Y516890D01*
X99800Y366290D02*
Y426190D01*
X39900Y366290D02*
X99800D01*
X39900D02*
Y426190D01*
X99800D01*
Y486940D02*
Y546840D01*
X39900Y486940D02*
X99800D01*
X39900D02*
Y546840D01*
X99800D01*
M02*
