G04*
G04 #@! TF.GenerationSoftware,Altium Limited,Altium Designer,22.5.1 (42)*
G04*
G04 Layer_Color=32896*
%FSLAX44Y44*%
%MOMM*%
G71*
G04*
G04 #@! TF.SameCoordinates,B077D55B-57A0-4187-A1B5-AB18AB574598*
G04*
G04*
G04 #@! TF.FilePolarity,Positive*
G04*
G01*
G75*
%ADD11C,0.2000*%
G36*
X210984Y686407D02*
X211061Y686402D01*
X211148Y686396D01*
X211247Y686385D01*
X211356Y686374D01*
X211471Y686358D01*
X211591Y686336D01*
X211836Y686281D01*
X211957Y686249D01*
X212077Y686205D01*
X212197Y686161D01*
X212306Y686107D01*
X212311Y686101D01*
X212333Y686090D01*
X212361Y686074D01*
X212399Y686047D01*
X212443Y686014D01*
X212497Y685976D01*
X212557Y685932D01*
X212623Y685877D01*
X212688Y685817D01*
X212754Y685752D01*
X212819Y685675D01*
X212890Y685599D01*
X212956Y685511D01*
X213016Y685418D01*
X213071Y685315D01*
X213120Y685211D01*
Y685206D01*
X213131Y685184D01*
X213142Y685151D01*
X213158Y685102D01*
X213174Y685042D01*
X213196Y684971D01*
X213218Y684889D01*
X213240Y684790D01*
X213262Y684681D01*
X213284Y684561D01*
X213305Y684430D01*
X213322Y684288D01*
X213338Y684135D01*
X213349Y683971D01*
X213354Y683797D01*
X213360Y683611D01*
Y679919D01*
X212514D01*
Y683605D01*
Y683616D01*
Y683644D01*
Y683682D01*
Y683742D01*
X212508Y683808D01*
X212503Y683889D01*
Y683977D01*
X212492Y684070D01*
X212475Y684266D01*
X212448Y684474D01*
X212432Y684572D01*
X212410Y684665D01*
X212388Y684752D01*
X212361Y684829D01*
Y684834D01*
X212355Y684845D01*
X212344Y684867D01*
X212333Y684894D01*
X212311Y684927D01*
X212290Y684965D01*
X212235Y685053D01*
X212164Y685151D01*
X212071Y685249D01*
X211962Y685348D01*
X211831Y685435D01*
X211826D01*
X211814Y685446D01*
X211793Y685457D01*
X211765Y685468D01*
X211727Y685484D01*
X211684Y685500D01*
X211634Y685522D01*
X211574Y685539D01*
X211509Y685561D01*
X211443Y685582D01*
X211367Y685599D01*
X211285Y685615D01*
X211110Y685637D01*
X210914Y685648D01*
X210870D01*
X210826Y685642D01*
X210761D01*
X210684Y685637D01*
X210597Y685626D01*
X210498Y685615D01*
X210395Y685593D01*
X210291Y685572D01*
X210176Y685544D01*
X210067Y685511D01*
X209958Y685468D01*
X209854Y685424D01*
X209756Y685364D01*
X209668Y685304D01*
X209586Y685227D01*
X209581Y685222D01*
X209570Y685206D01*
X209548Y685178D01*
X209526Y685140D01*
X209494Y685091D01*
X209461Y685031D01*
X209423Y684954D01*
X209384Y684867D01*
X209352Y684763D01*
X209313Y684649D01*
X209281Y684512D01*
X209248Y684365D01*
X209226Y684201D01*
X209204Y684020D01*
X209193Y683824D01*
X209188Y683605D01*
Y679919D01*
X208341D01*
Y683611D01*
Y683622D01*
Y683655D01*
Y683704D01*
X208347Y683769D01*
Y683851D01*
X208352Y683944D01*
X208358Y684048D01*
X208369Y684163D01*
X208380Y684283D01*
X208396Y684408D01*
X208434Y684660D01*
X208489Y684911D01*
X208522Y685031D01*
X208560Y685140D01*
Y685145D01*
X208571Y685167D01*
X208582Y685195D01*
X208603Y685233D01*
X208625Y685282D01*
X208658Y685337D01*
X208696Y685402D01*
X208740Y685468D01*
X208789Y685539D01*
X208849Y685615D01*
X208909Y685692D01*
X208986Y685768D01*
X209062Y685844D01*
X209150Y685921D01*
X209242Y685992D01*
X209346Y686063D01*
X209352Y686068D01*
X209373Y686079D01*
X209406Y686096D01*
X209450Y686118D01*
X209505Y686145D01*
X209576Y686172D01*
X209652Y686205D01*
X209745Y686238D01*
X209849Y686271D01*
X209958Y686303D01*
X210083Y686330D01*
X210215Y686358D01*
X210356Y686380D01*
X210509Y686396D01*
X210668Y686407D01*
X210837Y686412D01*
X210924D01*
X210984Y686407D01*
D02*
G37*
G36*
X205087Y681312D02*
X205092Y681317D01*
X205098Y681323D01*
X205114Y681339D01*
X205136Y681356D01*
X205168Y681383D01*
X205201Y681410D01*
X205240Y681443D01*
X205283Y681481D01*
X205392Y681563D01*
X205518Y681650D01*
X205665Y681749D01*
X205829Y681852D01*
X205835Y681858D01*
X205851Y681863D01*
X205873Y681880D01*
X205906Y681896D01*
X205944Y681918D01*
X205993Y681945D01*
X206048Y681973D01*
X206102Y682005D01*
X206233Y682071D01*
X206370Y682137D01*
X206512Y682202D01*
X206648Y682257D01*
Y681497D01*
X206643Y681492D01*
X206621Y681481D01*
X206583Y681465D01*
X206539Y681443D01*
X206479Y681410D01*
X206414Y681377D01*
X206343Y681334D01*
X206261Y681285D01*
X206173Y681235D01*
X206080Y681175D01*
X205889Y681050D01*
X205698Y680908D01*
X205507Y680749D01*
X205502Y680744D01*
X205485Y680727D01*
X205458Y680706D01*
X205425Y680673D01*
X205387Y680635D01*
X205338Y680586D01*
X205289Y680536D01*
X205234Y680476D01*
X205119Y680345D01*
X205005Y680203D01*
X204895Y680050D01*
X204852Y679968D01*
X204808Y679892D01*
X204300D01*
Y686303D01*
X205087D01*
Y681312D01*
D02*
G37*
D11*
X303260Y458105D02*
Y910955D01*
X123460D02*
X303260D01*
X123460Y458105D02*
Y910955D01*
Y458105D02*
X303260D01*
M02*
