G04*
G04 #@! TF.GenerationSoftware,Altium Limited,Altium Designer,22.5.1 (42)*
G04*
G04 Layer_Physical_Order=1*
G04 Layer_Color=255*
%FSLAX44Y44*%
%MOMM*%
G71*
G04*
G04 #@! TF.SameCoordinates,1D14C43D-CD2F-4EB4-8214-3B859825D5DF*
G04*
G04*
G04 #@! TF.FilePolarity,Positive*
G04*
G01*
G75*
%ADD14C,0.2540*%
%ADD17C,0.0254*%
%ADD23R,1.4140X1.4140*%
%ADD24C,1.4140*%
%ADD39R,2.0000X2.0000*%
%ADD40C,2.0000*%
%ADD41C,0.8000*%
%ADD42R,0.8000X0.8000*%
%ADD43C,1.5240*%
%ADD44R,1.5000X1.5000*%
%ADD45C,1.5000*%
%ADD46C,1.0000*%
%ADD47R,1.5000X1.5000*%
%ADD48C,1.9800*%
%ADD49C,1.9350*%
%ADD50R,1.9800X1.9800*%
%ADD51C,1.7780*%
%ADD52C,1.6000*%
%ADD53R,1.6000X1.6000*%
%ADD54C,1.4000*%
%ADD55C,1.2700*%
%ADD56C,0.9000*%
G36*
X799997Y740096D02*
X800725Y739795D01*
X801380Y739357D01*
X801937Y738800D01*
X802375Y738145D01*
X802676Y737417D01*
X802830Y736644D01*
Y736250D01*
Y720250D01*
X794830D01*
Y736250D01*
Y736644D01*
X794984Y737417D01*
X795285Y738145D01*
X795723Y738800D01*
X796280Y739357D01*
X796935Y739795D01*
X797663Y740096D01*
X798436Y740250D01*
X799224D01*
X799997Y740096D01*
D02*
G37*
G36*
X787297D02*
X788025Y739795D01*
X788680Y739357D01*
X789237Y738800D01*
X789675Y738145D01*
X789976Y737417D01*
X790130Y736644D01*
Y736250D01*
Y720250D01*
X782130D01*
Y736250D01*
Y736644D01*
X782284Y737417D01*
X782585Y738145D01*
X783023Y738800D01*
X783580Y739357D01*
X784235Y739795D01*
X784963Y740096D01*
X785736Y740250D01*
X786524D01*
X787297Y740096D01*
D02*
G37*
G36*
X774597D02*
X775325Y739795D01*
X775980Y739357D01*
X776537Y738800D01*
X776975Y738145D01*
X777276Y737417D01*
X777430Y736644D01*
Y736250D01*
Y720250D01*
X769430D01*
Y736250D01*
Y736644D01*
X769584Y737417D01*
X769885Y738145D01*
X770323Y738800D01*
X770880Y739357D01*
X771535Y739795D01*
X772263Y740096D01*
X773036Y740250D01*
X773824D01*
X774597Y740096D01*
D02*
G37*
G36*
X761897D02*
X762625Y739795D01*
X763280Y739357D01*
X763837Y738800D01*
X764275Y738145D01*
X764576Y737417D01*
X764730Y736644D01*
Y736250D01*
Y720250D01*
X756730D01*
Y736250D01*
Y736644D01*
X756884Y737417D01*
X757185Y738145D01*
X757623Y738800D01*
X758180Y739357D01*
X758835Y739795D01*
X759563Y740096D01*
X760336Y740250D01*
X761124D01*
X761897Y740096D01*
D02*
G37*
G36*
X749197D02*
X749925Y739795D01*
X750580Y739357D01*
X751137Y738800D01*
X751575Y738145D01*
X751876Y737417D01*
X752030Y736644D01*
Y736250D01*
Y720250D01*
X744030D01*
Y736250D01*
Y736644D01*
X744184Y737417D01*
X744485Y738145D01*
X744923Y738800D01*
X745480Y739357D01*
X746135Y739795D01*
X746863Y740096D01*
X747636Y740250D01*
X748424D01*
X749197Y740096D01*
D02*
G37*
G36*
X736497D02*
X737225Y739795D01*
X737880Y739357D01*
X738437Y738800D01*
X738875Y738145D01*
X739176Y737417D01*
X739330Y736644D01*
Y736250D01*
Y720250D01*
X731330D01*
Y736250D01*
Y736644D01*
X731484Y737417D01*
X731785Y738145D01*
X732223Y738800D01*
X732780Y739357D01*
X733435Y739795D01*
X734163Y740096D01*
X734936Y740250D01*
X735724D01*
X736497Y740096D01*
D02*
G37*
G36*
X723797D02*
X724525Y739795D01*
X725180Y739357D01*
X725737Y738800D01*
X726175Y738145D01*
X726476Y737417D01*
X726630Y736644D01*
Y736250D01*
Y720250D01*
X718630D01*
Y736250D01*
Y736644D01*
X718784Y737417D01*
X719085Y738145D01*
X719523Y738800D01*
X720080Y739357D01*
X720735Y739795D01*
X721463Y740096D01*
X722236Y740250D01*
X723024D01*
X723797Y740096D01*
D02*
G37*
G36*
X711097D02*
X711825Y739795D01*
X712480Y739357D01*
X713037Y738800D01*
X713475Y738145D01*
X713776Y737417D01*
X713930Y736644D01*
Y736250D01*
Y720250D01*
X705930D01*
Y736250D01*
Y736644D01*
X706084Y737417D01*
X706385Y738145D01*
X706823Y738800D01*
X707380Y739357D01*
X708035Y739795D01*
X708763Y740096D01*
X709536Y740250D01*
X710324D01*
X711097Y740096D01*
D02*
G37*
G36*
X698397D02*
X699125Y739795D01*
X699780Y739357D01*
X700337Y738800D01*
X700775Y738145D01*
X701076Y737417D01*
X701230Y736644D01*
Y736250D01*
Y720250D01*
X693230D01*
Y736250D01*
Y736644D01*
X693384Y737417D01*
X693685Y738145D01*
X694123Y738800D01*
X694680Y739357D01*
X695335Y739795D01*
X696063Y740096D01*
X696836Y740250D01*
X697624D01*
X698397Y740096D01*
D02*
G37*
G36*
X685697D02*
X686425Y739795D01*
X687080Y739357D01*
X687637Y738800D01*
X688075Y738145D01*
X688376Y737417D01*
X688530Y736644D01*
Y736250D01*
Y720250D01*
X680530D01*
Y736250D01*
Y736644D01*
X680684Y737417D01*
X680985Y738145D01*
X681423Y738800D01*
X681980Y739357D01*
X682635Y739795D01*
X683363Y740096D01*
X684136Y740250D01*
X684924D01*
X685697Y740096D01*
D02*
G37*
G36*
X672997D02*
X673725Y739795D01*
X674380Y739357D01*
X674937Y738800D01*
X675375Y738145D01*
X675676Y737417D01*
X675830Y736644D01*
Y736250D01*
Y720250D01*
X667830D01*
Y736250D01*
Y736644D01*
X667984Y737417D01*
X668285Y738145D01*
X668723Y738800D01*
X669280Y739357D01*
X669935Y739795D01*
X670663Y740096D01*
X671436Y740250D01*
X672224D01*
X672997Y740096D01*
D02*
G37*
G36*
X660297D02*
X661025Y739795D01*
X661680Y739357D01*
X662237Y738800D01*
X662675Y738145D01*
X662976Y737417D01*
X663130Y736644D01*
Y736250D01*
Y720250D01*
X655130D01*
Y736250D01*
Y736644D01*
X655284Y737417D01*
X655585Y738145D01*
X656023Y738800D01*
X656580Y739357D01*
X657235Y739795D01*
X657963Y740096D01*
X658736Y740250D01*
X659524D01*
X660297Y740096D01*
D02*
G37*
G36*
X733150Y321481D02*
X734572D01*
Y321196D01*
X735140D01*
Y320912D01*
X735425D01*
Y320628D01*
X735709D01*
Y320343D01*
X736278D01*
Y320059D01*
X736562D01*
Y319775D01*
X736846D01*
Y319490D01*
X737131D01*
Y319206D01*
X737415D01*
Y318922D01*
X737699D01*
Y318637D01*
X737984D01*
Y318353D01*
X738268D01*
Y318069D01*
X738552D01*
Y317784D01*
X738837D01*
Y317500D01*
X739121D01*
Y317216D01*
X739405D01*
Y316931D01*
X739690D01*
Y316647D01*
X739974D01*
Y316363D01*
X740258D01*
Y316078D01*
X740543D01*
Y315794D01*
X740827D01*
Y315510D01*
X741111D01*
Y315225D01*
X741396D01*
Y314941D01*
X741680D01*
Y314657D01*
X741964D01*
Y314372D01*
X742249D01*
Y314088D01*
X742533D01*
Y313804D01*
X742817D01*
Y313519D01*
X743102D01*
Y313235D01*
X743386D01*
Y312951D01*
X743670D01*
Y312666D01*
X743955D01*
Y312382D01*
X744239D01*
Y312098D01*
X744523D01*
Y311813D01*
X744808D01*
Y311529D01*
X745092D01*
Y311245D01*
X745376D01*
Y310960D01*
X745661D01*
Y310676D01*
X745945D01*
Y310392D01*
X746229D01*
Y310107D01*
X746514D01*
Y309823D01*
X746798D01*
Y309539D01*
X747082D01*
Y309254D01*
X747367D01*
Y308970D01*
X747935D01*
Y308686D01*
X748220D01*
Y308402D01*
X748504D01*
Y308117D01*
X748788D01*
Y307833D01*
X749072D01*
Y307549D01*
X749357D01*
Y307264D01*
X749641D01*
Y306980D01*
X749926D01*
Y306695D01*
X750210D01*
Y306411D01*
X750494D01*
Y306127D01*
X750779D01*
Y305842D01*
X751063D01*
Y305558D01*
X751347D01*
Y305274D01*
X751631D01*
Y304989D01*
X751916D01*
Y304705D01*
X752200D01*
Y304421D01*
X752485D01*
Y304137D01*
X752769D01*
Y303852D01*
X753053D01*
Y303568D01*
X753337D01*
Y303284D01*
X753622D01*
Y302999D01*
X753906D01*
Y302715D01*
X754190D01*
Y302431D01*
X754475D01*
Y302146D01*
X754759D01*
Y301862D01*
X755043D01*
Y301578D01*
X755328D01*
Y301293D01*
X755612D01*
Y301009D01*
X755896D01*
Y300725D01*
X756181D01*
Y300440D01*
X756465D01*
Y300156D01*
X756749D01*
Y299872D01*
X757034D01*
Y299587D01*
X757318D01*
Y299303D01*
X757602D01*
Y299019D01*
X757887D01*
Y298734D01*
X758171D01*
Y298450D01*
X758455D01*
Y298166D01*
X758740D01*
Y297881D01*
X759308D01*
Y297597D01*
X759593D01*
Y297313D01*
X759877D01*
Y297028D01*
X760161D01*
Y296744D01*
X760446D01*
Y296460D01*
X760730D01*
Y296175D01*
X761014D01*
Y295891D01*
X761299D01*
Y295607D01*
X761583D01*
Y295322D01*
X761867D01*
Y295038D01*
X762152D01*
Y294754D01*
X762436D01*
Y294469D01*
X762720D01*
Y294185D01*
X763005D01*
Y293901D01*
X763289D01*
Y293616D01*
X763573D01*
Y293332D01*
X763858D01*
Y293048D01*
X764142D01*
Y292763D01*
X764426D01*
Y292479D01*
X764711D01*
Y292195D01*
X764995D01*
Y291910D01*
X765279D01*
Y291626D01*
X765564D01*
Y291342D01*
X765848D01*
Y291057D01*
X766132D01*
Y290773D01*
X766417D01*
Y290489D01*
X766701D01*
Y290205D01*
X766985D01*
Y289920D01*
X767270D01*
Y289636D01*
X767554D01*
Y289352D01*
X767838D01*
Y289067D01*
X773240D01*
Y288783D01*
X774378D01*
Y288498D01*
X774662D01*
Y288214D01*
X774946D01*
Y287930D01*
X775231D01*
Y287077D01*
X775515D01*
Y283096D01*
X775231D01*
Y282243D01*
X799399D01*
Y281959D01*
X804801D01*
Y293616D01*
X804517D01*
Y293901D01*
X803948D01*
Y294185D01*
X803664D01*
Y294469D01*
X803379D01*
Y294754D01*
X802811D01*
Y295038D01*
X802526D01*
Y295322D01*
X802242D01*
Y295607D01*
X801958D01*
Y295891D01*
X801673D01*
Y296175D01*
X801389D01*
Y296460D01*
X801105D01*
Y296744D01*
X800820D01*
Y297028D01*
X800536D01*
Y297313D01*
X800252D01*
Y297881D01*
X799967D01*
Y298166D01*
X799683D01*
Y298450D01*
X799399D01*
Y299019D01*
X799114D01*
Y299303D01*
X798830D01*
Y299872D01*
X798546D01*
Y300440D01*
X798261D01*
Y301009D01*
X797977D01*
Y301578D01*
X797693D01*
Y302146D01*
X797408D01*
Y302715D01*
X797124D01*
Y303568D01*
X796840D01*
Y304421D01*
X796555D01*
Y305558D01*
X796271D01*
Y306980D01*
X795987D01*
Y309539D01*
X795702D01*
Y311813D01*
X795987D01*
Y314372D01*
X796271D01*
Y316078D01*
X796555D01*
Y317216D01*
X796840D01*
Y318069D01*
X797124D01*
Y318922D01*
X797408D01*
Y319775D01*
X797693D01*
Y320059D01*
X797977D01*
Y320628D01*
X798546D01*
Y320912D01*
X799114D01*
Y321196D01*
X799967D01*
Y320912D01*
X800820D01*
Y320628D01*
X801105D01*
Y320343D01*
X801389D01*
Y319775D01*
X801673D01*
Y319490D01*
X801958D01*
Y319206D01*
X802242D01*
Y318922D01*
X802811D01*
Y318637D01*
X803095D01*
Y318353D01*
X803664D01*
Y318069D01*
X803948D01*
Y317784D01*
X804517D01*
Y317500D01*
X804801D01*
Y317216D01*
X805370D01*
Y316931D01*
X805654D01*
Y316647D01*
X806223D01*
Y316363D01*
X806507D01*
Y316078D01*
X807076D01*
Y315794D01*
X807360D01*
Y315510D01*
X807928D01*
Y315225D01*
X808213D01*
Y314941D01*
X808782D01*
Y314657D01*
X809066D01*
Y314372D01*
X809634D01*
Y314088D01*
X809919D01*
Y313804D01*
X810488D01*
Y313519D01*
X810772D01*
Y313235D01*
X811340D01*
Y312951D01*
X811625D01*
Y312666D01*
X812193D01*
Y312382D01*
X812478D01*
Y312098D01*
X813046D01*
Y311813D01*
X813331D01*
Y311529D01*
X813899D01*
Y311245D01*
X814184D01*
Y310960D01*
X814752D01*
Y310676D01*
X815037D01*
Y310392D01*
X815605D01*
Y310676D01*
X815890D01*
Y311529D01*
X815605D01*
Y311813D01*
X815321D01*
Y312382D01*
X815037D01*
Y313519D01*
X814752D01*
Y315510D01*
X815037D01*
Y316647D01*
X815321D01*
Y317216D01*
X815605D01*
Y317784D01*
X815890D01*
Y318069D01*
X816174D01*
Y318353D01*
X816458D01*
Y318637D01*
X816743D01*
Y318922D01*
X817027D01*
Y319206D01*
X817311D01*
Y319490D01*
X817880D01*
Y319775D01*
X818449D01*
Y320059D01*
X819302D01*
Y320343D01*
X820439D01*
Y320628D01*
X822429D01*
Y320343D01*
X823567D01*
Y320059D01*
X824420D01*
Y319775D01*
X824988D01*
Y319490D01*
X825557D01*
Y319206D01*
X825841D01*
Y318922D01*
X826410D01*
Y318637D01*
X826694D01*
Y318353D01*
X826979D01*
Y317784D01*
X827263D01*
Y317500D01*
X827547D01*
Y316931D01*
X827831D01*
Y316363D01*
X828116D01*
Y315510D01*
X828400D01*
Y313235D01*
X828116D01*
Y312098D01*
X827831D01*
Y311529D01*
X827547D01*
Y311245D01*
X827263D01*
Y310676D01*
X826979D01*
Y310392D01*
X826694D01*
Y310107D01*
X826410D01*
Y309823D01*
X825841D01*
Y309539D01*
X825557D01*
Y309254D01*
X824988D01*
Y308970D01*
X824420D01*
Y308686D01*
X823567D01*
Y308402D01*
X819870D01*
Y308686D01*
X819017D01*
Y307833D01*
X819302D01*
Y307549D01*
X819870D01*
Y307264D01*
X820155D01*
Y306980D01*
X820723D01*
Y306695D01*
X821008D01*
Y306411D01*
X821576D01*
Y306127D01*
X821861D01*
Y305842D01*
X822429D01*
Y305558D01*
X822714D01*
Y305274D01*
X823282D01*
Y304989D01*
X823567D01*
Y304705D01*
X824135D01*
Y304421D01*
X824420D01*
Y304137D01*
X824988D01*
Y303852D01*
X825273D01*
Y303568D01*
X825841D01*
Y303284D01*
X826125D01*
Y302999D01*
X826694D01*
Y302715D01*
X826979D01*
Y302431D01*
X827547D01*
Y302146D01*
X827831D01*
Y301862D01*
X828400D01*
Y301578D01*
X828684D01*
Y301293D01*
X829253D01*
Y301009D01*
X829538D01*
Y300725D01*
X830106D01*
Y300440D01*
X830390D01*
Y300156D01*
X830959D01*
Y299872D01*
X831243D01*
Y299587D01*
X831528D01*
Y299303D01*
X832096D01*
Y299019D01*
X832665D01*
Y298734D01*
X832949D01*
Y298450D01*
X833234D01*
Y298166D01*
X833518D01*
Y297881D01*
X833802D01*
Y297597D01*
X834087D01*
Y297028D01*
X834371D01*
Y296744D01*
X834087D01*
Y295891D01*
X833802D01*
Y295322D01*
X833518D01*
Y295038D01*
X833234D01*
Y294754D01*
X832949D01*
Y294469D01*
X832381D01*
Y294185D01*
X832096D01*
Y293901D01*
X831528D01*
Y293616D01*
X830959D01*
Y293332D01*
X830390D01*
Y293048D01*
X829822D01*
Y292763D01*
X829253D01*
Y292479D01*
X828684D01*
Y292195D01*
X827831D01*
Y291910D01*
X827263D01*
Y291626D01*
X826410D01*
Y291342D01*
X825557D01*
Y291057D01*
X824420D01*
Y290773D01*
X823282D01*
Y290489D01*
X821861D01*
Y290205D01*
X819586D01*
Y289920D01*
X815037D01*
Y290205D01*
X812762D01*
Y290489D01*
X811625D01*
Y290773D01*
X810488D01*
Y291057D01*
X809634D01*
Y291342D01*
X809350D01*
Y291057D01*
X809066D01*
Y290773D01*
X809350D01*
Y281959D01*
X819870D01*
Y281675D01*
X821576D01*
Y281390D01*
X822429D01*
Y281106D01*
X822998D01*
Y280822D01*
X823567D01*
Y280537D01*
X824135D01*
Y280253D01*
X824420D01*
Y279969D01*
X824988D01*
Y279684D01*
X825273D01*
Y279400D01*
X825557D01*
Y279116D01*
X825841D01*
Y278831D01*
X826125D01*
Y278547D01*
X826410D01*
Y278263D01*
X826694D01*
Y277694D01*
X826979D01*
Y277410D01*
X827263D01*
Y276841D01*
X827547D01*
Y276272D01*
X827831D01*
Y275704D01*
X828116D01*
Y274851D01*
X828400D01*
Y273998D01*
X828684D01*
Y272292D01*
X828969D01*
Y268596D01*
X828684D01*
Y257507D01*
X828969D01*
Y249830D01*
X829253D01*
Y249545D01*
X828969D01*
Y248408D01*
X829253D01*
Y247840D01*
X828969D01*
Y247555D01*
X830106D01*
Y247271D01*
X831243D01*
Y246987D01*
X832096D01*
Y246702D01*
X832665D01*
Y246418D01*
X833518D01*
Y246134D01*
X834087D01*
Y245849D01*
X834371D01*
Y246134D01*
X834940D01*
Y245849D01*
X834655D01*
Y245565D01*
X834940D01*
Y245281D01*
X835508D01*
Y244996D01*
X836077D01*
Y244712D01*
X836361D01*
Y244428D01*
X836646D01*
Y244143D01*
X837214D01*
Y243859D01*
X837499D01*
Y243575D01*
X837783D01*
Y243290D01*
X838636D01*
Y242153D01*
X839773D01*
Y241869D01*
X840058D01*
Y241584D01*
X840342D01*
Y240731D01*
X841195D01*
Y240163D01*
X841479D01*
Y239878D01*
X841764D01*
Y239594D01*
X842048D01*
Y239025D01*
X842332D01*
Y238741D01*
X842617D01*
Y238457D01*
X842332D01*
Y238172D01*
X842901D01*
Y237888D01*
X843185D01*
Y237319D01*
X843470D01*
Y237035D01*
X843185D01*
Y236751D01*
X843754D01*
Y236466D01*
X844038D01*
Y235898D01*
X843754D01*
Y235613D01*
X844323D01*
Y235045D01*
X844607D01*
Y234192D01*
X844891D01*
Y233339D01*
X845175D01*
Y232486D01*
X845460D01*
Y231064D01*
X845744D01*
Y229643D01*
X845175D01*
Y229358D01*
X845460D01*
Y228790D01*
X845744D01*
Y227084D01*
X845460D01*
Y226231D01*
X845744D01*
Y224809D01*
X845460D01*
Y223672D01*
X845175D01*
Y222819D01*
X844891D01*
Y222534D01*
X844607D01*
Y222250D01*
X844891D01*
Y221681D01*
X844607D01*
Y221113D01*
X844323D01*
Y220544D01*
X844038D01*
Y219691D01*
X843754D01*
Y219407D01*
X843185D01*
Y219122D01*
X843470D01*
Y218838D01*
X842901D01*
Y218554D01*
X843185D01*
Y218269D01*
X842901D01*
Y217985D01*
X842332D01*
Y217701D01*
X842617D01*
Y217416D01*
X842332D01*
Y216848D01*
X842048D01*
Y216563D01*
X841764D01*
Y216279D01*
X841479D01*
Y215995D01*
X840911D01*
Y215426D01*
X840626D01*
Y215142D01*
X840058D01*
Y214858D01*
X840342D01*
Y214573D01*
X840058D01*
Y214289D01*
X839773D01*
Y214004D01*
X839489D01*
Y213720D01*
X838920D01*
Y213436D01*
X838636D01*
Y213151D01*
X837783D01*
Y212583D01*
X837499D01*
Y212299D01*
X837214D01*
Y212583D01*
X836930D01*
Y212014D01*
X835508D01*
Y211730D01*
X835224D01*
Y211446D01*
X834655D01*
Y211161D01*
X834087D01*
Y210877D01*
X833234D01*
Y210592D01*
X832381D01*
Y210308D01*
X831528D01*
Y210024D01*
X830106D01*
Y209739D01*
X828684D01*
Y209455D01*
X826125D01*
Y209171D01*
X823851D01*
Y209455D01*
X821861D01*
Y209739D01*
X820439D01*
Y210024D01*
X819586D01*
Y210308D01*
X818733D01*
Y210592D01*
X817311D01*
Y210877D01*
X816743D01*
Y211161D01*
X815890D01*
Y211446D01*
X815037D01*
Y211730D01*
X814752D01*
Y212014D01*
X815037D01*
Y212299D01*
X814184D01*
Y212867D01*
X813615D01*
Y213151D01*
X813046D01*
Y213436D01*
X812762D01*
Y213720D01*
X812478D01*
Y214004D01*
X812193D01*
Y214289D01*
X811909D01*
Y214573D01*
X811625D01*
Y214858D01*
X811340D01*
Y215142D01*
X811625D01*
Y215426D01*
X811340D01*
Y215710D01*
X811056D01*
Y215426D01*
X810772D01*
Y215710D01*
X810488D01*
Y215995D01*
X810772D01*
Y216563D01*
X810488D01*
Y216279D01*
X810203D01*
Y216563D01*
X809919D01*
Y216848D01*
X809634D01*
Y217416D01*
X809350D01*
Y217701D01*
X809634D01*
Y217985D01*
X809066D01*
Y218269D01*
X808782D01*
Y218838D01*
X808497D01*
Y219122D01*
X808782D01*
Y219407D01*
X808213D01*
Y219975D01*
X807928D01*
Y220828D01*
X807644D01*
Y221397D01*
X807360D01*
Y222250D01*
X807076D01*
Y223103D01*
X807360D01*
Y223387D01*
X807076D01*
Y223672D01*
X806791D01*
Y224525D01*
X806507D01*
Y225662D01*
X804801D01*
Y223956D01*
X804517D01*
Y223672D01*
X804232D01*
Y223387D01*
X803948D01*
Y223103D01*
X804517D01*
Y222250D01*
X804232D01*
Y221113D01*
X803948D01*
Y220544D01*
X803664D01*
Y220260D01*
X803379D01*
Y219975D01*
X803664D01*
Y219407D01*
X803379D01*
Y218838D01*
X803095D01*
Y218269D01*
X802811D01*
Y217701D01*
X802526D01*
Y217132D01*
X802242D01*
Y216563D01*
X801958D01*
Y216279D01*
X801673D01*
Y215710D01*
X801389D01*
Y215426D01*
X801105D01*
Y214858D01*
X800820D01*
Y214573D01*
X800536D01*
Y214289D01*
X800252D01*
Y213720D01*
X799683D01*
Y213151D01*
X799399D01*
Y212867D01*
X799114D01*
Y212583D01*
X798830D01*
Y212299D01*
X798546D01*
Y212014D01*
X798261D01*
Y211730D01*
X797977D01*
Y211446D01*
X797693D01*
Y211730D01*
X797408D01*
Y210877D01*
X796840D01*
Y210592D01*
X796555D01*
Y210308D01*
X796271D01*
Y210024D01*
X795418D01*
Y209739D01*
X794849D01*
Y209171D01*
X794281D01*
Y208887D01*
X793712D01*
Y208602D01*
X793428D01*
Y208318D01*
X792859D01*
Y208602D01*
X792575D01*
Y208318D01*
X792006D01*
Y207749D01*
X791722D01*
Y208034D01*
X791438D01*
Y207749D01*
X790869D01*
Y207465D01*
X790300D01*
Y207181D01*
X789447D01*
Y206896D01*
X787457D01*
Y206612D01*
X783476D01*
Y207181D01*
X781486D01*
Y207465D01*
X780349D01*
Y207749D01*
X779496D01*
Y208034D01*
X778643D01*
Y208318D01*
X777790D01*
Y208602D01*
X777221D01*
Y208887D01*
X776368D01*
Y209171D01*
X776084D01*
Y209455D01*
X775515D01*
Y209739D01*
X774946D01*
Y210024D01*
X774662D01*
Y210308D01*
X774093D01*
Y210592D01*
X773809D01*
Y210877D01*
X773240D01*
Y211161D01*
X772956D01*
Y211446D01*
X772672D01*
Y211730D01*
X772387D01*
Y212014D01*
X772103D01*
Y212299D01*
X771535D01*
Y212583D01*
X771250D01*
Y213151D01*
X770682D01*
Y213720D01*
X770397D01*
Y214004D01*
X770113D01*
Y214289D01*
X769828D01*
Y214573D01*
X769544D01*
Y214858D01*
X769260D01*
Y215426D01*
X768976D01*
Y215710D01*
X768691D01*
Y216279D01*
X768407D01*
Y216563D01*
X768122D01*
Y217132D01*
X767838D01*
Y217701D01*
X767554D01*
Y218269D01*
X767270D01*
Y218838D01*
X766985D01*
Y219407D01*
X766701D01*
Y220260D01*
X766417D01*
Y220828D01*
X766132D01*
Y221966D01*
X765848D01*
Y223103D01*
X765564D01*
Y224240D01*
X765279D01*
Y226231D01*
X763858D01*
Y225378D01*
X763573D01*
Y223672D01*
X763289D01*
Y222819D01*
X763005D01*
Y221966D01*
X762720D01*
Y221113D01*
X762436D01*
Y220544D01*
X762152D01*
Y219975D01*
X761867D01*
Y219407D01*
X761583D01*
Y218838D01*
X761299D01*
Y218554D01*
X761014D01*
Y217985D01*
X760730D01*
Y217701D01*
X760446D01*
Y217132D01*
X760161D01*
Y216848D01*
X759877D01*
Y216563D01*
X759593D01*
Y215995D01*
X759308D01*
Y215710D01*
X759024D01*
Y215426D01*
X758740D01*
Y215142D01*
X758455D01*
Y214858D01*
X758171D01*
Y214573D01*
X757887D01*
Y214289D01*
X757318D01*
Y214004D01*
X757034D01*
Y213720D01*
X756749D01*
Y213436D01*
X756465D01*
Y213151D01*
X755896D01*
Y212867D01*
X755612D01*
Y212583D01*
X755328D01*
Y212299D01*
X755043D01*
Y212014D01*
X754759D01*
Y211730D01*
X755043D01*
Y211446D01*
X754759D01*
Y211730D01*
X754475D01*
Y211446D01*
X754190D01*
Y211161D01*
X753906D01*
Y210877D01*
X753337D01*
Y210592D01*
X753053D01*
Y210308D01*
X752769D01*
Y210024D01*
X752200D01*
Y209739D01*
X749072D01*
Y209455D01*
X747935D01*
Y209171D01*
X746229D01*
Y208887D01*
X743386D01*
Y209171D01*
X741111D01*
Y209455D01*
X739974D01*
Y209739D01*
X738837D01*
Y210024D01*
X737984D01*
Y210308D01*
X737415D01*
Y210592D01*
X736846D01*
Y210877D01*
X736278D01*
Y211161D01*
X735709D01*
Y211446D01*
X735140D01*
Y211730D01*
X734856D01*
Y212014D01*
X734287D01*
Y212299D01*
X734003D01*
Y212583D01*
X733719D01*
Y212867D01*
X733150D01*
Y213151D01*
X732866D01*
Y213436D01*
X732581D01*
Y213720D01*
X732297D01*
Y214004D01*
X732013D01*
Y214289D01*
X731729D01*
Y214573D01*
X731444D01*
Y214858D01*
X731160D01*
Y215142D01*
X730875D01*
Y215426D01*
X730591D01*
Y215710D01*
X730307D01*
Y216279D01*
X730023D01*
Y216563D01*
X729738D01*
Y216848D01*
X729454D01*
Y217416D01*
X729170D01*
Y217985D01*
X728885D01*
Y218269D01*
X728601D01*
Y218838D01*
X728317D01*
Y219407D01*
X728032D01*
Y219975D01*
X727748D01*
Y220828D01*
X727464D01*
Y221681D01*
X727179D01*
Y222534D01*
X726895D01*
Y223672D01*
X726611D01*
Y225378D01*
X726326D01*
Y229358D01*
X726042D01*
Y229074D01*
X725473D01*
Y228790D01*
X724905D01*
Y229358D01*
X725189D01*
Y229643D01*
X725758D01*
Y230211D01*
X726326D01*
Y231064D01*
X726042D01*
Y232201D01*
X726326D01*
Y233339D01*
X726611D01*
Y234192D01*
X727179D01*
Y234476D01*
X726895D01*
Y235045D01*
X727179D01*
Y235613D01*
X727464D01*
Y236182D01*
X728032D01*
Y236466D01*
X727748D01*
Y236751D01*
X728317D01*
Y237035D01*
X728032D01*
Y237319D01*
X728317D01*
Y237888D01*
X728601D01*
Y238457D01*
X728885D01*
Y238741D01*
X729454D01*
Y239025D01*
X729170D01*
Y239310D01*
X729454D01*
Y239594D01*
X729738D01*
Y239878D01*
X730023D01*
Y240447D01*
X730307D01*
Y240731D01*
X730591D01*
Y241016D01*
X730875D01*
Y241584D01*
X731160D01*
Y241869D01*
X731444D01*
Y242153D01*
X731729D01*
Y242437D01*
X732013D01*
Y242722D01*
X732297D01*
Y243006D01*
X732581D01*
Y243290D01*
X733150D01*
Y243575D01*
X733435D01*
Y244143D01*
X733719D01*
Y244428D01*
X734287D01*
Y244712D01*
X734572D01*
Y244996D01*
X734856D01*
Y245281D01*
X735709D01*
Y245849D01*
X735993D01*
Y246134D01*
X736562D01*
Y246418D01*
X737415D01*
Y246702D01*
X737699D01*
Y246987D01*
X737984D01*
Y247271D01*
X738552D01*
Y247555D01*
X739690D01*
Y247840D01*
X739974D01*
Y247555D01*
X740258D01*
Y248124D01*
X740543D01*
Y248408D01*
X740827D01*
Y258644D01*
X741111D01*
Y264331D01*
X740827D01*
Y264899D01*
X740543D01*
Y265184D01*
X741111D01*
Y264899D01*
X741396D01*
Y270017D01*
X741111D01*
Y270301D01*
X741396D01*
Y270586D01*
X741111D01*
Y271723D01*
X741396D01*
Y272292D01*
X741111D01*
Y275135D01*
X741396D01*
Y275988D01*
X741680D01*
Y277125D01*
X741964D01*
Y277694D01*
X742249D01*
Y278263D01*
X742533D01*
Y278547D01*
X743102D01*
Y278831D01*
X743386D01*
Y279116D01*
X743670D01*
Y279400D01*
X743955D01*
Y279684D01*
X744239D01*
Y279969D01*
X744523D01*
Y280253D01*
X745092D01*
Y280537D01*
X745376D01*
Y280822D01*
X745661D01*
Y281106D01*
X746229D01*
Y281390D01*
X746798D01*
Y281675D01*
X747367D01*
Y281959D01*
X748220D01*
Y282243D01*
X749641D01*
Y282528D01*
X755896D01*
Y285940D01*
Y286224D01*
X756181D01*
Y287930D01*
X756465D01*
Y288498D01*
X756749D01*
Y288783D01*
X757034D01*
Y289067D01*
X757318D01*
Y289352D01*
X758455D01*
Y289636D01*
X759877D01*
Y289352D01*
X761299D01*
Y289636D01*
X761014D01*
Y289920D01*
X760730D01*
Y290205D01*
X760446D01*
Y290489D01*
X760161D01*
Y290773D01*
X759877D01*
Y291057D01*
X759593D01*
Y291342D01*
X759308D01*
Y291626D01*
X759024D01*
Y291910D01*
X758740D01*
Y292195D01*
X758455D01*
Y292479D01*
X758171D01*
Y292763D01*
X757887D01*
Y293048D01*
X757602D01*
Y293332D01*
X757318D01*
Y293616D01*
X757034D01*
Y293901D01*
X756749D01*
Y294185D01*
X756465D01*
Y294469D01*
X756181D01*
Y294754D01*
X755896D01*
Y295038D01*
X755328D01*
Y295322D01*
X755043D01*
Y295607D01*
X754759D01*
Y295891D01*
X754475D01*
Y296175D01*
X754190D01*
Y296460D01*
X753906D01*
Y296744D01*
X753622D01*
Y297028D01*
X753337D01*
Y297313D01*
X753053D01*
Y297597D01*
X752769D01*
Y297881D01*
X752485D01*
Y298166D01*
X752200D01*
Y298450D01*
X751916D01*
Y298734D01*
X751631D01*
Y299019D01*
X751347D01*
Y299303D01*
X751063D01*
Y299587D01*
X750779D01*
Y299872D01*
X750494D01*
Y300156D01*
X750210D01*
Y300440D01*
X749926D01*
Y300725D01*
X749641D01*
Y301009D01*
X749357D01*
Y301293D01*
X749072D01*
Y301578D01*
X748788D01*
Y301862D01*
X748504D01*
Y302146D01*
X748220D01*
Y302431D01*
X747935D01*
Y302715D01*
X747651D01*
Y302999D01*
X747367D01*
Y303284D01*
X747082D01*
Y303568D01*
X746798D01*
Y303852D01*
X746514D01*
Y304137D01*
X746229D01*
Y304421D01*
X745945D01*
Y304705D01*
X745661D01*
Y304989D01*
X745376D01*
Y305274D01*
X745092D01*
Y305558D01*
X744808D01*
Y305842D01*
X744523D01*
Y306127D01*
X744239D01*
Y306411D01*
X743955D01*
Y306695D01*
X743670D01*
Y306980D01*
X743102D01*
Y307264D01*
X742817D01*
Y307549D01*
X742533D01*
Y307833D01*
X742249D01*
Y308117D01*
X741964D01*
Y308402D01*
X741680D01*
Y308686D01*
X741396D01*
Y308970D01*
X741111D01*
Y309254D01*
X740827D01*
Y309539D01*
X740543D01*
Y309823D01*
X740258D01*
Y310107D01*
X739974D01*
Y310392D01*
X739690D01*
Y310676D01*
X739405D01*
Y310960D01*
X739121D01*
Y311245D01*
X738837D01*
Y311529D01*
X738552D01*
Y311813D01*
X738268D01*
Y312098D01*
X737984D01*
Y312382D01*
X737699D01*
Y312666D01*
X737415D01*
Y312951D01*
X737131D01*
Y313235D01*
X736846D01*
Y313519D01*
X736562D01*
Y313804D01*
X736278D01*
Y314088D01*
X735993D01*
Y314372D01*
X735709D01*
Y314657D01*
X735425D01*
Y314941D01*
X735140D01*
Y315225D01*
X734856D01*
Y315510D01*
X734572D01*
Y315794D01*
X734287D01*
Y316078D01*
X734003D01*
Y316363D01*
X733719D01*
Y316647D01*
X733435D01*
Y316931D01*
X732866D01*
Y316647D01*
X732581D01*
Y316363D01*
X732297D01*
Y316078D01*
X732013D01*
Y315794D01*
X731729D01*
Y315510D01*
X731444D01*
Y315225D01*
X731160D01*
Y314941D01*
X730875D01*
Y314657D01*
X730591D01*
Y314372D01*
X730307D01*
Y313804D01*
X730023D01*
Y313519D01*
X729738D01*
Y313235D01*
X729454D01*
Y312951D01*
X729170D01*
Y312666D01*
X728885D01*
Y312382D01*
X728601D01*
Y312098D01*
X728317D01*
Y311813D01*
X728032D01*
Y311529D01*
X727748D01*
Y311245D01*
X727464D01*
Y310676D01*
X727179D01*
Y310392D01*
X726895D01*
Y310107D01*
X726611D01*
Y309823D01*
X726326D01*
Y309539D01*
X726042D01*
Y309254D01*
X725758D01*
Y308970D01*
X725473D01*
Y308686D01*
X725189D01*
Y308402D01*
X724905D01*
Y308117D01*
X724620D01*
Y307833D01*
X724336D01*
Y307264D01*
X724052D01*
Y306980D01*
X723767D01*
Y306695D01*
X723483D01*
Y306411D01*
X723199D01*
Y306127D01*
X722914D01*
Y305842D01*
X722630D01*
Y305558D01*
X722346D01*
Y305274D01*
X722061D01*
Y304989D01*
X721777D01*
Y304705D01*
X721493D01*
Y304421D01*
X721208D01*
Y303852D01*
X720924D01*
Y303568D01*
X720640D01*
Y303284D01*
X720355D01*
Y302999D01*
X720071D01*
Y302715D01*
X719787D01*
Y302431D01*
X719502D01*
Y302146D01*
X719218D01*
Y301862D01*
X718934D01*
Y301578D01*
X718649D01*
Y301009D01*
X718365D01*
Y300725D01*
X718081D01*
Y300440D01*
X717796D01*
Y300156D01*
X717512D01*
Y299872D01*
X717228D01*
Y299587D01*
X716943D01*
Y299303D01*
X716659D01*
Y299019D01*
X716375D01*
Y298734D01*
X716090D01*
Y298450D01*
X715806D01*
Y298166D01*
X715522D01*
Y297597D01*
X715238D01*
Y297313D01*
X714953D01*
Y297028D01*
X714669D01*
Y296744D01*
X714385D01*
Y296460D01*
X714100D01*
Y296175D01*
X713816D01*
Y295891D01*
X713531D01*
Y295607D01*
X713247D01*
Y295322D01*
X712963D01*
Y294469D01*
X713247D01*
Y293616D01*
X713531D01*
Y292763D01*
X713816D01*
Y291910D01*
X714100D01*
Y291057D01*
X714385D01*
Y290205D01*
X714669D01*
Y289352D01*
X714953D01*
Y288498D01*
X715238D01*
Y287645D01*
X715522D01*
Y286793D01*
X715806D01*
Y286224D01*
X715522D01*
Y285371D01*
X715238D01*
Y285087D01*
X714953D01*
Y284802D01*
X714669D01*
Y284518D01*
X714385D01*
Y284234D01*
X713816D01*
Y283949D01*
X713531D01*
Y283665D01*
X713247D01*
Y283381D01*
X712679D01*
Y283096D01*
X712394D01*
Y282812D01*
X711825D01*
Y282528D01*
X711541D01*
Y282243D01*
X710973D01*
Y281959D01*
X710688D01*
Y281675D01*
X710120D01*
Y281390D01*
X709835D01*
Y281106D01*
X709267D01*
Y280822D01*
X708982D01*
Y280537D01*
X708414D01*
Y280253D01*
X708129D01*
Y279969D01*
X707561D01*
Y279684D01*
X707276D01*
Y279400D01*
X705286D01*
Y279684D01*
X705002D01*
Y279969D01*
X704717D01*
Y280253D01*
X704433D01*
Y280537D01*
X704149D01*
Y282812D01*
X704433D01*
Y283096D01*
X704717D01*
Y283381D01*
X705002D01*
Y283665D01*
X705570D01*
Y283949D01*
X705855D01*
Y284234D01*
X706423D01*
Y284518D01*
X706708D01*
Y284802D01*
X707276D01*
Y285087D01*
X707561D01*
Y285371D01*
X708129D01*
Y285655D01*
X708414D01*
Y285940D01*
X708982D01*
Y286224D01*
X709267D01*
Y286508D01*
X709835D01*
Y286793D01*
X710120D01*
Y287077D01*
X710688D01*
Y288214D01*
X710404D01*
Y289067D01*
X710120D01*
Y289636D01*
X709835D01*
Y290773D01*
X709551D01*
Y291626D01*
X709267D01*
Y292479D01*
X708982D01*
Y293332D01*
X707561D01*
Y293048D01*
X706423D01*
Y292763D01*
X705002D01*
Y292479D01*
X703580D01*
Y292195D01*
X702443D01*
Y291910D01*
X701874D01*
Y291057D01*
X701590D01*
Y289920D01*
X701305D01*
Y288783D01*
X701021D01*
Y287930D01*
X700737D01*
Y286793D01*
X700452D01*
Y285655D01*
X700168D01*
Y284802D01*
X699884D01*
Y284234D01*
X699599D01*
Y283949D01*
X699315D01*
Y283665D01*
X698746D01*
Y283381D01*
X697040D01*
Y283665D01*
X696756D01*
Y283949D01*
X696472D01*
Y284234D01*
X696188D01*
Y284518D01*
X695903D01*
Y286793D01*
X696188D01*
Y287930D01*
X696472D01*
Y288783D01*
X696756D01*
Y289920D01*
X697040D01*
Y291057D01*
X697325D01*
Y292195D01*
X697609D01*
Y293332D01*
X697893D01*
Y294185D01*
X698178D01*
Y295038D01*
X698462D01*
Y295322D01*
X698746D01*
Y295607D01*
X699031D01*
Y295891D01*
X699315D01*
Y296175D01*
X701305D01*
Y296460D01*
X702443D01*
Y296744D01*
X703864D01*
Y297028D01*
X705002D01*
Y297313D01*
X706423D01*
Y297597D01*
X707845D01*
Y297881D01*
X708982D01*
Y298166D01*
X709835D01*
Y298450D01*
X710120D01*
Y298734D01*
X710404D01*
Y299019D01*
X710688D01*
Y299303D01*
X710973D01*
Y299587D01*
X711257D01*
Y299872D01*
X711541D01*
Y300156D01*
X711825D01*
Y300440D01*
X712110D01*
Y300725D01*
X712394D01*
Y301009D01*
X712679D01*
Y301578D01*
X712963D01*
Y301862D01*
X713247D01*
Y302146D01*
X713531D01*
Y302431D01*
X713816D01*
Y302715D01*
X714100D01*
Y302999D01*
X714385D01*
Y303284D01*
X714669D01*
Y303568D01*
X714953D01*
Y303852D01*
X715238D01*
Y304137D01*
X715522D01*
Y304421D01*
X715806D01*
Y304989D01*
X716090D01*
Y305274D01*
X716375D01*
Y305558D01*
X716659D01*
Y305842D01*
X716943D01*
Y306127D01*
X717228D01*
Y306411D01*
X717512D01*
Y306695D01*
X717796D01*
Y306980D01*
X718081D01*
Y307264D01*
X718365D01*
Y307549D01*
X718649D01*
Y307833D01*
X718934D01*
Y308402D01*
X719218D01*
Y308686D01*
X719502D01*
Y308970D01*
X719787D01*
Y309254D01*
X720071D01*
Y309539D01*
X720355D01*
Y309823D01*
X720640D01*
Y310107D01*
X720924D01*
Y310392D01*
X721208D01*
Y310676D01*
X721493D01*
Y310960D01*
X721777D01*
Y311245D01*
X722061D01*
Y311813D01*
X722346D01*
Y312098D01*
X722630D01*
Y312382D01*
X722914D01*
Y312666D01*
X723199D01*
Y312951D01*
X723483D01*
Y313235D01*
X723767D01*
Y313519D01*
X724052D01*
Y313804D01*
X724336D01*
Y314088D01*
X724620D01*
Y314372D01*
X724905D01*
Y314941D01*
X725189D01*
Y315225D01*
X725473D01*
Y315510D01*
X725758D01*
Y315794D01*
X726042D01*
Y316078D01*
X726326D01*
Y316363D01*
X726611D01*
Y316647D01*
X726895D01*
Y316931D01*
X727179D01*
Y317216D01*
X727464D01*
Y317500D01*
X727748D01*
Y317784D01*
X728032D01*
Y318353D01*
X728317D01*
Y318637D01*
X728601D01*
Y318922D01*
X728885D01*
Y319206D01*
X729170D01*
Y319490D01*
X729454D01*
Y319775D01*
X729738D01*
Y320059D01*
X730023D01*
Y320343D01*
X730307D01*
Y320628D01*
X730591D01*
Y320912D01*
X730875D01*
Y321196D01*
X731160D01*
Y321481D01*
X731729D01*
Y321765D01*
X733150D01*
Y321481D01*
D02*
G37*
G36*
X831812Y247271D02*
X831243D01*
Y247555D01*
X831812D01*
Y247271D01*
D02*
G37*
G36*
X832381Y246987D02*
X832096D01*
Y247271D01*
X832381D01*
Y246987D01*
D02*
G37*
G36*
X833802Y246418D02*
X833518D01*
Y246702D01*
X833802D01*
Y246418D01*
D02*
G37*
G36*
X836361Y244996D02*
X836077D01*
Y245281D01*
X836361D01*
Y244996D01*
D02*
G37*
G36*
X837783Y243859D02*
X837499D01*
Y244143D01*
X837783D01*
Y243859D01*
D02*
G37*
G36*
X801389Y212867D02*
X801105D01*
Y213151D01*
X801389D01*
Y212867D01*
D02*
G37*
%LPC*%
G36*
X822714Y316078D02*
X820439D01*
Y315794D01*
X819870D01*
Y315510D01*
X819586D01*
Y315225D01*
X819302D01*
Y314088D01*
X819586D01*
Y313804D01*
X819870D01*
Y313519D01*
X820155D01*
Y313235D01*
X820439D01*
Y312951D01*
X821008D01*
Y312666D01*
X822429D01*
Y312951D01*
X823282D01*
Y313235D01*
X823567D01*
Y313519D01*
X823851D01*
Y313804D01*
Y314941D01*
X823567D01*
Y315510D01*
X822998D01*
Y315794D01*
X822714D01*
Y316078D01*
D02*
G37*
G36*
X801389Y314657D02*
X800536D01*
Y313235D01*
X800252D01*
Y308117D01*
X800536D01*
Y306411D01*
X800820D01*
Y305558D01*
X801105D01*
Y304705D01*
X801389D01*
Y303852D01*
X801673D01*
Y303284D01*
X801958D01*
Y302715D01*
X802242D01*
Y302146D01*
X802526D01*
Y301862D01*
X802811D01*
Y301293D01*
X803095D01*
Y301009D01*
X803379D01*
Y300725D01*
X803664D01*
Y300440D01*
Y300156D01*
X803948D01*
Y299872D01*
X804232D01*
Y299587D01*
X804517D01*
Y299303D01*
X804801D01*
Y299019D01*
X805085D01*
Y298734D01*
X805370D01*
Y298450D01*
X805654D01*
Y298166D01*
X805938D01*
Y297881D01*
X806507D01*
Y297597D01*
X806791D01*
Y297313D01*
X807360D01*
Y297028D01*
X807644D01*
Y296744D01*
X808213D01*
Y296460D01*
X808782D01*
Y296175D01*
X809350D01*
Y295891D01*
X809919D01*
Y295607D01*
X810772D01*
Y295322D01*
X811625D01*
Y295038D01*
X812762D01*
Y294754D01*
X814184D01*
Y294469D01*
X820439D01*
Y294754D01*
X822145D01*
Y295038D01*
X823282D01*
Y295322D01*
X824420D01*
Y295607D01*
X825273D01*
Y295891D01*
X826125D01*
Y296175D01*
X826694D01*
Y296460D01*
X827263D01*
Y296744D01*
X827547D01*
Y297028D01*
X827263D01*
Y297313D01*
X826694D01*
Y297597D01*
X826410D01*
Y297881D01*
X825841D01*
Y298166D01*
X825557D01*
Y298450D01*
X824988D01*
Y298734D01*
X824704D01*
Y299019D01*
X824135D01*
Y299303D01*
X823851D01*
Y299587D01*
X823282D01*
Y299872D01*
X822998D01*
Y300156D01*
X822429D01*
Y300440D01*
X822145D01*
Y300725D01*
X821576D01*
Y301009D01*
X821292D01*
Y301293D01*
X820723D01*
Y301578D01*
X820439D01*
Y301862D01*
X819870D01*
Y302146D01*
X819586D01*
Y302431D01*
X819017D01*
Y302715D01*
X818733D01*
Y302999D01*
X818164D01*
Y303284D01*
X817880D01*
Y303568D01*
X817311D01*
Y303852D01*
X817027D01*
Y304137D01*
X816458D01*
Y304421D01*
X816174D01*
Y304705D01*
X815605D01*
Y304989D01*
X815321D01*
Y305274D01*
X814752D01*
Y305558D01*
X814468D01*
Y305842D01*
X813899D01*
Y306127D01*
X813615D01*
Y306411D01*
X813046D01*
Y306695D01*
X812762D01*
Y306980D01*
X812193D01*
Y307264D01*
X811909D01*
Y307549D01*
X811340D01*
Y307833D01*
X811056D01*
Y308117D01*
X810488D01*
Y308402D01*
X810203D01*
Y308686D01*
X809634D01*
Y308970D01*
X809350D01*
Y309254D01*
X808782D01*
Y309539D01*
X808497D01*
Y309823D01*
X807928D01*
Y310107D01*
X807644D01*
Y310392D01*
X807076D01*
Y310676D01*
X806791D01*
Y310960D01*
X806507D01*
Y311245D01*
X805938D01*
Y311529D01*
X805654D01*
Y311813D01*
X805085D01*
Y312098D01*
X804517D01*
Y312382D01*
X804232D01*
Y312666D01*
X803948D01*
Y312951D01*
X803379D01*
Y313235D01*
X803095D01*
Y313519D01*
X802526D01*
Y313804D01*
X802242D01*
Y314088D01*
X801673D01*
Y314372D01*
X801389D01*
Y314657D01*
D02*
G37*
G36*
X762436Y285087D02*
X760446D01*
Y282243D01*
X770966D01*
Y284518D01*
X770113D01*
Y284802D01*
X762436D01*
Y285087D01*
D02*
G37*
G36*
X769544Y277978D02*
X749641D01*
Y277694D01*
X749072D01*
Y277410D01*
X748504D01*
Y277125D01*
X747935D01*
Y276841D01*
X747367D01*
Y276557D01*
X747082D01*
Y276272D01*
X746798D01*
Y275988D01*
X746514D01*
Y275419D01*
X746229D01*
Y248408D01*
X746514D01*
Y248124D01*
X748788D01*
Y247840D01*
X750210D01*
Y247555D01*
X751063D01*
Y247271D01*
X751916D01*
Y246987D01*
X752485D01*
Y246702D01*
X753337D01*
Y246418D01*
X753622D01*
Y246134D01*
X754190D01*
Y245849D01*
X754759D01*
Y245565D01*
X755043D01*
Y245281D01*
X755612D01*
Y244996D01*
X755896D01*
Y244712D01*
X756465D01*
Y244428D01*
X756749D01*
Y244143D01*
X757034D01*
Y243859D01*
X757318D01*
Y243575D01*
X757602D01*
Y243290D01*
X757887D01*
Y243006D01*
X758171D01*
Y242722D01*
X758455D01*
Y242437D01*
X758740D01*
Y242153D01*
X759024D01*
Y241869D01*
X759308D01*
Y241300D01*
X759593D01*
Y241016D01*
X759877D01*
Y240447D01*
X760161D01*
Y240163D01*
X760446D01*
Y239594D01*
X760730D01*
Y239025D01*
X761014D01*
Y238741D01*
X761299D01*
Y238172D01*
X761583D01*
Y237319D01*
X761867D01*
Y236751D01*
X762152D01*
Y235898D01*
X762436D01*
Y235045D01*
X762720D01*
Y234192D01*
X763005D01*
Y233055D01*
X763289D01*
Y231633D01*
X763573D01*
Y230780D01*
X765564D01*
Y231064D01*
X765848D01*
Y232201D01*
X766132D01*
Y233339D01*
X766417D01*
Y234192D01*
X766701D01*
Y235045D01*
X766985D01*
Y235613D01*
X767270D01*
Y236466D01*
X767554D01*
Y237035D01*
X767838D01*
Y237319D01*
X768122D01*
Y237888D01*
X768407D01*
Y238457D01*
X768691D01*
Y238741D01*
X768976D01*
Y239025D01*
Y239310D01*
X769260D01*
Y239594D01*
X769544D01*
Y240163D01*
X769828D01*
Y240447D01*
X770113D01*
Y240731D01*
X770397D01*
Y241016D01*
X770682D01*
Y241300D01*
X770966D01*
Y241584D01*
X771250D01*
Y241869D01*
X771535D01*
Y242153D01*
X771819D01*
Y242437D01*
X772103D01*
Y242722D01*
X772387D01*
Y243006D01*
X772672D01*
Y243290D01*
X772956D01*
Y243575D01*
X773525D01*
Y243859D01*
X773809D01*
Y244143D01*
X774378D01*
Y244428D01*
X774662D01*
Y244712D01*
X775231D01*
Y244996D01*
X775515D01*
Y245281D01*
X776084D01*
Y245565D01*
X776652D01*
Y245849D01*
X777505D01*
Y246134D01*
X778074D01*
Y246418D01*
X778927D01*
Y246702D01*
X779780D01*
Y246987D01*
X781202D01*
Y247271D01*
X782623D01*
Y247555D01*
X786888D01*
Y247271D01*
X788594D01*
Y246987D01*
X789732D01*
Y246702D01*
X790584D01*
Y246418D01*
X791438D01*
Y246134D01*
X792290D01*
Y245849D01*
X792859D01*
Y245565D01*
X793428D01*
Y245281D01*
X793996D01*
Y244996D01*
X794281D01*
Y244712D01*
X794849D01*
Y244428D01*
X795418D01*
Y244143D01*
X795702D01*
Y243859D01*
X795987D01*
Y243575D01*
X796555D01*
Y243290D01*
X796840D01*
Y243006D01*
X797124D01*
Y242722D01*
X797408D01*
Y242437D01*
X797693D01*
Y242153D01*
X797977D01*
Y241869D01*
X798261D01*
Y241584D01*
X798546D01*
Y241300D01*
X798830D01*
Y241016D01*
X799114D01*
Y240731D01*
X799399D01*
Y240447D01*
X799683D01*
Y239878D01*
X799967D01*
Y239594D01*
X800252D01*
Y239310D01*
X800536D01*
Y238741D01*
X800820D01*
Y238457D01*
X801105D01*
Y237888D01*
X801389D01*
Y237319D01*
X801673D01*
Y237035D01*
X801958D01*
Y236182D01*
X802242D01*
Y235613D01*
X802526D01*
Y235045D01*
X802811D01*
Y234192D01*
X803095D01*
Y233339D01*
X803379D01*
Y232486D01*
X803664D01*
Y231064D01*
X803948D01*
Y230780D01*
X807360D01*
Y231633D01*
X807644D01*
Y232770D01*
X807928D01*
Y233908D01*
X808213D01*
Y234760D01*
X808497D01*
Y235613D01*
X808782D01*
Y236182D01*
X809066D01*
Y236751D01*
X809350D01*
Y237319D01*
X809634D01*
Y237888D01*
X809919D01*
Y238457D01*
X810203D01*
Y238741D01*
X810488D01*
Y239310D01*
X810772D01*
Y239594D01*
X811056D01*
Y240163D01*
X811340D01*
Y240447D01*
X811625D01*
Y240731D01*
X811909D01*
Y241016D01*
X812193D01*
Y241584D01*
X812478D01*
Y241869D01*
X812762D01*
Y242153D01*
X813046D01*
Y242437D01*
X813331D01*
Y242722D01*
X813615D01*
Y243006D01*
X814184D01*
Y243290D01*
X814468D01*
Y243575D01*
X814752D01*
Y243859D01*
X815037D01*
Y244143D01*
X815605D01*
Y244428D01*
X815890D01*
Y244712D01*
X816458D01*
Y244996D01*
X816743D01*
Y245281D01*
X817311D01*
Y245565D01*
X817880D01*
Y245849D01*
X818449D01*
Y246134D01*
X819017D01*
Y246418D01*
X819870D01*
Y246702D01*
X820723D01*
Y246987D01*
X821576D01*
Y247271D01*
X822714D01*
Y247555D01*
X824420D01*
Y259497D01*
X824135D01*
Y273713D01*
X823851D01*
Y274282D01*
X823567D01*
Y274851D01*
X823282D01*
Y275419D01*
X822998D01*
Y275704D01*
X822714D01*
Y275988D01*
X822429D01*
Y276272D01*
X822145D01*
Y276557D01*
X821576D01*
Y276841D01*
X821292D01*
Y277125D01*
X820439D01*
Y277410D01*
X815321D01*
Y277694D01*
X769544D01*
Y277978D01*
D02*
G37*
G36*
X746798Y242437D02*
X743670D01*
Y242153D01*
X741964D01*
Y241869D01*
X741111D01*
Y241584D01*
X740258D01*
Y241300D01*
X739405D01*
Y241016D01*
X738837D01*
Y240731D01*
X738552D01*
Y240447D01*
X737984D01*
Y240163D01*
X737415D01*
Y239878D01*
X737131D01*
Y239594D01*
X736846D01*
Y239310D01*
X736278D01*
Y239025D01*
X735993D01*
Y238741D01*
X735709D01*
Y238457D01*
X735425D01*
Y238172D01*
X735140D01*
Y237888D01*
X734856D01*
Y237604D01*
X734572D01*
Y237035D01*
X734287D01*
Y236751D01*
X734003D01*
Y236466D01*
X733719D01*
Y235898D01*
X733435D01*
Y235329D01*
X733150D01*
Y235045D01*
X732866D01*
Y234192D01*
X732581D01*
Y233623D01*
X732297D01*
Y233055D01*
X732013D01*
Y231917D01*
X731729D01*
Y230211D01*
X731444D01*
Y227084D01*
X731729D01*
Y225378D01*
X732013D01*
Y224240D01*
X732297D01*
Y223387D01*
X732581D01*
Y222819D01*
X732866D01*
Y222250D01*
X733150D01*
Y221681D01*
X733435D01*
Y221113D01*
X733719D01*
Y220828D01*
X734003D01*
Y220260D01*
X734287D01*
Y219975D01*
X734572D01*
Y219691D01*
X734856D01*
Y219122D01*
X735140D01*
Y218838D01*
X735425D01*
Y218554D01*
X735709D01*
Y218269D01*
X735993D01*
Y217985D01*
X736278D01*
Y217701D01*
X736846D01*
Y217416D01*
X737131D01*
Y217132D01*
X737415D01*
Y216848D01*
X737984D01*
Y216563D01*
X738268D01*
Y216279D01*
X738837D01*
Y215995D01*
X739405D01*
Y215710D01*
X739974D01*
Y215426D01*
X740827D01*
Y215142D01*
X741680D01*
Y214858D01*
X742817D01*
Y214573D01*
X744808D01*
Y214289D01*
X746514D01*
Y214573D01*
X748504D01*
Y214858D01*
X749641D01*
Y215142D01*
X750494D01*
Y215426D01*
X751063D01*
Y215710D01*
X751916D01*
Y215995D01*
X752200D01*
Y216279D01*
X752769D01*
Y216563D01*
X753053D01*
Y216848D01*
X753622D01*
Y217416D01*
X753906D01*
Y217701D01*
X754190D01*
Y217985D01*
X754475D01*
Y218269D01*
X754759D01*
Y218838D01*
X755043D01*
Y219122D01*
X755328D01*
Y219691D01*
X755612D01*
Y220260D01*
X755896D01*
Y220828D01*
X756181D01*
Y221397D01*
X756465D01*
Y221966D01*
X756749D01*
Y222819D01*
X757034D01*
Y223672D01*
X757318D01*
Y224809D01*
X757602D01*
Y226515D01*
X757887D01*
Y229643D01*
X757602D01*
Y231633D01*
X757318D01*
Y232770D01*
X757034D01*
Y233623D01*
X756749D01*
Y234192D01*
X756465D01*
Y235045D01*
X756181D01*
Y235613D01*
X755896D01*
Y236182D01*
X755612D01*
Y236466D01*
X755328D01*
Y237035D01*
X755043D01*
Y237604D01*
X754759D01*
Y237888D01*
X754475D01*
Y238172D01*
X754190D01*
Y238457D01*
X753906D01*
Y239025D01*
X753622D01*
Y239310D01*
X753337D01*
Y239594D01*
X753053D01*
Y239878D01*
X752769D01*
Y240163D01*
X752485D01*
Y240447D01*
X752200D01*
Y240731D01*
X751631D01*
Y241016D01*
X751063D01*
Y241300D01*
X750210D01*
Y241584D01*
X749641D01*
Y241869D01*
X748504D01*
Y242153D01*
X746798D01*
Y242437D01*
D02*
G37*
G36*
X828684D02*
X823282D01*
Y242153D01*
X822145D01*
Y241869D01*
X821292D01*
Y241584D01*
X820439D01*
Y241300D01*
X819870D01*
Y241016D01*
X819302D01*
Y240731D01*
X818733D01*
Y240447D01*
X818449D01*
Y240163D01*
X817880D01*
Y239878D01*
X817596D01*
Y239594D01*
X817027D01*
Y239310D01*
X816743D01*
Y239025D01*
X816458D01*
Y238741D01*
X816174D01*
Y238457D01*
X815890D01*
Y238172D01*
X815605D01*
Y237888D01*
X815321D01*
Y237604D01*
X815037D01*
Y237319D01*
X814752D01*
Y236751D01*
X814468D01*
Y236466D01*
X814184D01*
Y235898D01*
X813899D01*
Y235613D01*
X813615D01*
Y235045D01*
X813331D01*
Y234476D01*
X813046D01*
Y233623D01*
X812762D01*
Y233055D01*
X812478D01*
Y231917D01*
X812193D01*
Y230495D01*
X811909D01*
Y226799D01*
X812193D01*
Y225093D01*
X812478D01*
Y224240D01*
X812762D01*
Y223387D01*
X813046D01*
Y222819D01*
X813331D01*
Y222250D01*
X813615D01*
Y221681D01*
X813899D01*
Y221113D01*
X814184D01*
Y220828D01*
X814468D01*
Y220260D01*
X814752D01*
Y219975D01*
X815037D01*
Y219691D01*
X815321D01*
Y219122D01*
X815605D01*
Y218838D01*
X815890D01*
Y218554D01*
X816174D01*
Y218269D01*
X816458D01*
Y217985D01*
X816743D01*
Y217701D01*
X817027D01*
Y217416D01*
X817596D01*
Y217132D01*
X817880D01*
Y216848D01*
X818164D01*
Y216563D01*
X818733D01*
Y216279D01*
X819302D01*
Y215995D01*
X819586D01*
Y215710D01*
X820155D01*
Y215426D01*
X820723D01*
Y215142D01*
X821576D01*
Y214858D01*
X822429D01*
Y214573D01*
X823567D01*
Y214289D01*
X825557D01*
Y214004D01*
X827831D01*
Y214289D01*
X829822D01*
Y214573D01*
X830675D01*
Y214858D01*
X831528D01*
Y215142D01*
X832381D01*
Y215426D01*
X832949D01*
Y215710D01*
X833518D01*
Y215995D01*
X833802D01*
Y216279D01*
X834371D01*
Y216563D01*
X834655D01*
Y216848D01*
X834940D01*
Y217132D01*
X835508D01*
Y217416D01*
X835793D01*
Y217701D01*
X836077D01*
Y217985D01*
X836361D01*
Y218269D01*
X836646D01*
Y218838D01*
X836930D01*
Y219122D01*
X837214D01*
Y219407D01*
X837499D01*
Y219975D01*
X837783D01*
Y220260D01*
X838067D01*
Y220828D01*
X838352D01*
Y221397D01*
X838636D01*
Y221966D01*
X838920D01*
Y222819D01*
X839205D01*
Y223672D01*
X839489D01*
Y224809D01*
X839773D01*
Y227368D01*
X840058D01*
Y228790D01*
X839773D01*
Y231348D01*
X839489D01*
Y232486D01*
X839205D01*
Y233339D01*
X838920D01*
Y234192D01*
X838636D01*
Y234760D01*
X838352D01*
Y235329D01*
X838067D01*
Y235898D01*
X837783D01*
Y236466D01*
X837499D01*
Y237035D01*
X837214D01*
Y237319D01*
X836930D01*
Y237604D01*
X836646D01*
Y237888D01*
X836361D01*
Y238457D01*
X836077D01*
Y238741D01*
X835793D01*
Y239025D01*
X835224D01*
Y239310D01*
X834940D01*
Y239594D01*
X834655D01*
Y239878D01*
X834087D01*
Y240163D01*
X833802D01*
Y240447D01*
X833234D01*
Y240731D01*
X832665D01*
Y241016D01*
X832096D01*
Y241300D01*
X831528D01*
Y241584D01*
X830675D01*
Y241869D01*
X829822D01*
Y242153D01*
X828684D01*
Y242437D01*
D02*
G37*
G36*
X785467Y242153D02*
X783476D01*
Y241869D01*
X781486D01*
Y241584D01*
X780349D01*
Y241300D01*
X779496D01*
Y241016D01*
X778927D01*
Y240731D01*
X778358D01*
Y240447D01*
X777790D01*
Y240163D01*
X777221D01*
Y239878D01*
X776937D01*
Y239594D01*
X776368D01*
Y239310D01*
X776084D01*
Y239025D01*
X775799D01*
Y238741D01*
X775515D01*
Y238457D01*
X775231D01*
Y238172D01*
X774946D01*
Y237888D01*
X774662D01*
Y237604D01*
X774378D01*
Y237319D01*
X774093D01*
Y237035D01*
X773809D01*
Y236751D01*
X773525D01*
Y236466D01*
X773240D01*
Y235898D01*
X772956D01*
Y235613D01*
X772672D01*
Y235045D01*
X772387D01*
Y234476D01*
X772103D01*
Y233908D01*
X771819D01*
Y233339D01*
X771535D01*
Y232486D01*
X771250D01*
Y231633D01*
X770966D01*
Y230211D01*
X770682D01*
Y225093D01*
X770966D01*
Y223672D01*
X771250D01*
Y222819D01*
X771535D01*
Y221966D01*
X771819D01*
Y221397D01*
X772103D01*
Y220828D01*
X772387D01*
Y220260D01*
X772672D01*
Y219691D01*
X772956D01*
Y219122D01*
X773240D01*
Y218838D01*
X773525D01*
Y218554D01*
X773809D01*
Y217985D01*
X774093D01*
Y217701D01*
X774378D01*
Y217416D01*
X774662D01*
Y217132D01*
X774946D01*
Y216848D01*
X775231D01*
Y216563D01*
X775515D01*
Y216279D01*
X775799D01*
Y215995D01*
X776084D01*
Y215710D01*
X776368D01*
Y215426D01*
X776652D01*
Y215142D01*
X777221D01*
Y214858D01*
X777505D01*
Y214573D01*
X778074D01*
Y214289D01*
X778643D01*
Y214004D01*
X779211D01*
Y213720D01*
X779780D01*
Y213436D01*
X780349D01*
Y213151D01*
X781202D01*
Y212867D01*
X782339D01*
Y212583D01*
X785467D01*
Y212299D01*
X785751D01*
Y212583D01*
X788310D01*
Y212867D01*
X789447D01*
Y213151D01*
X790016D01*
Y213436D01*
X790869D01*
Y213720D01*
X791438D01*
Y214004D01*
X792006D01*
Y214289D01*
X792290D01*
Y214573D01*
X792859D01*
Y214858D01*
X793143D01*
Y215142D01*
X793712D01*
Y215426D01*
X793996D01*
Y215710D01*
X794281D01*
Y215995D01*
X794565D01*
Y216279D01*
X794849D01*
Y216563D01*
X795134D01*
Y216848D01*
X795418D01*
Y217132D01*
X795702D01*
Y217416D01*
X795987D01*
Y217701D01*
X796271D01*
Y218269D01*
X796555D01*
Y218554D01*
X796840D01*
Y219122D01*
X797124D01*
Y219691D01*
X797408D01*
Y219975D01*
X797693D01*
Y220828D01*
X797977D01*
Y221397D01*
X798261D01*
Y222250D01*
X798546D01*
Y223387D01*
X798830D01*
Y224809D01*
X799114D01*
Y226515D01*
Y226799D01*
Y228505D01*
X798830D01*
Y230211D01*
X798546D01*
Y231348D01*
X798261D01*
Y232201D01*
X797977D01*
Y233055D01*
X797693D01*
Y233623D01*
X797408D01*
Y234192D01*
X797124D01*
Y234476D01*
X796840D01*
Y235045D01*
X796555D01*
Y235613D01*
X796271D01*
Y235898D01*
X795987D01*
Y236182D01*
X795702D01*
Y236751D01*
X795418D01*
Y237035D01*
X795134D01*
Y237319D01*
X794849D01*
Y237604D01*
X794565D01*
Y237888D01*
X794281D01*
Y238172D01*
X793996D01*
Y238457D01*
X793712D01*
Y238741D01*
X793428D01*
Y239025D01*
X792859D01*
Y239310D01*
X792575D01*
Y239594D01*
X792006D01*
Y239878D01*
X791722D01*
Y240163D01*
X791153D01*
Y240447D01*
X790584D01*
Y240731D01*
X790016D01*
Y241016D01*
X789447D01*
Y241300D01*
X788594D01*
Y241584D01*
X787457D01*
Y241869D01*
X785467D01*
Y242153D01*
D02*
G37*
%LPD*%
G36*
X805232Y308970D02*
X805516D01*
Y308117D01*
X805801D01*
Y306127D01*
X806085D01*
Y305274D01*
X806369D01*
Y304705D01*
X806654D01*
Y304137D01*
X806938D01*
Y303568D01*
X807222D01*
Y303284D01*
X807507D01*
Y302715D01*
X807791D01*
Y302431D01*
X808075D01*
Y302146D01*
X808360D01*
Y301862D01*
X808644D01*
Y301293D01*
X808928D01*
Y301009D01*
X809497D01*
Y300725D01*
X809781D01*
Y300440D01*
X810066D01*
Y300156D01*
X810350D01*
Y299872D01*
X810919D01*
Y299587D01*
X812340D01*
Y299303D01*
X812909D01*
Y298734D01*
X813193D01*
Y297597D01*
X812909D01*
Y297313D01*
X812340D01*
Y297028D01*
X810919D01*
Y297313D01*
X810066D01*
Y297597D01*
X809497D01*
Y297881D01*
X809213D01*
Y298166D01*
X808644D01*
Y298450D01*
X808360D01*
Y298734D01*
X808075D01*
Y299019D01*
X807507D01*
Y299303D01*
X807222D01*
Y299587D01*
X806938D01*
Y299872D01*
X806654D01*
Y300440D01*
X806369D01*
Y300725D01*
X806085D01*
Y301009D01*
X805801D01*
Y301293D01*
X805516D01*
Y301862D01*
X805232D01*
Y302146D01*
X804948D01*
Y302715D01*
X804663D01*
Y303284D01*
X804379D01*
Y303852D01*
X804095D01*
Y304421D01*
X803810D01*
Y305274D01*
X803526D01*
Y306411D01*
X803242D01*
Y308686D01*
X803526D01*
Y308970D01*
X803810D01*
Y309254D01*
X805232D01*
Y308970D01*
D02*
G37*
G36*
X802242Y274566D02*
X817880D01*
Y274282D01*
X818449D01*
Y273998D01*
X818733D01*
Y273713D01*
X819017D01*
Y273429D01*
X819302D01*
Y273145D01*
X819586D01*
Y272292D01*
X819870D01*
Y253242D01*
X820155D01*
Y251252D01*
X819870D01*
Y250399D01*
X819586D01*
Y250114D01*
X819302D01*
Y249830D01*
X819017D01*
Y249545D01*
X818733D01*
Y249261D01*
X817596D01*
Y248977D01*
X816458D01*
Y248692D01*
X815890D01*
Y248408D01*
X815037D01*
Y248124D01*
X814468D01*
Y247840D01*
X814184D01*
Y247555D01*
X813615D01*
Y247271D01*
X813046D01*
Y246987D01*
X812762D01*
Y246702D01*
X812193D01*
Y246418D01*
X811909D01*
Y246134D01*
X811625D01*
Y245849D01*
X811340D01*
Y245565D01*
X810772D01*
Y245281D01*
X810488D01*
Y244996D01*
X810203D01*
Y244712D01*
X809919D01*
Y244428D01*
X809634D01*
Y244143D01*
X809350D01*
Y243575D01*
X809066D01*
Y243290D01*
X808782D01*
Y243006D01*
X808497D01*
Y242722D01*
X808213D01*
Y242153D01*
X807928D01*
Y241016D01*
X807644D01*
Y239594D01*
X807360D01*
Y239310D01*
X807076D01*
Y239025D01*
X806791D01*
Y238741D01*
X806507D01*
Y238457D01*
X804801D01*
Y238741D01*
X804232D01*
Y239025D01*
X803948D01*
Y239310D01*
X803664D01*
Y240163D01*
X803379D01*
Y241300D01*
X803095D01*
Y242153D01*
X802811D01*
Y242722D01*
X802526D01*
Y243290D01*
X802242D01*
Y243859D01*
X801958D01*
Y244143D01*
X801673D01*
Y244712D01*
X801389D01*
Y244996D01*
X801105D01*
Y245281D01*
X800820D01*
Y245565D01*
X800536D01*
Y245849D01*
X800252D01*
Y246134D01*
X799967D01*
Y246418D01*
X799683D01*
Y246702D01*
X799399D01*
Y246987D01*
X798830D01*
Y247271D01*
X798546D01*
Y247555D01*
X798261D01*
Y247840D01*
X797693D01*
Y248124D01*
X797408D01*
Y248408D01*
X796840D01*
Y248692D01*
X796271D01*
Y248977D01*
X795702D01*
Y249261D01*
X795134D01*
Y249545D01*
X794281D01*
Y249830D01*
X793428D01*
Y250114D01*
X792575D01*
Y250399D01*
X791438D01*
Y250683D01*
X790016D01*
Y250967D01*
X787741D01*
Y251252D01*
X783476D01*
Y250967D01*
X781202D01*
Y250683D01*
X779496D01*
Y250399D01*
X778358D01*
Y250114D01*
X777505D01*
Y249830D01*
X776368D01*
Y249545D01*
X775799D01*
Y249261D01*
X774946D01*
Y248977D01*
X774378D01*
Y248692D01*
X773809D01*
Y248408D01*
X773240D01*
Y248124D01*
X772672D01*
Y247840D01*
X772103D01*
Y247555D01*
X771535D01*
Y247271D01*
X771250D01*
Y246987D01*
X770682D01*
Y246702D01*
X770397D01*
Y246418D01*
X770113D01*
Y246134D01*
X769544D01*
Y245849D01*
X769260D01*
Y245565D01*
X768976D01*
Y245281D01*
X768691D01*
Y244996D01*
X768407D01*
Y244712D01*
X768122D01*
Y244428D01*
X767838D01*
Y244143D01*
X767554D01*
Y243859D01*
X767270D01*
Y243290D01*
X766985D01*
Y243006D01*
X766701D01*
Y242722D01*
X766417D01*
Y242153D01*
X766132D01*
Y241869D01*
X765848D01*
Y241584D01*
X765279D01*
Y241300D01*
X763573D01*
Y241584D01*
X763289D01*
Y241869D01*
X763005D01*
Y242153D01*
X762720D01*
Y242437D01*
X762436D01*
Y243006D01*
X762152D01*
Y243575D01*
X761867D01*
Y243859D01*
X761583D01*
Y244428D01*
X761299D01*
Y244712D01*
X761014D01*
Y244996D01*
X760730D01*
Y245281D01*
X760446D01*
Y245565D01*
X760161D01*
Y245849D01*
X759877D01*
Y246134D01*
X759593D01*
Y246418D01*
X759024D01*
Y246702D01*
X758740D01*
Y246987D01*
X758171D01*
Y247271D01*
X757602D01*
Y247555D01*
X757034D01*
Y247840D01*
X756465D01*
Y248124D01*
X755896D01*
Y248408D01*
X755043D01*
Y248692D01*
X754475D01*
Y248977D01*
X753906D01*
Y249261D01*
X752485D01*
Y249545D01*
X751916D01*
Y249830D01*
X751631D01*
Y250114D01*
X751347D01*
Y250399D01*
X750779D01*
Y250683D01*
X750494D01*
Y251252D01*
X750210D01*
Y251820D01*
X749926D01*
Y252389D01*
X749641D01*
Y254095D01*
X749357D01*
Y269733D01*
X749072D01*
Y273429D01*
X749357D01*
Y273998D01*
X749641D01*
Y274282D01*
X749926D01*
Y274566D01*
X750210D01*
Y274851D01*
X802242D01*
Y274566D01*
D02*
G37*
%LPC*%
G36*
X780917Y270586D02*
X753622D01*
Y258644D01*
X753906D01*
Y253242D01*
X754190D01*
Y252957D01*
X755612D01*
Y252673D01*
X756749D01*
Y252389D01*
X757602D01*
Y252104D01*
X758171D01*
Y251820D01*
X759024D01*
Y251536D01*
X759593D01*
Y251252D01*
X760161D01*
Y250967D01*
X760730D01*
Y250683D01*
X761014D01*
Y250399D01*
X761583D01*
Y250114D01*
X761867D01*
Y249830D01*
X762436D01*
Y249545D01*
X762720D01*
Y249261D01*
X763005D01*
Y248977D01*
X763289D01*
Y248692D01*
X763573D01*
Y248408D01*
X764142D01*
Y248124D01*
X764426D01*
Y247555D01*
X764995D01*
Y247840D01*
X765279D01*
Y248124D01*
X765564D01*
Y248408D01*
X765848D01*
Y248692D01*
X766132D01*
Y248977D01*
X766701D01*
Y249261D01*
X766985D01*
Y249545D01*
X767270D01*
Y249830D01*
X767554D01*
Y250114D01*
X768122D01*
Y250399D01*
X768407D01*
Y250683D01*
X768976D01*
Y250967D01*
X769260D01*
Y251252D01*
X769828D01*
Y251536D01*
X770397D01*
Y251820D01*
X770682D01*
Y252104D01*
X771250D01*
Y252389D01*
X771819D01*
Y252673D01*
X772387D01*
Y252957D01*
X773240D01*
Y253242D01*
X773809D01*
Y253526D01*
X774662D01*
Y253810D01*
X775515D01*
Y254095D01*
X776368D01*
Y254379D01*
X777505D01*
Y254663D01*
X778643D01*
Y254948D01*
X780064D01*
Y255232D01*
X782055D01*
Y255516D01*
X789163D01*
Y255232D01*
X791153D01*
Y254948D01*
X792290D01*
Y254663D01*
X793712D01*
Y254379D01*
X794565D01*
Y254095D01*
X795418D01*
Y253810D01*
X796271D01*
Y253526D01*
X796840D01*
Y253242D01*
X797693D01*
Y252957D01*
X798261D01*
Y252673D01*
X798830D01*
Y252389D01*
X799399D01*
Y252104D01*
X799683D01*
Y251820D01*
X800252D01*
Y251536D01*
X800820D01*
Y251252D01*
X801105D01*
Y250967D01*
X801389D01*
Y250683D01*
X801958D01*
Y250399D01*
X802242D01*
Y250114D01*
X802526D01*
Y249830D01*
X802811D01*
Y249545D01*
X803095D01*
Y249261D01*
X803379D01*
Y248977D01*
X803664D01*
Y248692D01*
X803948D01*
Y248408D01*
X804232D01*
Y248124D01*
X804517D01*
Y247840D01*
X804801D01*
Y247555D01*
X805085D01*
Y246987D01*
X805370D01*
Y246702D01*
X805654D01*
Y246418D01*
X805938D01*
Y246702D01*
X806223D01*
Y246987D01*
X806507D01*
Y247271D01*
X806791D01*
Y247840D01*
X807360D01*
Y248124D01*
X807644D01*
Y248408D01*
X807928D01*
Y248692D01*
X808213D01*
Y248977D01*
X808497D01*
Y249261D01*
X808782D01*
Y249545D01*
X809066D01*
Y249830D01*
X809634D01*
Y250114D01*
X809919D01*
Y250399D01*
X810488D01*
Y250683D01*
X810772D01*
Y250967D01*
X811340D01*
Y251252D01*
X811625D01*
Y251536D01*
X812193D01*
Y251820D01*
X812762D01*
Y252104D01*
X813331D01*
Y252389D01*
X813899D01*
Y252673D01*
X814752D01*
Y252957D01*
X815605D01*
Y261772D01*
Y262056D01*
Y268880D01*
X815321D01*
Y270301D01*
X780917D01*
Y270586D01*
D02*
G37*
%LPD*%
G36*
X782908Y264331D02*
X784045D01*
Y264046D01*
X784329D01*
Y263762D01*
X784614D01*
Y263478D01*
X784898D01*
Y262909D01*
X785182D01*
Y261772D01*
X784898D01*
Y261203D01*
X784614D01*
Y260634D01*
X784045D01*
Y260350D01*
X783476D01*
Y260066D01*
X772387D01*
Y259781D01*
X766701D01*
Y260066D01*
X766132D01*
Y260350D01*
X765564D01*
Y260634D01*
X765279D01*
Y261203D01*
X764995D01*
Y262909D01*
X765279D01*
Y263478D01*
X765564D01*
Y263762D01*
X766132D01*
Y264046D01*
X766985D01*
Y264331D01*
X780917D01*
Y264615D01*
X782908D01*
Y264331D01*
D02*
G37*
G36*
X796271Y264899D02*
X796840D01*
Y264615D01*
X797408D01*
Y264331D01*
X797693D01*
Y264046D01*
Y263762D01*
X797977D01*
Y263193D01*
X798261D01*
Y262056D01*
X798546D01*
Y261487D01*
X798261D01*
Y260919D01*
X797977D01*
Y260634D01*
X797693D01*
Y260350D01*
X797408D01*
Y260066D01*
X796840D01*
Y259781D01*
X795987D01*
Y259497D01*
X794849D01*
Y259781D01*
X794281D01*
Y260066D01*
X793712D01*
Y260350D01*
X793428D01*
Y260919D01*
X793143D01*
Y261487D01*
X792859D01*
Y263478D01*
X793143D01*
Y264046D01*
X793428D01*
Y264331D01*
X793712D01*
Y264615D01*
X794281D01*
Y264899D01*
X794849D01*
Y265184D01*
X796271D01*
Y264899D01*
D02*
G37*
G36*
X807644Y266889D02*
X808782D01*
Y266605D01*
X809350D01*
Y266321D01*
X809919D01*
Y266037D01*
X810203D01*
Y265752D01*
X810488D01*
Y265468D01*
X810772D01*
Y265184D01*
X811056D01*
Y264899D01*
X811340D01*
Y264331D01*
X811625D01*
Y264046D01*
X811909D01*
Y263193D01*
X812193D01*
Y260350D01*
X811909D01*
Y259497D01*
X811625D01*
Y258928D01*
X811340D01*
Y258644D01*
X811056D01*
Y258360D01*
X810772D01*
Y258075D01*
X810488D01*
Y257791D01*
X810203D01*
Y257507D01*
X809634D01*
Y257222D01*
X809066D01*
Y256938D01*
X808497D01*
Y256654D01*
X805654D01*
Y256938D01*
X804801D01*
Y257222D01*
X804232D01*
Y257507D01*
X803948D01*
Y257791D01*
X803379D01*
Y258075D01*
X803095D01*
Y258360D01*
X802811D01*
Y258644D01*
X802526D01*
Y259213D01*
X802242D01*
Y259781D01*
X801958D01*
Y260350D01*
X801673D01*
Y263478D01*
X801958D01*
Y264331D01*
X802242D01*
Y264615D01*
X802526D01*
Y265184D01*
X802811D01*
Y265468D01*
X803095D01*
Y265752D01*
X803379D01*
Y266037D01*
X803664D01*
Y266321D01*
X804232D01*
Y266605D01*
X804801D01*
Y266889D01*
X805938D01*
Y267174D01*
X807644D01*
Y266889D01*
D02*
G37*
G36*
X760446Y268027D02*
X761299D01*
Y267743D01*
X761583D01*
Y267174D01*
X761867D01*
Y266037D01*
X762152D01*
Y256369D01*
X761867D01*
Y255801D01*
X761583D01*
Y255516D01*
X761299D01*
Y255232D01*
X760730D01*
Y254948D01*
X759308D01*
Y255232D01*
X758740D01*
Y255516D01*
X758171D01*
Y255801D01*
X757887D01*
Y256938D01*
X757602D01*
Y267174D01*
X757887D01*
Y267743D01*
X758171D01*
Y268027D01*
X759308D01*
Y268311D01*
X760446D01*
Y268027D01*
D02*
G37*
G36*
X746514Y236466D02*
X747367D01*
Y236182D01*
X747935D01*
Y235898D01*
X748220D01*
Y235613D01*
X748788D01*
Y235329D01*
X749072D01*
Y235045D01*
X749357D01*
Y234760D01*
X749641D01*
Y234476D01*
X749926D01*
Y234192D01*
X750210D01*
Y233623D01*
X750494D01*
Y233339D01*
X750779D01*
Y232770D01*
X751063D01*
Y232201D01*
X751347D01*
Y231064D01*
X751631D01*
Y226799D01*
X751347D01*
Y225662D01*
X751063D01*
Y225093D01*
X750779D01*
Y224525D01*
X750494D01*
Y223956D01*
X750210D01*
Y223387D01*
X749926D01*
Y223103D01*
X749641D01*
Y222819D01*
X749357D01*
Y222534D01*
X749072D01*
Y222250D01*
X748788D01*
Y221966D01*
X748504D01*
Y221681D01*
X748220D01*
Y221397D01*
X747935D01*
Y221113D01*
X747367D01*
Y220828D01*
X746798D01*
Y220544D01*
X746229D01*
Y220260D01*
X745376D01*
Y219975D01*
X741964D01*
Y220260D01*
X741111D01*
Y220544D01*
X740543D01*
Y220828D01*
X739974D01*
Y221113D01*
X739690D01*
Y221397D01*
X739405D01*
Y221681D01*
X739121D01*
Y221966D01*
X738837D01*
Y222250D01*
X738552D01*
Y222534D01*
X738268D01*
Y222819D01*
X737984D01*
Y223387D01*
X737699D01*
Y223956D01*
X737415D01*
Y224525D01*
X737131D01*
Y225378D01*
X736846D01*
Y227084D01*
X736562D01*
Y228221D01*
X736846D01*
Y230211D01*
X737131D01*
Y231064D01*
X737415D01*
Y231633D01*
X737699D01*
Y232201D01*
X737984D01*
Y232770D01*
X738268D01*
Y233339D01*
X738552D01*
Y233623D01*
X738837D01*
Y233908D01*
X739121D01*
Y234192D01*
X739405D01*
Y234476D01*
X739690D01*
Y234760D01*
X739974D01*
Y235045D01*
X740258D01*
Y235329D01*
X740543D01*
Y235613D01*
X741111D01*
Y235898D01*
X741680D01*
Y236182D01*
X742249D01*
Y236466D01*
X743386D01*
Y236751D01*
X746514D01*
Y236466D01*
D02*
G37*
%LPC*%
G36*
X745376Y233623D02*
X743386D01*
Y233339D01*
X742533D01*
Y233055D01*
X741964D01*
Y232770D01*
X741680D01*
Y232486D01*
X741396D01*
Y232201D01*
X741111D01*
Y231917D01*
X740827D01*
Y231633D01*
X740543D01*
Y231064D01*
X740258D01*
Y230211D01*
X739974D01*
Y229074D01*
Y228790D01*
Y227368D01*
X740258D01*
Y226799D01*
X740543D01*
Y226231D01*
X740827D01*
Y225662D01*
X741111D01*
Y225378D01*
X741396D01*
Y225093D01*
X741680D01*
Y224809D01*
X742249D01*
Y224525D01*
X742817D01*
Y224240D01*
X745376D01*
Y224525D01*
X745945D01*
Y224809D01*
X746514D01*
Y225093D01*
X746798D01*
Y225378D01*
X747082D01*
Y225662D01*
X747367D01*
Y225946D01*
X747651D01*
Y226515D01*
X747935D01*
Y227084D01*
X748220D01*
Y228221D01*
X748504D01*
Y229358D01*
X748220D01*
Y230780D01*
X747935D01*
Y231348D01*
X747651D01*
Y231917D01*
X747367D01*
Y232201D01*
X747082D01*
Y232486D01*
X746798D01*
Y232770D01*
X746229D01*
Y233055D01*
X745945D01*
Y233339D01*
X745376D01*
Y233623D01*
D02*
G37*
%LPD*%
G36*
X826694Y235898D02*
X827831D01*
Y235613D01*
X828400D01*
Y235329D01*
X828969D01*
Y235045D01*
X829538D01*
Y234760D01*
X829822D01*
Y234476D01*
X830106D01*
Y234192D01*
X830675D01*
Y233908D01*
X830959D01*
Y233339D01*
X831243D01*
Y233055D01*
X831528D01*
Y232770D01*
X831812D01*
Y232486D01*
X832096D01*
Y231917D01*
X832381D01*
Y231348D01*
X832665D01*
Y230495D01*
X832949D01*
Y229358D01*
X833234D01*
Y226799D01*
X832949D01*
Y225378D01*
X832665D01*
Y224525D01*
X832381D01*
Y223956D01*
X832096D01*
Y223672D01*
X831812D01*
Y223103D01*
X831528D01*
Y222819D01*
X831243D01*
Y222534D01*
X830959D01*
Y222250D01*
X830675D01*
Y221966D01*
X830390D01*
Y221681D01*
X829822D01*
Y221397D01*
X829538D01*
Y221113D01*
X828969D01*
Y220828D01*
X828116D01*
Y220544D01*
X826694D01*
Y220260D01*
X824988D01*
Y220544D01*
X823567D01*
Y220828D01*
X822714D01*
Y221113D01*
X822145D01*
Y221397D01*
X821576D01*
Y221681D01*
X821292D01*
Y221966D01*
X821008D01*
Y222250D01*
X820439D01*
Y222534D01*
X820155D01*
Y222819D01*
X819870D01*
Y223103D01*
X819586D01*
Y223387D01*
X819302D01*
Y223956D01*
X819017D01*
Y224240D01*
X818733D01*
Y224809D01*
X818449D01*
Y225378D01*
X818164D01*
Y226231D01*
X817880D01*
Y227368D01*
X817596D01*
Y230211D01*
X817880D01*
Y231064D01*
X818164D01*
Y231917D01*
X818449D01*
Y232486D01*
X818733D01*
Y233055D01*
X819017D01*
Y233339D01*
X819302D01*
Y233623D01*
X819586D01*
Y233908D01*
X819870D01*
Y234192D01*
X820155D01*
Y234476D01*
X820439D01*
Y234760D01*
X820723D01*
Y235045D01*
X821292D01*
Y235329D01*
X821861D01*
Y235613D01*
X822429D01*
Y235898D01*
X823282D01*
Y236182D01*
X826694D01*
Y235898D01*
D02*
G37*
%LPC*%
G36*
X825841Y232486D02*
X824135D01*
Y232201D01*
X823567D01*
Y231917D01*
X823282D01*
Y231633D01*
X822998D01*
Y231348D01*
X822714D01*
Y231064D01*
X822429D01*
Y230780D01*
X822145D01*
Y230211D01*
X821861D01*
Y229358D01*
X821576D01*
Y227084D01*
X821861D01*
Y226231D01*
X822145D01*
Y225662D01*
X822429D01*
Y225093D01*
X822714D01*
Y224809D01*
X822998D01*
Y224525D01*
X823282D01*
Y224240D01*
X823851D01*
Y223956D01*
X824420D01*
Y223672D01*
X825841D01*
Y223956D01*
X826694D01*
Y224240D01*
X826979D01*
Y224525D01*
X827263D01*
Y224809D01*
X827547D01*
Y225093D01*
X827831D01*
Y225662D01*
X828116D01*
Y226231D01*
X828400D01*
Y227368D01*
X828684D01*
Y228505D01*
X828400D01*
Y229927D01*
X828116D01*
Y230495D01*
X827831D01*
Y230780D01*
X827547D01*
Y231348D01*
X827263D01*
Y231633D01*
X826979D01*
Y231917D01*
X826410D01*
Y232201D01*
X825841D01*
Y232486D01*
D02*
G37*
%LPD*%
G36*
X786888Y236751D02*
X788026D01*
Y236466D01*
X788594D01*
Y236182D01*
X789163D01*
Y235898D01*
X789732D01*
Y235613D01*
X790016D01*
Y235329D01*
X790300D01*
Y235045D01*
X790584D01*
Y234760D01*
X790869D01*
Y234476D01*
X791153D01*
Y234192D01*
X791438D01*
Y233908D01*
X791722D01*
Y233623D01*
X792006D01*
Y233055D01*
X792290D01*
Y232486D01*
X792575D01*
Y231917D01*
X792859D01*
Y231064D01*
X793143D01*
Y229927D01*
X793428D01*
Y227084D01*
X793143D01*
Y225946D01*
X792859D01*
Y225093D01*
X792575D01*
Y224525D01*
X792290D01*
Y223956D01*
X792006D01*
Y223387D01*
X791722D01*
Y223103D01*
X791438D01*
Y222819D01*
X791153D01*
Y222534D01*
X790869D01*
Y222250D01*
X790584D01*
Y221966D01*
X790300D01*
Y221681D01*
X790016D01*
Y221397D01*
X789732D01*
Y221113D01*
X789163D01*
Y220828D01*
X788594D01*
Y220544D01*
X787741D01*
Y220260D01*
X786888D01*
Y219975D01*
X783476D01*
Y220260D01*
X782623D01*
Y220544D01*
X781770D01*
Y220828D01*
X781202D01*
Y221113D01*
X780917D01*
Y221397D01*
X780349D01*
Y221681D01*
X780064D01*
Y221966D01*
X779780D01*
Y222250D01*
X779496D01*
Y222534D01*
X779211D01*
Y222819D01*
X778927D01*
Y223103D01*
X778643D01*
Y223672D01*
X778358D01*
Y223956D01*
X778074D01*
Y224525D01*
X777790D01*
Y225093D01*
X777505D01*
Y225946D01*
X777221D01*
Y227368D01*
X776937D01*
Y229643D01*
X777221D01*
Y231064D01*
X777505D01*
Y231917D01*
X777790D01*
Y232486D01*
X778074D01*
Y233055D01*
X778358D01*
Y233339D01*
X778643D01*
Y233908D01*
X778927D01*
Y234192D01*
X779211D01*
Y234476D01*
X779496D01*
Y234760D01*
X779780D01*
Y235045D01*
X780064D01*
Y235329D01*
X780349D01*
Y235613D01*
X780917D01*
Y235898D01*
X781202D01*
Y236182D01*
X781770D01*
Y236466D01*
X782339D01*
Y236751D01*
X783476D01*
Y237035D01*
X786888D01*
Y236751D01*
D02*
G37*
%LPC*%
G36*
X786320Y233055D02*
X784045D01*
Y232770D01*
X783192D01*
Y232486D01*
X782623D01*
Y232201D01*
X782339D01*
Y231917D01*
X782055D01*
Y231633D01*
X781770D01*
Y231348D01*
X781486D01*
Y231064D01*
X781202D01*
Y230495D01*
X780917D01*
Y227368D01*
X781202D01*
Y226799D01*
X781486D01*
Y226515D01*
X781770D01*
Y226231D01*
X782055D01*
Y225946D01*
X782339D01*
Y225662D01*
X782623D01*
Y225378D01*
X783192D01*
Y225093D01*
X783761D01*
Y224809D01*
X784898D01*
Y224525D01*
X785751D01*
Y224809D01*
X787172D01*
Y225093D01*
X787741D01*
Y225378D01*
X788026D01*
Y225662D01*
X788594D01*
Y225946D01*
X788878D01*
Y226515D01*
X789163D01*
Y226799D01*
X789447D01*
Y227652D01*
X789732D01*
Y229074D01*
Y229358D01*
Y229643D01*
X789447D01*
Y230495D01*
X789163D01*
Y231064D01*
X788878D01*
Y231348D01*
X788594D01*
Y231633D01*
X788310D01*
Y231917D01*
X788026D01*
Y232201D01*
X787457D01*
Y232486D01*
X786888D01*
Y232770D01*
X786320D01*
Y233055D01*
D02*
G37*
%LPD*%
D14*
X236220Y363220D02*
X313690D01*
X222250Y377190D02*
X236220Y363220D01*
X386952Y49618D02*
X443230Y105896D01*
X404900Y473710D02*
X443230Y435380D01*
Y105896D02*
Y435380D01*
X462280Y784860D02*
X463550Y783590D01*
Y720090D02*
Y783590D01*
X604520Y784860D02*
X659130Y730250D01*
X585470Y784860D02*
X604520D01*
X572372Y197722D02*
X720090Y345440D01*
X599440Y610870D02*
X655320D01*
X711544Y509270D02*
X730594Y528320D01*
X786130D01*
X655320Y509270D02*
X711544D01*
X731520D02*
X807720D01*
X718820Y496570D02*
X731520Y509270D01*
X773290Y730110D02*
X773430Y730250D01*
X773290Y659593D02*
Y730110D01*
X289560Y852805D02*
X544195Y598170D01*
X795020D01*
X807720Y585470D01*
X551180Y572770D02*
X795020D01*
X807720Y560070D01*
X298206Y825744D02*
X551180Y572770D01*
X560070Y547370D02*
X795020D01*
X398160Y709280D02*
X560070Y547370D01*
X795020D02*
X807720Y534670D01*
X594418Y496570D02*
X718820D01*
X420070Y670918D02*
X594418Y496570D01*
X735330Y483870D02*
X807720D01*
X569442Y471170D02*
X722630D01*
X735330Y483870D01*
X727710Y420370D02*
X740410Y433070D01*
X807720D01*
X588574Y420370D02*
X727710D01*
X737870Y458470D02*
X807720D01*
X725170Y445770D02*
X737870Y458470D01*
X579067Y445770D02*
X725170D01*
X382285Y709280D02*
X398160D01*
X420070Y670918D02*
Y670918D01*
X417838Y673150D02*
X420070Y670918D01*
X393015Y673150D02*
X417838D01*
X289560Y776605D02*
X393015Y673150D01*
X289560Y751052D02*
X569442Y471170D01*
X308540Y700405D02*
X588574Y420370D01*
X289560Y700405D02*
X308540D01*
X289560Y725805D02*
X299032D01*
X579067Y445770D01*
X720090Y345440D02*
X817880D01*
X836930Y364490D01*
Y603250D01*
X829310Y610870D02*
X836930Y603250D01*
X807720Y610870D02*
X829310D01*
X572372Y49618D02*
Y197722D01*
X289560Y751052D02*
Y751205D01*
Y802005D02*
X382285Y709280D01*
X185536Y368300D02*
X370956Y553720D01*
X145268Y393700D02*
X285053Y533485D01*
X356382Y599440D02*
X386360D01*
X290427Y533485D02*
X356382Y599440D01*
X285053Y533485D02*
X290427D01*
X133350Y393700D02*
X145268D01*
X61595Y598805D02*
X137160D01*
X60960Y599440D02*
X61595Y598805D01*
X61277Y624523D02*
X136842D01*
X137160Y624205D01*
X60960Y624840D02*
X61277Y624523D01*
X60960Y650240D02*
X61277Y649922D01*
X136842D01*
X137160Y649605D01*
X60960Y675640D02*
X61277Y675322D01*
X136842D02*
X137160Y675005D01*
X61277Y675322D02*
X136842D01*
X61277Y700723D02*
X136842D01*
X60960Y701040D02*
X61277Y700723D01*
X136842D02*
X137160Y700405D01*
X61277Y726123D02*
X136842D01*
X60960Y726440D02*
X61277Y726123D01*
X136842D02*
X137160Y725805D01*
X60960Y751840D02*
X61277Y751523D01*
X136842D01*
X137160Y751205D01*
X136842Y776923D02*
X137160Y776605D01*
X61277Y776923D02*
X136842D01*
X60960Y777240D02*
X61277Y776923D01*
X786130Y674370D02*
Y730250D01*
X722630Y660400D02*
Y730250D01*
X684530Y660400D02*
Y730250D01*
X671830Y674370D02*
Y730250D01*
X709930D02*
Y749300D01*
X798830Y730250D02*
Y736158D01*
X771942Y864870D02*
X807720Y829092D01*
Y636270D02*
Y829092D01*
X748030Y661670D02*
Y730250D01*
X722630Y636270D02*
X748030Y661670D01*
X655320Y636270D02*
X722630D01*
X735330Y674370D02*
Y730250D01*
X760730Y674370D02*
Y730250D01*
X149225Y864870D02*
X771942D01*
X137160Y852805D02*
X149225Y864870D01*
X406360Y539440D02*
X443770D01*
X509500Y473710D01*
X371800Y539440D02*
X406360D01*
X209550Y377190D02*
X371800Y539440D01*
X383540Y719137D02*
Y720090D01*
X560070D02*
Y784860D01*
X291221Y825744D02*
X298206D01*
X289560Y827405D02*
X291221Y825744D01*
X519430Y345440D02*
X593090D01*
X655320Y407670D01*
X370956Y553720D02*
X431800D01*
X133350Y368300D02*
X185536D01*
X807720Y610870D02*
X809151Y609439D01*
X289560Y624205D02*
Y625158D01*
D17*
X659130Y730250D02*
D03*
X684530D02*
D03*
X671830D02*
D03*
X786130D02*
D03*
X773430D02*
D03*
X760730D02*
D03*
X748030D02*
D03*
X735330D02*
D03*
X722630D02*
D03*
X709930D02*
D03*
X697230D02*
D03*
X798830D02*
D03*
D23*
X289560Y497205D02*
D03*
D24*
Y522605D02*
D03*
Y548005D02*
D03*
Y573405D02*
D03*
Y598805D02*
D03*
Y624205D02*
D03*
Y649605D02*
D03*
Y675005D02*
D03*
Y700405D02*
D03*
Y725805D02*
D03*
Y751205D02*
D03*
Y776605D02*
D03*
Y802005D02*
D03*
Y827405D02*
D03*
Y852805D02*
D03*
X137160D02*
D03*
Y827405D02*
D03*
Y802005D02*
D03*
Y776605D02*
D03*
Y751205D02*
D03*
Y725805D02*
D03*
Y700405D02*
D03*
Y675005D02*
D03*
Y649605D02*
D03*
Y624205D02*
D03*
Y598805D02*
D03*
Y573405D02*
D03*
Y548005D02*
D03*
Y522605D02*
D03*
Y497205D02*
D03*
D39*
X404900Y473710D02*
D03*
D40*
X509500D02*
D03*
D41*
X234950Y377190D02*
D03*
X222250D02*
D03*
D42*
X209550D02*
D03*
D43*
X655320Y636270D02*
D03*
Y610870D02*
D03*
Y585470D02*
D03*
Y560070D02*
D03*
Y534670D02*
D03*
Y509270D02*
D03*
Y483870D02*
D03*
Y458470D02*
D03*
Y433070D02*
D03*
Y407670D02*
D03*
X807720D02*
D03*
Y433070D02*
D03*
Y458470D02*
D03*
Y483870D02*
D03*
Y509270D02*
D03*
Y534670D02*
D03*
Y560070D02*
D03*
Y585470D02*
D03*
Y610870D02*
D03*
Y636270D02*
D03*
X862860Y16870D02*
D03*
Y894080D02*
D03*
X22860Y16870D02*
D03*
Y894080D02*
D03*
D44*
X572372Y292188D02*
D03*
Y49618D02*
D03*
X386952D02*
D03*
X200262D02*
D03*
X387350Y292100D02*
D03*
D45*
X597772Y292188D02*
D03*
Y49618D02*
D03*
X412352D02*
D03*
X225662D02*
D03*
X412750Y292100D02*
D03*
X60960Y624840D02*
D03*
Y650240D02*
D03*
Y675640D02*
D03*
Y701040D02*
D03*
Y726440D02*
D03*
Y751840D02*
D03*
Y777240D02*
D03*
D46*
X659130Y878380D02*
D03*
D47*
X60960Y599440D02*
D03*
D48*
X528360Y659440D02*
D03*
Y539440D02*
D03*
X406360D02*
D03*
D49*
X386360Y599440D02*
D03*
D50*
X406360Y659440D02*
D03*
D51*
X585470Y784860D02*
D03*
X560070D02*
D03*
X462280D02*
D03*
X487680D02*
D03*
D52*
X133350Y368300D02*
D03*
D53*
Y393700D02*
D03*
D54*
X313690Y439420D02*
D03*
Y363220D02*
D03*
X519430Y421640D02*
D03*
Y345440D02*
D03*
X560070Y720090D02*
D03*
X483870D02*
D03*
X463550D02*
D03*
X387350D02*
D03*
D55*
X599440Y610870D02*
D03*
X431800Y553720D02*
D03*
D56*
X786130Y528320D02*
D03*
X773290Y659593D02*
D03*
X786130Y674370D02*
D03*
X722630Y660400D02*
D03*
X684530D02*
D03*
X671830Y674370D02*
D03*
X709930Y749300D02*
D03*
X735330Y674370D02*
D03*
X760730D02*
D03*
M02*
