G04*
G04 #@! TF.GenerationSoftware,Altium Limited,Altium Designer,22.5.1 (42)*
G04*
G04 Layer_Color=255*
%FSLAX44Y44*%
%MOMM*%
G71*
G04*
G04 #@! TF.SameCoordinates,DCAD6D7B-F460-4A76-B736-7305E2F345F3*
G04*
G04*
G04 #@! TF.FilePolarity,Positive*
G04*
G01*
G75*
%ADD22R,1.4140X1.4140*%
%ADD23C,1.4140*%
%ADD41R,1.9800X1.9800*%
%ADD42C,1.9350*%
%ADD43C,1.9800*%
%ADD44C,1.9500*%
%ADD45R,1.9500X1.9500*%
%ADD46C,2.0000*%
%ADD47R,2.0000X2.0000*%
%ADD48C,1.5000*%
%ADD49R,1.5000X1.5000*%
%ADD50C,0.8000*%
%ADD51R,0.8000X0.8000*%
%ADD52C,1.5240*%
%ADD53C,1.0000*%
%ADD54R,1.5000X1.5000*%
%ADD55C,1.7780*%
%ADD56C,1.4000*%
D22*
X289560Y497205D02*
D03*
D23*
Y522605D02*
D03*
Y548005D02*
D03*
Y573405D02*
D03*
Y598805D02*
D03*
Y624205D02*
D03*
Y649605D02*
D03*
Y675005D02*
D03*
Y700405D02*
D03*
Y725805D02*
D03*
Y751205D02*
D03*
Y776605D02*
D03*
Y802005D02*
D03*
Y827405D02*
D03*
Y852805D02*
D03*
X137160D02*
D03*
Y827405D02*
D03*
Y802005D02*
D03*
Y776605D02*
D03*
Y751205D02*
D03*
Y725805D02*
D03*
Y700405D02*
D03*
Y675005D02*
D03*
Y649605D02*
D03*
Y624205D02*
D03*
Y598805D02*
D03*
Y573405D02*
D03*
Y548005D02*
D03*
Y522605D02*
D03*
Y497205D02*
D03*
D41*
X406360Y659440D02*
D03*
D42*
X386360Y599440D02*
D03*
D43*
X406360Y539440D02*
D03*
X528360Y659440D02*
D03*
Y539440D02*
D03*
D44*
X99060Y421080D02*
D03*
Y386080D02*
D03*
D45*
Y351080D02*
D03*
D46*
X407210Y468630D02*
D03*
D47*
X511810D02*
D03*
D48*
X412750Y292100D02*
D03*
X225662Y49618D02*
D03*
X412352D02*
D03*
X597772D02*
D03*
Y292188D02*
D03*
X60960Y624840D02*
D03*
Y650240D02*
D03*
Y675640D02*
D03*
Y701040D02*
D03*
Y726440D02*
D03*
Y751840D02*
D03*
Y777240D02*
D03*
D49*
X387350Y292100D02*
D03*
X200262Y49618D02*
D03*
X386952D02*
D03*
X572372D02*
D03*
Y292188D02*
D03*
D50*
X354330Y439420D02*
D03*
X367030D02*
D03*
D51*
X379730D02*
D03*
D52*
X655320Y636270D02*
D03*
Y610870D02*
D03*
Y585470D02*
D03*
Y560070D02*
D03*
Y534670D02*
D03*
Y509270D02*
D03*
Y483870D02*
D03*
Y458470D02*
D03*
Y433070D02*
D03*
Y407670D02*
D03*
X807720D02*
D03*
Y433070D02*
D03*
Y458470D02*
D03*
Y483870D02*
D03*
Y509270D02*
D03*
Y534670D02*
D03*
Y560070D02*
D03*
Y585470D02*
D03*
Y610870D02*
D03*
Y636270D02*
D03*
X862860Y16870D02*
D03*
Y894080D02*
D03*
X22860Y16870D02*
D03*
Y894080D02*
D03*
D53*
X659130Y878380D02*
D03*
D54*
X60960Y599440D02*
D03*
D55*
X585470Y784860D02*
D03*
X560070D02*
D03*
X462280D02*
D03*
X487680D02*
D03*
D56*
X317500Y675640D02*
D03*
Y599440D02*
D03*
X519430Y421640D02*
D03*
Y345440D02*
D03*
X560070Y720090D02*
D03*
X483870D02*
D03*
X463550D02*
D03*
X387350D02*
D03*
M02*
