G04*
G04 #@! TF.GenerationSoftware,Altium Limited,Altium Designer,22.5.1 (42)*
G04*
G04 Layer_Color=16711935*
%FSLAX44Y44*%
%MOMM*%
G71*
G04*
G04 #@! TF.SameCoordinates,B077D55B-57A0-4187-A1B5-AB18AB574598*
G04*
G04*
G04 #@! TF.FilePolarity,Negative*
G04*
G01*
G75*
%ADD19R,1.8032X1.8032*%
%ADD20C,1.8032*%
%ADD21C,1.7032*%
%ADD22R,1.7032X1.7032*%
%ADD23C,1.4140*%
%ADD24R,1.4140X1.4140*%
%ADD25C,2.1832*%
%ADD26R,2.2032X2.2032*%
%ADD27C,2.2032*%
%ADD28C,1.0032*%
%ADD29R,1.0032X1.0032*%
%ADD30C,1.7272*%
%ADD31C,1.2032*%
%ADD32R,1.7032X1.7032*%
%ADD33C,2.1382*%
%ADD34R,2.1832X2.1832*%
%ADD35C,1.9812*%
%ADD36C,1.6032*%
%ADD37C,1.4732*%
%ADD38C,1.1032*%
D19*
X78740Y454660D02*
D03*
X81280Y351790D02*
D03*
D20*
X78740Y429260D02*
D03*
D21*
X412750Y292100D02*
D03*
X225662Y49618D02*
D03*
X412352D02*
D03*
X597772D02*
D03*
Y292188D02*
D03*
X60960Y624840D02*
D03*
Y650240D02*
D03*
Y675640D02*
D03*
Y701040D02*
D03*
Y726440D02*
D03*
Y751840D02*
D03*
Y777240D02*
D03*
D22*
X387350Y292100D02*
D03*
X200262Y49618D02*
D03*
X386952D02*
D03*
X572372D02*
D03*
Y292188D02*
D03*
D23*
X137160Y497205D02*
D03*
Y522605D02*
D03*
Y548005D02*
D03*
Y573405D02*
D03*
Y598805D02*
D03*
Y624205D02*
D03*
Y649605D02*
D03*
Y675005D02*
D03*
Y700405D02*
D03*
Y725805D02*
D03*
Y751205D02*
D03*
Y776605D02*
D03*
Y802005D02*
D03*
Y827405D02*
D03*
Y852805D02*
D03*
X289560D02*
D03*
Y827405D02*
D03*
Y802005D02*
D03*
Y776605D02*
D03*
Y751205D02*
D03*
Y725805D02*
D03*
Y700405D02*
D03*
Y675005D02*
D03*
Y649605D02*
D03*
Y624205D02*
D03*
Y598805D02*
D03*
Y573405D02*
D03*
Y548005D02*
D03*
Y522605D02*
D03*
D24*
Y497205D02*
D03*
D25*
X528360Y539440D02*
D03*
Y659440D02*
D03*
X406360Y539440D02*
D03*
D26*
X404900Y473710D02*
D03*
D27*
X509500D02*
D03*
D28*
X234950Y377190D02*
D03*
X222250D02*
D03*
D29*
X209550D02*
D03*
D30*
X655320Y636270D02*
D03*
Y610870D02*
D03*
Y585470D02*
D03*
Y560070D02*
D03*
Y534670D02*
D03*
Y509270D02*
D03*
Y483870D02*
D03*
Y458470D02*
D03*
Y433070D02*
D03*
Y407670D02*
D03*
X807720D02*
D03*
Y433070D02*
D03*
Y458470D02*
D03*
Y483870D02*
D03*
Y509270D02*
D03*
Y534670D02*
D03*
Y560070D02*
D03*
Y585470D02*
D03*
Y610870D02*
D03*
Y636270D02*
D03*
X862860Y16870D02*
D03*
Y894080D02*
D03*
X22860Y16870D02*
D03*
Y894080D02*
D03*
D31*
X659130Y878380D02*
D03*
D32*
X60960Y599440D02*
D03*
D33*
X386360D02*
D03*
D34*
X406360Y659440D02*
D03*
D35*
X585470Y784860D02*
D03*
X560070D02*
D03*
X462280D02*
D03*
X487680D02*
D03*
D36*
X313690Y439420D02*
D03*
Y363220D02*
D03*
X519430Y421640D02*
D03*
Y345440D02*
D03*
X560070Y720090D02*
D03*
X483870D02*
D03*
X463550D02*
D03*
X387350D02*
D03*
D37*
X203850Y352410D02*
D03*
X599440Y610870D02*
D03*
X431800Y553720D02*
D03*
D38*
X786130Y528320D02*
D03*
X773290Y659593D02*
D03*
X786130Y674370D02*
D03*
X722630Y660400D02*
D03*
X684530D02*
D03*
X671830Y674370D02*
D03*
X709930Y749300D02*
D03*
X735330Y674370D02*
D03*
X760730D02*
D03*
M02*
