G04*
G04 #@! TF.GenerationSoftware,Altium Limited,Altium Designer,22.5.1 (42)*
G04*
G04 Layer_Color=8388736*
%FSLAX44Y44*%
%MOMM*%
G71*
G04*
G04 #@! TF.SameCoordinates,DCAD6D7B-F460-4A76-B736-7305E2F345F3*
G04*
G04*
G04 #@! TF.FilePolarity,Negative*
G04*
G01*
G75*
%ADD18C,0.2286*%
%ADD19R,2.1832X2.1832*%
%ADD20C,2.1382*%
%ADD21C,2.1832*%
%ADD22R,1.4140X1.4140*%
%ADD23C,1.4140*%
%ADD24C,2.1532*%
%ADD25R,2.1532X2.1532*%
%ADD26C,2.2032*%
%ADD27R,2.2032X2.2032*%
%ADD28C,1.7032*%
%ADD29R,1.7032X1.7032*%
%ADD30C,1.0032*%
%ADD31R,1.0032X1.0032*%
%ADD32C,1.7272*%
%ADD33C,1.2032*%
%ADD34R,1.7032X1.7032*%
%ADD35C,1.9812*%
%ADD36C,1.6032*%
%ADD37C,1.4032*%
%ADD38C,1.4732*%
%ADD39C,1.1032*%
G36*
X799257Y741266D02*
X799291D01*
X799324Y741262D01*
X799357Y741260D01*
X799389Y741253D01*
X799423Y741249D01*
X800195Y741095D01*
X800228Y741086D01*
X800260Y741080D01*
X800292Y741069D01*
X800324Y741060D01*
X800355Y741048D01*
X800386Y741037D01*
X801114Y740735D01*
X801144Y740721D01*
X801175Y740708D01*
X801204Y740691D01*
X801234Y740676D01*
X801261Y740658D01*
X801290Y740641D01*
X801945Y740204D01*
X801972Y740183D01*
X802000Y740165D01*
X802025Y740143D01*
X802051Y740123D01*
X802075Y740099D01*
X802100Y740077D01*
X802657Y739520D01*
X802679Y739495D01*
X802702Y739471D01*
X802723Y739445D01*
X802745Y739420D01*
X802763Y739392D01*
X802784Y739365D01*
X803221Y738710D01*
X803238Y738682D01*
X803257Y738654D01*
X803271Y738624D01*
X803288Y738595D01*
X803301Y738564D01*
X803315Y738534D01*
X803617Y737806D01*
X803628Y737775D01*
X803641Y737744D01*
X803649Y737712D01*
X803660Y737680D01*
X803666Y737648D01*
X803675Y737615D01*
X803829Y736843D01*
X803833Y736809D01*
X803839Y736777D01*
X803842Y736744D01*
X803846Y736711D01*
Y736677D01*
X803848Y736644D01*
Y736250D01*
Y720250D01*
X803839Y720117D01*
X803813Y719986D01*
X803771Y719860D01*
X803712Y719741D01*
X803638Y719630D01*
X803550Y719530D01*
X803450Y719442D01*
X803339Y719368D01*
X803220Y719309D01*
X803093Y719267D01*
X802963Y719240D01*
X802830Y719232D01*
X794830D01*
X794697Y719240D01*
X794566Y719267D01*
X794440Y719309D01*
X794321Y719368D01*
X794210Y719442D01*
X794110Y719530D01*
X794022Y719630D01*
X793948Y719741D01*
X793889Y719860D01*
X793847Y719986D01*
X793820Y720117D01*
X793812Y720250D01*
Y736250D01*
Y736644D01*
X793814Y736677D01*
Y736711D01*
X793818Y736743D01*
X793820Y736777D01*
X793827Y736809D01*
X793831Y736842D01*
X793985Y737615D01*
X793994Y737647D01*
X794000Y737680D01*
X794011Y737712D01*
X794019Y737744D01*
X794032Y737775D01*
X794043Y737806D01*
X794345Y738534D01*
X794359Y738564D01*
X794372Y738595D01*
X794389Y738624D01*
X794404Y738654D01*
X794422Y738681D01*
X794439Y738710D01*
X794876Y739365D01*
X794897Y739392D01*
X794915Y739420D01*
X794937Y739445D01*
X794957Y739471D01*
X794981Y739495D01*
X795003Y739520D01*
X795560Y740077D01*
X795585Y740099D01*
X795609Y740123D01*
X795635Y740143D01*
X795660Y740165D01*
X795688Y740183D01*
X795714Y740204D01*
X796370Y740641D01*
X796398Y740658D01*
X796426Y740676D01*
X796456Y740691D01*
X796485Y740708D01*
X796516Y740721D01*
X796546Y740735D01*
X797274Y741037D01*
X797305Y741048D01*
X797336Y741060D01*
X797368Y741069D01*
X797400Y741080D01*
X797432Y741086D01*
X797465Y741095D01*
X798237Y741249D01*
X798270Y741253D01*
X798303Y741260D01*
X798336Y741262D01*
X798369Y741266D01*
X798403D01*
X798436Y741268D01*
X799224D01*
X799257Y741266D01*
D02*
G37*
G36*
X786557D02*
X786591D01*
X786624Y741262D01*
X786657Y741260D01*
X786689Y741253D01*
X786723Y741249D01*
X787495Y741095D01*
X787528Y741086D01*
X787560Y741080D01*
X787592Y741069D01*
X787624Y741060D01*
X787655Y741048D01*
X787686Y741037D01*
X788414Y740735D01*
X788444Y740721D01*
X788475Y740708D01*
X788504Y740691D01*
X788534Y740676D01*
X788561Y740658D01*
X788590Y740641D01*
X789246Y740204D01*
X789272Y740183D01*
X789300Y740165D01*
X789325Y740143D01*
X789351Y740123D01*
X789375Y740099D01*
X789400Y740077D01*
X789957Y739520D01*
X789979Y739495D01*
X790003Y739471D01*
X790023Y739445D01*
X790045Y739420D01*
X790063Y739392D01*
X790084Y739365D01*
X790521Y738710D01*
X790538Y738682D01*
X790556Y738654D01*
X790571Y738624D01*
X790588Y738595D01*
X790601Y738564D01*
X790615Y738534D01*
X790917Y737806D01*
X790928Y737775D01*
X790940Y737744D01*
X790949Y737712D01*
X790960Y737680D01*
X790966Y737648D01*
X790975Y737615D01*
X791129Y736843D01*
X791133Y736809D01*
X791140Y736777D01*
X791142Y736744D01*
X791146Y736711D01*
Y736677D01*
X791148Y736644D01*
Y736250D01*
Y720250D01*
X791140Y720117D01*
X791114Y719986D01*
X791071Y719860D01*
X791012Y719741D01*
X790938Y719630D01*
X790850Y719530D01*
X790750Y719442D01*
X790639Y719368D01*
X790520Y719309D01*
X790394Y719267D01*
X790263Y719240D01*
X790130Y719232D01*
X782130D01*
X781997Y719240D01*
X781867Y719267D01*
X781740Y719309D01*
X781621Y719368D01*
X781510Y719442D01*
X781410Y719530D01*
X781322Y719630D01*
X781248Y719741D01*
X781189Y719860D01*
X781146Y719986D01*
X781121Y720117D01*
X781112Y720250D01*
Y736250D01*
Y736644D01*
X781114Y736677D01*
Y736711D01*
X781118Y736743D01*
X781121Y736777D01*
X781127Y736809D01*
X781131Y736842D01*
X781285Y737615D01*
X781294Y737647D01*
X781300Y737680D01*
X781311Y737712D01*
X781320Y737744D01*
X781332Y737775D01*
X781343Y737806D01*
X781645Y738534D01*
X781659Y738564D01*
X781672Y738595D01*
X781689Y738624D01*
X781703Y738654D01*
X781722Y738681D01*
X781739Y738710D01*
X782176Y739365D01*
X782197Y739392D01*
X782215Y739420D01*
X782237Y739445D01*
X782257Y739471D01*
X782281Y739495D01*
X782303Y739520D01*
X782860Y740077D01*
X782885Y740099D01*
X782909Y740123D01*
X782935Y740143D01*
X782960Y740165D01*
X782988Y740183D01*
X783015Y740204D01*
X783670Y740641D01*
X783698Y740658D01*
X783726Y740676D01*
X783756Y740691D01*
X783785Y740708D01*
X783816Y740721D01*
X783846Y740735D01*
X784574Y741037D01*
X784605Y741048D01*
X784636Y741060D01*
X784668Y741069D01*
X784700Y741080D01*
X784732Y741086D01*
X784765Y741095D01*
X785537Y741249D01*
X785571Y741253D01*
X785603Y741260D01*
X785636Y741262D01*
X785669Y741266D01*
X785703D01*
X785736Y741268D01*
X786524D01*
X786557Y741266D01*
D02*
G37*
G36*
X773857D02*
X773891D01*
X773924Y741262D01*
X773957Y741260D01*
X773989Y741253D01*
X774023Y741249D01*
X774795Y741095D01*
X774828Y741086D01*
X774860Y741080D01*
X774892Y741069D01*
X774924Y741060D01*
X774955Y741048D01*
X774986Y741037D01*
X775714Y740735D01*
X775744Y740721D01*
X775775Y740708D01*
X775804Y740691D01*
X775834Y740676D01*
X775861Y740658D01*
X775890Y740641D01*
X776545Y740204D01*
X776572Y740183D01*
X776600Y740165D01*
X776625Y740143D01*
X776651Y740123D01*
X776675Y740099D01*
X776700Y740077D01*
X777257Y739520D01*
X777279Y739495D01*
X777302Y739471D01*
X777323Y739445D01*
X777345Y739420D01*
X777363Y739392D01*
X777384Y739365D01*
X777821Y738710D01*
X777838Y738682D01*
X777857Y738654D01*
X777871Y738624D01*
X777888Y738595D01*
X777901Y738564D01*
X777915Y738534D01*
X778217Y737806D01*
X778228Y737775D01*
X778241Y737744D01*
X778249Y737712D01*
X778260Y737680D01*
X778266Y737648D01*
X778275Y737615D01*
X778429Y736843D01*
X778433Y736809D01*
X778439Y736777D01*
X778442Y736744D01*
X778446Y736711D01*
Y736677D01*
X778448Y736644D01*
Y736250D01*
Y720250D01*
X778439Y720117D01*
X778413Y719986D01*
X778371Y719860D01*
X778312Y719741D01*
X778238Y719630D01*
X778150Y719530D01*
X778050Y719442D01*
X777939Y719368D01*
X777820Y719309D01*
X777693Y719267D01*
X777563Y719240D01*
X777430Y719232D01*
X769430D01*
X769297Y719240D01*
X769166Y719267D01*
X769040Y719309D01*
X768921Y719368D01*
X768810Y719442D01*
X768710Y719530D01*
X768622Y719630D01*
X768548Y719741D01*
X768489Y719860D01*
X768447Y719986D01*
X768420Y720117D01*
X768412Y720250D01*
Y736250D01*
Y736644D01*
X768414Y736677D01*
Y736711D01*
X768418Y736743D01*
X768420Y736777D01*
X768427Y736809D01*
X768431Y736842D01*
X768585Y737615D01*
X768594Y737647D01*
X768600Y737680D01*
X768611Y737712D01*
X768620Y737744D01*
X768632Y737775D01*
X768643Y737806D01*
X768945Y738534D01*
X768959Y738564D01*
X768972Y738595D01*
X768989Y738624D01*
X769004Y738654D01*
X769022Y738681D01*
X769039Y738710D01*
X769476Y739365D01*
X769497Y739392D01*
X769515Y739420D01*
X769537Y739445D01*
X769557Y739471D01*
X769581Y739495D01*
X769603Y739520D01*
X770160Y740077D01*
X770185Y740099D01*
X770209Y740123D01*
X770235Y740143D01*
X770260Y740165D01*
X770288Y740183D01*
X770314Y740204D01*
X770970Y740641D01*
X770998Y740658D01*
X771026Y740676D01*
X771056Y740691D01*
X771085Y740708D01*
X771116Y740721D01*
X771146Y740735D01*
X771874Y741037D01*
X771905Y741048D01*
X771936Y741060D01*
X771968Y741069D01*
X772000Y741080D01*
X772032Y741086D01*
X772065Y741095D01*
X772837Y741249D01*
X772870Y741253D01*
X772903Y741260D01*
X772936Y741262D01*
X772969Y741266D01*
X773003D01*
X773036Y741268D01*
X773824D01*
X773857Y741266D01*
D02*
G37*
G36*
X761157D02*
X761191D01*
X761224Y741262D01*
X761257Y741260D01*
X761289Y741253D01*
X761323Y741249D01*
X762095Y741095D01*
X762128Y741086D01*
X762160Y741080D01*
X762192Y741069D01*
X762224Y741060D01*
X762255Y741048D01*
X762286Y741037D01*
X763014Y740735D01*
X763044Y740721D01*
X763075Y740708D01*
X763104Y740691D01*
X763134Y740676D01*
X763161Y740658D01*
X763190Y740641D01*
X763846Y740204D01*
X763872Y740183D01*
X763900Y740165D01*
X763925Y740143D01*
X763951Y740123D01*
X763975Y740099D01*
X764000Y740077D01*
X764557Y739520D01*
X764579Y739495D01*
X764603Y739471D01*
X764623Y739445D01*
X764645Y739420D01*
X764663Y739392D01*
X764684Y739365D01*
X765121Y738710D01*
X765138Y738682D01*
X765156Y738654D01*
X765171Y738624D01*
X765188Y738595D01*
X765201Y738564D01*
X765215Y738534D01*
X765517Y737806D01*
X765528Y737775D01*
X765540Y737744D01*
X765549Y737712D01*
X765560Y737680D01*
X765566Y737648D01*
X765575Y737615D01*
X765729Y736843D01*
X765733Y736809D01*
X765740Y736777D01*
X765742Y736744D01*
X765746Y736711D01*
Y736677D01*
X765748Y736644D01*
Y736250D01*
Y720250D01*
X765740Y720117D01*
X765714Y719986D01*
X765671Y719860D01*
X765612Y719741D01*
X765538Y719630D01*
X765450Y719530D01*
X765350Y719442D01*
X765239Y719368D01*
X765120Y719309D01*
X764994Y719267D01*
X764863Y719240D01*
X764730Y719232D01*
X756730D01*
X756597Y719240D01*
X756467Y719267D01*
X756340Y719309D01*
X756221Y719368D01*
X756110Y719442D01*
X756010Y719530D01*
X755922Y719630D01*
X755848Y719741D01*
X755789Y719860D01*
X755747Y719986D01*
X755721Y720117D01*
X755712Y720250D01*
Y736250D01*
Y736644D01*
X755714Y736677D01*
Y736711D01*
X755718Y736743D01*
X755721Y736777D01*
X755727Y736809D01*
X755731Y736842D01*
X755885Y737615D01*
X755894Y737647D01*
X755900Y737680D01*
X755911Y737712D01*
X755919Y737744D01*
X755932Y737775D01*
X755943Y737806D01*
X756245Y738534D01*
X756259Y738564D01*
X756272Y738595D01*
X756289Y738624D01*
X756303Y738654D01*
X756322Y738681D01*
X756339Y738710D01*
X756776Y739365D01*
X756797Y739392D01*
X756815Y739420D01*
X756837Y739445D01*
X756857Y739471D01*
X756881Y739495D01*
X756903Y739520D01*
X757460Y740077D01*
X757485Y740099D01*
X757509Y740123D01*
X757535Y740143D01*
X757560Y740165D01*
X757588Y740183D01*
X757615Y740204D01*
X758270Y740641D01*
X758298Y740658D01*
X758326Y740676D01*
X758356Y740691D01*
X758385Y740708D01*
X758416Y740721D01*
X758446Y740735D01*
X759174Y741037D01*
X759205Y741048D01*
X759236Y741060D01*
X759268Y741069D01*
X759300Y741080D01*
X759332Y741086D01*
X759365Y741095D01*
X760137Y741249D01*
X760171Y741253D01*
X760203Y741260D01*
X760236Y741262D01*
X760269Y741266D01*
X760303D01*
X760336Y741268D01*
X761124D01*
X761157Y741266D01*
D02*
G37*
G36*
X748457D02*
X748491D01*
X748524Y741262D01*
X748557Y741260D01*
X748589Y741253D01*
X748623Y741249D01*
X749395Y741095D01*
X749428Y741086D01*
X749460Y741080D01*
X749492Y741069D01*
X749524Y741060D01*
X749555Y741048D01*
X749586Y741037D01*
X750314Y740735D01*
X750344Y740721D01*
X750375Y740708D01*
X750404Y740691D01*
X750434Y740676D01*
X750461Y740658D01*
X750490Y740641D01*
X751145Y740204D01*
X751172Y740183D01*
X751200Y740165D01*
X751225Y740143D01*
X751251Y740123D01*
X751275Y740099D01*
X751300Y740077D01*
X751857Y739520D01*
X751879Y739495D01*
X751902Y739471D01*
X751923Y739445D01*
X751945Y739420D01*
X751963Y739392D01*
X751984Y739365D01*
X752421Y738710D01*
X752438Y738682D01*
X752457Y738654D01*
X752471Y738624D01*
X752488Y738595D01*
X752501Y738564D01*
X752515Y738534D01*
X752817Y737806D01*
X752828Y737775D01*
X752840Y737744D01*
X752849Y737712D01*
X752860Y737680D01*
X752866Y737648D01*
X752875Y737615D01*
X753029Y736843D01*
X753033Y736809D01*
X753039Y736777D01*
X753042Y736744D01*
X753046Y736711D01*
Y736677D01*
X753048Y736644D01*
Y736250D01*
Y720250D01*
X753039Y720117D01*
X753014Y719986D01*
X752971Y719860D01*
X752912Y719741D01*
X752838Y719630D01*
X752750Y719530D01*
X752650Y719442D01*
X752539Y719368D01*
X752420Y719309D01*
X752293Y719267D01*
X752163Y719240D01*
X752030Y719232D01*
X744030D01*
X743897Y719240D01*
X743766Y719267D01*
X743640Y719309D01*
X743521Y719368D01*
X743410Y719442D01*
X743310Y719530D01*
X743222Y719630D01*
X743148Y719741D01*
X743089Y719860D01*
X743046Y719986D01*
X743020Y720117D01*
X743012Y720250D01*
Y736250D01*
Y736644D01*
X743014Y736677D01*
Y736711D01*
X743018Y736743D01*
X743020Y736777D01*
X743027Y736809D01*
X743031Y736842D01*
X743185Y737615D01*
X743194Y737647D01*
X743200Y737680D01*
X743211Y737712D01*
X743220Y737744D01*
X743232Y737775D01*
X743243Y737806D01*
X743545Y738534D01*
X743559Y738564D01*
X743572Y738595D01*
X743589Y738624D01*
X743604Y738654D01*
X743622Y738681D01*
X743639Y738710D01*
X744076Y739365D01*
X744097Y739392D01*
X744115Y739420D01*
X744137Y739445D01*
X744157Y739471D01*
X744181Y739495D01*
X744203Y739520D01*
X744760Y740077D01*
X744785Y740099D01*
X744809Y740123D01*
X744835Y740143D01*
X744860Y740165D01*
X744888Y740183D01*
X744914Y740204D01*
X745570Y740641D01*
X745598Y740658D01*
X745626Y740676D01*
X745656Y740691D01*
X745685Y740708D01*
X745716Y740721D01*
X745746Y740735D01*
X746474Y741037D01*
X746505Y741048D01*
X746536Y741060D01*
X746568Y741069D01*
X746600Y741080D01*
X746632Y741086D01*
X746665Y741095D01*
X747437Y741249D01*
X747470Y741253D01*
X747503Y741260D01*
X747536Y741262D01*
X747569Y741266D01*
X747603D01*
X747636Y741268D01*
X748424D01*
X748457Y741266D01*
D02*
G37*
G36*
X735757D02*
X735791D01*
X735824Y741262D01*
X735857Y741260D01*
X735889Y741253D01*
X735923Y741249D01*
X736695Y741095D01*
X736728Y741086D01*
X736760Y741080D01*
X736792Y741069D01*
X736824Y741060D01*
X736855Y741048D01*
X736886Y741037D01*
X737614Y740735D01*
X737644Y740721D01*
X737675Y740708D01*
X737704Y740691D01*
X737734Y740676D01*
X737761Y740658D01*
X737790Y740641D01*
X738446Y740204D01*
X738472Y740183D01*
X738500Y740165D01*
X738525Y740143D01*
X738551Y740123D01*
X738575Y740099D01*
X738600Y740077D01*
X739157Y739520D01*
X739179Y739495D01*
X739202Y739471D01*
X739223Y739445D01*
X739245Y739420D01*
X739263Y739392D01*
X739284Y739365D01*
X739721Y738710D01*
X739738Y738682D01*
X739756Y738654D01*
X739771Y738624D01*
X739788Y738595D01*
X739801Y738564D01*
X739815Y738534D01*
X740117Y737806D01*
X740128Y737775D01*
X740141Y737744D01*
X740149Y737712D01*
X740160Y737680D01*
X740166Y737648D01*
X740175Y737615D01*
X740329Y736843D01*
X740333Y736809D01*
X740340Y736777D01*
X740342Y736744D01*
X740346Y736711D01*
Y736677D01*
X740348Y736644D01*
Y736250D01*
Y720250D01*
X740340Y720117D01*
X740313Y719986D01*
X740271Y719860D01*
X740212Y719741D01*
X740138Y719630D01*
X740050Y719530D01*
X739950Y719442D01*
X739839Y719368D01*
X739720Y719309D01*
X739594Y719267D01*
X739463Y719240D01*
X739330Y719232D01*
X731330D01*
X731197Y719240D01*
X731067Y719267D01*
X730940Y719309D01*
X730821Y719368D01*
X730710Y719442D01*
X730610Y719530D01*
X730522Y719630D01*
X730448Y719741D01*
X730389Y719860D01*
X730347Y719986D01*
X730321Y720117D01*
X730312Y720250D01*
Y736250D01*
Y736644D01*
X730314Y736677D01*
Y736711D01*
X730318Y736743D01*
X730321Y736777D01*
X730327Y736809D01*
X730331Y736842D01*
X730485Y737615D01*
X730494Y737647D01*
X730500Y737680D01*
X730511Y737712D01*
X730519Y737744D01*
X730532Y737775D01*
X730543Y737806D01*
X730845Y738534D01*
X730859Y738564D01*
X730872Y738595D01*
X730889Y738624D01*
X730903Y738654D01*
X730922Y738681D01*
X730939Y738710D01*
X731376Y739365D01*
X731397Y739392D01*
X731415Y739420D01*
X731437Y739445D01*
X731457Y739471D01*
X731481Y739495D01*
X731503Y739520D01*
X732060Y740077D01*
X732085Y740099D01*
X732109Y740123D01*
X732135Y740143D01*
X732160Y740165D01*
X732188Y740183D01*
X732215Y740204D01*
X732870Y740641D01*
X732898Y740658D01*
X732926Y740676D01*
X732956Y740691D01*
X732985Y740708D01*
X733016Y740721D01*
X733046Y740735D01*
X733774Y741037D01*
X733805Y741048D01*
X733836Y741060D01*
X733868Y741069D01*
X733900Y741080D01*
X733932Y741086D01*
X733965Y741095D01*
X734737Y741249D01*
X734771Y741253D01*
X734803Y741260D01*
X734836Y741262D01*
X734869Y741266D01*
X734903D01*
X734936Y741268D01*
X735724D01*
X735757Y741266D01*
D02*
G37*
G36*
X723057D02*
X723091D01*
X723124Y741262D01*
X723157Y741260D01*
X723189Y741253D01*
X723223Y741249D01*
X723995Y741095D01*
X724028Y741086D01*
X724060Y741080D01*
X724092Y741069D01*
X724124Y741060D01*
X724155Y741048D01*
X724186Y741037D01*
X724914Y740735D01*
X724944Y740721D01*
X724975Y740708D01*
X725004Y740691D01*
X725034Y740676D01*
X725061Y740658D01*
X725090Y740641D01*
X725745Y740204D01*
X725772Y740183D01*
X725800Y740165D01*
X725825Y740143D01*
X725851Y740123D01*
X725875Y740099D01*
X725900Y740077D01*
X726457Y739520D01*
X726479Y739495D01*
X726503Y739471D01*
X726523Y739445D01*
X726545Y739420D01*
X726563Y739392D01*
X726584Y739365D01*
X727021Y738710D01*
X727038Y738682D01*
X727057Y738654D01*
X727071Y738624D01*
X727088Y738595D01*
X727101Y738564D01*
X727115Y738534D01*
X727417Y737806D01*
X727428Y737775D01*
X727440Y737744D01*
X727449Y737712D01*
X727460Y737680D01*
X727466Y737648D01*
X727475Y737615D01*
X727629Y736843D01*
X727633Y736809D01*
X727639Y736777D01*
X727642Y736744D01*
X727646Y736711D01*
Y736677D01*
X727648Y736644D01*
Y736250D01*
Y720250D01*
X727639Y720117D01*
X727614Y719986D01*
X727571Y719860D01*
X727512Y719741D01*
X727438Y719630D01*
X727350Y719530D01*
X727250Y719442D01*
X727139Y719368D01*
X727020Y719309D01*
X726893Y719267D01*
X726763Y719240D01*
X726630Y719232D01*
X718630D01*
X718497Y719240D01*
X718366Y719267D01*
X718240Y719309D01*
X718121Y719368D01*
X718010Y719442D01*
X717910Y719530D01*
X717822Y719630D01*
X717748Y719741D01*
X717689Y719860D01*
X717646Y719986D01*
X717620Y720117D01*
X717612Y720250D01*
Y736250D01*
Y736644D01*
X717614Y736677D01*
Y736711D01*
X717618Y736743D01*
X717620Y736777D01*
X717627Y736809D01*
X717631Y736842D01*
X717785Y737615D01*
X717794Y737647D01*
X717800Y737680D01*
X717811Y737712D01*
X717820Y737744D01*
X717832Y737775D01*
X717843Y737806D01*
X718145Y738534D01*
X718159Y738564D01*
X718172Y738595D01*
X718189Y738624D01*
X718204Y738654D01*
X718222Y738681D01*
X718239Y738710D01*
X718676Y739365D01*
X718697Y739392D01*
X718715Y739420D01*
X718737Y739445D01*
X718757Y739471D01*
X718781Y739495D01*
X718803Y739520D01*
X719360Y740077D01*
X719385Y740099D01*
X719409Y740123D01*
X719435Y740143D01*
X719460Y740165D01*
X719488Y740183D01*
X719514Y740204D01*
X720170Y740641D01*
X720198Y740658D01*
X720226Y740676D01*
X720256Y740691D01*
X720285Y740708D01*
X720316Y740721D01*
X720346Y740735D01*
X721074Y741037D01*
X721105Y741048D01*
X721136Y741060D01*
X721168Y741069D01*
X721200Y741080D01*
X721232Y741086D01*
X721265Y741095D01*
X722037Y741249D01*
X722070Y741253D01*
X722103Y741260D01*
X722136Y741262D01*
X722169Y741266D01*
X722203D01*
X722236Y741268D01*
X723024D01*
X723057Y741266D01*
D02*
G37*
G36*
X710357D02*
X710391D01*
X710424Y741262D01*
X710457Y741260D01*
X710489Y741253D01*
X710523Y741249D01*
X711295Y741095D01*
X711328Y741086D01*
X711360Y741080D01*
X711392Y741069D01*
X711424Y741060D01*
X711455Y741048D01*
X711486Y741037D01*
X712214Y740735D01*
X712244Y740721D01*
X712275Y740708D01*
X712304Y740691D01*
X712334Y740676D01*
X712361Y740658D01*
X712390Y740641D01*
X713046Y740204D01*
X713072Y740183D01*
X713100Y740165D01*
X713125Y740143D01*
X713151Y740123D01*
X713175Y740099D01*
X713200Y740077D01*
X713757Y739520D01*
X713779Y739495D01*
X713802Y739471D01*
X713823Y739445D01*
X713845Y739420D01*
X713863Y739392D01*
X713884Y739365D01*
X714321Y738710D01*
X714338Y738682D01*
X714357Y738654D01*
X714371Y738624D01*
X714388Y738595D01*
X714401Y738564D01*
X714415Y738534D01*
X714717Y737806D01*
X714728Y737775D01*
X714741Y737744D01*
X714749Y737712D01*
X714760Y737680D01*
X714766Y737648D01*
X714775Y737615D01*
X714929Y736843D01*
X714933Y736809D01*
X714939Y736777D01*
X714942Y736744D01*
X714946Y736711D01*
Y736677D01*
X714948Y736644D01*
Y736250D01*
Y720250D01*
X714939Y720117D01*
X714913Y719986D01*
X714871Y719860D01*
X714812Y719741D01*
X714738Y719630D01*
X714650Y719530D01*
X714550Y719442D01*
X714439Y719368D01*
X714320Y719309D01*
X714193Y719267D01*
X714063Y719240D01*
X713930Y719232D01*
X705930D01*
X705797Y719240D01*
X705667Y719267D01*
X705540Y719309D01*
X705421Y719368D01*
X705310Y719442D01*
X705210Y719530D01*
X705122Y719630D01*
X705048Y719741D01*
X704989Y719860D01*
X704947Y719986D01*
X704921Y720117D01*
X704912Y720250D01*
Y736250D01*
Y736644D01*
X704914Y736677D01*
Y736711D01*
X704918Y736743D01*
X704921Y736777D01*
X704927Y736809D01*
X704931Y736842D01*
X705085Y737615D01*
X705094Y737647D01*
X705100Y737680D01*
X705111Y737712D01*
X705119Y737744D01*
X705132Y737775D01*
X705143Y737806D01*
X705445Y738534D01*
X705459Y738564D01*
X705472Y738595D01*
X705489Y738624D01*
X705503Y738654D01*
X705522Y738681D01*
X705539Y738710D01*
X705976Y739365D01*
X705997Y739392D01*
X706015Y739420D01*
X706037Y739445D01*
X706057Y739471D01*
X706081Y739495D01*
X706103Y739520D01*
X706660Y740077D01*
X706685Y740099D01*
X706709Y740123D01*
X706735Y740143D01*
X706760Y740165D01*
X706788Y740183D01*
X706814Y740204D01*
X707470Y740641D01*
X707498Y740658D01*
X707526Y740676D01*
X707556Y740691D01*
X707585Y740708D01*
X707616Y740721D01*
X707646Y740735D01*
X708374Y741037D01*
X708405Y741048D01*
X708436Y741060D01*
X708468Y741069D01*
X708500Y741080D01*
X708532Y741086D01*
X708565Y741095D01*
X709337Y741249D01*
X709370Y741253D01*
X709403Y741260D01*
X709436Y741262D01*
X709469Y741266D01*
X709503D01*
X709536Y741268D01*
X710324D01*
X710357Y741266D01*
D02*
G37*
G36*
X697657D02*
X697691D01*
X697724Y741262D01*
X697757Y741260D01*
X697789Y741253D01*
X697823Y741249D01*
X698595Y741095D01*
X698628Y741086D01*
X698660Y741080D01*
X698692Y741069D01*
X698724Y741060D01*
X698755Y741048D01*
X698786Y741037D01*
X699514Y740735D01*
X699544Y740721D01*
X699575Y740708D01*
X699604Y740691D01*
X699634Y740676D01*
X699661Y740658D01*
X699690Y740641D01*
X700346Y740204D01*
X700372Y740183D01*
X700400Y740165D01*
X700425Y740143D01*
X700451Y740123D01*
X700475Y740099D01*
X700500Y740077D01*
X701057Y739520D01*
X701079Y739495D01*
X701103Y739471D01*
X701123Y739445D01*
X701145Y739420D01*
X701163Y739392D01*
X701184Y739365D01*
X701621Y738710D01*
X701638Y738682D01*
X701656Y738654D01*
X701671Y738624D01*
X701688Y738595D01*
X701701Y738564D01*
X701715Y738534D01*
X702017Y737806D01*
X702028Y737775D01*
X702040Y737744D01*
X702049Y737712D01*
X702060Y737680D01*
X702066Y737648D01*
X702075Y737615D01*
X702229Y736843D01*
X702233Y736809D01*
X702240Y736777D01*
X702242Y736744D01*
X702246Y736711D01*
Y736677D01*
X702248Y736644D01*
Y736250D01*
Y720250D01*
X702240Y720117D01*
X702214Y719986D01*
X702171Y719860D01*
X702112Y719741D01*
X702038Y719630D01*
X701950Y719530D01*
X701850Y719442D01*
X701739Y719368D01*
X701620Y719309D01*
X701494Y719267D01*
X701363Y719240D01*
X701230Y719232D01*
X693230D01*
X693097Y719240D01*
X692967Y719267D01*
X692840Y719309D01*
X692721Y719368D01*
X692610Y719442D01*
X692510Y719530D01*
X692422Y719630D01*
X692348Y719741D01*
X692289Y719860D01*
X692246Y719986D01*
X692221Y720117D01*
X692212Y720250D01*
Y736250D01*
Y736644D01*
X692214Y736677D01*
Y736711D01*
X692218Y736743D01*
X692221Y736777D01*
X692227Y736809D01*
X692231Y736842D01*
X692385Y737615D01*
X692394Y737647D01*
X692400Y737680D01*
X692411Y737712D01*
X692420Y737744D01*
X692432Y737775D01*
X692443Y737806D01*
X692745Y738534D01*
X692759Y738564D01*
X692772Y738595D01*
X692789Y738624D01*
X692803Y738654D01*
X692822Y738681D01*
X692839Y738710D01*
X693276Y739365D01*
X693297Y739392D01*
X693315Y739420D01*
X693337Y739445D01*
X693357Y739471D01*
X693381Y739495D01*
X693403Y739520D01*
X693960Y740077D01*
X693985Y740099D01*
X694009Y740123D01*
X694035Y740143D01*
X694060Y740165D01*
X694088Y740183D01*
X694115Y740204D01*
X694770Y740641D01*
X694798Y740658D01*
X694826Y740676D01*
X694856Y740691D01*
X694885Y740708D01*
X694916Y740721D01*
X694946Y740735D01*
X695674Y741037D01*
X695705Y741048D01*
X695736Y741060D01*
X695768Y741069D01*
X695800Y741080D01*
X695832Y741086D01*
X695865Y741095D01*
X696637Y741249D01*
X696671Y741253D01*
X696703Y741260D01*
X696736Y741262D01*
X696769Y741266D01*
X696803D01*
X696836Y741268D01*
X697624D01*
X697657Y741266D01*
D02*
G37*
G36*
X684957D02*
X684991D01*
X685024Y741262D01*
X685057Y741260D01*
X685089Y741253D01*
X685123Y741249D01*
X685895Y741095D01*
X685928Y741086D01*
X685960Y741080D01*
X685992Y741069D01*
X686024Y741060D01*
X686055Y741048D01*
X686086Y741037D01*
X686814Y740735D01*
X686844Y740721D01*
X686875Y740708D01*
X686904Y740691D01*
X686934Y740676D01*
X686961Y740658D01*
X686990Y740641D01*
X687645Y740204D01*
X687672Y740183D01*
X687700Y740165D01*
X687725Y740143D01*
X687751Y740123D01*
X687775Y740099D01*
X687800Y740077D01*
X688357Y739520D01*
X688379Y739495D01*
X688402Y739471D01*
X688423Y739445D01*
X688445Y739420D01*
X688463Y739392D01*
X688484Y739365D01*
X688921Y738710D01*
X688938Y738682D01*
X688957Y738654D01*
X688971Y738624D01*
X688988Y738595D01*
X689001Y738564D01*
X689015Y738534D01*
X689317Y737806D01*
X689328Y737775D01*
X689341Y737744D01*
X689349Y737712D01*
X689360Y737680D01*
X689366Y737648D01*
X689375Y737615D01*
X689529Y736843D01*
X689533Y736809D01*
X689539Y736777D01*
X689542Y736744D01*
X689546Y736711D01*
Y736677D01*
X689548Y736644D01*
Y736250D01*
Y720250D01*
X689539Y720117D01*
X689513Y719986D01*
X689471Y719860D01*
X689412Y719741D01*
X689338Y719630D01*
X689250Y719530D01*
X689150Y719442D01*
X689039Y719368D01*
X688920Y719309D01*
X688793Y719267D01*
X688663Y719240D01*
X688530Y719232D01*
X680530D01*
X680397Y719240D01*
X680266Y719267D01*
X680140Y719309D01*
X680021Y719368D01*
X679910Y719442D01*
X679810Y719530D01*
X679722Y719630D01*
X679648Y719741D01*
X679589Y719860D01*
X679547Y719986D01*
X679520Y720117D01*
X679512Y720250D01*
Y736250D01*
Y736644D01*
X679514Y736677D01*
Y736711D01*
X679518Y736743D01*
X679520Y736777D01*
X679527Y736809D01*
X679531Y736842D01*
X679685Y737615D01*
X679694Y737647D01*
X679700Y737680D01*
X679711Y737712D01*
X679719Y737744D01*
X679732Y737775D01*
X679743Y737806D01*
X680045Y738534D01*
X680059Y738564D01*
X680072Y738595D01*
X680089Y738624D01*
X680104Y738654D01*
X680122Y738681D01*
X680139Y738710D01*
X680576Y739365D01*
X680597Y739392D01*
X680615Y739420D01*
X680637Y739445D01*
X680657Y739471D01*
X680681Y739495D01*
X680703Y739520D01*
X681260Y740077D01*
X681285Y740099D01*
X681309Y740123D01*
X681335Y740143D01*
X681360Y740165D01*
X681388Y740183D01*
X681414Y740204D01*
X682070Y740641D01*
X682098Y740658D01*
X682126Y740676D01*
X682156Y740691D01*
X682185Y740708D01*
X682216Y740721D01*
X682246Y740735D01*
X682974Y741037D01*
X683005Y741048D01*
X683036Y741060D01*
X683068Y741069D01*
X683100Y741080D01*
X683132Y741086D01*
X683165Y741095D01*
X683937Y741249D01*
X683970Y741253D01*
X684003Y741260D01*
X684036Y741262D01*
X684069Y741266D01*
X684103D01*
X684136Y741268D01*
X684924D01*
X684957Y741266D01*
D02*
G37*
G36*
X672257D02*
X672291D01*
X672324Y741262D01*
X672357Y741260D01*
X672389Y741253D01*
X672423Y741249D01*
X673195Y741095D01*
X673228Y741086D01*
X673260Y741080D01*
X673292Y741069D01*
X673324Y741060D01*
X673355Y741048D01*
X673386Y741037D01*
X674114Y740735D01*
X674144Y740721D01*
X674175Y740708D01*
X674204Y740691D01*
X674234Y740676D01*
X674261Y740658D01*
X674290Y740641D01*
X674946Y740204D01*
X674972Y740183D01*
X675000Y740165D01*
X675025Y740143D01*
X675051Y740123D01*
X675075Y740099D01*
X675100Y740077D01*
X675657Y739520D01*
X675679Y739495D01*
X675703Y739471D01*
X675723Y739445D01*
X675745Y739420D01*
X675763Y739392D01*
X675784Y739365D01*
X676221Y738710D01*
X676238Y738682D01*
X676256Y738654D01*
X676271Y738624D01*
X676288Y738595D01*
X676301Y738564D01*
X676315Y738534D01*
X676617Y737806D01*
X676628Y737775D01*
X676640Y737744D01*
X676649Y737712D01*
X676660Y737680D01*
X676666Y737648D01*
X676675Y737615D01*
X676829Y736843D01*
X676833Y736809D01*
X676840Y736777D01*
X676842Y736744D01*
X676846Y736711D01*
Y736677D01*
X676848Y736644D01*
Y736250D01*
Y720250D01*
X676840Y720117D01*
X676814Y719986D01*
X676771Y719860D01*
X676712Y719741D01*
X676638Y719630D01*
X676550Y719530D01*
X676450Y719442D01*
X676339Y719368D01*
X676220Y719309D01*
X676094Y719267D01*
X675963Y719240D01*
X675830Y719232D01*
X667830D01*
X667697Y719240D01*
X667567Y719267D01*
X667440Y719309D01*
X667321Y719368D01*
X667210Y719442D01*
X667110Y719530D01*
X667022Y719630D01*
X666948Y719741D01*
X666889Y719860D01*
X666846Y719986D01*
X666821Y720117D01*
X666812Y720250D01*
Y736250D01*
Y736644D01*
X666814Y736677D01*
Y736711D01*
X666818Y736743D01*
X666821Y736777D01*
X666827Y736809D01*
X666831Y736842D01*
X666985Y737615D01*
X666994Y737647D01*
X667000Y737680D01*
X667011Y737712D01*
X667020Y737744D01*
X667032Y737775D01*
X667043Y737806D01*
X667345Y738534D01*
X667359Y738564D01*
X667372Y738595D01*
X667389Y738624D01*
X667403Y738654D01*
X667422Y738681D01*
X667439Y738710D01*
X667876Y739365D01*
X667897Y739392D01*
X667915Y739420D01*
X667937Y739445D01*
X667957Y739471D01*
X667981Y739495D01*
X668003Y739520D01*
X668560Y740077D01*
X668585Y740099D01*
X668609Y740123D01*
X668635Y740143D01*
X668660Y740165D01*
X668688Y740183D01*
X668715Y740204D01*
X669370Y740641D01*
X669398Y740658D01*
X669426Y740676D01*
X669456Y740691D01*
X669485Y740708D01*
X669516Y740721D01*
X669546Y740735D01*
X670274Y741037D01*
X670305Y741048D01*
X670336Y741060D01*
X670368Y741069D01*
X670400Y741080D01*
X670432Y741086D01*
X670465Y741095D01*
X671237Y741249D01*
X671271Y741253D01*
X671303Y741260D01*
X671336Y741262D01*
X671369Y741266D01*
X671403D01*
X671436Y741268D01*
X672224D01*
X672257Y741266D01*
D02*
G37*
G36*
X659557D02*
X659591D01*
X659624Y741262D01*
X659657Y741260D01*
X659689Y741253D01*
X659723Y741249D01*
X660495Y741095D01*
X660528Y741086D01*
X660560Y741080D01*
X660592Y741069D01*
X660624Y741060D01*
X660655Y741048D01*
X660686Y741037D01*
X661414Y740735D01*
X661444Y740721D01*
X661475Y740708D01*
X661504Y740691D01*
X661534Y740676D01*
X661561Y740658D01*
X661590Y740641D01*
X662245Y740204D01*
X662272Y740183D01*
X662300Y740165D01*
X662325Y740143D01*
X662351Y740123D01*
X662375Y740099D01*
X662400Y740077D01*
X662957Y739520D01*
X662979Y739495D01*
X663002Y739471D01*
X663023Y739445D01*
X663045Y739420D01*
X663063Y739392D01*
X663084Y739365D01*
X663521Y738710D01*
X663538Y738682D01*
X663557Y738654D01*
X663571Y738624D01*
X663588Y738595D01*
X663601Y738564D01*
X663615Y738534D01*
X663917Y737806D01*
X663928Y737775D01*
X663941Y737744D01*
X663949Y737712D01*
X663960Y737680D01*
X663966Y737648D01*
X663975Y737615D01*
X664129Y736843D01*
X664133Y736809D01*
X664139Y736777D01*
X664142Y736744D01*
X664146Y736711D01*
Y736677D01*
X664148Y736644D01*
Y736250D01*
Y720250D01*
X664139Y720117D01*
X664113Y719986D01*
X664071Y719860D01*
X664012Y719741D01*
X663938Y719630D01*
X663850Y719530D01*
X663750Y719442D01*
X663639Y719368D01*
X663520Y719309D01*
X663393Y719267D01*
X663263Y719240D01*
X663130Y719232D01*
X655130D01*
X654997Y719240D01*
X654866Y719267D01*
X654740Y719309D01*
X654621Y719368D01*
X654510Y719442D01*
X654410Y719530D01*
X654322Y719630D01*
X654248Y719741D01*
X654189Y719860D01*
X654146Y719986D01*
X654120Y720117D01*
X654112Y720250D01*
Y736250D01*
Y736644D01*
X654114Y736677D01*
Y736711D01*
X654118Y736743D01*
X654120Y736777D01*
X654127Y736809D01*
X654131Y736842D01*
X654285Y737615D01*
X654294Y737647D01*
X654300Y737680D01*
X654311Y737712D01*
X654320Y737744D01*
X654332Y737775D01*
X654343Y737806D01*
X654645Y738534D01*
X654659Y738564D01*
X654672Y738595D01*
X654689Y738624D01*
X654704Y738654D01*
X654722Y738681D01*
X654739Y738710D01*
X655176Y739365D01*
X655197Y739392D01*
X655215Y739420D01*
X655237Y739445D01*
X655257Y739471D01*
X655281Y739495D01*
X655303Y739520D01*
X655860Y740077D01*
X655885Y740099D01*
X655909Y740123D01*
X655935Y740143D01*
X655960Y740165D01*
X655988Y740183D01*
X656014Y740204D01*
X656670Y740641D01*
X656698Y740658D01*
X656726Y740676D01*
X656756Y740691D01*
X656785Y740708D01*
X656816Y740721D01*
X656846Y740735D01*
X657574Y741037D01*
X657605Y741048D01*
X657636Y741060D01*
X657668Y741069D01*
X657700Y741080D01*
X657732Y741086D01*
X657765Y741095D01*
X658537Y741249D01*
X658570Y741253D01*
X658603Y741260D01*
X658636Y741262D01*
X658669Y741266D01*
X658703D01*
X658736Y741268D01*
X659524D01*
X659557Y741266D01*
D02*
G37*
G36*
X733150Y321481D02*
X734572D01*
Y321196D01*
X735140D01*
Y320912D01*
X735425D01*
Y320628D01*
X735709D01*
Y320343D01*
X736278D01*
Y320059D01*
X736562D01*
Y319775D01*
X736846D01*
Y319490D01*
X737131D01*
Y319206D01*
X737415D01*
Y318922D01*
X737699D01*
Y318637D01*
X737984D01*
Y318353D01*
X738268D01*
Y318069D01*
X738552D01*
Y317784D01*
X738837D01*
Y317500D01*
X739121D01*
Y317216D01*
X739405D01*
Y316931D01*
X739690D01*
Y316647D01*
X739974D01*
Y316363D01*
X740258D01*
Y316078D01*
X740543D01*
Y315794D01*
X740827D01*
Y315510D01*
X741111D01*
Y315225D01*
X741396D01*
Y314941D01*
X741680D01*
Y314657D01*
X741964D01*
Y314372D01*
X742249D01*
Y314088D01*
X742533D01*
Y313804D01*
X742817D01*
Y313519D01*
X743102D01*
Y313235D01*
X743386D01*
Y312951D01*
X743670D01*
Y312666D01*
X743955D01*
Y312382D01*
X744239D01*
Y312098D01*
X744523D01*
Y311813D01*
X744808D01*
Y311529D01*
X745092D01*
Y311245D01*
X745376D01*
Y310960D01*
X745661D01*
Y310676D01*
X745945D01*
Y310392D01*
X746229D01*
Y310107D01*
X746514D01*
Y309823D01*
X746798D01*
Y309539D01*
X747082D01*
Y309254D01*
X747367D01*
Y308970D01*
X747935D01*
Y308686D01*
X748220D01*
Y308402D01*
X748504D01*
Y308117D01*
X748788D01*
Y307833D01*
X749072D01*
Y307549D01*
X749357D01*
Y307264D01*
X749641D01*
Y306980D01*
X749926D01*
Y306695D01*
X750210D01*
Y306411D01*
X750494D01*
Y306127D01*
X750779D01*
Y305842D01*
X751063D01*
Y305558D01*
X751347D01*
Y305274D01*
X751631D01*
Y304989D01*
X751916D01*
Y304705D01*
X752200D01*
Y304421D01*
X752485D01*
Y304137D01*
X752769D01*
Y303852D01*
X753053D01*
Y303568D01*
X753337D01*
Y303284D01*
X753622D01*
Y302999D01*
X753906D01*
Y302715D01*
X754190D01*
Y302431D01*
X754475D01*
Y302146D01*
X754759D01*
Y301862D01*
X755043D01*
Y301578D01*
X755328D01*
Y301293D01*
X755612D01*
Y301009D01*
X755896D01*
Y300725D01*
X756181D01*
Y300440D01*
X756465D01*
Y300156D01*
X756749D01*
Y299872D01*
X757034D01*
Y299587D01*
X757318D01*
Y299303D01*
X757602D01*
Y299019D01*
X757887D01*
Y298734D01*
X758171D01*
Y298450D01*
X758455D01*
Y298166D01*
X758740D01*
Y297881D01*
X759308D01*
Y297597D01*
X759593D01*
Y297313D01*
X759877D01*
Y297028D01*
X760161D01*
Y296744D01*
X760446D01*
Y296460D01*
X760730D01*
Y296175D01*
X761014D01*
Y295891D01*
X761299D01*
Y295607D01*
X761583D01*
Y295322D01*
X761867D01*
Y295038D01*
X762152D01*
Y294754D01*
X762436D01*
Y294469D01*
X762720D01*
Y294185D01*
X763005D01*
Y293901D01*
X763289D01*
Y293616D01*
X763573D01*
Y293332D01*
X763858D01*
Y293048D01*
X764142D01*
Y292763D01*
X764426D01*
Y292479D01*
X764711D01*
Y292195D01*
X764995D01*
Y291910D01*
X765279D01*
Y291626D01*
X765564D01*
Y291342D01*
X765848D01*
Y291057D01*
X766132D01*
Y290773D01*
X766417D01*
Y290489D01*
X766701D01*
Y290205D01*
X766985D01*
Y289920D01*
X767270D01*
Y289636D01*
X767554D01*
Y289352D01*
X767838D01*
Y289067D01*
X773240D01*
Y288783D01*
X774378D01*
Y288498D01*
X774662D01*
Y288214D01*
X774946D01*
Y287930D01*
X775231D01*
Y287077D01*
X775515D01*
Y283096D01*
X775231D01*
Y282243D01*
X799399D01*
Y281959D01*
X804801D01*
Y293616D01*
X804517D01*
Y293901D01*
X803948D01*
Y294185D01*
X803664D01*
Y294469D01*
X803379D01*
Y294754D01*
X802811D01*
Y295038D01*
X802526D01*
Y295322D01*
X802242D01*
Y295607D01*
X801958D01*
Y295891D01*
X801673D01*
Y296175D01*
X801389D01*
Y296460D01*
X801105D01*
Y296744D01*
X800820D01*
Y297028D01*
X800536D01*
Y297313D01*
X800252D01*
Y297881D01*
X799967D01*
Y298166D01*
X799683D01*
Y298450D01*
X799399D01*
Y299019D01*
X799114D01*
Y299303D01*
X798830D01*
Y299872D01*
X798546D01*
Y300440D01*
X798261D01*
Y301009D01*
X797977D01*
Y301578D01*
X797693D01*
Y302146D01*
X797408D01*
Y302715D01*
X797124D01*
Y303568D01*
X796840D01*
Y304421D01*
X796555D01*
Y305558D01*
X796271D01*
Y306980D01*
X795987D01*
Y309539D01*
X795702D01*
Y311813D01*
X795987D01*
Y314372D01*
X796271D01*
Y316078D01*
X796555D01*
Y317216D01*
X796840D01*
Y318069D01*
X797124D01*
Y318922D01*
X797408D01*
Y319775D01*
X797693D01*
Y320059D01*
X797977D01*
Y320628D01*
X798546D01*
Y320912D01*
X799114D01*
Y321196D01*
X799967D01*
Y320912D01*
X800820D01*
Y320628D01*
X801105D01*
Y320343D01*
X801389D01*
Y319775D01*
X801673D01*
Y319490D01*
X801958D01*
Y319206D01*
X802242D01*
Y318922D01*
X802811D01*
Y318637D01*
X803095D01*
Y318353D01*
X803664D01*
Y318069D01*
X803948D01*
Y317784D01*
X804517D01*
Y317500D01*
X804801D01*
Y317216D01*
X805370D01*
Y316931D01*
X805654D01*
Y316647D01*
X806223D01*
Y316363D01*
X806507D01*
Y316078D01*
X807076D01*
Y315794D01*
X807360D01*
Y315510D01*
X807928D01*
Y315225D01*
X808213D01*
Y314941D01*
X808782D01*
Y314657D01*
X809066D01*
Y314372D01*
X809634D01*
Y314088D01*
X809919D01*
Y313804D01*
X810488D01*
Y313519D01*
X810772D01*
Y313235D01*
X811340D01*
Y312951D01*
X811625D01*
Y312666D01*
X812193D01*
Y312382D01*
X812478D01*
Y312098D01*
X813046D01*
Y311813D01*
X813331D01*
Y311529D01*
X813899D01*
Y311245D01*
X814184D01*
Y310960D01*
X814752D01*
Y310676D01*
X815037D01*
Y310392D01*
X815605D01*
Y310676D01*
X815890D01*
Y311529D01*
X815605D01*
Y311813D01*
X815321D01*
Y312382D01*
X815037D01*
Y313519D01*
X814752D01*
Y315510D01*
X815037D01*
Y316647D01*
X815321D01*
Y317216D01*
X815605D01*
Y317784D01*
X815890D01*
Y318069D01*
X816174D01*
Y318353D01*
X816458D01*
Y318637D01*
X816743D01*
Y318922D01*
X817027D01*
Y319206D01*
X817311D01*
Y319490D01*
X817880D01*
Y319775D01*
X818449D01*
Y320059D01*
X819302D01*
Y320343D01*
X820439D01*
Y320628D01*
X822429D01*
Y320343D01*
X823567D01*
Y320059D01*
X824420D01*
Y319775D01*
X824988D01*
Y319490D01*
X825557D01*
Y319206D01*
X825841D01*
Y318922D01*
X826410D01*
Y318637D01*
X826694D01*
Y318353D01*
X826979D01*
Y317784D01*
X827263D01*
Y317500D01*
X827547D01*
Y316931D01*
X827831D01*
Y316363D01*
X828116D01*
Y315510D01*
X828400D01*
Y313235D01*
X828116D01*
Y312098D01*
X827831D01*
Y311529D01*
X827547D01*
Y311245D01*
X827263D01*
Y310676D01*
X826979D01*
Y310392D01*
X826694D01*
Y310107D01*
X826410D01*
Y309823D01*
X825841D01*
Y309539D01*
X825557D01*
Y309254D01*
X824988D01*
Y308970D01*
X824420D01*
Y308686D01*
X823567D01*
Y308402D01*
X819870D01*
Y308686D01*
X819017D01*
Y307833D01*
X819302D01*
Y307549D01*
X819870D01*
Y307264D01*
X820155D01*
Y306980D01*
X820723D01*
Y306695D01*
X821008D01*
Y306411D01*
X821576D01*
Y306127D01*
X821861D01*
Y305842D01*
X822429D01*
Y305558D01*
X822714D01*
Y305274D01*
X823282D01*
Y304989D01*
X823567D01*
Y304705D01*
X824135D01*
Y304421D01*
X824420D01*
Y304137D01*
X824988D01*
Y303852D01*
X825273D01*
Y303568D01*
X825841D01*
Y303284D01*
X826125D01*
Y302999D01*
X826694D01*
Y302715D01*
X826979D01*
Y302431D01*
X827547D01*
Y302146D01*
X827831D01*
Y301862D01*
X828400D01*
Y301578D01*
X828684D01*
Y301293D01*
X829253D01*
Y301009D01*
X829538D01*
Y300725D01*
X830106D01*
Y300440D01*
X830390D01*
Y300156D01*
X830959D01*
Y299872D01*
X831243D01*
Y299587D01*
X831528D01*
Y299303D01*
X832096D01*
Y299019D01*
X832665D01*
Y298734D01*
X832949D01*
Y298450D01*
X833234D01*
Y298166D01*
X833518D01*
Y297881D01*
X833802D01*
Y297597D01*
X834087D01*
Y297028D01*
X834371D01*
Y296744D01*
X834087D01*
Y295891D01*
X833802D01*
Y295322D01*
X833518D01*
Y295038D01*
X833234D01*
Y294754D01*
X832949D01*
Y294469D01*
X832381D01*
Y294185D01*
X832096D01*
Y293901D01*
X831528D01*
Y293616D01*
X830959D01*
Y293332D01*
X830390D01*
Y293048D01*
X829822D01*
Y292763D01*
X829253D01*
Y292479D01*
X828684D01*
Y292195D01*
X827831D01*
Y291910D01*
X827263D01*
Y291626D01*
X826410D01*
Y291342D01*
X825557D01*
Y291057D01*
X824420D01*
Y290773D01*
X823282D01*
Y290489D01*
X821861D01*
Y290205D01*
X819586D01*
Y289920D01*
X815037D01*
Y290205D01*
X812762D01*
Y290489D01*
X811625D01*
Y290773D01*
X810488D01*
Y291057D01*
X809634D01*
Y291342D01*
X809350D01*
Y291057D01*
X809066D01*
Y290773D01*
X809350D01*
Y281959D01*
X819870D01*
Y281675D01*
X821576D01*
Y281390D01*
X822429D01*
Y281106D01*
X822998D01*
Y280822D01*
X823567D01*
Y280537D01*
X824135D01*
Y280253D01*
X824420D01*
Y279969D01*
X824988D01*
Y279684D01*
X825273D01*
Y279400D01*
X825557D01*
Y279116D01*
X825841D01*
Y278831D01*
X826125D01*
Y278547D01*
X826410D01*
Y278263D01*
X826694D01*
Y277694D01*
X826979D01*
Y277410D01*
X827263D01*
Y276841D01*
X827547D01*
Y276272D01*
X827831D01*
Y275704D01*
X828116D01*
Y274851D01*
X828400D01*
Y273998D01*
X828684D01*
Y272292D01*
X828969D01*
Y268596D01*
X828684D01*
Y257507D01*
X828969D01*
Y249830D01*
X829253D01*
Y249545D01*
X828969D01*
Y248408D01*
X829253D01*
Y247840D01*
X828969D01*
Y247555D01*
X830106D01*
Y247271D01*
X831243D01*
Y246987D01*
X832096D01*
Y246702D01*
X832665D01*
Y246418D01*
X833518D01*
Y246134D01*
X834087D01*
Y245849D01*
X834371D01*
Y246134D01*
X834940D01*
Y245849D01*
X834655D01*
Y245565D01*
X834940D01*
Y245281D01*
X835508D01*
Y244996D01*
X836077D01*
Y244712D01*
X836361D01*
Y244428D01*
X836646D01*
Y244143D01*
X837214D01*
Y243859D01*
X837499D01*
Y243575D01*
X837783D01*
Y243290D01*
X838636D01*
Y242153D01*
X839773D01*
Y241869D01*
X840058D01*
Y241584D01*
X840342D01*
Y240731D01*
X841195D01*
Y240163D01*
X841479D01*
Y239878D01*
X841764D01*
Y239594D01*
X842048D01*
Y239025D01*
X842332D01*
Y238741D01*
X842617D01*
Y238457D01*
X842332D01*
Y238172D01*
X842901D01*
Y237888D01*
X843185D01*
Y237319D01*
X843470D01*
Y237035D01*
X843185D01*
Y236751D01*
X843754D01*
Y236466D01*
X844038D01*
Y235898D01*
X843754D01*
Y235613D01*
X844323D01*
Y235045D01*
X844607D01*
Y234192D01*
X844891D01*
Y233339D01*
X845175D01*
Y232486D01*
X845460D01*
Y231064D01*
X845744D01*
Y229643D01*
X845175D01*
Y229358D01*
X845460D01*
Y228790D01*
X845744D01*
Y227084D01*
X845460D01*
Y226231D01*
X845744D01*
Y224809D01*
X845460D01*
Y223672D01*
X845175D01*
Y222819D01*
X844891D01*
Y222534D01*
X844607D01*
Y222250D01*
X844891D01*
Y221681D01*
X844607D01*
Y221113D01*
X844323D01*
Y220544D01*
X844038D01*
Y219691D01*
X843754D01*
Y219407D01*
X843185D01*
Y219122D01*
X843470D01*
Y218838D01*
X842901D01*
Y218554D01*
X843185D01*
Y218269D01*
X842901D01*
Y217985D01*
X842332D01*
Y217701D01*
X842617D01*
Y217416D01*
X842332D01*
Y216848D01*
X842048D01*
Y216563D01*
X841764D01*
Y216279D01*
X841479D01*
Y215995D01*
X840911D01*
Y215426D01*
X840626D01*
Y215142D01*
X840058D01*
Y214858D01*
X840342D01*
Y214573D01*
X840058D01*
Y214289D01*
X839773D01*
Y214004D01*
X839489D01*
Y213720D01*
X838920D01*
Y213436D01*
X838636D01*
Y213151D01*
X837783D01*
Y212583D01*
X837499D01*
Y212299D01*
X837214D01*
Y212583D01*
X836930D01*
Y212014D01*
X835508D01*
Y211730D01*
X835224D01*
Y211446D01*
X834655D01*
Y211161D01*
X834087D01*
Y210877D01*
X833234D01*
Y210592D01*
X832381D01*
Y210308D01*
X831528D01*
Y210024D01*
X830106D01*
Y209739D01*
X828684D01*
Y209455D01*
X826125D01*
Y209171D01*
X823851D01*
Y209455D01*
X821861D01*
Y209739D01*
X820439D01*
Y210024D01*
X819586D01*
Y210308D01*
X818733D01*
Y210592D01*
X817311D01*
Y210877D01*
X816743D01*
Y211161D01*
X815890D01*
Y211446D01*
X815037D01*
Y211730D01*
X814752D01*
Y212014D01*
X815037D01*
Y212299D01*
X814184D01*
Y212867D01*
X813615D01*
Y213151D01*
X813046D01*
Y213436D01*
X812762D01*
Y213720D01*
X812478D01*
Y214004D01*
X812193D01*
Y214289D01*
X811909D01*
Y214573D01*
X811625D01*
Y214858D01*
X811340D01*
Y215142D01*
X811625D01*
Y215426D01*
X811340D01*
Y215710D01*
X811056D01*
Y215426D01*
X810772D01*
Y215710D01*
X810488D01*
Y215995D01*
X810772D01*
Y216563D01*
X810488D01*
Y216279D01*
X810203D01*
Y216563D01*
X809919D01*
Y216848D01*
X809634D01*
Y217416D01*
X809350D01*
Y217701D01*
X809634D01*
Y217985D01*
X809066D01*
Y218269D01*
X808782D01*
Y218838D01*
X808497D01*
Y219122D01*
X808782D01*
Y219407D01*
X808213D01*
Y219975D01*
X807928D01*
Y220828D01*
X807644D01*
Y221397D01*
X807360D01*
Y222250D01*
X807076D01*
Y223103D01*
X807360D01*
Y223387D01*
X807076D01*
Y223672D01*
X806791D01*
Y224525D01*
X806507D01*
Y225662D01*
X804801D01*
Y223956D01*
X804517D01*
Y223672D01*
X804232D01*
Y223387D01*
X803948D01*
Y223103D01*
X804517D01*
Y222250D01*
X804232D01*
Y221113D01*
X803948D01*
Y220544D01*
X803664D01*
Y220260D01*
X803379D01*
Y219975D01*
X803664D01*
Y219407D01*
X803379D01*
Y218838D01*
X803095D01*
Y218269D01*
X802811D01*
Y217701D01*
X802526D01*
Y217132D01*
X802242D01*
Y216563D01*
X801958D01*
Y216279D01*
X801673D01*
Y215710D01*
X801389D01*
Y215426D01*
X801105D01*
Y214858D01*
X800820D01*
Y214573D01*
X800536D01*
Y214289D01*
X800252D01*
Y213720D01*
X799683D01*
Y213151D01*
X799399D01*
Y212867D01*
X799114D01*
Y212583D01*
X798830D01*
Y212299D01*
X798546D01*
Y212014D01*
X798261D01*
Y211730D01*
X797977D01*
Y211446D01*
X797693D01*
Y211730D01*
X797408D01*
Y210877D01*
X796840D01*
Y210592D01*
X796555D01*
Y210308D01*
X796271D01*
Y210024D01*
X795418D01*
Y209739D01*
X794849D01*
Y209171D01*
X794281D01*
Y208887D01*
X793712D01*
Y208602D01*
X793428D01*
Y208318D01*
X792859D01*
Y208602D01*
X792575D01*
Y208318D01*
X792006D01*
Y207749D01*
X791722D01*
Y208034D01*
X791438D01*
Y207749D01*
X790869D01*
Y207465D01*
X790300D01*
Y207181D01*
X789447D01*
Y206896D01*
X787457D01*
Y206612D01*
X783476D01*
Y207181D01*
X781486D01*
Y207465D01*
X780349D01*
Y207749D01*
X779496D01*
Y208034D01*
X778643D01*
Y208318D01*
X777790D01*
Y208602D01*
X777221D01*
Y208887D01*
X776368D01*
Y209171D01*
X776084D01*
Y209455D01*
X775515D01*
Y209739D01*
X774946D01*
Y210024D01*
X774662D01*
Y210308D01*
X774093D01*
Y210592D01*
X773809D01*
Y210877D01*
X773240D01*
Y211161D01*
X772956D01*
Y211446D01*
X772672D01*
Y211730D01*
X772387D01*
Y212014D01*
X772103D01*
Y212299D01*
X771535D01*
Y212583D01*
X771250D01*
Y213151D01*
X770682D01*
Y213720D01*
X770397D01*
Y214004D01*
X770113D01*
Y214289D01*
X769828D01*
Y214573D01*
X769544D01*
Y214858D01*
X769260D01*
Y215426D01*
X768976D01*
Y215710D01*
X768691D01*
Y216279D01*
X768407D01*
Y216563D01*
X768122D01*
Y217132D01*
X767838D01*
Y217701D01*
X767554D01*
Y218269D01*
X767270D01*
Y218838D01*
X766985D01*
Y219407D01*
X766701D01*
Y220260D01*
X766417D01*
Y220828D01*
X766132D01*
Y221966D01*
X765848D01*
Y223103D01*
X765564D01*
Y224240D01*
X765279D01*
Y226231D01*
X763858D01*
Y225378D01*
X763573D01*
Y223672D01*
X763289D01*
Y222819D01*
X763005D01*
Y221966D01*
X762720D01*
Y221113D01*
X762436D01*
Y220544D01*
X762152D01*
Y219975D01*
X761867D01*
Y219407D01*
X761583D01*
Y218838D01*
X761299D01*
Y218554D01*
X761014D01*
Y217985D01*
X760730D01*
Y217701D01*
X760446D01*
Y217132D01*
X760161D01*
Y216848D01*
X759877D01*
Y216563D01*
X759593D01*
Y215995D01*
X759308D01*
Y215710D01*
X759024D01*
Y215426D01*
X758740D01*
Y215142D01*
X758455D01*
Y214858D01*
X758171D01*
Y214573D01*
X757887D01*
Y214289D01*
X757318D01*
Y214004D01*
X757034D01*
Y213720D01*
X756749D01*
Y213436D01*
X756465D01*
Y213151D01*
X755896D01*
Y212867D01*
X755612D01*
Y212583D01*
X755328D01*
Y212299D01*
X755043D01*
Y212014D01*
X754759D01*
Y211730D01*
X755043D01*
Y211446D01*
X754759D01*
Y211730D01*
X754475D01*
Y211446D01*
X754190D01*
Y211161D01*
X753906D01*
Y210877D01*
X753337D01*
Y210592D01*
X753053D01*
Y210308D01*
X752769D01*
Y210024D01*
X752200D01*
Y209739D01*
X749072D01*
Y209455D01*
X747935D01*
Y209171D01*
X746229D01*
Y208887D01*
X743386D01*
Y209171D01*
X741111D01*
Y209455D01*
X739974D01*
Y209739D01*
X738837D01*
Y210024D01*
X737984D01*
Y210308D01*
X737415D01*
Y210592D01*
X736846D01*
Y210877D01*
X736278D01*
Y211161D01*
X735709D01*
Y211446D01*
X735140D01*
Y211730D01*
X734856D01*
Y212014D01*
X734287D01*
Y212299D01*
X734003D01*
Y212583D01*
X733719D01*
Y212867D01*
X733150D01*
Y213151D01*
X732866D01*
Y213436D01*
X732581D01*
Y213720D01*
X732297D01*
Y214004D01*
X732013D01*
Y214289D01*
X731729D01*
Y214573D01*
X731444D01*
Y214858D01*
X731160D01*
Y215142D01*
X730875D01*
Y215426D01*
X730591D01*
Y215710D01*
X730307D01*
Y216279D01*
X730023D01*
Y216563D01*
X729738D01*
Y216848D01*
X729454D01*
Y217416D01*
X729170D01*
Y217985D01*
X728885D01*
Y218269D01*
X728601D01*
Y218838D01*
X728317D01*
Y219407D01*
X728032D01*
Y219975D01*
X727748D01*
Y220828D01*
X727464D01*
Y221681D01*
X727179D01*
Y222534D01*
X726895D01*
Y223672D01*
X726611D01*
Y225378D01*
X726326D01*
Y229358D01*
X726042D01*
Y229074D01*
X725473D01*
Y228790D01*
X724905D01*
Y229358D01*
X725189D01*
Y229643D01*
X725758D01*
Y230211D01*
X726326D01*
Y231064D01*
X726042D01*
Y232201D01*
X726326D01*
Y233339D01*
X726611D01*
Y234192D01*
X727179D01*
Y234476D01*
X726895D01*
Y235045D01*
X727179D01*
Y235613D01*
X727464D01*
Y236182D01*
X728032D01*
Y236466D01*
X727748D01*
Y236751D01*
X728317D01*
Y237035D01*
X728032D01*
Y237319D01*
X728317D01*
Y237888D01*
X728601D01*
Y238457D01*
X728885D01*
Y238741D01*
X729454D01*
Y239025D01*
X729170D01*
Y239310D01*
X729454D01*
Y239594D01*
X729738D01*
Y239878D01*
X730023D01*
Y240447D01*
X730307D01*
Y240731D01*
X730591D01*
Y241016D01*
X730875D01*
Y241584D01*
X731160D01*
Y241869D01*
X731444D01*
Y242153D01*
X731729D01*
Y242437D01*
X732013D01*
Y242722D01*
X732297D01*
Y243006D01*
X732581D01*
Y243290D01*
X733150D01*
Y243575D01*
X733435D01*
Y244143D01*
X733719D01*
Y244428D01*
X734287D01*
Y244712D01*
X734572D01*
Y244996D01*
X734856D01*
Y245281D01*
X735709D01*
Y245849D01*
X735993D01*
Y246134D01*
X736562D01*
Y246418D01*
X737415D01*
Y246702D01*
X737699D01*
Y246987D01*
X737984D01*
Y247271D01*
X738552D01*
Y247555D01*
X739690D01*
Y247840D01*
X739974D01*
Y247555D01*
X740258D01*
Y248124D01*
X740543D01*
Y248408D01*
X740827D01*
Y258644D01*
X741111D01*
Y264331D01*
X740827D01*
Y264899D01*
X740543D01*
Y265184D01*
X741111D01*
Y264899D01*
X741396D01*
Y270017D01*
X741111D01*
Y270301D01*
X741396D01*
Y270586D01*
X741111D01*
Y271723D01*
X741396D01*
Y272292D01*
X741111D01*
Y275135D01*
X741396D01*
Y275988D01*
X741680D01*
Y277125D01*
X741964D01*
Y277694D01*
X742249D01*
Y278263D01*
X742533D01*
Y278547D01*
X743102D01*
Y278831D01*
X743386D01*
Y279116D01*
X743670D01*
Y279400D01*
X743955D01*
Y279684D01*
X744239D01*
Y279969D01*
X744523D01*
Y280253D01*
X745092D01*
Y280537D01*
X745376D01*
Y280822D01*
X745661D01*
Y281106D01*
X746229D01*
Y281390D01*
X746798D01*
Y281675D01*
X747367D01*
Y281959D01*
X748220D01*
Y282243D01*
X749641D01*
Y282528D01*
X755896D01*
Y285940D01*
Y286224D01*
X756181D01*
Y287930D01*
X756465D01*
Y288498D01*
X756749D01*
Y288783D01*
X757034D01*
Y289067D01*
X757318D01*
Y289352D01*
X758455D01*
Y289636D01*
X759877D01*
Y289352D01*
X761299D01*
Y289636D01*
X761014D01*
Y289920D01*
X760730D01*
Y290205D01*
X760446D01*
Y290489D01*
X760161D01*
Y290773D01*
X759877D01*
Y291057D01*
X759593D01*
Y291342D01*
X759308D01*
Y291626D01*
X759024D01*
Y291910D01*
X758740D01*
Y292195D01*
X758455D01*
Y292479D01*
X758171D01*
Y292763D01*
X757887D01*
Y293048D01*
X757602D01*
Y293332D01*
X757318D01*
Y293616D01*
X757034D01*
Y293901D01*
X756749D01*
Y294185D01*
X756465D01*
Y294469D01*
X756181D01*
Y294754D01*
X755896D01*
Y295038D01*
X755328D01*
Y295322D01*
X755043D01*
Y295607D01*
X754759D01*
Y295891D01*
X754475D01*
Y296175D01*
X754190D01*
Y296460D01*
X753906D01*
Y296744D01*
X753622D01*
Y297028D01*
X753337D01*
Y297313D01*
X753053D01*
Y297597D01*
X752769D01*
Y297881D01*
X752485D01*
Y298166D01*
X752200D01*
Y298450D01*
X751916D01*
Y298734D01*
X751631D01*
Y299019D01*
X751347D01*
Y299303D01*
X751063D01*
Y299587D01*
X750779D01*
Y299872D01*
X750494D01*
Y300156D01*
X750210D01*
Y300440D01*
X749926D01*
Y300725D01*
X749641D01*
Y301009D01*
X749357D01*
Y301293D01*
X749072D01*
Y301578D01*
X748788D01*
Y301862D01*
X748504D01*
Y302146D01*
X748220D01*
Y302431D01*
X747935D01*
Y302715D01*
X747651D01*
Y302999D01*
X747367D01*
Y303284D01*
X747082D01*
Y303568D01*
X746798D01*
Y303852D01*
X746514D01*
Y304137D01*
X746229D01*
Y304421D01*
X745945D01*
Y304705D01*
X745661D01*
Y304989D01*
X745376D01*
Y305274D01*
X745092D01*
Y305558D01*
X744808D01*
Y305842D01*
X744523D01*
Y306127D01*
X744239D01*
Y306411D01*
X743955D01*
Y306695D01*
X743670D01*
Y306980D01*
X743102D01*
Y307264D01*
X742817D01*
Y307549D01*
X742533D01*
Y307833D01*
X742249D01*
Y308117D01*
X741964D01*
Y308402D01*
X741680D01*
Y308686D01*
X741396D01*
Y308970D01*
X741111D01*
Y309254D01*
X740827D01*
Y309539D01*
X740543D01*
Y309823D01*
X740258D01*
Y310107D01*
X739974D01*
Y310392D01*
X739690D01*
Y310676D01*
X739405D01*
Y310960D01*
X739121D01*
Y311245D01*
X738837D01*
Y311529D01*
X738552D01*
Y311813D01*
X738268D01*
Y312098D01*
X737984D01*
Y312382D01*
X737699D01*
Y312666D01*
X737415D01*
Y312951D01*
X737131D01*
Y313235D01*
X736846D01*
Y313519D01*
X736562D01*
Y313804D01*
X736278D01*
Y314088D01*
X735993D01*
Y314372D01*
X735709D01*
Y314657D01*
X735425D01*
Y314941D01*
X735140D01*
Y315225D01*
X734856D01*
Y315510D01*
X734572D01*
Y315794D01*
X734287D01*
Y316078D01*
X734003D01*
Y316363D01*
X733719D01*
Y316647D01*
X733435D01*
Y316931D01*
X732866D01*
Y316647D01*
X732581D01*
Y316363D01*
X732297D01*
Y316078D01*
X732013D01*
Y315794D01*
X731729D01*
Y315510D01*
X731444D01*
Y315225D01*
X731160D01*
Y314941D01*
X730875D01*
Y314657D01*
X730591D01*
Y314372D01*
X730307D01*
Y313804D01*
X730023D01*
Y313519D01*
X729738D01*
Y313235D01*
X729454D01*
Y312951D01*
X729170D01*
Y312666D01*
X728885D01*
Y312382D01*
X728601D01*
Y312098D01*
X728317D01*
Y311813D01*
X728032D01*
Y311529D01*
X727748D01*
Y311245D01*
X727464D01*
Y310676D01*
X727179D01*
Y310392D01*
X726895D01*
Y310107D01*
X726611D01*
Y309823D01*
X726326D01*
Y309539D01*
X726042D01*
Y309254D01*
X725758D01*
Y308970D01*
X725473D01*
Y308686D01*
X725189D01*
Y308402D01*
X724905D01*
Y308117D01*
X724620D01*
Y307833D01*
X724336D01*
Y307264D01*
X724052D01*
Y306980D01*
X723767D01*
Y306695D01*
X723483D01*
Y306411D01*
X723199D01*
Y306127D01*
X722914D01*
Y305842D01*
X722630D01*
Y305558D01*
X722346D01*
Y305274D01*
X722061D01*
Y304989D01*
X721777D01*
Y304705D01*
X721493D01*
Y304421D01*
X721208D01*
Y303852D01*
X720924D01*
Y303568D01*
X720640D01*
Y303284D01*
X720355D01*
Y302999D01*
X720071D01*
Y302715D01*
X719787D01*
Y302431D01*
X719502D01*
Y302146D01*
X719218D01*
Y301862D01*
X718934D01*
Y301578D01*
X718649D01*
Y301009D01*
X718365D01*
Y300725D01*
X718081D01*
Y300440D01*
X717796D01*
Y300156D01*
X717512D01*
Y299872D01*
X717228D01*
Y299587D01*
X716943D01*
Y299303D01*
X716659D01*
Y299019D01*
X716375D01*
Y298734D01*
X716090D01*
Y298450D01*
X715806D01*
Y298166D01*
X715522D01*
Y297597D01*
X715238D01*
Y297313D01*
X714953D01*
Y297028D01*
X714669D01*
Y296744D01*
X714385D01*
Y296460D01*
X714100D01*
Y296175D01*
X713816D01*
Y295891D01*
X713531D01*
Y295607D01*
X713247D01*
Y295322D01*
X712963D01*
Y294469D01*
X713247D01*
Y293616D01*
X713531D01*
Y292763D01*
X713816D01*
Y291910D01*
X714100D01*
Y291057D01*
X714385D01*
Y290205D01*
X714669D01*
Y289352D01*
X714953D01*
Y288498D01*
X715238D01*
Y287645D01*
X715522D01*
Y286793D01*
X715806D01*
Y286224D01*
X715522D01*
Y285371D01*
X715238D01*
Y285087D01*
X714953D01*
Y284802D01*
X714669D01*
Y284518D01*
X714385D01*
Y284234D01*
X713816D01*
Y283949D01*
X713531D01*
Y283665D01*
X713247D01*
Y283381D01*
X712679D01*
Y283096D01*
X712394D01*
Y282812D01*
X711825D01*
Y282528D01*
X711541D01*
Y282243D01*
X710973D01*
Y281959D01*
X710688D01*
Y281675D01*
X710120D01*
Y281390D01*
X709835D01*
Y281106D01*
X709267D01*
Y280822D01*
X708982D01*
Y280537D01*
X708414D01*
Y280253D01*
X708129D01*
Y279969D01*
X707561D01*
Y279684D01*
X707276D01*
Y279400D01*
X705286D01*
Y279684D01*
X705002D01*
Y279969D01*
X704717D01*
Y280253D01*
X704433D01*
Y280537D01*
X704149D01*
Y282812D01*
X704433D01*
Y283096D01*
X704717D01*
Y283381D01*
X705002D01*
Y283665D01*
X705570D01*
Y283949D01*
X705855D01*
Y284234D01*
X706423D01*
Y284518D01*
X706708D01*
Y284802D01*
X707276D01*
Y285087D01*
X707561D01*
Y285371D01*
X708129D01*
Y285655D01*
X708414D01*
Y285940D01*
X708982D01*
Y286224D01*
X709267D01*
Y286508D01*
X709835D01*
Y286793D01*
X710120D01*
Y287077D01*
X710688D01*
Y288214D01*
X710404D01*
Y289067D01*
X710120D01*
Y289636D01*
X709835D01*
Y290773D01*
X709551D01*
Y291626D01*
X709267D01*
Y292479D01*
X708982D01*
Y293332D01*
X707561D01*
Y293048D01*
X706423D01*
Y292763D01*
X705002D01*
Y292479D01*
X703580D01*
Y292195D01*
X702443D01*
Y291910D01*
X701874D01*
Y291057D01*
X701590D01*
Y289920D01*
X701305D01*
Y288783D01*
X701021D01*
Y287930D01*
X700737D01*
Y286793D01*
X700452D01*
Y285655D01*
X700168D01*
Y284802D01*
X699884D01*
Y284234D01*
X699599D01*
Y283949D01*
X699315D01*
Y283665D01*
X698746D01*
Y283381D01*
X697040D01*
Y283665D01*
X696756D01*
Y283949D01*
X696472D01*
Y284234D01*
X696188D01*
Y284518D01*
X695903D01*
Y286793D01*
X696188D01*
Y287930D01*
X696472D01*
Y288783D01*
X696756D01*
Y289920D01*
X697040D01*
Y291057D01*
X697325D01*
Y292195D01*
X697609D01*
Y293332D01*
X697893D01*
Y294185D01*
X698178D01*
Y295038D01*
X698462D01*
Y295322D01*
X698746D01*
Y295607D01*
X699031D01*
Y295891D01*
X699315D01*
Y296175D01*
X701305D01*
Y296460D01*
X702443D01*
Y296744D01*
X703864D01*
Y297028D01*
X705002D01*
Y297313D01*
X706423D01*
Y297597D01*
X707845D01*
Y297881D01*
X708982D01*
Y298166D01*
X709835D01*
Y298450D01*
X710120D01*
Y298734D01*
X710404D01*
Y299019D01*
X710688D01*
Y299303D01*
X710973D01*
Y299587D01*
X711257D01*
Y299872D01*
X711541D01*
Y300156D01*
X711825D01*
Y300440D01*
X712110D01*
Y300725D01*
X712394D01*
Y301009D01*
X712679D01*
Y301578D01*
X712963D01*
Y301862D01*
X713247D01*
Y302146D01*
X713531D01*
Y302431D01*
X713816D01*
Y302715D01*
X714100D01*
Y302999D01*
X714385D01*
Y303284D01*
X714669D01*
Y303568D01*
X714953D01*
Y303852D01*
X715238D01*
Y304137D01*
X715522D01*
Y304421D01*
X715806D01*
Y304989D01*
X716090D01*
Y305274D01*
X716375D01*
Y305558D01*
X716659D01*
Y305842D01*
X716943D01*
Y306127D01*
X717228D01*
Y306411D01*
X717512D01*
Y306695D01*
X717796D01*
Y306980D01*
X718081D01*
Y307264D01*
X718365D01*
Y307549D01*
X718649D01*
Y307833D01*
X718934D01*
Y308402D01*
X719218D01*
Y308686D01*
X719502D01*
Y308970D01*
X719787D01*
Y309254D01*
X720071D01*
Y309539D01*
X720355D01*
Y309823D01*
X720640D01*
Y310107D01*
X720924D01*
Y310392D01*
X721208D01*
Y310676D01*
X721493D01*
Y310960D01*
X721777D01*
Y311245D01*
X722061D01*
Y311813D01*
X722346D01*
Y312098D01*
X722630D01*
Y312382D01*
X722914D01*
Y312666D01*
X723199D01*
Y312951D01*
X723483D01*
Y313235D01*
X723767D01*
Y313519D01*
X724052D01*
Y313804D01*
X724336D01*
Y314088D01*
X724620D01*
Y314372D01*
X724905D01*
Y314941D01*
X725189D01*
Y315225D01*
X725473D01*
Y315510D01*
X725758D01*
Y315794D01*
X726042D01*
Y316078D01*
X726326D01*
Y316363D01*
X726611D01*
Y316647D01*
X726895D01*
Y316931D01*
X727179D01*
Y317216D01*
X727464D01*
Y317500D01*
X727748D01*
Y317784D01*
X728032D01*
Y318353D01*
X728317D01*
Y318637D01*
X728601D01*
Y318922D01*
X728885D01*
Y319206D01*
X729170D01*
Y319490D01*
X729454D01*
Y319775D01*
X729738D01*
Y320059D01*
X730023D01*
Y320343D01*
X730307D01*
Y320628D01*
X730591D01*
Y320912D01*
X730875D01*
Y321196D01*
X731160D01*
Y321481D01*
X731729D01*
Y321765D01*
X733150D01*
Y321481D01*
D02*
G37*
G36*
X831812Y247271D02*
X831243D01*
Y247555D01*
X831812D01*
Y247271D01*
D02*
G37*
G36*
X832381Y246987D02*
X832096D01*
Y247271D01*
X832381D01*
Y246987D01*
D02*
G37*
G36*
X833802Y246418D02*
X833518D01*
Y246702D01*
X833802D01*
Y246418D01*
D02*
G37*
G36*
X836361Y244996D02*
X836077D01*
Y245281D01*
X836361D01*
Y244996D01*
D02*
G37*
G36*
X837783Y243859D02*
X837499D01*
Y244143D01*
X837783D01*
Y243859D01*
D02*
G37*
G36*
X801389Y212867D02*
X801105D01*
Y213151D01*
X801389D01*
Y212867D01*
D02*
G37*
%LPC*%
G36*
X822714Y316078D02*
X820439D01*
Y315794D01*
X819870D01*
Y315510D01*
X819586D01*
Y315225D01*
X819302D01*
Y314088D01*
X819586D01*
Y313804D01*
X819870D01*
Y313519D01*
X820155D01*
Y313235D01*
X820439D01*
Y312951D01*
X821008D01*
Y312666D01*
X822429D01*
Y312951D01*
X823282D01*
Y313235D01*
X823567D01*
Y313519D01*
X823851D01*
Y313804D01*
Y314941D01*
X823567D01*
Y315510D01*
X822998D01*
Y315794D01*
X822714D01*
Y316078D01*
D02*
G37*
G36*
X801389Y314657D02*
X800536D01*
Y313235D01*
X800252D01*
Y308117D01*
X800536D01*
Y306411D01*
X800820D01*
Y305558D01*
X801105D01*
Y304705D01*
X801389D01*
Y303852D01*
X801673D01*
Y303284D01*
X801958D01*
Y302715D01*
X802242D01*
Y302146D01*
X802526D01*
Y301862D01*
X802811D01*
Y301293D01*
X803095D01*
Y301009D01*
X803379D01*
Y300725D01*
X803664D01*
Y300440D01*
Y300156D01*
X803948D01*
Y299872D01*
X804232D01*
Y299587D01*
X804517D01*
Y299303D01*
X804801D01*
Y299019D01*
X805085D01*
Y298734D01*
X805370D01*
Y298450D01*
X805654D01*
Y298166D01*
X805938D01*
Y297881D01*
X806507D01*
Y297597D01*
X806791D01*
Y297313D01*
X807360D01*
Y297028D01*
X807644D01*
Y296744D01*
X808213D01*
Y296460D01*
X808782D01*
Y296175D01*
X809350D01*
Y295891D01*
X809919D01*
Y295607D01*
X810772D01*
Y295322D01*
X811625D01*
Y295038D01*
X812762D01*
Y294754D01*
X814184D01*
Y294469D01*
X820439D01*
Y294754D01*
X822145D01*
Y295038D01*
X823282D01*
Y295322D01*
X824420D01*
Y295607D01*
X825273D01*
Y295891D01*
X826125D01*
Y296175D01*
X826694D01*
Y296460D01*
X827263D01*
Y296744D01*
X827547D01*
Y297028D01*
X827263D01*
Y297313D01*
X826694D01*
Y297597D01*
X826410D01*
Y297881D01*
X825841D01*
Y298166D01*
X825557D01*
Y298450D01*
X824988D01*
Y298734D01*
X824704D01*
Y299019D01*
X824135D01*
Y299303D01*
X823851D01*
Y299587D01*
X823282D01*
Y299872D01*
X822998D01*
Y300156D01*
X822429D01*
Y300440D01*
X822145D01*
Y300725D01*
X821576D01*
Y301009D01*
X821292D01*
Y301293D01*
X820723D01*
Y301578D01*
X820439D01*
Y301862D01*
X819870D01*
Y302146D01*
X819586D01*
Y302431D01*
X819017D01*
Y302715D01*
X818733D01*
Y302999D01*
X818164D01*
Y303284D01*
X817880D01*
Y303568D01*
X817311D01*
Y303852D01*
X817027D01*
Y304137D01*
X816458D01*
Y304421D01*
X816174D01*
Y304705D01*
X815605D01*
Y304989D01*
X815321D01*
Y305274D01*
X814752D01*
Y305558D01*
X814468D01*
Y305842D01*
X813899D01*
Y306127D01*
X813615D01*
Y306411D01*
X813046D01*
Y306695D01*
X812762D01*
Y306980D01*
X812193D01*
Y307264D01*
X811909D01*
Y307549D01*
X811340D01*
Y307833D01*
X811056D01*
Y308117D01*
X810488D01*
Y308402D01*
X810203D01*
Y308686D01*
X809634D01*
Y308970D01*
X809350D01*
Y309254D01*
X808782D01*
Y309539D01*
X808497D01*
Y309823D01*
X807928D01*
Y310107D01*
X807644D01*
Y310392D01*
X807076D01*
Y310676D01*
X806791D01*
Y310960D01*
X806507D01*
Y311245D01*
X805938D01*
Y311529D01*
X805654D01*
Y311813D01*
X805085D01*
Y312098D01*
X804517D01*
Y312382D01*
X804232D01*
Y312666D01*
X803948D01*
Y312951D01*
X803379D01*
Y313235D01*
X803095D01*
Y313519D01*
X802526D01*
Y313804D01*
X802242D01*
Y314088D01*
X801673D01*
Y314372D01*
X801389D01*
Y314657D01*
D02*
G37*
G36*
X762436Y285087D02*
X760446D01*
Y282243D01*
X770966D01*
Y284518D01*
X770113D01*
Y284802D01*
X762436D01*
Y285087D01*
D02*
G37*
G36*
X769544Y277978D02*
X749641D01*
Y277694D01*
X749072D01*
Y277410D01*
X748504D01*
Y277125D01*
X747935D01*
Y276841D01*
X747367D01*
Y276557D01*
X747082D01*
Y276272D01*
X746798D01*
Y275988D01*
X746514D01*
Y275419D01*
X746229D01*
Y248408D01*
X746514D01*
Y248124D01*
X748788D01*
Y247840D01*
X750210D01*
Y247555D01*
X751063D01*
Y247271D01*
X751916D01*
Y246987D01*
X752485D01*
Y246702D01*
X753337D01*
Y246418D01*
X753622D01*
Y246134D01*
X754190D01*
Y245849D01*
X754759D01*
Y245565D01*
X755043D01*
Y245281D01*
X755612D01*
Y244996D01*
X755896D01*
Y244712D01*
X756465D01*
Y244428D01*
X756749D01*
Y244143D01*
X757034D01*
Y243859D01*
X757318D01*
Y243575D01*
X757602D01*
Y243290D01*
X757887D01*
Y243006D01*
X758171D01*
Y242722D01*
X758455D01*
Y242437D01*
X758740D01*
Y242153D01*
X759024D01*
Y241869D01*
X759308D01*
Y241300D01*
X759593D01*
Y241016D01*
X759877D01*
Y240447D01*
X760161D01*
Y240163D01*
X760446D01*
Y239594D01*
X760730D01*
Y239025D01*
X761014D01*
Y238741D01*
X761299D01*
Y238172D01*
X761583D01*
Y237319D01*
X761867D01*
Y236751D01*
X762152D01*
Y235898D01*
X762436D01*
Y235045D01*
X762720D01*
Y234192D01*
X763005D01*
Y233055D01*
X763289D01*
Y231633D01*
X763573D01*
Y230780D01*
X765564D01*
Y231064D01*
X765848D01*
Y232201D01*
X766132D01*
Y233339D01*
X766417D01*
Y234192D01*
X766701D01*
Y235045D01*
X766985D01*
Y235613D01*
X767270D01*
Y236466D01*
X767554D01*
Y237035D01*
X767838D01*
Y237319D01*
X768122D01*
Y237888D01*
X768407D01*
Y238457D01*
X768691D01*
Y238741D01*
X768976D01*
Y239025D01*
Y239310D01*
X769260D01*
Y239594D01*
X769544D01*
Y240163D01*
X769828D01*
Y240447D01*
X770113D01*
Y240731D01*
X770397D01*
Y241016D01*
X770682D01*
Y241300D01*
X770966D01*
Y241584D01*
X771250D01*
Y241869D01*
X771535D01*
Y242153D01*
X771819D01*
Y242437D01*
X772103D01*
Y242722D01*
X772387D01*
Y243006D01*
X772672D01*
Y243290D01*
X772956D01*
Y243575D01*
X773525D01*
Y243859D01*
X773809D01*
Y244143D01*
X774378D01*
Y244428D01*
X774662D01*
Y244712D01*
X775231D01*
Y244996D01*
X775515D01*
Y245281D01*
X776084D01*
Y245565D01*
X776652D01*
Y245849D01*
X777505D01*
Y246134D01*
X778074D01*
Y246418D01*
X778927D01*
Y246702D01*
X779780D01*
Y246987D01*
X781202D01*
Y247271D01*
X782623D01*
Y247555D01*
X786888D01*
Y247271D01*
X788594D01*
Y246987D01*
X789732D01*
Y246702D01*
X790584D01*
Y246418D01*
X791438D01*
Y246134D01*
X792290D01*
Y245849D01*
X792859D01*
Y245565D01*
X793428D01*
Y245281D01*
X793996D01*
Y244996D01*
X794281D01*
Y244712D01*
X794849D01*
Y244428D01*
X795418D01*
Y244143D01*
X795702D01*
Y243859D01*
X795987D01*
Y243575D01*
X796555D01*
Y243290D01*
X796840D01*
Y243006D01*
X797124D01*
Y242722D01*
X797408D01*
Y242437D01*
X797693D01*
Y242153D01*
X797977D01*
Y241869D01*
X798261D01*
Y241584D01*
X798546D01*
Y241300D01*
X798830D01*
Y241016D01*
X799114D01*
Y240731D01*
X799399D01*
Y240447D01*
X799683D01*
Y239878D01*
X799967D01*
Y239594D01*
X800252D01*
Y239310D01*
X800536D01*
Y238741D01*
X800820D01*
Y238457D01*
X801105D01*
Y237888D01*
X801389D01*
Y237319D01*
X801673D01*
Y237035D01*
X801958D01*
Y236182D01*
X802242D01*
Y235613D01*
X802526D01*
Y235045D01*
X802811D01*
Y234192D01*
X803095D01*
Y233339D01*
X803379D01*
Y232486D01*
X803664D01*
Y231064D01*
X803948D01*
Y230780D01*
X807360D01*
Y231633D01*
X807644D01*
Y232770D01*
X807928D01*
Y233908D01*
X808213D01*
Y234760D01*
X808497D01*
Y235613D01*
X808782D01*
Y236182D01*
X809066D01*
Y236751D01*
X809350D01*
Y237319D01*
X809634D01*
Y237888D01*
X809919D01*
Y238457D01*
X810203D01*
Y238741D01*
X810488D01*
Y239310D01*
X810772D01*
Y239594D01*
X811056D01*
Y240163D01*
X811340D01*
Y240447D01*
X811625D01*
Y240731D01*
X811909D01*
Y241016D01*
X812193D01*
Y241584D01*
X812478D01*
Y241869D01*
X812762D01*
Y242153D01*
X813046D01*
Y242437D01*
X813331D01*
Y242722D01*
X813615D01*
Y243006D01*
X814184D01*
Y243290D01*
X814468D01*
Y243575D01*
X814752D01*
Y243859D01*
X815037D01*
Y244143D01*
X815605D01*
Y244428D01*
X815890D01*
Y244712D01*
X816458D01*
Y244996D01*
X816743D01*
Y245281D01*
X817311D01*
Y245565D01*
X817880D01*
Y245849D01*
X818449D01*
Y246134D01*
X819017D01*
Y246418D01*
X819870D01*
Y246702D01*
X820723D01*
Y246987D01*
X821576D01*
Y247271D01*
X822714D01*
Y247555D01*
X824420D01*
Y259497D01*
X824135D01*
Y273713D01*
X823851D01*
Y274282D01*
X823567D01*
Y274851D01*
X823282D01*
Y275419D01*
X822998D01*
Y275704D01*
X822714D01*
Y275988D01*
X822429D01*
Y276272D01*
X822145D01*
Y276557D01*
X821576D01*
Y276841D01*
X821292D01*
Y277125D01*
X820439D01*
Y277410D01*
X815321D01*
Y277694D01*
X769544D01*
Y277978D01*
D02*
G37*
G36*
X746798Y242437D02*
X743670D01*
Y242153D01*
X741964D01*
Y241869D01*
X741111D01*
Y241584D01*
X740258D01*
Y241300D01*
X739405D01*
Y241016D01*
X738837D01*
Y240731D01*
X738552D01*
Y240447D01*
X737984D01*
Y240163D01*
X737415D01*
Y239878D01*
X737131D01*
Y239594D01*
X736846D01*
Y239310D01*
X736278D01*
Y239025D01*
X735993D01*
Y238741D01*
X735709D01*
Y238457D01*
X735425D01*
Y238172D01*
X735140D01*
Y237888D01*
X734856D01*
Y237604D01*
X734572D01*
Y237035D01*
X734287D01*
Y236751D01*
X734003D01*
Y236466D01*
X733719D01*
Y235898D01*
X733435D01*
Y235329D01*
X733150D01*
Y235045D01*
X732866D01*
Y234192D01*
X732581D01*
Y233623D01*
X732297D01*
Y233055D01*
X732013D01*
Y231917D01*
X731729D01*
Y230211D01*
X731444D01*
Y227084D01*
X731729D01*
Y225378D01*
X732013D01*
Y224240D01*
X732297D01*
Y223387D01*
X732581D01*
Y222819D01*
X732866D01*
Y222250D01*
X733150D01*
Y221681D01*
X733435D01*
Y221113D01*
X733719D01*
Y220828D01*
X734003D01*
Y220260D01*
X734287D01*
Y219975D01*
X734572D01*
Y219691D01*
X734856D01*
Y219122D01*
X735140D01*
Y218838D01*
X735425D01*
Y218554D01*
X735709D01*
Y218269D01*
X735993D01*
Y217985D01*
X736278D01*
Y217701D01*
X736846D01*
Y217416D01*
X737131D01*
Y217132D01*
X737415D01*
Y216848D01*
X737984D01*
Y216563D01*
X738268D01*
Y216279D01*
X738837D01*
Y215995D01*
X739405D01*
Y215710D01*
X739974D01*
Y215426D01*
X740827D01*
Y215142D01*
X741680D01*
Y214858D01*
X742817D01*
Y214573D01*
X744808D01*
Y214289D01*
X746514D01*
Y214573D01*
X748504D01*
Y214858D01*
X749641D01*
Y215142D01*
X750494D01*
Y215426D01*
X751063D01*
Y215710D01*
X751916D01*
Y215995D01*
X752200D01*
Y216279D01*
X752769D01*
Y216563D01*
X753053D01*
Y216848D01*
X753622D01*
Y217416D01*
X753906D01*
Y217701D01*
X754190D01*
Y217985D01*
X754475D01*
Y218269D01*
X754759D01*
Y218838D01*
X755043D01*
Y219122D01*
X755328D01*
Y219691D01*
X755612D01*
Y220260D01*
X755896D01*
Y220828D01*
X756181D01*
Y221397D01*
X756465D01*
Y221966D01*
X756749D01*
Y222819D01*
X757034D01*
Y223672D01*
X757318D01*
Y224809D01*
X757602D01*
Y226515D01*
X757887D01*
Y229643D01*
X757602D01*
Y231633D01*
X757318D01*
Y232770D01*
X757034D01*
Y233623D01*
X756749D01*
Y234192D01*
X756465D01*
Y235045D01*
X756181D01*
Y235613D01*
X755896D01*
Y236182D01*
X755612D01*
Y236466D01*
X755328D01*
Y237035D01*
X755043D01*
Y237604D01*
X754759D01*
Y237888D01*
X754475D01*
Y238172D01*
X754190D01*
Y238457D01*
X753906D01*
Y239025D01*
X753622D01*
Y239310D01*
X753337D01*
Y239594D01*
X753053D01*
Y239878D01*
X752769D01*
Y240163D01*
X752485D01*
Y240447D01*
X752200D01*
Y240731D01*
X751631D01*
Y241016D01*
X751063D01*
Y241300D01*
X750210D01*
Y241584D01*
X749641D01*
Y241869D01*
X748504D01*
Y242153D01*
X746798D01*
Y242437D01*
D02*
G37*
G36*
X828684D02*
X823282D01*
Y242153D01*
X822145D01*
Y241869D01*
X821292D01*
Y241584D01*
X820439D01*
Y241300D01*
X819870D01*
Y241016D01*
X819302D01*
Y240731D01*
X818733D01*
Y240447D01*
X818449D01*
Y240163D01*
X817880D01*
Y239878D01*
X817596D01*
Y239594D01*
X817027D01*
Y239310D01*
X816743D01*
Y239025D01*
X816458D01*
Y238741D01*
X816174D01*
Y238457D01*
X815890D01*
Y238172D01*
X815605D01*
Y237888D01*
X815321D01*
Y237604D01*
X815037D01*
Y237319D01*
X814752D01*
Y236751D01*
X814468D01*
Y236466D01*
X814184D01*
Y235898D01*
X813899D01*
Y235613D01*
X813615D01*
Y235045D01*
X813331D01*
Y234476D01*
X813046D01*
Y233623D01*
X812762D01*
Y233055D01*
X812478D01*
Y231917D01*
X812193D01*
Y230495D01*
X811909D01*
Y226799D01*
X812193D01*
Y225093D01*
X812478D01*
Y224240D01*
X812762D01*
Y223387D01*
X813046D01*
Y222819D01*
X813331D01*
Y222250D01*
X813615D01*
Y221681D01*
X813899D01*
Y221113D01*
X814184D01*
Y220828D01*
X814468D01*
Y220260D01*
X814752D01*
Y219975D01*
X815037D01*
Y219691D01*
X815321D01*
Y219122D01*
X815605D01*
Y218838D01*
X815890D01*
Y218554D01*
X816174D01*
Y218269D01*
X816458D01*
Y217985D01*
X816743D01*
Y217701D01*
X817027D01*
Y217416D01*
X817596D01*
Y217132D01*
X817880D01*
Y216848D01*
X818164D01*
Y216563D01*
X818733D01*
Y216279D01*
X819302D01*
Y215995D01*
X819586D01*
Y215710D01*
X820155D01*
Y215426D01*
X820723D01*
Y215142D01*
X821576D01*
Y214858D01*
X822429D01*
Y214573D01*
X823567D01*
Y214289D01*
X825557D01*
Y214004D01*
X827831D01*
Y214289D01*
X829822D01*
Y214573D01*
X830675D01*
Y214858D01*
X831528D01*
Y215142D01*
X832381D01*
Y215426D01*
X832949D01*
Y215710D01*
X833518D01*
Y215995D01*
X833802D01*
Y216279D01*
X834371D01*
Y216563D01*
X834655D01*
Y216848D01*
X834940D01*
Y217132D01*
X835508D01*
Y217416D01*
X835793D01*
Y217701D01*
X836077D01*
Y217985D01*
X836361D01*
Y218269D01*
X836646D01*
Y218838D01*
X836930D01*
Y219122D01*
X837214D01*
Y219407D01*
X837499D01*
Y219975D01*
X837783D01*
Y220260D01*
X838067D01*
Y220828D01*
X838352D01*
Y221397D01*
X838636D01*
Y221966D01*
X838920D01*
Y222819D01*
X839205D01*
Y223672D01*
X839489D01*
Y224809D01*
X839773D01*
Y227368D01*
X840058D01*
Y228790D01*
X839773D01*
Y231348D01*
X839489D01*
Y232486D01*
X839205D01*
Y233339D01*
X838920D01*
Y234192D01*
X838636D01*
Y234760D01*
X838352D01*
Y235329D01*
X838067D01*
Y235898D01*
X837783D01*
Y236466D01*
X837499D01*
Y237035D01*
X837214D01*
Y237319D01*
X836930D01*
Y237604D01*
X836646D01*
Y237888D01*
X836361D01*
Y238457D01*
X836077D01*
Y238741D01*
X835793D01*
Y239025D01*
X835224D01*
Y239310D01*
X834940D01*
Y239594D01*
X834655D01*
Y239878D01*
X834087D01*
Y240163D01*
X833802D01*
Y240447D01*
X833234D01*
Y240731D01*
X832665D01*
Y241016D01*
X832096D01*
Y241300D01*
X831528D01*
Y241584D01*
X830675D01*
Y241869D01*
X829822D01*
Y242153D01*
X828684D01*
Y242437D01*
D02*
G37*
G36*
X785467Y242153D02*
X783476D01*
Y241869D01*
X781486D01*
Y241584D01*
X780349D01*
Y241300D01*
X779496D01*
Y241016D01*
X778927D01*
Y240731D01*
X778358D01*
Y240447D01*
X777790D01*
Y240163D01*
X777221D01*
Y239878D01*
X776937D01*
Y239594D01*
X776368D01*
Y239310D01*
X776084D01*
Y239025D01*
X775799D01*
Y238741D01*
X775515D01*
Y238457D01*
X775231D01*
Y238172D01*
X774946D01*
Y237888D01*
X774662D01*
Y237604D01*
X774378D01*
Y237319D01*
X774093D01*
Y237035D01*
X773809D01*
Y236751D01*
X773525D01*
Y236466D01*
X773240D01*
Y235898D01*
X772956D01*
Y235613D01*
X772672D01*
Y235045D01*
X772387D01*
Y234476D01*
X772103D01*
Y233908D01*
X771819D01*
Y233339D01*
X771535D01*
Y232486D01*
X771250D01*
Y231633D01*
X770966D01*
Y230211D01*
X770682D01*
Y225093D01*
X770966D01*
Y223672D01*
X771250D01*
Y222819D01*
X771535D01*
Y221966D01*
X771819D01*
Y221397D01*
X772103D01*
Y220828D01*
X772387D01*
Y220260D01*
X772672D01*
Y219691D01*
X772956D01*
Y219122D01*
X773240D01*
Y218838D01*
X773525D01*
Y218554D01*
X773809D01*
Y217985D01*
X774093D01*
Y217701D01*
X774378D01*
Y217416D01*
X774662D01*
Y217132D01*
X774946D01*
Y216848D01*
X775231D01*
Y216563D01*
X775515D01*
Y216279D01*
X775799D01*
Y215995D01*
X776084D01*
Y215710D01*
X776368D01*
Y215426D01*
X776652D01*
Y215142D01*
X777221D01*
Y214858D01*
X777505D01*
Y214573D01*
X778074D01*
Y214289D01*
X778643D01*
Y214004D01*
X779211D01*
Y213720D01*
X779780D01*
Y213436D01*
X780349D01*
Y213151D01*
X781202D01*
Y212867D01*
X782339D01*
Y212583D01*
X785467D01*
Y212299D01*
X785751D01*
Y212583D01*
X788310D01*
Y212867D01*
X789447D01*
Y213151D01*
X790016D01*
Y213436D01*
X790869D01*
Y213720D01*
X791438D01*
Y214004D01*
X792006D01*
Y214289D01*
X792290D01*
Y214573D01*
X792859D01*
Y214858D01*
X793143D01*
Y215142D01*
X793712D01*
Y215426D01*
X793996D01*
Y215710D01*
X794281D01*
Y215995D01*
X794565D01*
Y216279D01*
X794849D01*
Y216563D01*
X795134D01*
Y216848D01*
X795418D01*
Y217132D01*
X795702D01*
Y217416D01*
X795987D01*
Y217701D01*
X796271D01*
Y218269D01*
X796555D01*
Y218554D01*
X796840D01*
Y219122D01*
X797124D01*
Y219691D01*
X797408D01*
Y219975D01*
X797693D01*
Y220828D01*
X797977D01*
Y221397D01*
X798261D01*
Y222250D01*
X798546D01*
Y223387D01*
X798830D01*
Y224809D01*
X799114D01*
Y226515D01*
Y226799D01*
Y228505D01*
X798830D01*
Y230211D01*
X798546D01*
Y231348D01*
X798261D01*
Y232201D01*
X797977D01*
Y233055D01*
X797693D01*
Y233623D01*
X797408D01*
Y234192D01*
X797124D01*
Y234476D01*
X796840D01*
Y235045D01*
X796555D01*
Y235613D01*
X796271D01*
Y235898D01*
X795987D01*
Y236182D01*
X795702D01*
Y236751D01*
X795418D01*
Y237035D01*
X795134D01*
Y237319D01*
X794849D01*
Y237604D01*
X794565D01*
Y237888D01*
X794281D01*
Y238172D01*
X793996D01*
Y238457D01*
X793712D01*
Y238741D01*
X793428D01*
Y239025D01*
X792859D01*
Y239310D01*
X792575D01*
Y239594D01*
X792006D01*
Y239878D01*
X791722D01*
Y240163D01*
X791153D01*
Y240447D01*
X790584D01*
Y240731D01*
X790016D01*
Y241016D01*
X789447D01*
Y241300D01*
X788594D01*
Y241584D01*
X787457D01*
Y241869D01*
X785467D01*
Y242153D01*
D02*
G37*
%LPD*%
G36*
X805232Y308970D02*
X805516D01*
Y308117D01*
X805801D01*
Y306127D01*
X806085D01*
Y305274D01*
X806369D01*
Y304705D01*
X806654D01*
Y304137D01*
X806938D01*
Y303568D01*
X807222D01*
Y303284D01*
X807507D01*
Y302715D01*
X807791D01*
Y302431D01*
X808075D01*
Y302146D01*
X808360D01*
Y301862D01*
X808644D01*
Y301293D01*
X808928D01*
Y301009D01*
X809497D01*
Y300725D01*
X809781D01*
Y300440D01*
X810066D01*
Y300156D01*
X810350D01*
Y299872D01*
X810919D01*
Y299587D01*
X812340D01*
Y299303D01*
X812909D01*
Y298734D01*
X813193D01*
Y297597D01*
X812909D01*
Y297313D01*
X812340D01*
Y297028D01*
X810919D01*
Y297313D01*
X810066D01*
Y297597D01*
X809497D01*
Y297881D01*
X809213D01*
Y298166D01*
X808644D01*
Y298450D01*
X808360D01*
Y298734D01*
X808075D01*
Y299019D01*
X807507D01*
Y299303D01*
X807222D01*
Y299587D01*
X806938D01*
Y299872D01*
X806654D01*
Y300440D01*
X806369D01*
Y300725D01*
X806085D01*
Y301009D01*
X805801D01*
Y301293D01*
X805516D01*
Y301862D01*
X805232D01*
Y302146D01*
X804948D01*
Y302715D01*
X804663D01*
Y303284D01*
X804379D01*
Y303852D01*
X804095D01*
Y304421D01*
X803810D01*
Y305274D01*
X803526D01*
Y306411D01*
X803242D01*
Y308686D01*
X803526D01*
Y308970D01*
X803810D01*
Y309254D01*
X805232D01*
Y308970D01*
D02*
G37*
G36*
X802242Y274566D02*
X817880D01*
Y274282D01*
X818449D01*
Y273998D01*
X818733D01*
Y273713D01*
X819017D01*
Y273429D01*
X819302D01*
Y273145D01*
X819586D01*
Y272292D01*
X819870D01*
Y253242D01*
X820155D01*
Y251252D01*
X819870D01*
Y250399D01*
X819586D01*
Y250114D01*
X819302D01*
Y249830D01*
X819017D01*
Y249545D01*
X818733D01*
Y249261D01*
X817596D01*
Y248977D01*
X816458D01*
Y248692D01*
X815890D01*
Y248408D01*
X815037D01*
Y248124D01*
X814468D01*
Y247840D01*
X814184D01*
Y247555D01*
X813615D01*
Y247271D01*
X813046D01*
Y246987D01*
X812762D01*
Y246702D01*
X812193D01*
Y246418D01*
X811909D01*
Y246134D01*
X811625D01*
Y245849D01*
X811340D01*
Y245565D01*
X810772D01*
Y245281D01*
X810488D01*
Y244996D01*
X810203D01*
Y244712D01*
X809919D01*
Y244428D01*
X809634D01*
Y244143D01*
X809350D01*
Y243575D01*
X809066D01*
Y243290D01*
X808782D01*
Y243006D01*
X808497D01*
Y242722D01*
X808213D01*
Y242153D01*
X807928D01*
Y241016D01*
X807644D01*
Y239594D01*
X807360D01*
Y239310D01*
X807076D01*
Y239025D01*
X806791D01*
Y238741D01*
X806507D01*
Y238457D01*
X804801D01*
Y238741D01*
X804232D01*
Y239025D01*
X803948D01*
Y239310D01*
X803664D01*
Y240163D01*
X803379D01*
Y241300D01*
X803095D01*
Y242153D01*
X802811D01*
Y242722D01*
X802526D01*
Y243290D01*
X802242D01*
Y243859D01*
X801958D01*
Y244143D01*
X801673D01*
Y244712D01*
X801389D01*
Y244996D01*
X801105D01*
Y245281D01*
X800820D01*
Y245565D01*
X800536D01*
Y245849D01*
X800252D01*
Y246134D01*
X799967D01*
Y246418D01*
X799683D01*
Y246702D01*
X799399D01*
Y246987D01*
X798830D01*
Y247271D01*
X798546D01*
Y247555D01*
X798261D01*
Y247840D01*
X797693D01*
Y248124D01*
X797408D01*
Y248408D01*
X796840D01*
Y248692D01*
X796271D01*
Y248977D01*
X795702D01*
Y249261D01*
X795134D01*
Y249545D01*
X794281D01*
Y249830D01*
X793428D01*
Y250114D01*
X792575D01*
Y250399D01*
X791438D01*
Y250683D01*
X790016D01*
Y250967D01*
X787741D01*
Y251252D01*
X783476D01*
Y250967D01*
X781202D01*
Y250683D01*
X779496D01*
Y250399D01*
X778358D01*
Y250114D01*
X777505D01*
Y249830D01*
X776368D01*
Y249545D01*
X775799D01*
Y249261D01*
X774946D01*
Y248977D01*
X774378D01*
Y248692D01*
X773809D01*
Y248408D01*
X773240D01*
Y248124D01*
X772672D01*
Y247840D01*
X772103D01*
Y247555D01*
X771535D01*
Y247271D01*
X771250D01*
Y246987D01*
X770682D01*
Y246702D01*
X770397D01*
Y246418D01*
X770113D01*
Y246134D01*
X769544D01*
Y245849D01*
X769260D01*
Y245565D01*
X768976D01*
Y245281D01*
X768691D01*
Y244996D01*
X768407D01*
Y244712D01*
X768122D01*
Y244428D01*
X767838D01*
Y244143D01*
X767554D01*
Y243859D01*
X767270D01*
Y243290D01*
X766985D01*
Y243006D01*
X766701D01*
Y242722D01*
X766417D01*
Y242153D01*
X766132D01*
Y241869D01*
X765848D01*
Y241584D01*
X765279D01*
Y241300D01*
X763573D01*
Y241584D01*
X763289D01*
Y241869D01*
X763005D01*
Y242153D01*
X762720D01*
Y242437D01*
X762436D01*
Y243006D01*
X762152D01*
Y243575D01*
X761867D01*
Y243859D01*
X761583D01*
Y244428D01*
X761299D01*
Y244712D01*
X761014D01*
Y244996D01*
X760730D01*
Y245281D01*
X760446D01*
Y245565D01*
X760161D01*
Y245849D01*
X759877D01*
Y246134D01*
X759593D01*
Y246418D01*
X759024D01*
Y246702D01*
X758740D01*
Y246987D01*
X758171D01*
Y247271D01*
X757602D01*
Y247555D01*
X757034D01*
Y247840D01*
X756465D01*
Y248124D01*
X755896D01*
Y248408D01*
X755043D01*
Y248692D01*
X754475D01*
Y248977D01*
X753906D01*
Y249261D01*
X752485D01*
Y249545D01*
X751916D01*
Y249830D01*
X751631D01*
Y250114D01*
X751347D01*
Y250399D01*
X750779D01*
Y250683D01*
X750494D01*
Y251252D01*
X750210D01*
Y251820D01*
X749926D01*
Y252389D01*
X749641D01*
Y254095D01*
X749357D01*
Y269733D01*
X749072D01*
Y273429D01*
X749357D01*
Y273998D01*
X749641D01*
Y274282D01*
X749926D01*
Y274566D01*
X750210D01*
Y274851D01*
X802242D01*
Y274566D01*
D02*
G37*
%LPC*%
G36*
X780917Y270586D02*
X753622D01*
Y258644D01*
X753906D01*
Y253242D01*
X754190D01*
Y252957D01*
X755612D01*
Y252673D01*
X756749D01*
Y252389D01*
X757602D01*
Y252104D01*
X758171D01*
Y251820D01*
X759024D01*
Y251536D01*
X759593D01*
Y251252D01*
X760161D01*
Y250967D01*
X760730D01*
Y250683D01*
X761014D01*
Y250399D01*
X761583D01*
Y250114D01*
X761867D01*
Y249830D01*
X762436D01*
Y249545D01*
X762720D01*
Y249261D01*
X763005D01*
Y248977D01*
X763289D01*
Y248692D01*
X763573D01*
Y248408D01*
X764142D01*
Y248124D01*
X764426D01*
Y247555D01*
X764995D01*
Y247840D01*
X765279D01*
Y248124D01*
X765564D01*
Y248408D01*
X765848D01*
Y248692D01*
X766132D01*
Y248977D01*
X766701D01*
Y249261D01*
X766985D01*
Y249545D01*
X767270D01*
Y249830D01*
X767554D01*
Y250114D01*
X768122D01*
Y250399D01*
X768407D01*
Y250683D01*
X768976D01*
Y250967D01*
X769260D01*
Y251252D01*
X769828D01*
Y251536D01*
X770397D01*
Y251820D01*
X770682D01*
Y252104D01*
X771250D01*
Y252389D01*
X771819D01*
Y252673D01*
X772387D01*
Y252957D01*
X773240D01*
Y253242D01*
X773809D01*
Y253526D01*
X774662D01*
Y253810D01*
X775515D01*
Y254095D01*
X776368D01*
Y254379D01*
X777505D01*
Y254663D01*
X778643D01*
Y254948D01*
X780064D01*
Y255232D01*
X782055D01*
Y255516D01*
X789163D01*
Y255232D01*
X791153D01*
Y254948D01*
X792290D01*
Y254663D01*
X793712D01*
Y254379D01*
X794565D01*
Y254095D01*
X795418D01*
Y253810D01*
X796271D01*
Y253526D01*
X796840D01*
Y253242D01*
X797693D01*
Y252957D01*
X798261D01*
Y252673D01*
X798830D01*
Y252389D01*
X799399D01*
Y252104D01*
X799683D01*
Y251820D01*
X800252D01*
Y251536D01*
X800820D01*
Y251252D01*
X801105D01*
Y250967D01*
X801389D01*
Y250683D01*
X801958D01*
Y250399D01*
X802242D01*
Y250114D01*
X802526D01*
Y249830D01*
X802811D01*
Y249545D01*
X803095D01*
Y249261D01*
X803379D01*
Y248977D01*
X803664D01*
Y248692D01*
X803948D01*
Y248408D01*
X804232D01*
Y248124D01*
X804517D01*
Y247840D01*
X804801D01*
Y247555D01*
X805085D01*
Y246987D01*
X805370D01*
Y246702D01*
X805654D01*
Y246418D01*
X805938D01*
Y246702D01*
X806223D01*
Y246987D01*
X806507D01*
Y247271D01*
X806791D01*
Y247840D01*
X807360D01*
Y248124D01*
X807644D01*
Y248408D01*
X807928D01*
Y248692D01*
X808213D01*
Y248977D01*
X808497D01*
Y249261D01*
X808782D01*
Y249545D01*
X809066D01*
Y249830D01*
X809634D01*
Y250114D01*
X809919D01*
Y250399D01*
X810488D01*
Y250683D01*
X810772D01*
Y250967D01*
X811340D01*
Y251252D01*
X811625D01*
Y251536D01*
X812193D01*
Y251820D01*
X812762D01*
Y252104D01*
X813331D01*
Y252389D01*
X813899D01*
Y252673D01*
X814752D01*
Y252957D01*
X815605D01*
Y261772D01*
Y262056D01*
Y268880D01*
X815321D01*
Y270301D01*
X780917D01*
Y270586D01*
D02*
G37*
%LPD*%
G36*
X782908Y264331D02*
X784045D01*
Y264046D01*
X784329D01*
Y263762D01*
X784614D01*
Y263478D01*
X784898D01*
Y262909D01*
X785182D01*
Y261772D01*
X784898D01*
Y261203D01*
X784614D01*
Y260634D01*
X784045D01*
Y260350D01*
X783476D01*
Y260066D01*
X772387D01*
Y259781D01*
X766701D01*
Y260066D01*
X766132D01*
Y260350D01*
X765564D01*
Y260634D01*
X765279D01*
Y261203D01*
X764995D01*
Y262909D01*
X765279D01*
Y263478D01*
X765564D01*
Y263762D01*
X766132D01*
Y264046D01*
X766985D01*
Y264331D01*
X780917D01*
Y264615D01*
X782908D01*
Y264331D01*
D02*
G37*
G36*
X796271Y264899D02*
X796840D01*
Y264615D01*
X797408D01*
Y264331D01*
X797693D01*
Y264046D01*
Y263762D01*
X797977D01*
Y263193D01*
X798261D01*
Y262056D01*
X798546D01*
Y261487D01*
X798261D01*
Y260919D01*
X797977D01*
Y260634D01*
X797693D01*
Y260350D01*
X797408D01*
Y260066D01*
X796840D01*
Y259781D01*
X795987D01*
Y259497D01*
X794849D01*
Y259781D01*
X794281D01*
Y260066D01*
X793712D01*
Y260350D01*
X793428D01*
Y260919D01*
X793143D01*
Y261487D01*
X792859D01*
Y263478D01*
X793143D01*
Y264046D01*
X793428D01*
Y264331D01*
X793712D01*
Y264615D01*
X794281D01*
Y264899D01*
X794849D01*
Y265184D01*
X796271D01*
Y264899D01*
D02*
G37*
G36*
X807644Y266889D02*
X808782D01*
Y266605D01*
X809350D01*
Y266321D01*
X809919D01*
Y266037D01*
X810203D01*
Y265752D01*
X810488D01*
Y265468D01*
X810772D01*
Y265184D01*
X811056D01*
Y264899D01*
X811340D01*
Y264331D01*
X811625D01*
Y264046D01*
X811909D01*
Y263193D01*
X812193D01*
Y260350D01*
X811909D01*
Y259497D01*
X811625D01*
Y258928D01*
X811340D01*
Y258644D01*
X811056D01*
Y258360D01*
X810772D01*
Y258075D01*
X810488D01*
Y257791D01*
X810203D01*
Y257507D01*
X809634D01*
Y257222D01*
X809066D01*
Y256938D01*
X808497D01*
Y256654D01*
X805654D01*
Y256938D01*
X804801D01*
Y257222D01*
X804232D01*
Y257507D01*
X803948D01*
Y257791D01*
X803379D01*
Y258075D01*
X803095D01*
Y258360D01*
X802811D01*
Y258644D01*
X802526D01*
Y259213D01*
X802242D01*
Y259781D01*
X801958D01*
Y260350D01*
X801673D01*
Y263478D01*
X801958D01*
Y264331D01*
X802242D01*
Y264615D01*
X802526D01*
Y265184D01*
X802811D01*
Y265468D01*
X803095D01*
Y265752D01*
X803379D01*
Y266037D01*
X803664D01*
Y266321D01*
X804232D01*
Y266605D01*
X804801D01*
Y266889D01*
X805938D01*
Y267174D01*
X807644D01*
Y266889D01*
D02*
G37*
G36*
X760446Y268027D02*
X761299D01*
Y267743D01*
X761583D01*
Y267174D01*
X761867D01*
Y266037D01*
X762152D01*
Y256369D01*
X761867D01*
Y255801D01*
X761583D01*
Y255516D01*
X761299D01*
Y255232D01*
X760730D01*
Y254948D01*
X759308D01*
Y255232D01*
X758740D01*
Y255516D01*
X758171D01*
Y255801D01*
X757887D01*
Y256938D01*
X757602D01*
Y267174D01*
X757887D01*
Y267743D01*
X758171D01*
Y268027D01*
X759308D01*
Y268311D01*
X760446D01*
Y268027D01*
D02*
G37*
G36*
X746514Y236466D02*
X747367D01*
Y236182D01*
X747935D01*
Y235898D01*
X748220D01*
Y235613D01*
X748788D01*
Y235329D01*
X749072D01*
Y235045D01*
X749357D01*
Y234760D01*
X749641D01*
Y234476D01*
X749926D01*
Y234192D01*
X750210D01*
Y233623D01*
X750494D01*
Y233339D01*
X750779D01*
Y232770D01*
X751063D01*
Y232201D01*
X751347D01*
Y231064D01*
X751631D01*
Y226799D01*
X751347D01*
Y225662D01*
X751063D01*
Y225093D01*
X750779D01*
Y224525D01*
X750494D01*
Y223956D01*
X750210D01*
Y223387D01*
X749926D01*
Y223103D01*
X749641D01*
Y222819D01*
X749357D01*
Y222534D01*
X749072D01*
Y222250D01*
X748788D01*
Y221966D01*
X748504D01*
Y221681D01*
X748220D01*
Y221397D01*
X747935D01*
Y221113D01*
X747367D01*
Y220828D01*
X746798D01*
Y220544D01*
X746229D01*
Y220260D01*
X745376D01*
Y219975D01*
X741964D01*
Y220260D01*
X741111D01*
Y220544D01*
X740543D01*
Y220828D01*
X739974D01*
Y221113D01*
X739690D01*
Y221397D01*
X739405D01*
Y221681D01*
X739121D01*
Y221966D01*
X738837D01*
Y222250D01*
X738552D01*
Y222534D01*
X738268D01*
Y222819D01*
X737984D01*
Y223387D01*
X737699D01*
Y223956D01*
X737415D01*
Y224525D01*
X737131D01*
Y225378D01*
X736846D01*
Y227084D01*
X736562D01*
Y228221D01*
X736846D01*
Y230211D01*
X737131D01*
Y231064D01*
X737415D01*
Y231633D01*
X737699D01*
Y232201D01*
X737984D01*
Y232770D01*
X738268D01*
Y233339D01*
X738552D01*
Y233623D01*
X738837D01*
Y233908D01*
X739121D01*
Y234192D01*
X739405D01*
Y234476D01*
X739690D01*
Y234760D01*
X739974D01*
Y235045D01*
X740258D01*
Y235329D01*
X740543D01*
Y235613D01*
X741111D01*
Y235898D01*
X741680D01*
Y236182D01*
X742249D01*
Y236466D01*
X743386D01*
Y236751D01*
X746514D01*
Y236466D01*
D02*
G37*
%LPC*%
G36*
X745376Y233623D02*
X743386D01*
Y233339D01*
X742533D01*
Y233055D01*
X741964D01*
Y232770D01*
X741680D01*
Y232486D01*
X741396D01*
Y232201D01*
X741111D01*
Y231917D01*
X740827D01*
Y231633D01*
X740543D01*
Y231064D01*
X740258D01*
Y230211D01*
X739974D01*
Y229074D01*
Y228790D01*
Y227368D01*
X740258D01*
Y226799D01*
X740543D01*
Y226231D01*
X740827D01*
Y225662D01*
X741111D01*
Y225378D01*
X741396D01*
Y225093D01*
X741680D01*
Y224809D01*
X742249D01*
Y224525D01*
X742817D01*
Y224240D01*
X745376D01*
Y224525D01*
X745945D01*
Y224809D01*
X746514D01*
Y225093D01*
X746798D01*
Y225378D01*
X747082D01*
Y225662D01*
X747367D01*
Y225946D01*
X747651D01*
Y226515D01*
X747935D01*
Y227084D01*
X748220D01*
Y228221D01*
X748504D01*
Y229358D01*
X748220D01*
Y230780D01*
X747935D01*
Y231348D01*
X747651D01*
Y231917D01*
X747367D01*
Y232201D01*
X747082D01*
Y232486D01*
X746798D01*
Y232770D01*
X746229D01*
Y233055D01*
X745945D01*
Y233339D01*
X745376D01*
Y233623D01*
D02*
G37*
%LPD*%
G36*
X826694Y235898D02*
X827831D01*
Y235613D01*
X828400D01*
Y235329D01*
X828969D01*
Y235045D01*
X829538D01*
Y234760D01*
X829822D01*
Y234476D01*
X830106D01*
Y234192D01*
X830675D01*
Y233908D01*
X830959D01*
Y233339D01*
X831243D01*
Y233055D01*
X831528D01*
Y232770D01*
X831812D01*
Y232486D01*
X832096D01*
Y231917D01*
X832381D01*
Y231348D01*
X832665D01*
Y230495D01*
X832949D01*
Y229358D01*
X833234D01*
Y226799D01*
X832949D01*
Y225378D01*
X832665D01*
Y224525D01*
X832381D01*
Y223956D01*
X832096D01*
Y223672D01*
X831812D01*
Y223103D01*
X831528D01*
Y222819D01*
X831243D01*
Y222534D01*
X830959D01*
Y222250D01*
X830675D01*
Y221966D01*
X830390D01*
Y221681D01*
X829822D01*
Y221397D01*
X829538D01*
Y221113D01*
X828969D01*
Y220828D01*
X828116D01*
Y220544D01*
X826694D01*
Y220260D01*
X824988D01*
Y220544D01*
X823567D01*
Y220828D01*
X822714D01*
Y221113D01*
X822145D01*
Y221397D01*
X821576D01*
Y221681D01*
X821292D01*
Y221966D01*
X821008D01*
Y222250D01*
X820439D01*
Y222534D01*
X820155D01*
Y222819D01*
X819870D01*
Y223103D01*
X819586D01*
Y223387D01*
X819302D01*
Y223956D01*
X819017D01*
Y224240D01*
X818733D01*
Y224809D01*
X818449D01*
Y225378D01*
X818164D01*
Y226231D01*
X817880D01*
Y227368D01*
X817596D01*
Y230211D01*
X817880D01*
Y231064D01*
X818164D01*
Y231917D01*
X818449D01*
Y232486D01*
X818733D01*
Y233055D01*
X819017D01*
Y233339D01*
X819302D01*
Y233623D01*
X819586D01*
Y233908D01*
X819870D01*
Y234192D01*
X820155D01*
Y234476D01*
X820439D01*
Y234760D01*
X820723D01*
Y235045D01*
X821292D01*
Y235329D01*
X821861D01*
Y235613D01*
X822429D01*
Y235898D01*
X823282D01*
Y236182D01*
X826694D01*
Y235898D01*
D02*
G37*
%LPC*%
G36*
X825841Y232486D02*
X824135D01*
Y232201D01*
X823567D01*
Y231917D01*
X823282D01*
Y231633D01*
X822998D01*
Y231348D01*
X822714D01*
Y231064D01*
X822429D01*
Y230780D01*
X822145D01*
Y230211D01*
X821861D01*
Y229358D01*
X821576D01*
Y227084D01*
X821861D01*
Y226231D01*
X822145D01*
Y225662D01*
X822429D01*
Y225093D01*
X822714D01*
Y224809D01*
X822998D01*
Y224525D01*
X823282D01*
Y224240D01*
X823851D01*
Y223956D01*
X824420D01*
Y223672D01*
X825841D01*
Y223956D01*
X826694D01*
Y224240D01*
X826979D01*
Y224525D01*
X827263D01*
Y224809D01*
X827547D01*
Y225093D01*
X827831D01*
Y225662D01*
X828116D01*
Y226231D01*
X828400D01*
Y227368D01*
X828684D01*
Y228505D01*
X828400D01*
Y229927D01*
X828116D01*
Y230495D01*
X827831D01*
Y230780D01*
X827547D01*
Y231348D01*
X827263D01*
Y231633D01*
X826979D01*
Y231917D01*
X826410D01*
Y232201D01*
X825841D01*
Y232486D01*
D02*
G37*
%LPD*%
G36*
X786888Y236751D02*
X788026D01*
Y236466D01*
X788594D01*
Y236182D01*
X789163D01*
Y235898D01*
X789732D01*
Y235613D01*
X790016D01*
Y235329D01*
X790300D01*
Y235045D01*
X790584D01*
Y234760D01*
X790869D01*
Y234476D01*
X791153D01*
Y234192D01*
X791438D01*
Y233908D01*
X791722D01*
Y233623D01*
X792006D01*
Y233055D01*
X792290D01*
Y232486D01*
X792575D01*
Y231917D01*
X792859D01*
Y231064D01*
X793143D01*
Y229927D01*
X793428D01*
Y227084D01*
X793143D01*
Y225946D01*
X792859D01*
Y225093D01*
X792575D01*
Y224525D01*
X792290D01*
Y223956D01*
X792006D01*
Y223387D01*
X791722D01*
Y223103D01*
X791438D01*
Y222819D01*
X791153D01*
Y222534D01*
X790869D01*
Y222250D01*
X790584D01*
Y221966D01*
X790300D01*
Y221681D01*
X790016D01*
Y221397D01*
X789732D01*
Y221113D01*
X789163D01*
Y220828D01*
X788594D01*
Y220544D01*
X787741D01*
Y220260D01*
X786888D01*
Y219975D01*
X783476D01*
Y220260D01*
X782623D01*
Y220544D01*
X781770D01*
Y220828D01*
X781202D01*
Y221113D01*
X780917D01*
Y221397D01*
X780349D01*
Y221681D01*
X780064D01*
Y221966D01*
X779780D01*
Y222250D01*
X779496D01*
Y222534D01*
X779211D01*
Y222819D01*
X778927D01*
Y223103D01*
X778643D01*
Y223672D01*
X778358D01*
Y223956D01*
X778074D01*
Y224525D01*
X777790D01*
Y225093D01*
X777505D01*
Y225946D01*
X777221D01*
Y227368D01*
X776937D01*
Y229643D01*
X777221D01*
Y231064D01*
X777505D01*
Y231917D01*
X777790D01*
Y232486D01*
X778074D01*
Y233055D01*
X778358D01*
Y233339D01*
X778643D01*
Y233908D01*
X778927D01*
Y234192D01*
X779211D01*
Y234476D01*
X779496D01*
Y234760D01*
X779780D01*
Y235045D01*
X780064D01*
Y235329D01*
X780349D01*
Y235613D01*
X780917D01*
Y235898D01*
X781202D01*
Y236182D01*
X781770D01*
Y236466D01*
X782339D01*
Y236751D01*
X783476D01*
Y237035D01*
X786888D01*
Y236751D01*
D02*
G37*
%LPC*%
G36*
X786320Y233055D02*
X784045D01*
Y232770D01*
X783192D01*
Y232486D01*
X782623D01*
Y232201D01*
X782339D01*
Y231917D01*
X782055D01*
Y231633D01*
X781770D01*
Y231348D01*
X781486D01*
Y231064D01*
X781202D01*
Y230495D01*
X780917D01*
Y227368D01*
X781202D01*
Y226799D01*
X781486D01*
Y226515D01*
X781770D01*
Y226231D01*
X782055D01*
Y225946D01*
X782339D01*
Y225662D01*
X782623D01*
Y225378D01*
X783192D01*
Y225093D01*
X783761D01*
Y224809D01*
X784898D01*
Y224525D01*
X785751D01*
Y224809D01*
X787172D01*
Y225093D01*
X787741D01*
Y225378D01*
X788026D01*
Y225662D01*
X788594D01*
Y225946D01*
X788878D01*
Y226515D01*
X789163D01*
Y226799D01*
X789447D01*
Y227652D01*
X789732D01*
Y229074D01*
Y229358D01*
Y229643D01*
X789447D01*
Y230495D01*
X789163D01*
Y231064D01*
X788878D01*
Y231348D01*
X788594D01*
Y231633D01*
X788310D01*
Y231917D01*
X788026D01*
Y232201D01*
X787457D01*
Y232486D01*
X786888D01*
Y232770D01*
X786320D01*
Y233055D01*
D02*
G37*
%LPD*%
D18*
X659130Y730250D02*
D03*
X684530D02*
D03*
X671830D02*
D03*
X786130D02*
D03*
X773430D02*
D03*
X760730D02*
D03*
X748030D02*
D03*
X735330D02*
D03*
X722630D02*
D03*
X709930D02*
D03*
X697230D02*
D03*
X798830D02*
D03*
D19*
X406360Y659440D02*
D03*
D20*
X386360Y599440D02*
D03*
D21*
X406360Y539440D02*
D03*
X528360Y659440D02*
D03*
Y539440D02*
D03*
D22*
X289560Y497205D02*
D03*
D23*
Y522605D02*
D03*
Y548005D02*
D03*
Y573405D02*
D03*
Y598805D02*
D03*
Y624205D02*
D03*
Y649605D02*
D03*
Y675005D02*
D03*
Y700405D02*
D03*
Y725805D02*
D03*
Y751205D02*
D03*
Y776605D02*
D03*
Y802005D02*
D03*
Y827405D02*
D03*
Y852805D02*
D03*
X137160D02*
D03*
Y827405D02*
D03*
Y802005D02*
D03*
Y776605D02*
D03*
Y751205D02*
D03*
Y725805D02*
D03*
Y700405D02*
D03*
Y675005D02*
D03*
Y649605D02*
D03*
Y624205D02*
D03*
Y598805D02*
D03*
Y573405D02*
D03*
Y548005D02*
D03*
Y522605D02*
D03*
Y497205D02*
D03*
D24*
X99060Y421080D02*
D03*
Y386080D02*
D03*
D25*
Y351080D02*
D03*
D26*
X407210Y468630D02*
D03*
D27*
X511810D02*
D03*
D28*
X412750Y292100D02*
D03*
X225662Y49618D02*
D03*
X412352D02*
D03*
X597772D02*
D03*
Y292188D02*
D03*
X60960Y624840D02*
D03*
Y650240D02*
D03*
Y675640D02*
D03*
Y701040D02*
D03*
Y726440D02*
D03*
Y751840D02*
D03*
Y777240D02*
D03*
D29*
X387350Y292100D02*
D03*
X200262Y49618D02*
D03*
X386952D02*
D03*
X572372D02*
D03*
Y292188D02*
D03*
D30*
X354330Y439420D02*
D03*
X367030D02*
D03*
D31*
X379730D02*
D03*
D32*
X655320Y636270D02*
D03*
Y610870D02*
D03*
Y585470D02*
D03*
Y560070D02*
D03*
Y534670D02*
D03*
Y509270D02*
D03*
Y483870D02*
D03*
Y458470D02*
D03*
Y433070D02*
D03*
Y407670D02*
D03*
X807720D02*
D03*
Y433070D02*
D03*
Y458470D02*
D03*
Y483870D02*
D03*
Y509270D02*
D03*
Y534670D02*
D03*
Y560070D02*
D03*
Y585470D02*
D03*
Y610870D02*
D03*
Y636270D02*
D03*
X862860Y16870D02*
D03*
Y894080D02*
D03*
X22860Y16870D02*
D03*
Y894080D02*
D03*
D33*
X659130Y878380D02*
D03*
D34*
X60960Y599440D02*
D03*
D35*
X585470Y784860D02*
D03*
X560070D02*
D03*
X462280D02*
D03*
X487680D02*
D03*
D36*
X317500Y675640D02*
D03*
Y599440D02*
D03*
X519430Y421640D02*
D03*
Y345440D02*
D03*
X560070Y720090D02*
D03*
X483870D02*
D03*
X463550D02*
D03*
X387350D02*
D03*
D37*
X233680Y434340D02*
D03*
X377190Y514350D02*
D03*
X339090Y572770D02*
D03*
X250190Y336550D02*
D03*
X219710Y384810D02*
D03*
D38*
X430530Y560070D02*
D03*
X503462Y562338D02*
D03*
X599440Y610870D02*
D03*
D39*
X786130Y528320D02*
D03*
X773290Y659593D02*
D03*
X786130Y674370D02*
D03*
X722630Y660400D02*
D03*
X684530D02*
D03*
X671830Y674370D02*
D03*
X709930Y749300D02*
D03*
X735330Y674370D02*
D03*
X760730D02*
D03*
M02*
